<?xml version="1.0" encoding="UTF-8" standalone="no"?><svg xmlns="http://www.w3.org/2000/svg" xmlns:xlink="http://www.w3.org/1999/xlink" contentScriptType="application/ecmascript" contentStyleType="text/css" height="863px" preserveAspectRatio="none" style="width:1555px;height:863px;" version="1.1" viewBox="0 0 1555 863" width="1555px" zoomAndPan="magnify"><defs><filter height="300%" id="f1kazpftkcdqz0" width="300%" x="-1" y="-1"><feGaussianBlur result="blurOut" stdDeviation="2.0"/><feColorMatrix in="blurOut" result="blurOut2" type="matrix" values="0 0 0 0 0 0 0 0 0 0 0 0 0 0 0 0 0 0 .4 0"/><feOffset dx="4.0" dy="4.0" in="blurOut2" result="blurOut3"/><feBlend in="SourceGraphic" in2="blurOut3" mode="normal"/></filter></defs><g><rect fill="#FFFFFF" filter="url(#f1kazpftkcdqz0)" height="635.9766" style="stroke:#A80036;stroke-width:1.0;" width="10" x="27.5" y="121.9609"/><rect fill="#FFFFFF" filter="url(#f1kazpftkcdqz0)" height="272.4609" style="stroke:#A80036;stroke-width:1.0;" width="10" x="355.5" y="121.9609"/><rect fill="#FFFFFF" filter="url(#f1kazpftkcdqz0)" height="30.3516" style="stroke:#A80036;stroke-width:1.0;" width="10" x="355.5" y="424.7734"/><rect fill="#FFFFFF" filter="url(#f1kazpftkcdqz0)" height="272.4609" style="stroke:#A80036;stroke-width:1.0;" width="10" x="355.5" y="485.4766"/><rect fill="#FFFFFF" filter="url(#f1kazpftkcdqz0)" height="211.7578" style="stroke:#A80036;stroke-width:1.0;" width="10" x="582.5" y="152.3125"/><rect fill="#FFFFFF" filter="url(#f1kazpftkcdqz0)" height="211.7578" style="stroke:#A80036;stroke-width:1.0;" width="10" x="582.5" y="515.8281"/><rect fill="#FFFFFF" filter="url(#f1kazpftkcdqz0)" height="121.0547" style="stroke:#A80036;stroke-width:1.0;" width="10" x="737.5" y="182.6641"/><rect fill="#FFFFFF" filter="url(#f1kazpftkcdqz0)" height="121.0547" style="stroke:#A80036;stroke-width:1.0;" width="10" x="737.5" y="546.1797"/><rect fill="#FFFFFF" filter="url(#f1kazpftkcdqz0)" height="60.3516" style="stroke:#A80036;stroke-width:1.0;" width="10" x="884.5" y="213.0156"/><rect fill="#FFFFFF" filter="url(#f1kazpftkcdqz0)" height="60.3516" style="stroke:#A80036;stroke-width:1.0;" width="10" x="884.5" y="576.5313"/><rect fill="#FFFFFF" filter="url(#f1kazpftkcdqz0)" height="30" style="stroke:#A80036;stroke-width:1.0;" width="10" x="1024" y="243.3672"/><rect fill="#FFFFFF" filter="url(#f1kazpftkcdqz0)" height="30" style="stroke:#A80036;stroke-width:1.0;" width="10" x="1024" y="334.0703"/><rect fill="#FFFFFF" filter="url(#f1kazpftkcdqz0)" height="30" style="stroke:#A80036;stroke-width:1.0;" width="10" x="1154" y="606.8828"/><rect fill="#FFFFFF" filter="url(#f1kazpftkcdqz0)" height="30" style="stroke:#A80036;stroke-width:1.0;" width="10" x="1154" y="697.5859"/><line style="stroke:#A80036;stroke-width:1.0;stroke-dasharray:5.0,5.0;" x1="32" x2="32" y1="89.6094" y2="775.9375"/><line style="stroke:#A80036;stroke-width:1.0;stroke-dasharray:5.0,5.0;" x1="360" x2="360" y1="89.6094" y2="775.9375"/><line style="stroke:#A80036;stroke-width:1.0;stroke-dasharray:5.0,5.0;" x1="587" x2="587" y1="89.6094" y2="775.9375"/><line style="stroke:#A80036;stroke-width:1.0;stroke-dasharray:5.0,5.0;" x1="742.5" x2="742.5" y1="89.6094" y2="775.9375"/><line style="stroke:#A80036;stroke-width:1.0;stroke-dasharray:5.0,5.0;" x1="889.5" x2="889.5" y1="89.6094" y2="775.9375"/><line style="stroke:#A80036;stroke-width:1.0;stroke-dasharray:5.0,5.0;" x1="1028.5" x2="1028.5" y1="89.6094" y2="775.9375"/><line style="stroke:#A80036;stroke-width:1.0;stroke-dasharray:5.0,5.0;" x1="1158.5" x2="1158.5" y1="89.6094" y2="775.9375"/><line style="stroke:#A80036;stroke-width:1.0;stroke-dasharray:5.0,5.0;" x1="1310.5" x2="1310.5" y1="89.6094" y2="775.9375"/><line style="stroke:#A80036;stroke-width:1.0;stroke-dasharray:5.0,5.0;" x1="1474.5" x2="1474.5" y1="89.6094" y2="775.9375"/><text fill="#000000" font-family="sans-serif" font-size="14" lengthAdjust="spacing" textLength="49" x="5" y="86.5332">ACTOR</text><ellipse cx="32.5" cy="15" fill="#FEFECE" filter="url(#f1kazpftkcdqz0)" rx="8" ry="8" style="stroke:#A80036;stroke-width:2.0;"/><path d="M32.5,23 L32.5,50 M19.5,31 L45.5,31 M32.5,50 L19.5,65 M32.5,50 L45.5,65 " fill="none" filter="url(#f1kazpftkcdqz0)" style="stroke:#A80036;stroke-width:2.0;"/><text fill="#000000" font-family="sans-serif" font-size="14" lengthAdjust="spacing" textLength="49" x="5" y="789.4707">ACTOR</text><ellipse cx="32.5" cy="802.5469" fill="#FEFECE" filter="url(#f1kazpftkcdqz0)" rx="8" ry="8" style="stroke:#A80036;stroke-width:2.0;"/><path d="M32.5,810.5469 L32.5,837.5469 M19.5,818.5469 L45.5,818.5469 M32.5,837.5469 L19.5,852.5469 M32.5,837.5469 L45.5,852.5469 " fill="none" filter="url(#f1kazpftkcdqz0)" style="stroke:#A80036;stroke-width:2.0;"/><rect fill="#FEFECE" filter="url(#f1kazpftkcdqz0)" height="49.2188" style="stroke:#A80036;stroke-width:1.5;" width="125" x="296" y="35.3906"/><text fill="#000000" font-family="sans-serif" font-size="14" lengthAdjust="spacing" textLength="111" x="303" y="56.9238">&lt;&lt;presentation&gt;&gt;</text><text fill="#000000" font-family="sans-serif" font-size="14" lengthAdjust="spacing" textLength="53" x="332" y="74.5332">ObjectUI</text><rect fill="#FEFECE" filter="url(#f1kazpftkcdqz0)" height="49.2188" style="stroke:#A80036;stroke-width:1.5;" width="125" x="296" y="774.9375"/><text fill="#000000" font-family="sans-serif" font-size="14" lengthAdjust="spacing" textLength="111" x="303" y="796.4707">&lt;&lt;presentation&gt;&gt;</text><text fill="#000000" font-family="sans-serif" font-size="14" lengthAdjust="spacing" textLength="53" x="332" y="814.0801">ObjectUI</text><rect fill="#FEFECE" filter="url(#f1kazpftkcdqz0)" height="49.2188" style="stroke:#A80036;stroke-width:1.5;" width="117" x="527" y="35.3906"/><text fill="#000000" font-family="sans-serif" font-size="14" lengthAdjust="spacing" textLength="100" x="535.5" y="56.9238">&lt;&lt;application&gt;&gt;</text><text fill="#000000" font-family="sans-serif" font-size="14" lengthAdjust="spacing" textLength="103" x="534" y="74.5332">ObjectController</text><rect fill="#FEFECE" filter="url(#f1kazpftkcdqz0)" height="49.2188" style="stroke:#A80036;stroke-width:1.5;" width="117" x="527" y="774.9375"/><text fill="#000000" font-family="sans-serif" font-size="14" lengthAdjust="spacing" textLength="100" x="535.5" y="796.4707">&lt;&lt;application&gt;&gt;</text><text fill="#000000" font-family="sans-serif" font-size="14" lengthAdjust="spacing" textLength="103" x="534" y="814.0801">ObjectController</text><rect fill="#FEFECE" filter="url(#f1kazpftkcdqz0)" height="49.2188" style="stroke:#A80036;stroke-width:1.5;" width="136" x="672.5" y="35.3906"/><text fill="#000000" font-family="sans-serif" font-size="14" lengthAdjust="spacing" textLength="105" x="688" y="56.9238">&lt;&lt;persistance&gt;&gt;</text><text fill="#000000" font-family="sans-serif" font-size="14" lengthAdjust="spacing" textLength="122" x="679.5" y="74.5332">PersistenceContext</text><rect fill="#FEFECE" filter="url(#f1kazpftkcdqz0)" height="49.2188" style="stroke:#A80036;stroke-width:1.5;" width="136" x="672.5" y="774.9375"/><text fill="#000000" font-family="sans-serif" font-size="14" lengthAdjust="spacing" textLength="105" x="688" y="796.4707">&lt;&lt;persistance&gt;&gt;</text><text fill="#000000" font-family="sans-serif" font-size="14" lengthAdjust="spacing" textLength="122" x="679.5" y="814.0801">PersistenceContext</text><rect fill="#FEFECE" filter="url(#f1kazpftkcdqz0)" height="49.2188" style="stroke:#A80036;stroke-width:1.5;" width="130" x="822.5" y="35.3906"/><text fill="#000000" font-family="sans-serif" font-size="14" lengthAdjust="spacing" textLength="75" x="850" y="56.9238">&lt;&lt;factory&gt;&gt;</text><text fill="#000000" font-family="sans-serif" font-size="14" lengthAdjust="spacing" textLength="116" x="829.5" y="74.5332">RepositoryFactory</text><rect fill="#FEFECE" filter="url(#f1kazpftkcdqz0)" height="49.2188" style="stroke:#A80036;stroke-width:1.5;" width="130" x="822.5" y="774.9375"/><text fill="#000000" font-family="sans-serif" font-size="14" lengthAdjust="spacing" textLength="75" x="850" y="796.4707">&lt;&lt;factory&gt;&gt;</text><text fill="#000000" font-family="sans-serif" font-size="14" lengthAdjust="spacing" textLength="116" x="829.5" y="814.0801">RepositoryFactory</text><text fill="#000000" font-family="sans-serif" font-size="14" lengthAdjust="spacing" textLength="95" x="978.5" y="68.9238">&lt;&lt;repository&gt;&gt;</text><text fill="#000000" font-family="sans-serif" font-size="14" lengthAdjust="spacing" textLength="119" x="966.5" y="86.5332">ElementRepository</text><path d="M1011,18.3906 C1011,8.3906 1029,8.3906 1029,8.3906 C1029,8.3906 1047,8.3906 1047,18.3906 L1047,44.3906 C1047,54.3906 1029,54.3906 1029,54.3906 C1029,54.3906 1011,54.3906 1011,44.3906 L1011,18.3906 " fill="#FEFECE" filter="url(#f1kazpftkcdqz0)" style="stroke:#000000;stroke-width:1.5;"/><path d="M1011,18.3906 C1011,28.3906 1029,28.3906 1029,28.3906 C1029,28.3906 1047,28.3906 1047,18.3906 " fill="none" style="stroke:#000000;stroke-width:1.5;"/><text fill="#000000" font-family="sans-serif" font-size="14" lengthAdjust="spacing" textLength="95" x="978.5" y="789.4707">&lt;&lt;repository&gt;&gt;</text><text fill="#000000" font-family="sans-serif" font-size="14" lengthAdjust="spacing" textLength="119" x="966.5" y="807.0801">ElementRepository</text><path d="M1011,820.1563 C1011,810.1563 1029,810.1563 1029,810.1563 C1029,810.1563 1047,810.1563 1047,820.1563 L1047,846.1563 C1047,856.1563 1029,856.1563 1029,856.1563 C1029,856.1563 1011,856.1563 1011,846.1563 L1011,820.1563 " fill="#FEFECE" filter="url(#f1kazpftkcdqz0)" style="stroke:#000000;stroke-width:1.5;"/><path d="M1011,820.1563 C1011,830.1563 1029,830.1563 1029,830.1563 C1029,830.1563 1047,830.1563 1047,820.1563 " fill="none" style="stroke:#000000;stroke-width:1.5;"/><text fill="#000000" font-family="sans-serif" font-size="14" lengthAdjust="spacing" textLength="95" x="1108.5" y="68.9238">&lt;&lt;repository&gt;&gt;</text><text fill="#000000" font-family="sans-serif" font-size="14" lengthAdjust="spacing" textLength="109" x="1101.5" y="86.5332">ObjectRepository</text><path d="M1141,18.3906 C1141,8.3906 1159,8.3906 1159,8.3906 C1159,8.3906 1177,8.3906 1177,18.3906 L1177,44.3906 C1177,54.3906 1159,54.3906 1159,54.3906 C1159,54.3906 1141,54.3906 1141,44.3906 L1141,18.3906 " fill="#FEFECE" filter="url(#f1kazpftkcdqz0)" style="stroke:#000000;stroke-width:1.5;"/><path d="M1141,18.3906 C1141,28.3906 1159,28.3906 1159,28.3906 C1159,28.3906 1177,28.3906 1177,18.3906 " fill="none" style="stroke:#000000;stroke-width:1.5;"/><text fill="#000000" font-family="sans-serif" font-size="14" lengthAdjust="spacing" textLength="95" x="1108.5" y="789.4707">&lt;&lt;repository&gt;&gt;</text><text fill="#000000" font-family="sans-serif" font-size="14" lengthAdjust="spacing" textLength="109" x="1101.5" y="807.0801">ObjectRepository</text><path d="M1141,820.1563 C1141,810.1563 1159,810.1563 1159,810.1563 C1159,810.1563 1177,810.1563 1177,820.1563 L1177,846.1563 C1177,856.1563 1159,856.1563 1159,856.1563 C1159,856.1563 1141,856.1563 1141,846.1563 L1141,820.1563 " fill="#FEFECE" filter="url(#f1kazpftkcdqz0)" style="stroke:#000000;stroke-width:1.5;"/><path d="M1141,820.1563 C1141,830.1563 1159,830.1563 1159,830.1563 C1159,830.1563 1177,830.1563 1177,820.1563 " fill="none" style="stroke:#000000;stroke-width:1.5;"/><rect fill="#FEFECE" filter="url(#f1kazpftkcdqz0)" height="31.6094" style="stroke:#A80036;stroke-width:1.5;" width="160" x="1230.5" y="49"/><rect fill="#FEFECE" filter="url(#f1kazpftkcdqz0)" height="31.6094" style="stroke:#A80036;stroke-width:1.5;" width="160" x="1226.5" y="53"/><text fill="#000000" font-family="sans-serif" font-size="14" lengthAdjust="spacing" textLength="146" x="1233.5" y="74.5332">&lt;&lt;java interface&gt;&gt; lista</text><rect fill="#FEFECE" filter="url(#f1kazpftkcdqz0)" height="31.6094" style="stroke:#A80036;stroke-width:1.5;" width="160" x="1230.5" y="774.9375"/><rect fill="#FEFECE" filter="url(#f1kazpftkcdqz0)" height="31.6094" style="stroke:#A80036;stroke-width:1.5;" width="160" x="1226.5" y="778.9375"/><text fill="#000000" font-family="sans-serif" font-size="14" lengthAdjust="spacing" textLength="146" x="1233.5" y="800.4707">&lt;&lt;java interface&gt;&gt; lista</text><rect fill="#FEFECE" filter="url(#f1kazpftkcdqz0)" height="31.6094" style="stroke:#A80036;stroke-width:1.5;" width="137" x="1404.5" y="53"/><text fill="#000000" font-family="sans-serif" font-size="14" lengthAdjust="spacing" textLength="123" x="1411.5" y="74.5332">&lt;&lt;domain&gt;&gt; Object</text><rect fill="#FEFECE" filter="url(#f1kazpftkcdqz0)" height="31.6094" style="stroke:#A80036;stroke-width:1.5;" width="137" x="1404.5" y="774.9375"/><text fill="#000000" font-family="sans-serif" font-size="14" lengthAdjust="spacing" textLength="123" x="1411.5" y="796.4707">&lt;&lt;domain&gt;&gt; Object</text><rect fill="#FFFFFF" filter="url(#f1kazpftkcdqz0)" height="635.9766" style="stroke:#A80036;stroke-width:1.0;" width="10" x="27.5" y="121.9609"/><rect fill="#FFFFFF" filter="url(#f1kazpftkcdqz0)" height="272.4609" style="stroke:#A80036;stroke-width:1.0;" width="10" x="355.5" y="121.9609"/><rect fill="#FFFFFF" filter="url(#f1kazpftkcdqz0)" height="30.3516" style="stroke:#A80036;stroke-width:1.0;" width="10" x="355.5" y="424.7734"/><rect fill="#FFFFFF" filter="url(#f1kazpftkcdqz0)" height="272.4609" style="stroke:#A80036;stroke-width:1.0;" width="10" x="355.5" y="485.4766"/><rect fill="#FFFFFF" filter="url(#f1kazpftkcdqz0)" height="211.7578" style="stroke:#A80036;stroke-width:1.0;" width="10" x="582.5" y="152.3125"/><rect fill="#FFFFFF" filter="url(#f1kazpftkcdqz0)" height="211.7578" style="stroke:#A80036;stroke-width:1.0;" width="10" x="582.5" y="515.8281"/><rect fill="#FFFFFF" filter="url(#f1kazpftkcdqz0)" height="121.0547" style="stroke:#A80036;stroke-width:1.0;" width="10" x="737.5" y="182.6641"/><rect fill="#FFFFFF" filter="url(#f1kazpftkcdqz0)" height="121.0547" style="stroke:#A80036;stroke-width:1.0;" width="10" x="737.5" y="546.1797"/><rect fill="#FFFFFF" filter="url(#f1kazpftkcdqz0)" height="60.3516" style="stroke:#A80036;stroke-width:1.0;" width="10" x="884.5" y="213.0156"/><rect fill="#FFFFFF" filter="url(#f1kazpftkcdqz0)" height="60.3516" style="stroke:#A80036;stroke-width:1.0;" width="10" x="884.5" y="576.5313"/><rect fill="#FFFFFF" filter="url(#f1kazpftkcdqz0)" height="30" style="stroke:#A80036;stroke-width:1.0;" width="10" x="1024" y="243.3672"/><rect fill="#FFFFFF" filter="url(#f1kazpftkcdqz0)" height="30" style="stroke:#A80036;stroke-width:1.0;" width="10" x="1024" y="334.0703"/><rect fill="#FFFFFF" filter="url(#f1kazpftkcdqz0)" height="30" style="stroke:#A80036;stroke-width:1.0;" width="10" x="1154" y="606.8828"/><rect fill="#FFFFFF" filter="url(#f1kazpftkcdqz0)" height="30" style="stroke:#A80036;stroke-width:1.0;" width="10" x="1154" y="697.5859"/><polygon fill="#A80036" points="343.5,117.9609,353.5,121.9609,343.5,125.9609,347.5,121.9609" style="stroke:#A80036;stroke-width:1.0;"/><line style="stroke:#A80036;stroke-width:1.0;" x1="37.5" x2="349.5" y1="121.9609" y2="121.9609"/><text fill="#000000" font-family="sans-serif" font-size="13" font-weight="bold" lengthAdjust="spacing" textLength="7" x="44.5" y="117.1045">1</text><text fill="#000000" font-family="sans-serif" font-size="13" lengthAdjust="spacing" textLength="233" x="55.5" y="117.1045">Inicia a seleção de um elemento da lista</text><polygon fill="#A80036" points="570.5,148.3125,580.5,152.3125,570.5,156.3125,574.5,152.3125" style="stroke:#A80036;stroke-width:1.0;"/><line style="stroke:#A80036;stroke-width:1.0;" x1="365.5" x2="576.5" y1="152.3125" y2="152.3125"/><text fill="#000000" font-family="sans-serif" font-size="13" font-weight="bold" lengthAdjust="spacing" textLength="7" x="372.5" y="147.4561">2</text><text fill="#000000" font-family="sans-serif" font-size="13" lengthAdjust="spacing" textLength="90" x="383.5" y="147.4561">lista= getLista()</text><polygon fill="#A80036" points="725.5,178.6641,735.5,182.6641,725.5,186.6641,729.5,182.6641" style="stroke:#A80036;stroke-width:1.0;"/><line style="stroke:#A80036;stroke-width:1.0;" x1="592.5" x2="731.5" y1="182.6641" y2="182.6641"/><text fill="#000000" font-family="sans-serif" font-size="13" font-weight="bold" lengthAdjust="spacing" textLength="7" x="599.5" y="177.8076">3</text><text fill="#000000" font-family="sans-serif" font-size="13" lengthAdjust="spacing" textLength="75" x="610.5" y="177.8076">repositories()</text><polygon fill="#A80036" points="872.5,209.0156,882.5,213.0156,872.5,217.0156,876.5,213.0156" style="stroke:#A80036;stroke-width:1.0;"/><line style="stroke:#A80036;stroke-width:1.0;" x1="747.5" x2="878.5" y1="213.0156" y2="213.0156"/><text fill="#000000" font-family="sans-serif" font-size="13" font-weight="bold" lengthAdjust="spacing" textLength="7" x="754.5" y="208.1592">4</text><text fill="#000000" font-family="sans-serif" font-size="13" lengthAdjust="spacing" textLength="44" x="765.5" y="208.1592">create()</text><polygon fill="#A80036" points="1012,239.3672,1022,243.3672,1012,247.3672,1016,243.3672" style="stroke:#A80036;stroke-width:1.0;"/><line style="stroke:#A80036;stroke-width:1.0;" x1="894.5" x2="1018" y1="243.3672" y2="243.3672"/><text fill="#000000" font-family="sans-serif" font-size="13" font-weight="bold" lengthAdjust="spacing" textLength="7" x="901.5" y="238.5107">5</text><text fill="#000000" font-family="sans-serif" font-size="13" lengthAdjust="spacing" textLength="44" x="912.5" y="238.5107">create()</text><polygon fill="#A80036" points="603.5,299.7188,593.5,303.7188,603.5,307.7188,599.5,303.7188" style="stroke:#A80036;stroke-width:1.0;"/><line style="stroke:#A80036;stroke-width:1.0;stroke-dasharray:2.0,2.0;" x1="597.5" x2="741.5" y1="303.7188" y2="303.7188"/><text fill="#000000" font-family="sans-serif" font-size="13" font-weight="bold" lengthAdjust="spacing" textLength="7" x="609.5" y="298.8623">6</text><text fill="#000000" font-family="sans-serif" font-size="13" lengthAdjust="spacing" textLength="110" x="620.5" y="298.8623">ElementRepository</text><polygon fill="#A80036" points="1012,330.0703,1022,334.0703,1012,338.0703,1016,334.0703" style="stroke:#A80036;stroke-width:1.0;"/><line style="stroke:#A80036;stroke-width:1.0;" x1="592.5" x2="1018" y1="334.0703" y2="334.0703"/><text fill="#000000" font-family="sans-serif" font-size="13" font-weight="bold" lengthAdjust="spacing" textLength="7" x="599.5" y="329.2139">7</text><text fill="#000000" font-family="sans-serif" font-size="13" lengthAdjust="spacing" textLength="86" x="610.5" y="329.2139">lista=getLista()</text><polygon fill="#A80036" points="48.5,390.4219,38.5,394.4219,48.5,398.4219,44.5,394.4219" style="stroke:#A80036;stroke-width:1.0;"/><line style="stroke:#A80036;stroke-width:1.0;stroke-dasharray:2.0,2.0;" x1="42.5" x2="359.5" y1="394.4219" y2="394.4219"/><text fill="#000000" font-family="sans-serif" font-size="13" font-weight="bold" lengthAdjust="spacing" textLength="7" x="54.5" y="389.5654">8</text><text fill="#000000" font-family="sans-serif" font-size="13" lengthAdjust="spacing" textLength="283" x="65.5" y="389.5654">apresenta a lista e solicita que selecione um/uns</text><polygon fill="#A80036" points="343.5,420.7734,353.5,424.7734,343.5,428.7734,347.5,424.7734" style="stroke:#A80036;stroke-width:1.0;"/><line style="stroke:#A80036;stroke-width:1.0;" x1="37.5" x2="349.5" y1="424.7734" y2="424.7734"/><text fill="#000000" font-family="sans-serif" font-size="13" font-weight="bold" lengthAdjust="spacing" textLength="7" x="44.5" y="419.917">9</text><text fill="#000000" font-family="sans-serif" font-size="13" lengthAdjust="spacing" textLength="288" x="55.5" y="419.917">seleciona o(s) elemento(s) que pretende adicionar</text><polygon fill="#A80036" points="48.5,451.125,38.5,455.125,48.5,459.125,44.5,455.125" style="stroke:#A80036;stroke-width:1.0;"/><line style="stroke:#A80036;stroke-width:1.0;stroke-dasharray:2.0,2.0;" x1="42.5" x2="359.5" y1="455.125" y2="455.125"/><text fill="#000000" font-family="sans-serif" font-size="13" font-weight="bold" lengthAdjust="spacing" textLength="14" x="54.5" y="450.2686">10</text><text fill="#000000" font-family="sans-serif" font-size="13" lengthAdjust="spacing" textLength="248" x="72.5" y="450.2686">mostra a informação e solicita confirmação</text><polygon fill="#A80036" points="343.5,481.4766,353.5,485.4766,343.5,489.4766,347.5,485.4766" style="stroke:#A80036;stroke-width:1.0;"/><line style="stroke:#A80036;stroke-width:1.0;" x1="37.5" x2="349.5" y1="485.4766" y2="485.4766"/><text fill="#000000" font-family="sans-serif" font-size="13" font-weight="bold" lengthAdjust="spacing" textLength="14" x="44.5" y="480.6201">11</text><text fill="#000000" font-family="sans-serif" font-size="13" lengthAdjust="spacing" textLength="49" x="62.5" y="480.6201">confirma</text><polygon fill="#A80036" points="570.5,511.8281,580.5,515.8281,570.5,519.8281,574.5,515.8281" style="stroke:#A80036;stroke-width:1.0;"/><line style="stroke:#A80036;stroke-width:1.0;" x1="365.5" x2="576.5" y1="515.8281" y2="515.8281"/><text fill="#000000" font-family="sans-serif" font-size="13" font-weight="bold" lengthAdjust="spacing" textLength="14" x="372.5" y="510.9717">12</text><text fill="#000000" font-family="sans-serif" font-size="13" lengthAdjust="spacing" textLength="180" x="390.5" y="510.9717">adicionarElemento(idElemento)</text><polygon fill="#A80036" points="725.5,542.1797,735.5,546.1797,725.5,550.1797,729.5,546.1797" style="stroke:#A80036;stroke-width:1.0;"/><line style="stroke:#A80036;stroke-width:1.0;" x1="592.5" x2="731.5" y1="546.1797" y2="546.1797"/><text fill="#000000" font-family="sans-serif" font-size="13" font-weight="bold" lengthAdjust="spacing" textLength="14" x="599.5" y="541.3232">13</text><text fill="#000000" font-family="sans-serif" font-size="13" lengthAdjust="spacing" textLength="75" x="617.5" y="541.3232">repositories()</text><polygon fill="#A80036" points="872.5,572.5313,882.5,576.5313,872.5,580.5313,876.5,576.5313" style="stroke:#A80036;stroke-width:1.0;"/><line style="stroke:#A80036;stroke-width:1.0;" x1="747.5" x2="878.5" y1="576.5313" y2="576.5313"/><text fill="#000000" font-family="sans-serif" font-size="13" font-weight="bold" lengthAdjust="spacing" textLength="14" x="754.5" y="571.6748">14</text><text fill="#000000" font-family="sans-serif" font-size="13" lengthAdjust="spacing" textLength="44" x="772.5" y="571.6748">create()</text><polygon fill="#A80036" points="1142,602.8828,1152,606.8828,1142,610.8828,1146,606.8828" style="stroke:#A80036;stroke-width:1.0;"/><line style="stroke:#A80036;stroke-width:1.0;" x1="894.5" x2="1148" y1="606.8828" y2="606.8828"/><text fill="#000000" font-family="sans-serif" font-size="13" font-weight="bold" lengthAdjust="spacing" textLength="14" x="901.5" y="602.0264">15</text><text fill="#000000" font-family="sans-serif" font-size="13" lengthAdjust="spacing" textLength="44" x="919.5" y="602.0264">create()</text><polygon fill="#A80036" points="603.5,663.2344,593.5,667.2344,603.5,671.2344,599.5,667.2344" style="stroke:#A80036;stroke-width:1.0;"/><line style="stroke:#A80036;stroke-width:1.0;stroke-dasharray:2.0,2.0;" x1="597.5" x2="741.5" y1="667.2344" y2="667.2344"/><text fill="#000000" font-family="sans-serif" font-size="13" font-weight="bold" lengthAdjust="spacing" textLength="14" x="609.5" y="662.3779">16</text><text fill="#000000" font-family="sans-serif" font-size="13" lengthAdjust="spacing" textLength="100" x="627.5" y="662.3779">ObjectRepository</text><polygon fill="#A80036" points="1142,693.5859,1152,697.5859,1142,701.5859,1146,697.5859" style="stroke:#A80036;stroke-width:1.0;"/><line style="stroke:#A80036;stroke-width:1.0;" x1="592.5" x2="1148" y1="697.5859" y2="697.5859"/><text fill="#000000" font-family="sans-serif" font-size="13" font-weight="bold" lengthAdjust="spacing" textLength="14" x="599.5" y="692.7295">17</text><text fill="#000000" font-family="sans-serif" font-size="13" lengthAdjust="spacing" textLength="180" x="617.5" y="692.7295">adicionarElemento(idElemento)</text><polygon fill="#A80036" points="43.5,753.9375,33.5,757.9375,43.5,761.9375,39.5,757.9375" style="stroke:#A80036;stroke-width:1.0;"/><line style="stroke:#A80036;stroke-width:1.0;stroke-dasharray:2.0,2.0;" x1="37.5" x2="359.5" y1="757.9375" y2="757.9375"/><text fill="#000000" font-family="sans-serif" font-size="13" font-weight="bold" lengthAdjust="spacing" textLength="14" x="49.5" y="753.0811">18</text><text fill="#000000" font-family="sans-serif" font-size="13" lengthAdjust="spacing" textLength="188" x="67.5" y="753.0811">informa do sucesso da operação</text><!--MD5=[81ff28649de40109811b99f369a75944]
@startuml
autonumber

actor "ACTOR" as ACT
participant "<<presentation>>\nObjectUI" as UI
participant "<<application>>\nObjectController" as CONTROLLER
participant "<<persistance>>\nPersistenceContext" as PERS
participant "<<factory>>\nRepositoryFactory" as FACT
database  "<<repository>>\nElementRepository" as REPO1
database  "<<repository>>\nObjectRepository" as REPO2
collections "<<java interface>> lista"
participant "<<domain>> Object"



ACT -> UI : Inicia a seleção de um elemento da lista
activate ACT

activate UI
    UI->CONTROLLER: lista= getLista()
    activate CONTROLLER
        CONTROLLER->PERS: repositories()
        activate PERS
            PERS->FACT: create()
            activate FACT
                FACT-> REPO1: create()
                activate REPO1
                deactivate REPO1
            deactivate  FACT
            PERS- -> CONTROLLER: ElementRepository
        deactivate PERS
        CONTROLLER->REPO1: lista=getLista()
        activate REPO1
        deactivate REPO1
    deactivate CONTROLLER
    UI- -> ACT: apresenta a lista e solicita que selecione um/uns
deactivate UI

ACT -> UI : seleciona o(s) elemento(s) que pretende adicionar
activate UI

    UI- -> ACT: mostra a informação e solicita confirmação

deactivate UI

ACT -> UI : confirma
activate UI
    UI-> CONTROLLER: adicionarElemento(idElemento)
    activate CONTROLLER



        CONTROLLER->PERS: repositories()
                activate PERS
                    PERS->FACT: create()
                    activate FACT
                        FACT-> REPO2: create()
                        activate REPO2
                        deactivate REPO2
                    deactivate  FACT
                    PERS- -> CONTROLLER: ObjectRepository
                deactivate PERS


        CONTROLLER -> REPO2: adicionarElemento(idElemento)
                    activate REPO2
                    deactivate REPO2
    deactivate CONTROLLER
    UI- -> ACT: informa do sucesso da operação
deactivate UI






deactivate ACT

@enduml

PlantUML version 1.2021.2(Sun Mar 07 11:10:27 GMT 2021)
(GPL source distribution)
Java Runtime: OpenJDK Runtime Environment
JVM: OpenJDK 64-Bit Server VM
Default Encoding: Cp1252
Language: pt
Country: PT
--></g></svg>