<?xml version="1.0" encoding="UTF-8" standalone="no"?><svg xmlns="http://www.w3.org/2000/svg" xmlns:xlink="http://www.w3.org/1999/xlink" contentScriptType="application/ecmascript" contentStyleType="text/css" height="583px" preserveAspectRatio="none" style="width:1101px;height:583px;" version="1.1" viewBox="0 0 1101 583" width="1101px" zoomAndPan="magnify"><defs><filter height="300%" id="ft4crz90xmjpj" width="300%" x="-1" y="-1"><feGaussianBlur result="blurOut" stdDeviation="2.0"/><feColorMatrix in="blurOut" result="blurOut2" type="matrix" values="0 0 0 0 0 0 0 0 0 0 0 0 0 0 0 0 0 0 .4 0"/><feOffset dx="4.0" dy="4.0" in="blurOut2" result="blurOut3"/><feBlend in="SourceGraphic" in2="blurOut3" mode="normal"/></filter></defs><g><!--MD5=[cacd3d18b727cb321ef8926f1d659b83]
entity CatalogoRepository--><path d="M6,540 C6,530 78.5,530 78.5,530 C78.5,530 151,530 151,540 L151,566.6094 C151,576.6094 78.5,576.6094 78.5,576.6094 C78.5,576.6094 6,576.6094 6,566.6094 L6,540 " fill="#FFFFFF" filter="url(#ft4crz90xmjpj)" style="stroke:#000000;stroke-width:1.5;"/><path d="M6,540 C6,550 78.5,550 78.5,550 C78.5,550 151,550 151,540 " fill="none" style="stroke:#000000;stroke-width:1.5;"/><text fill="#000000" font-family="sans-serif" font-size="14" lengthAdjust="spacing" textLength="125" x="16" y="568.5332">CatalogoRepository</text><!--MD5=[f67689aed5f48a66e1911c327a861acc]
class ConsultarPedidosUI--><rect codeLine="3" fill="#FEFECE" filter="url(#ft4crz90xmjpj)" height="48" id="ConsultarPedidosUI" style="stroke:#A80036;stroke-width:1.5;" width="144" x="446.5" y="7"/><ellipse cx="461.5" cy="23" fill="#ADD1B2" rx="11" ry="11" style="stroke:#A80036;stroke-width:1.0;"/><path d="M463.5,19.5 Q463.7031,19 463.9375,18.75 Q464.1719,18.5 464.4375,18.5 Q464.9063,18.5 465.2031,18.7813 Q465.5,19.0625 465.5,19.7188 L465.5,21.2813 Q465.5,21.9375 465.2188,22.2188 Q464.9375,22.5 464.5,22.5 Q464.1094,22.5 463.8594,22.3281 Q463.6094,22.1563 463.5,21.7031 Q463.4531,21.3906 463.2813,21.2188 Q462.9688,20.8906 462.4063,20.7031 Q461.8438,20.5 461.2813,20.5 Q460.5781,20.5 459.9844,20.7813 Q459.4063,21.0625 458.9531,21.6875 Q458.5,22.3125 458.5,23.1719 L458.5,24.0938 Q458.5,25.125 459.3438,25.8125 Q460.1875,26.5 461.6875,26.5 Q462.5781,26.5 463.2031,26.2969 Q463.5625,26.1875 463.9688,25.8281 Q464.2344,25.625 464.375,25.5625 Q464.5156,25.5 464.6875,25.5 Q465.0156,25.5 465.25,25.7656 Q465.5,26.0156 465.5,26.375 Q465.5,26.7188 465.1563,27.125 Q464.6563,27.7188 463.8594,28.0469 Q462.8125,28.5 461.5313,28.5 Q460.0313,28.5 458.8281,27.9063 Q457.8594,27.4375 457.1719,26.4219 Q456.5,25.4063 456.5,24.2031 L456.5,23.1094 Q456.5,21.8594 457.0938,20.7656 Q457.7031,19.6719 458.75,19.0938 Q459.8125,18.5 461,18.5 Q461.7188,18.5 462.3438,18.75 Q462.9688,19 463.5,19.5 Z " fill="#000000"/><text fill="#000000" font-family="sans-serif" font-size="12" lengthAdjust="spacing" textLength="112" x="475.5" y="27.9102">ConsultarPedidosUI</text><line style="stroke:#A80036;stroke-width:1.5;" x1="447.5" x2="589.5" y1="39" y2="39"/><line style="stroke:#A80036;stroke-width:1.5;" x1="447.5" x2="589.5" y1="47" y2="47"/><!--MD5=[2efad50fa102bd71bef4fd5e1d465ae6]
class ConsultarPedidosController--><rect codeLine="5" fill="#FEFECE" filter="url(#ft4crz90xmjpj)" height="89.5078" id="ConsultarPedidosController" style="stroke:#A80036;stroke-width:1.5;" width="195" x="421" y="116"/><ellipse cx="440.05" cy="132" fill="#ADD1B2" rx="11" ry="11" style="stroke:#A80036;stroke-width:1.0;"/><path d="M442.05,128.5 Q442.2531,128 442.4875,127.75 Q442.7219,127.5 442.9875,127.5 Q443.4563,127.5 443.7531,127.7813 Q444.05,128.0625 444.05,128.7188 L444.05,130.2813 Q444.05,130.9375 443.7688,131.2188 Q443.4875,131.5 443.05,131.5 Q442.6594,131.5 442.4094,131.3281 Q442.1594,131.1563 442.05,130.7031 Q442.0031,130.3906 441.8313,130.2188 Q441.5188,129.8906 440.9563,129.7031 Q440.3938,129.5 439.8313,129.5 Q439.1281,129.5 438.5344,129.7813 Q437.9563,130.0625 437.5031,130.6875 Q437.05,131.3125 437.05,132.1719 L437.05,133.0938 Q437.05,134.125 437.8938,134.8125 Q438.7375,135.5 440.2375,135.5 Q441.1281,135.5 441.7531,135.2969 Q442.1125,135.1875 442.5188,134.8281 Q442.7844,134.625 442.925,134.5625 Q443.0656,134.5 443.2375,134.5 Q443.5656,134.5 443.8,134.7656 Q444.05,135.0156 444.05,135.375 Q444.05,135.7188 443.7063,136.125 Q443.2063,136.7188 442.4094,137.0469 Q441.3625,137.5 440.0813,137.5 Q438.5813,137.5 437.3781,136.9063 Q436.4094,136.4375 435.7219,135.4219 Q435.05,134.4063 435.05,133.2031 L435.05,132.1094 Q435.05,130.8594 435.6438,129.7656 Q436.2531,128.6719 437.3,128.0938 Q438.3625,127.5 439.55,127.5 Q440.2688,127.5 440.8938,127.75 Q441.5188,128 442.05,128.5 Z " fill="#000000"/><text fill="#000000" font-family="sans-serif" font-size="12" lengthAdjust="spacing" textLength="154" x="454.95" y="136.9102">ConsultarPedidosController</text><line style="stroke:#A80036;stroke-width:1.5;" x1="422" x2="615" y1="148" y2="148"/><line style="stroke:#A80036;stroke-width:1.5;" x1="422" x2="615" y1="156" y2="156"/><ellipse cx="432" cy="167" fill="#84BE84" rx="3" ry="3" style="stroke:#038048;stroke-width:1.0;"/><text fill="#000000" font-family="sans-serif" font-size="11" lengthAdjust="spacing" textLength="84" x="441" y="171.4189">getPedidosUser()</text><ellipse cx="432" cy="180.8359" fill="#84BE84" rx="3" ry="3" style="stroke:#038048;stroke-width:1.0;"/><text fill="#000000" font-family="sans-serif" font-size="11" lengthAdjust="spacing" textLength="169" x="441" y="185.2549">pedidosEmCurso(listaPedidosUser)</text><ellipse cx="432" cy="194.6719" fill="#84BE84" rx="3" ry="3" style="stroke:#038048;stroke-width:1.0;"/><text fill="#000000" font-family="sans-serif" font-size="11" lengthAdjust="spacing" textLength="168" x="441" y="199.0908">pedidosHistorico(listaPedidosUser)</text><!--MD5=[c3eed69adf497205269888f64fa44085]
class AutzhRegistry--><rect codeLine="11" fill="#FEFECE" filter="url(#ft4crz90xmjpj)" height="61.8359" id="AutzhRegistry" style="stroke:#A80036;stroke-width:1.5;" width="133" x="112" y="267"/><ellipse cx="139.15" cy="283" fill="#ADD1B2" rx="11" ry="11" style="stroke:#A80036;stroke-width:1.0;"/><path d="M141.15,279.5 Q141.3531,279 141.5875,278.75 Q141.8219,278.5 142.0875,278.5 Q142.5563,278.5 142.8531,278.7813 Q143.15,279.0625 143.15,279.7188 L143.15,281.2813 Q143.15,281.9375 142.8688,282.2188 Q142.5875,282.5 142.15,282.5 Q141.7594,282.5 141.5094,282.3281 Q141.2594,282.1563 141.15,281.7031 Q141.1031,281.3906 140.9313,281.2188 Q140.6188,280.8906 140.0563,280.7031 Q139.4938,280.5 138.9313,280.5 Q138.2281,280.5 137.6344,280.7813 Q137.0563,281.0625 136.6031,281.6875 Q136.15,282.3125 136.15,283.1719 L136.15,284.0938 Q136.15,285.125 136.9938,285.8125 Q137.8375,286.5 139.3375,286.5 Q140.2281,286.5 140.8531,286.2969 Q141.2125,286.1875 141.6188,285.8281 Q141.8844,285.625 142.025,285.5625 Q142.1656,285.5 142.3375,285.5 Q142.6656,285.5 142.9,285.7656 Q143.15,286.0156 143.15,286.375 Q143.15,286.7188 142.8063,287.125 Q142.3063,287.7188 141.5094,288.0469 Q140.4625,288.5 139.1813,288.5 Q137.6813,288.5 136.4781,287.9063 Q135.5094,287.4375 134.8219,286.4219 Q134.15,285.4063 134.15,284.2031 L134.15,283.1094 Q134.15,281.8594 134.7438,280.7656 Q135.3531,279.6719 136.4,279.0938 Q137.4625,278.5 138.65,278.5 Q139.3688,278.5 139.9938,278.75 Q140.6188,279 141.15,279.5 Z " fill="#000000"/><text fill="#000000" font-family="sans-serif" font-size="12" lengthAdjust="spacing" textLength="74" x="155.85" y="287.9102">AutzhRegistry</text><line style="stroke:#A80036;stroke-width:1.5;" x1="113" x2="244" y1="299" y2="299"/><line style="stroke:#A80036;stroke-width:1.5;" x1="113" x2="244" y1="307" y2="307"/><ellipse cx="123" cy="318" fill="#84BE84" rx="3" ry="3" style="stroke:#038048;stroke-width:1.0;"/><text fill="#000000" font-family="sans-serif" font-size="11" lengthAdjust="spacing" textLength="107" x="132" y="322.4189">authorizationService()</text><!--MD5=[54a33dd013dd881697601ca49de6dfbc]
class AuthorizationService--><rect codeLine="15" fill="#FEFECE" filter="url(#ft4crz90xmjpj)" height="61.8359" id="AuthorizationService" style="stroke:#A80036;stroke-width:1.5;" width="142" x="280.5" y="267"/><ellipse cx="295.5" cy="283" fill="#ADD1B2" rx="11" ry="11" style="stroke:#A80036;stroke-width:1.0;"/><path d="M297.5,279.5 Q297.7031,279 297.9375,278.75 Q298.1719,278.5 298.4375,278.5 Q298.9063,278.5 299.2031,278.7813 Q299.5,279.0625 299.5,279.7188 L299.5,281.2813 Q299.5,281.9375 299.2188,282.2188 Q298.9375,282.5 298.5,282.5 Q298.1094,282.5 297.8594,282.3281 Q297.6094,282.1563 297.5,281.7031 Q297.4531,281.3906 297.2813,281.2188 Q296.9688,280.8906 296.4063,280.7031 Q295.8438,280.5 295.2813,280.5 Q294.5781,280.5 293.9844,280.7813 Q293.4063,281.0625 292.9531,281.6875 Q292.5,282.3125 292.5,283.1719 L292.5,284.0938 Q292.5,285.125 293.3438,285.8125 Q294.1875,286.5 295.6875,286.5 Q296.5781,286.5 297.2031,286.2969 Q297.5625,286.1875 297.9688,285.8281 Q298.2344,285.625 298.375,285.5625 Q298.5156,285.5 298.6875,285.5 Q299.0156,285.5 299.25,285.7656 Q299.5,286.0156 299.5,286.375 Q299.5,286.7188 299.1563,287.125 Q298.6563,287.7188 297.8594,288.0469 Q296.8125,288.5 295.5313,288.5 Q294.0313,288.5 292.8281,287.9063 Q291.8594,287.4375 291.1719,286.4219 Q290.5,285.4063 290.5,284.2031 L290.5,283.1094 Q290.5,281.8594 291.0938,280.7656 Q291.7031,279.6719 292.75,279.0938 Q293.8125,278.5 295,278.5 Q295.7188,278.5 296.3438,278.75 Q296.9688,279 297.5,279.5 Z " fill="#000000"/><text fill="#000000" font-family="sans-serif" font-size="12" lengthAdjust="spacing" textLength="110" x="309.5" y="287.9102">AuthorizationService</text><line style="stroke:#A80036;stroke-width:1.5;" x1="281.5" x2="421.5" y1="299" y2="299"/><line style="stroke:#A80036;stroke-width:1.5;" x1="281.5" x2="421.5" y1="307" y2="307"/><ellipse cx="291.5" cy="318" fill="#84BE84" rx="3" ry="3" style="stroke:#038048;stroke-width:1.0;"/><text fill="#000000" font-family="sans-serif" font-size="11" lengthAdjust="spacing" textLength="46" x="300.5" y="322.4189">session()</text><!--MD5=[c5b08e60048ef1bcd788d24cf324082e]
class UserSession--><rect codeLine="19" fill="#FEFECE" filter="url(#ft4crz90xmjpj)" height="61.8359" id="UserSession" style="stroke:#A80036;stroke-width:1.5;" width="122" x="457.5" y="267"/><ellipse cx="480.15" cy="283" fill="#ADD1B2" rx="11" ry="11" style="stroke:#A80036;stroke-width:1.0;"/><path d="M482.15,279.5 Q482.3531,279 482.5875,278.75 Q482.8219,278.5 483.0875,278.5 Q483.5563,278.5 483.8531,278.7813 Q484.15,279.0625 484.15,279.7188 L484.15,281.2813 Q484.15,281.9375 483.8688,282.2188 Q483.5875,282.5 483.15,282.5 Q482.7594,282.5 482.5094,282.3281 Q482.2594,282.1563 482.15,281.7031 Q482.1031,281.3906 481.9313,281.2188 Q481.6188,280.8906 481.0563,280.7031 Q480.4938,280.5 479.9313,280.5 Q479.2281,280.5 478.6344,280.7813 Q478.0563,281.0625 477.6031,281.6875 Q477.15,282.3125 477.15,283.1719 L477.15,284.0938 Q477.15,285.125 477.9938,285.8125 Q478.8375,286.5 480.3375,286.5 Q481.2281,286.5 481.8531,286.2969 Q482.2125,286.1875 482.6188,285.8281 Q482.8844,285.625 483.025,285.5625 Q483.1656,285.5 483.3375,285.5 Q483.6656,285.5 483.9,285.7656 Q484.15,286.0156 484.15,286.375 Q484.15,286.7188 483.8063,287.125 Q483.3063,287.7188 482.5094,288.0469 Q481.4625,288.5 480.1813,288.5 Q478.6813,288.5 477.4781,287.9063 Q476.5094,287.4375 475.8219,286.4219 Q475.15,285.4063 475.15,284.2031 L475.15,283.1094 Q475.15,281.8594 475.7438,280.7656 Q476.3531,279.6719 477.4,279.0938 Q478.4625,278.5 479.65,278.5 Q480.3688,278.5 480.9938,278.75 Q481.6188,279 482.15,279.5 Z " fill="#000000"/><text fill="#000000" font-family="sans-serif" font-size="12" lengthAdjust="spacing" textLength="73" x="495.85" y="287.9102">UserSession</text><line style="stroke:#A80036;stroke-width:1.5;" x1="458.5" x2="578.5" y1="299" y2="299"/><line style="stroke:#A80036;stroke-width:1.5;" x1="458.5" x2="578.5" y1="307" y2="307"/><ellipse cx="468.5" cy="318" fill="#84BE84" rx="3" ry="3" style="stroke:#038048;stroke-width:1.0;"/><text fill="#000000" font-family="sans-serif" font-size="11" lengthAdjust="spacing" textLength="96" x="477.5" y="322.4189">authenticatedUser()</text><!--MD5=[bc064d979c32666ae52f3d7624591b7b]
class SystemUser--><rect codeLine="23" fill="#FEFECE" filter="url(#ft4crz90xmjpj)" height="61.8359" id="SystemUser" style="stroke:#A80036;stroke-width:1.5;" width="100" x="614.5" y="267"/><ellipse cx="629.5" cy="283" fill="#ADD1B2" rx="11" ry="11" style="stroke:#A80036;stroke-width:1.0;"/><path d="M631.5,279.5 Q631.7031,279 631.9375,278.75 Q632.1719,278.5 632.4375,278.5 Q632.9063,278.5 633.2031,278.7813 Q633.5,279.0625 633.5,279.7188 L633.5,281.2813 Q633.5,281.9375 633.2188,282.2188 Q632.9375,282.5 632.5,282.5 Q632.1094,282.5 631.8594,282.3281 Q631.6094,282.1563 631.5,281.7031 Q631.4531,281.3906 631.2813,281.2188 Q630.9688,280.8906 630.4063,280.7031 Q629.8438,280.5 629.2813,280.5 Q628.5781,280.5 627.9844,280.7813 Q627.4063,281.0625 626.9531,281.6875 Q626.5,282.3125 626.5,283.1719 L626.5,284.0938 Q626.5,285.125 627.3438,285.8125 Q628.1875,286.5 629.6875,286.5 Q630.5781,286.5 631.2031,286.2969 Q631.5625,286.1875 631.9688,285.8281 Q632.2344,285.625 632.375,285.5625 Q632.5156,285.5 632.6875,285.5 Q633.0156,285.5 633.25,285.7656 Q633.5,286.0156 633.5,286.375 Q633.5,286.7188 633.1563,287.125 Q632.6563,287.7188 631.8594,288.0469 Q630.8125,288.5 629.5313,288.5 Q628.0313,288.5 626.8281,287.9063 Q625.8594,287.4375 625.1719,286.4219 Q624.5,285.4063 624.5,284.2031 L624.5,283.1094 Q624.5,281.8594 625.0938,280.7656 Q625.7031,279.6719 626.75,279.0938 Q627.8125,278.5 629,278.5 Q629.7188,278.5 630.3438,278.75 Q630.9688,279 631.5,279.5 Z " fill="#000000"/><text fill="#000000" font-family="sans-serif" font-size="12" lengthAdjust="spacing" textLength="68" x="643.5" y="287.9102">SystemUser</text><line style="stroke:#A80036;stroke-width:1.5;" x1="615.5" x2="713.5" y1="299" y2="299"/><line style="stroke:#A80036;stroke-width:1.5;" x1="615.5" x2="713.5" y1="307" y2="307"/><ellipse cx="625.5" cy="318" fill="#84BE84" rx="3" ry="3" style="stroke:#038048;stroke-width:1.0;"/><text fill="#000000" font-family="sans-serif" font-size="11" lengthAdjust="spacing" textLength="32" x="634.5" y="322.4189">email()</text><!--MD5=[e8c189551b7885b999ad7cefb30fc2a3]
class PersistenceContext--><rect codeLine="27" fill="#FEFECE" filter="url(#ft4crz90xmjpj)" height="61.8359" id="PersistenceContext" style="stroke:#A80036;stroke-width:1.5;" width="139" x="750" y="267"/><ellipse cx="765" cy="283" fill="#ADD1B2" rx="11" ry="11" style="stroke:#A80036;stroke-width:1.0;"/><path d="M767,279.5 Q767.2031,279 767.4375,278.75 Q767.6719,278.5 767.9375,278.5 Q768.4063,278.5 768.7031,278.7813 Q769,279.0625 769,279.7188 L769,281.2813 Q769,281.9375 768.7188,282.2188 Q768.4375,282.5 768,282.5 Q767.6094,282.5 767.3594,282.3281 Q767.1094,282.1563 767,281.7031 Q766.9531,281.3906 766.7813,281.2188 Q766.4688,280.8906 765.9063,280.7031 Q765.3438,280.5 764.7813,280.5 Q764.0781,280.5 763.4844,280.7813 Q762.9063,281.0625 762.4531,281.6875 Q762,282.3125 762,283.1719 L762,284.0938 Q762,285.125 762.8438,285.8125 Q763.6875,286.5 765.1875,286.5 Q766.0781,286.5 766.7031,286.2969 Q767.0625,286.1875 767.4688,285.8281 Q767.7344,285.625 767.875,285.5625 Q768.0156,285.5 768.1875,285.5 Q768.5156,285.5 768.75,285.7656 Q769,286.0156 769,286.375 Q769,286.7188 768.6563,287.125 Q768.1563,287.7188 767.3594,288.0469 Q766.3125,288.5 765.0313,288.5 Q763.5313,288.5 762.3281,287.9063 Q761.3594,287.4375 760.6719,286.4219 Q760,285.4063 760,284.2031 L760,283.1094 Q760,281.8594 760.5938,280.7656 Q761.2031,279.6719 762.25,279.0938 Q763.3125,278.5 764.5,278.5 Q765.2188,278.5 765.8438,278.75 Q766.4688,279 767,279.5 Z " fill="#000000"/><text fill="#000000" font-family="sans-serif" font-size="12" lengthAdjust="spacing" textLength="107" x="779" y="287.9102">PersistenceContext</text><line style="stroke:#A80036;stroke-width:1.5;" x1="751" x2="888" y1="299" y2="299"/><line style="stroke:#A80036;stroke-width:1.5;" x1="751" x2="888" y1="307" y2="307"/><ellipse cx="761" cy="318" fill="#84BE84" rx="3" ry="3" style="stroke:#038048;stroke-width:1.0;"/><text fill="#000000" font-family="sans-serif" font-size="11" lengthAdjust="spacing" textLength="65" x="770" y="322.4189">repositories()</text><!--MD5=[48590afff58a68e2fcba47824d6f8a11]
class RepositoryFactory--><rect codeLine="31" fill="#FEFECE" filter="url(#ft4crz90xmjpj)" height="61.8359" id="RepositoryFactory" style="stroke:#A80036;stroke-width:1.5;" width="130" x="556.5" y="407"/><ellipse cx="571.5" cy="423" fill="#ADD1B2" rx="11" ry="11" style="stroke:#A80036;stroke-width:1.0;"/><path d="M573.5,419.5 Q573.7031,419 573.9375,418.75 Q574.1719,418.5 574.4375,418.5 Q574.9063,418.5 575.2031,418.7813 Q575.5,419.0625 575.5,419.7188 L575.5,421.2813 Q575.5,421.9375 575.2188,422.2188 Q574.9375,422.5 574.5,422.5 Q574.1094,422.5 573.8594,422.3281 Q573.6094,422.1563 573.5,421.7031 Q573.4531,421.3906 573.2813,421.2188 Q572.9688,420.8906 572.4063,420.7031 Q571.8438,420.5 571.2813,420.5 Q570.5781,420.5 569.9844,420.7813 Q569.4063,421.0625 568.9531,421.6875 Q568.5,422.3125 568.5,423.1719 L568.5,424.0938 Q568.5,425.125 569.3438,425.8125 Q570.1875,426.5 571.6875,426.5 Q572.5781,426.5 573.2031,426.2969 Q573.5625,426.1875 573.9688,425.8281 Q574.2344,425.625 574.375,425.5625 Q574.5156,425.5 574.6875,425.5 Q575.0156,425.5 575.25,425.7656 Q575.5,426.0156 575.5,426.375 Q575.5,426.7188 575.1563,427.125 Q574.6563,427.7188 573.8594,428.0469 Q572.8125,428.5 571.5313,428.5 Q570.0313,428.5 568.8281,427.9063 Q567.8594,427.4375 567.1719,426.4219 Q566.5,425.4063 566.5,424.2031 L566.5,423.1094 Q566.5,421.8594 567.0938,420.7656 Q567.7031,419.6719 568.75,419.0938 Q569.8125,418.5 571,418.5 Q571.7188,418.5 572.3438,418.75 Q572.9688,419 573.5,419.5 Z " fill="#000000"/><text fill="#000000" font-family="sans-serif" font-size="12" lengthAdjust="spacing" textLength="98" x="585.5" y="427.9102">RepositoryFactory</text><line style="stroke:#A80036;stroke-width:1.5;" x1="557.5" x2="685.5" y1="439" y2="439"/><line style="stroke:#A80036;stroke-width:1.5;" x1="557.5" x2="685.5" y1="447" y2="447"/><ellipse cx="567.5" cy="458" fill="#84BE84" rx="3" ry="3" style="stroke:#038048;stroke-width:1.0;"/><text fill="#000000" font-family="sans-serif" font-size="11" lengthAdjust="spacing" textLength="39" x="576.5" y="462.4189">create()</text><!--MD5=[a26d7a8585b446db7fc8ab4626d8ca8a]
class Pedido--><rect codeLine="38" fill="#FEFECE" filter="url(#ft4crz90xmjpj)" height="61.8359" id="Pedido" style="stroke:#A80036;stroke-width:1.5;" width="120" x="924.5" y="267"/><ellipse cx="961.55" cy="283" fill="#ADD1B2" rx="11" ry="11" style="stroke:#A80036;stroke-width:1.0;"/><path d="M963.55,279.5 Q963.7531,279 963.9875,278.75 Q964.2219,278.5 964.4875,278.5 Q964.9563,278.5 965.2531,278.7813 Q965.55,279.0625 965.55,279.7188 L965.55,281.2813 Q965.55,281.9375 965.2688,282.2188 Q964.9875,282.5 964.55,282.5 Q964.1594,282.5 963.9094,282.3281 Q963.6594,282.1563 963.55,281.7031 Q963.5031,281.3906 963.3313,281.2188 Q963.0188,280.8906 962.4563,280.7031 Q961.8938,280.5 961.3313,280.5 Q960.6281,280.5 960.0344,280.7813 Q959.4563,281.0625 959.0031,281.6875 Q958.55,282.3125 958.55,283.1719 L958.55,284.0938 Q958.55,285.125 959.3938,285.8125 Q960.2375,286.5 961.7375,286.5 Q962.6281,286.5 963.2531,286.2969 Q963.6125,286.1875 964.0188,285.8281 Q964.2844,285.625 964.425,285.5625 Q964.5656,285.5 964.7375,285.5 Q965.0656,285.5 965.3,285.7656 Q965.55,286.0156 965.55,286.375 Q965.55,286.7188 965.2063,287.125 Q964.7063,287.7188 963.9094,288.0469 Q962.8625,288.5 961.5813,288.5 Q960.0813,288.5 958.8781,287.9063 Q957.9094,287.4375 957.2219,286.4219 Q956.55,285.4063 956.55,284.2031 L956.55,283.1094 Q956.55,281.8594 957.1438,280.7656 Q957.7531,279.6719 958.8,279.0938 Q959.8625,278.5 961.05,278.5 Q961.7688,278.5 962.3938,278.75 Q963.0188,279 963.55,279.5 Z " fill="#000000"/><text fill="#000000" font-family="sans-serif" font-size="12" lengthAdjust="spacing" textLength="39" x="980.45" y="287.9102">Pedido</text><line style="stroke:#A80036;stroke-width:1.5;" x1="925.5" x2="1043.5" y1="299" y2="299"/><line style="stroke:#A80036;stroke-width:1.5;" x1="925.5" x2="1043.5" y1="307" y2="307"/><ellipse cx="935.5" cy="318" fill="#84BE84" rx="3" ry="3" style="stroke:#038048;stroke-width:1.0;"/><text fill="#000000" font-family="sans-serif" font-size="11" lengthAdjust="spacing" textLength="94" x="944.5" y="322.4189">PedidoDTO toDTO()</text><!--MD5=[ca31a292b40dd28329f3243c2db6a301]
class PedidoDTO--><rect codeLine="42" fill="#FEFECE" filter="url(#ft4crz90xmjpj)" height="48" id="PedidoDTO" style="stroke:#A80036;stroke-width:1.5;" width="96" x="874.5" y="414"/><ellipse cx="889.5" cy="430" fill="#ADD1B2" rx="11" ry="11" style="stroke:#A80036;stroke-width:1.0;"/><path d="M891.5,426.5 Q891.7031,426 891.9375,425.75 Q892.1719,425.5 892.4375,425.5 Q892.9063,425.5 893.2031,425.7813 Q893.5,426.0625 893.5,426.7188 L893.5,428.2813 Q893.5,428.9375 893.2188,429.2188 Q892.9375,429.5 892.5,429.5 Q892.1094,429.5 891.8594,429.3281 Q891.6094,429.1563 891.5,428.7031 Q891.4531,428.3906 891.2813,428.2188 Q890.9688,427.8906 890.4063,427.7031 Q889.8438,427.5 889.2813,427.5 Q888.5781,427.5 887.9844,427.7813 Q887.4063,428.0625 886.9531,428.6875 Q886.5,429.3125 886.5,430.1719 L886.5,431.0938 Q886.5,432.125 887.3438,432.8125 Q888.1875,433.5 889.6875,433.5 Q890.5781,433.5 891.2031,433.2969 Q891.5625,433.1875 891.9688,432.8281 Q892.2344,432.625 892.375,432.5625 Q892.5156,432.5 892.6875,432.5 Q893.0156,432.5 893.25,432.7656 Q893.5,433.0156 893.5,433.375 Q893.5,433.7188 893.1563,434.125 Q892.6563,434.7188 891.8594,435.0469 Q890.8125,435.5 889.5313,435.5 Q888.0313,435.5 886.8281,434.9063 Q885.8594,434.4375 885.1719,433.4219 Q884.5,432.4063 884.5,431.2031 L884.5,430.1094 Q884.5,428.8594 885.0938,427.7656 Q885.7031,426.6719 886.75,426.0938 Q887.8125,425.5 889,425.5 Q889.7188,425.5 890.3438,425.75 Q890.9688,426 891.5,426.5 Z " fill="#000000"/><text fill="#000000" font-family="sans-serif" font-size="12" lengthAdjust="spacing" textLength="64" x="903.5" y="434.9102">PedidoDTO</text><line style="stroke:#A80036;stroke-width:1.5;" x1="875.5" x2="969.5" y1="446" y2="446"/><line style="stroke:#A80036;stroke-width:1.5;" x1="875.5" x2="969.5" y1="454" y2="454"/><!--MD5=[9a0e0b2fd79f94f6cfa9c8d8cd211c38]
class DTOable--><rect codeLine="45" fill="#FEFECE" filter="url(#ft4crz90xmjpj)" height="61.8359" id="DTOable" style="stroke:#A80036;stroke-width:1.5;" width="82" x="1005.5" y="407"/><ellipse cx="1020.5" cy="423" fill="#B4A7E5" rx="11" ry="11" style="stroke:#A80036;stroke-width:1.0;"/><path d="M1021.5,420 L1021.5,426 L1023.5,426 L1023.9844,426 L1024.5,426.625 L1024.5,427 L1024.5,427.375 L1023.9844,428 L1023.5,428 L1017.5,428 L1017.0156,428 L1016.5,427.375 L1016.5,427 L1016.5,426.625 L1017.0156,426 L1017.5,426 L1019.5,426 L1019.5,420 L1017.5,420 L1017.0156,420 L1016.5,419.375 L1016.5,419 L1016.5,418.625 L1017.0156,418 L1017.5,418 L1023.5,418 L1023.9844,418 L1024.5,418.625 L1024.5,419 L1024.5,419.375 L1023.9844,420 L1023.5,420 L1021.5,420 Z " fill="#000000"/><text fill="#000000" font-family="sans-serif" font-size="12" font-style="italic" lengthAdjust="spacing" textLength="50" x="1034.5" y="427.9102">DTOable</text><line style="stroke:#A80036;stroke-width:1.5;" x1="1006.5" x2="1086.5" y1="439" y2="439"/><line style="stroke:#A80036;stroke-width:1.5;" x1="1006.5" x2="1086.5" y1="447" y2="447"/><text fill="#000000" font-family="sans-serif" font-size="11" lengthAdjust="spacing" textLength="50" x="1011.5" y="462.4189">T to DTO()</text><!--MD5=[14c53d5bfba7b57c3bede1ea505e0df2]
link ConsultarPedidosUI to ConsultarPedidosController--><path codeLine="49" d="M518.5,55.18 C518.5,70.59 518.5,91.42 518.5,110.45 " fill="none" id="ConsultarPedidosUI-to-ConsultarPedidosController" style="stroke:#A80036;stroke-width:1.0;stroke-dasharray:7.0,7.0;"/><polygon fill="#A80036" points="518.5,115.76,522.5,106.76,518.5,110.76,514.5,106.76,518.5,115.76" style="stroke:#A80036;stroke-width:1.0;"/><!--MD5=[c3c8998641c2af912d3351e651984b90]
link ConsultarPedidosController to AutzhRegistry--><path codeLine="51" d="M420.61,200.87 C366.07,222.52 299.37,249.01 249.8,268.69 " fill="none" id="ConsultarPedidosController-to-AutzhRegistry" style="stroke:#A80036;stroke-width:1.0;stroke-dasharray:7.0,7.0;"/><polygon fill="#A80036" points="245.06,270.57,254.9008,270.9675,249.7073,268.7254,251.9494,263.5318,245.06,270.57" style="stroke:#A80036;stroke-width:1.0;"/><!--MD5=[d3fea8814a70a9af9e0a85598276aca7]
link ConsultarPedidosController to AuthorizationService--><path codeLine="52" d="M463.82,206.2 C440.62,224.95 414.05,246.44 392.57,263.8 " fill="none" id="ConsultarPedidosController-to-AuthorizationService" style="stroke:#A80036;stroke-width:1.0;stroke-dasharray:7.0,7.0;"/><polygon fill="#A80036" points="388.62,266.99,398.1331,264.4402,392.5076,263.8457,393.1021,258.2201,388.62,266.99" style="stroke:#A80036;stroke-width:1.0;"/><!--MD5=[bbdc48abd4ba6365deacb2777ae41cab]
link ConsultarPedidosController to UserSession--><path codeLine="53" d="M518.5,206.2 C518.5,224.18 518.5,244.68 518.5,261.64 " fill="none" id="ConsultarPedidosController-to-UserSession" style="stroke:#A80036;stroke-width:1.0;stroke-dasharray:7.0,7.0;"/><polygon fill="#A80036" points="518.5,266.78,522.5,257.78,518.5,261.78,514.5,257.78,518.5,266.78" style="stroke:#A80036;stroke-width:1.0;"/><!--MD5=[ea0ff4ce308730373083f6ff3c280213]
link ConsultarPedidosController to SystemUser--><path codeLine="54" d="M566.31,206.2 C586.42,224.8 609.45,246.09 628.14,263.38 " fill="none" id="ConsultarPedidosController-to-SystemUser" style="stroke:#A80036;stroke-width:1.0;stroke-dasharray:7.0,7.0;"/><polygon fill="#A80036" points="631.82,266.78,627.9345,257.73,628.1515,263.3827,622.4988,263.5996,631.82,266.78" style="stroke:#A80036;stroke-width:1.0;"/><!--MD5=[88dabc4faf6ae365bbd85d8698ea0965]
link ConsultarPedidosController to PersistenceContext--><path codeLine="55" d="M616.23,205.83 C658.95,224.99 708.17,247.07 747.47,264.7 " fill="none" id="ConsultarPedidosController-to-PersistenceContext" style="stroke:#A80036;stroke-width:1.0;stroke-dasharray:7.0,7.0;"/><polygon fill="#A80036" points="752.22,266.82,745.6436,259.4885,747.6575,264.7747,742.3712,266.7885,752.22,266.82" style="stroke:#A80036;stroke-width:1.0;"/><!--MD5=[ac0ac55c785e4dda87444ca6f7c5967e]
link ConsultarPedidosController to CatalogoRepository--><path codeLine="56" d="M420.53,172.85 C308.6,187.44 135.57,217.44 94.5,267 C32.54,341.76 55.92,468.95 70.4,524.8 " fill="none" id="ConsultarPedidosController-to-CatalogoRepository" style="stroke:#A80036;stroke-width:1.0;stroke-dasharray:7.0,7.0;"/><polygon fill="#A80036" points="71.69,529.66,73.2396,519.9338,70.4035,524.8284,65.5089,521.9923,71.69,529.66" style="stroke:#A80036;stroke-width:1.0;"/><!--MD5=[048c19e75e75a5ef3219b2dc4a9b2277]
link ConsultarPedidosController to Pedido--><path codeLine="57" d="M616.19,185.47 C695.14,205.15 808.82,235.09 906.5,267 C910.75,268.39 915.11,269.88 919.5,271.43 " fill="none" id="ConsultarPedidosController-to-Pedido" style="stroke:#A80036;stroke-width:1.0;stroke-dasharray:7.0,7.0;"/><polygon fill="#A80036" points="924.25,273.12,917.1105,266.3356,919.539,271.4447,914.43,273.8732,924.25,273.12" style="stroke:#A80036;stroke-width:1.0;"/><!--MD5=[745a8b659dd3f118d85f2ecef6194ffc]
link Pedido to PedidoDTO--><path codeLine="58" d="M970.89,329.28 C960.24,352.99 945.55,385.7 935.15,408.84 " fill="none" id="Pedido-to-PedidoDTO" style="stroke:#A80036;stroke-width:1.0;stroke-dasharray:7.0,7.0;"/><polygon fill="#A80036" points="933,413.63,940.341,407.0642,935.0518,409.0704,933.0456,403.7812,933,413.63" style="stroke:#A80036;stroke-width:1.0;"/><text fill="#000000" font-family="sans-serif" font-size="13" lengthAdjust="spacing" textLength="37" x="957.5" y="373.4951">toDTO</text><!--MD5=[19c667d4b560e2f89ac5f8af1d15e5fc]
link Pedido to DTOable--><path codeLine="59" d="M998.11,329.28 C1005.9,346.63 1015.86,368.8 1024.72,388.52 " fill="none" id="Pedido-to-DTOable" style="stroke:#A80036;stroke-width:1.0;stroke-dasharray:7.0,7.0;"/><polygon fill="none" points="1031.11,385.67,1032.93,406.79,1018.34,391.41,1031.11,385.67" style="stroke:#A80036;stroke-width:1.0;"/><!--MD5=[754b775031405e096442b27febffa290]
link PersistenceContext to RepositoryFactory--><path codeLine="61" d="M776.05,329.28 C744.45,351.3 701.7,381.1 669.17,403.78 " fill="none" id="PersistenceContext-to-RepositoryFactory" style="stroke:#A80036;stroke-width:1.0;stroke-dasharray:7.0,7.0;"/><polygon fill="#A80036" points="664.85,406.79,674.5209,404.9261,668.9522,403.9313,669.947,398.3626,664.85,406.79" style="stroke:#A80036;stroke-width:1.0;"/><!--MD5=[1c7e7a1fe085f3cc90df717ea11f1cec]
link RepositoryFactory to CatalogoRepository--><path codeLine="64" d="M556.27,452.63 C455.86,473.62 263.79,513.77 156.28,536.24 " fill="none" id="RepositoryFactory-to-CatalogoRepository" style="stroke:#A80036;stroke-width:1.0;stroke-dasharray:7.0,7.0;"/><polygon fill="#A80036" points="151.23,537.3,160.8598,539.3658,156.1234,536.2728,159.2163,531.5364,151.23,537.3" style="stroke:#A80036;stroke-width:1.0;"/><!--MD5=[f61bdb14ee9f4346cc5b7903ce6a13c6]
@startuml
'https://plantuml.com/class-diagram

class ConsultarPedidosUI

class ConsultarPedidosController{
+getPedidosUser()
+pedidosEmCurso(listaPedidosUser)
+pedidosHistorico(listaPedidosUser)
}

class AutzhRegistry{
+authorizationService()
}

class AuthorizationService{
+session()
}

class UserSession{
+authenticatedUser()
}

class SystemUser{
+email()
}

class PersistenceContext{
+repositories()
}

class RepositoryFactory{
+create()
}

database CatalogoRepository{
}

class Pedido{
+PedidoDTO toDTO()
}

class PedidoDTO{
}

interface DTOable{
T to DTO()
}

ConsultarPedidosUI..>ConsultarPedidosController

ConsultarPedidosController..>AutzhRegistry
ConsultarPedidosController..>AuthorizationService
ConsultarPedidosController..>UserSession
ConsultarPedidosController..>SystemUser
ConsultarPedidosController..>PersistenceContext
ConsultarPedidosController..>CatalogoRepository
ConsultarPedidosController..>Pedido
Pedido..>PedidoDTO: toDTO
Pedido..|>DTOable

PersistenceContext..>RepositoryFactory


RepositoryFactory..>CatalogoRepository

@enduml

@startuml

class ConsultarPedidosUI

class ConsultarPedidosController{
+getPedidosUser()
+pedidosEmCurso(listaPedidosUser)
+pedidosHistorico(listaPedidosUser)
}

class AutzhRegistry{
+authorizationService()
}

class AuthorizationService{
+session()
}

class UserSession{
+authenticatedUser()
}

class SystemUser{
+email()
}

class PersistenceContext{
+repositories()
}

class RepositoryFactory{
+create()
}

database CatalogoRepository{
}

class Pedido{
+PedidoDTO toDTO()
}

class PedidoDTO{
}

interface DTOable{
T to DTO()
}

ConsultarPedidosUI..>ConsultarPedidosController

ConsultarPedidosController..>AutzhRegistry
ConsultarPedidosController..>AuthorizationService
ConsultarPedidosController..>UserSession
ConsultarPedidosController..>SystemUser
ConsultarPedidosController..>PersistenceContext
ConsultarPedidosController..>CatalogoRepository
ConsultarPedidosController..>Pedido
Pedido..>PedidoDTO: toDTO
Pedido..|>DTOable

PersistenceContext..>RepositoryFactory


RepositoryFactory..>CatalogoRepository

@enduml

PlantUML version 1.2021.5(Sun Apr 25 12:20:28 BST 2021)
(GPL source distribution)
Java Runtime: OpenJDK Runtime Environment
JVM: Dynamic Code Evolution 64-Bit Server VM
Default Encoding: Cp1252
Language: pt
Country: PT
--></g></svg>