<?xml version="1.0" encoding="UTF-8" standalone="no"?><svg xmlns="http://www.w3.org/2000/svg" xmlns:xlink="http://www.w3.org/1999/xlink" contentScriptType="application/ecmascript" contentStyleType="text/css" height="440px" preserveAspectRatio="none" style="width:868px;height:440px;background:#FFFFFF;" version="1.1" viewBox="0 0 868 440" width="868px" zoomAndPan="magnify"><defs><filter height="300%" id="f15mzj98yq6mn7" width="300%" x="-1" y="-1"><feGaussianBlur result="blurOut" stdDeviation="2.0"/><feColorMatrix in="blurOut" result="blurOut2" type="matrix" values="0 0 0 0 0 0 0 0 0 0 0 0 0 0 0 0 0 0 .4 0"/><feOffset dx="4.0" dy="4.0" in="blurOut2" result="blurOut3"/><feBlend in="SourceGraphic" in2="blurOut3" mode="normal"/></filter></defs><g><rect fill="#FFFFFF" filter="url(#f15mzj98yq6mn7)" height="87.7031" style="stroke:#A80036;stroke-width:1.0;" width="10" x="395" y="147.2734"/><rect fill="#FFFFFF" filter="url(#f15mzj98yq6mn7)" height="155.4063" style="stroke:#A80036;stroke-width:1.0;" width="10" x="548" y="204.625"/><rect fill="#FFFFFF" filter="url(#f15mzj98yq6mn7)" height="136.4063" style="stroke:#000000;stroke-width:2.0;" width="602" x="10" y="106.5703"/><line style="stroke:#A80036;stroke-width:1.0;stroke-dasharray:5.0,5.0;" x1="53" x2="53" y1="59.2188" y2="378.0313"/><line style="stroke:#A80036;stroke-width:1.0;stroke-dasharray:5.0,5.0;" x1="196" x2="196" y1="59.2188" y2="378.0313"/><line style="stroke:#A80036;stroke-width:1.0;stroke-dasharray:5.0,5.0;" x1="400" x2="400" y1="59.2188" y2="378.0313"/><line style="stroke:#A80036;stroke-width:1.0;stroke-dasharray:5.0,5.0;" x1="553" x2="553" y1="59.2188" y2="378.0313"/><line style="stroke:#A80036;stroke-width:1.0;stroke-dasharray:5.0,5.0;" x1="670" x2="670" y1="59.2188" y2="378.0313"/><line style="stroke:#A80036;stroke-width:1.0;stroke-dasharray:5.0,5.0;" x1="798" x2="798" y1="59.2188" y2="378.0313"/><rect fill="#FEFECE" filter="url(#f15mzj98yq6mn7)" height="49.2188" style="stroke:#A80036;stroke-width:1.5;" width="63" x="20" y="5"/><text fill="#000000" font-family="sans-serif" font-size="14" font-style="italic" lengthAdjust="spacing" textLength="49" x="27" y="26.5332">«client»</text><text fill="#000000" font-family="sans-serif" font-size="14" lengthAdjust="spacing" textLength="37" x="33" y="44.1426">Portal</text><rect fill="#FEFECE" filter="url(#f15mzj98yq6mn7)" height="49.2188" style="stroke:#A80036;stroke-width:1.5;" width="63" x="20" y="377.0313"/><text fill="#000000" font-family="sans-serif" font-size="14" font-style="italic" lengthAdjust="spacing" textLength="49" x="27" y="398.5645">«client»</text><text fill="#000000" font-family="sans-serif" font-size="14" lengthAdjust="spacing" textLength="37" x="33" y="416.1738">Portal</text><rect fill="#FEFECE" filter="url(#f15mzj98yq6mn7)" height="31.6094" style="stroke:#A80036;stroke-width:1.5;" width="195" x="97" y="22.6094"/><text fill="#000000" font-family="sans-serif" font-size="14" lengthAdjust="spacing" textLength="181" x="104" y="44.1426">MotorFluxoAtividadeDaemon</text><rect fill="#FEFECE" filter="url(#f15mzj98yq6mn7)" height="31.6094" style="stroke:#A80036;stroke-width:1.5;" width="195" x="97" y="377.0313"/><text fill="#000000" font-family="sans-serif" font-size="14" lengthAdjust="spacing" textLength="181" x="104" y="398.5645">MotorFluxoAtividadeDaemon</text><rect fill="#FEFECE" filter="url(#f15mzj98yq6mn7)" height="31.6094" style="stroke:#A80036;stroke-width:1.5;" width="184" x="306" y="22.6094"/><text fill="#000000" font-family="sans-serif" font-size="14" lengthAdjust="spacing" textLength="170" x="313" y="44.1426">MotorFluxoAtividadeServer</text><rect fill="#FEFECE" filter="url(#f15mzj98yq6mn7)" height="31.6094" style="stroke:#A80036;stroke-width:1.5;" width="184" x="306" y="377.0313"/><text fill="#000000" font-family="sans-serif" font-size="14" lengthAdjust="spacing" textLength="170" x="313" y="398.5645">MotorFluxoAtividadeServer</text><rect fill="#FEFECE" filter="url(#f15mzj98yq6mn7)" height="49.2188" style="stroke:#A80036;stroke-width:1.5;" width="94" x="504" y="5"/><text fill="#000000" font-family="sans-serif" font-size="14" font-style="italic" lengthAdjust="spacing" textLength="57" x="522.5" y="26.5332">«thread»</text><text fill="#000000" font-family="sans-serif" font-size="14" lengthAdjust="spacing" textLength="80" x="511" y="44.1426">HandleClient</text><rect fill="#FEFECE" filter="url(#f15mzj98yq6mn7)" height="49.2188" style="stroke:#A80036;stroke-width:1.5;" width="94" x="504" y="377.0313"/><text fill="#000000" font-family="sans-serif" font-size="14" font-style="italic" lengthAdjust="spacing" textLength="57" x="522.5" y="398.5645">«thread»</text><text fill="#000000" font-family="sans-serif" font-size="14" lengthAdjust="spacing" textLength="80" x="511" y="416.1738">HandleClient</text><rect fill="#FEFECE" filter="url(#f15mzj98yq6mn7)" height="31.6094" style="stroke:#A80036;stroke-width:1.5;" width="113" x="612" y="22.6094"/><text fill="#000000" font-family="sans-serif" font-size="14" lengthAdjust="spacing" textLength="99" x="619" y="44.1426">MessageParser</text><rect fill="#FEFECE" filter="url(#f15mzj98yq6mn7)" height="31.6094" style="stroke:#A80036;stroke-width:1.5;" width="113" x="612" y="377.0313"/><text fill="#000000" font-family="sans-serif" font-size="14" lengthAdjust="spacing" textLength="99" x="619" y="398.5645">MessageParser</text><rect fill="#FEFECE" filter="url(#f15mzj98yq6mn7)" height="31.6094" style="stroke:#A80036;stroke-width:1.5;" width="115" x="739" y="22.6094"/><text fill="#000000" font-family="sans-serif" font-size="14" lengthAdjust="spacing" textLength="101" x="746" y="44.1426">MessageBuilder</text><rect fill="#FEFECE" filter="url(#f15mzj98yq6mn7)" height="31.6094" style="stroke:#A80036;stroke-width:1.5;" width="115" x="739" y="377.0313"/><text fill="#000000" font-family="sans-serif" font-size="14" lengthAdjust="spacing" textLength="101" x="746" y="398.5645">MessageBuilder</text><rect fill="#FFFFFF" filter="url(#f15mzj98yq6mn7)" height="87.7031" style="stroke:#A80036;stroke-width:1.0;" width="10" x="395" y="147.2734"/><rect fill="#FFFFFF" filter="url(#f15mzj98yq6mn7)" height="155.4063" style="stroke:#A80036;stroke-width:1.0;" width="10" x="548" y="204.625"/><polygon fill="#A80036" points="388,87.5703,398,91.5703,388,95.5703,392,91.5703" style="stroke:#A80036;stroke-width:1.0;"/><line style="stroke:#A80036;stroke-width:1.0;" x1="196.5" x2="394" y1="91.5703" y2="91.5703"/><text fill="#000000" font-family="sans-serif" font-size="13" lengthAdjust="spacing" textLength="23" x="203.5" y="86.7139">new</text><path d="M10,106.5703 L83,106.5703 L83,114.5703 L73,124.5703 L10,124.5703 L10,106.5703 " fill="#EEEEEE" style="stroke:#000000;stroke-width:1.0;"/><rect fill="none" height="136.4063" style="stroke:#000000;stroke-width:2.0;" width="602" x="10" y="106.5703"/><text fill="#000000" font-family="sans-serif" font-size="13" font-weight="bold" lengthAdjust="spacing" textLength="28" x="25" y="121.0654">loop</text><text fill="#000000" font-family="sans-serif" font-size="11" font-weight="bold" lengthAdjust="spacing" textLength="31" x="98" y="119.9893">[true]</text><polygon fill="#A80036" points="383,143.2734,393,147.2734,383,151.2734,387,147.2734" style="stroke:#A80036;stroke-width:1.0;"/><line style="stroke:#A80036;stroke-width:1.0;" x1="196.5" x2="389" y1="147.2734" y2="147.2734"/><text fill="#000000" font-family="sans-serif" font-size="13" lengthAdjust="spacing" textLength="26" x="203.5" y="142.417">start</text><line style="stroke:#A80036;stroke-width:1.0;" x1="405" x2="447" y1="177.625" y2="177.625"/><line style="stroke:#A80036;stroke-width:1.0;" x1="447" x2="447" y1="177.625" y2="190.625"/><line style="stroke:#A80036;stroke-width:1.0;" x1="406" x2="447" y1="190.625" y2="190.625"/><polygon fill="#A80036" points="416,186.625,406,190.625,416,194.625,412,190.625" style="stroke:#A80036;stroke-width:1.0;"/><text fill="#000000" font-family="sans-serif" font-size="13" lengthAdjust="spacing" textLength="39" x="412" y="172.7686">accept</text><polygon fill="#A80036" points="383,200.625,393,204.625,383,208.625,387,204.625" style="stroke:#A80036;stroke-width:1.0;"/><line style="stroke:#A80036;stroke-width:1.0;stroke-dasharray:2.0,2.0;" x1="53.5" x2="389" y1="204.625" y2="204.625"/><polygon fill="#A80036" points="536,230.9766,546,234.9766,536,234.9766" style="stroke:#A80036;stroke-width:1.0;"/><line style="stroke:#A80036;stroke-width:1.0;" x1="400" x2="547" y1="234.9766" y2="234.9766"/><text fill="#000000" font-family="sans-serif" font-size="13" lengthAdjust="spacing" textLength="26" x="407" y="230.1201">start</text><polygon fill="#A80036" points="658.5,268.3281,668.5,272.3281,658.5,276.3281,662.5,272.3281" style="stroke:#A80036;stroke-width:1.0;"/><line style="stroke:#A80036;stroke-width:1.0;" x1="558" x2="664.5" y1="272.3281" y2="272.3281"/><text fill="#000000" font-family="sans-serif" font-size="13" lengthAdjust="spacing" textLength="32" x="565" y="267.4717">parse</text><line style="stroke:#A80036;stroke-width:1.0;" x1="558" x2="600" y1="302.6797" y2="302.6797"/><line style="stroke:#A80036;stroke-width:1.0;" x1="600" x2="600" y1="302.6797" y2="315.6797"/><line style="stroke:#A80036;stroke-width:1.0;" x1="559" x2="600" y1="315.6797" y2="315.6797"/><polygon fill="#A80036" points="569,311.6797,559,315.6797,569,319.6797,565,315.6797" style="stroke:#A80036;stroke-width:1.0;"/><text fill="#000000" font-family="sans-serif" font-size="13" lengthAdjust="spacing" textLength="46" x="565" y="297.8232">execute</text><polygon fill="#A80036" points="786.5,342.0313,796.5,346.0313,786.5,350.0313,790.5,346.0313" style="stroke:#A80036;stroke-width:1.0;"/><line style="stroke:#A80036;stroke-width:1.0;" x1="558" x2="792.5" y1="346.0313" y2="346.0313"/><text fill="#000000" font-family="sans-serif" font-size="13" lengthAdjust="spacing" textLength="27" x="565" y="341.1748">build</text><polygon fill="#A80036" points="64.5,356.0313,54.5,360.0313,64.5,364.0313,60.5,360.0313" style="stroke:#A80036;stroke-width:1.0;"/><line style="stroke:#A80036;stroke-width:1.0;stroke-dasharray:2.0,2.0;" x1="58.5" x2="552" y1="360.0313" y2="360.0313"/><!--MD5=[5d249274a077ad6e2491d4eb57404997]
@startuml use-case-realization.svg

participant Portal <<client>>

MotorFluxoAtividadeDaemon -> MotorFluxoAtividadeServer : new
loop true
MotorFluxoAtividadeDaemon -> MotorFluxoAtividadeServer: start
activate MotorFluxoAtividadeServer
MotorFluxoAtividadeServer -> MotorFluxoAtividadeServer: accept

Portal - -> MotorFluxoAtividadeServer

participant HandleClient <<thread>>
activate HandleClient
MotorFluxoAtividadeServer -\ HandleClient: start
deactivate MotorFluxoAtividadeServer
end

HandleClient -> MessageParser:parse
HandleClient -> HandleClient: execute
HandleClient -> MessageBuilder:build

HandleClient - -> Portal
deactivate HandleClient

@enduml

PlantUML version 1.2021.7(Sun May 23 13:40:07 BST 2021)
(GPL source distribution)
Java Runtime: OpenJDK Runtime Environment
JVM: Dynamic Code Evolution 64-Bit Server VM
Default Encoding: Cp1252
Language: pt
Country: PT
--></g></svg>