<?xml version="1.0" encoding="UTF-8" standalone="no"?><svg xmlns="http://www.w3.org/2000/svg" xmlns:xlink="http://www.w3.org/1999/xlink" contentScriptType="application/ecmascript" contentStyleType="text/css" height="715px" preserveAspectRatio="none" style="width:1335px;height:715px;" version="1.1" viewBox="0 0 1335 715" width="1335px" zoomAndPan="magnify"><defs><filter height="300%" id="fgpbesalfr9tv" width="300%" x="-1" y="-1"><feGaussianBlur result="blurOut" stdDeviation="2.0"/><feColorMatrix in="blurOut" result="blurOut2" type="matrix" values="0 0 0 0 0 0 0 0 0 0 0 0 0 0 0 0 0 0 .4 0"/><feOffset dx="4.0" dy="4.0" in="blurOut2" result="blurOut3"/><feBlend in="SourceGraphic" in2="blurOut3" mode="normal"/></filter></defs><g><rect fill="#FFFFFF" filter="url(#fgpbesalfr9tv)" height="484.9219" style="stroke: #A80036; stroke-width: 1.0;" width="10" x="19" y="119.9609"/><rect fill="#FFFFFF" filter="url(#fgpbesalfr9tv)" height="212.1094" style="stroke: #A80036; stroke-width: 1.0;" width="10" x="466" y="119.9609"/><rect fill="#FFFFFF" filter="url(#fgpbesalfr9tv)" height="91.0547" style="stroke: #A80036; stroke-width: 1.0;" width="10" x="466" y="362.4219"/><rect fill="#FFFFFF" filter="url(#fgpbesalfr9tv)" height="121.0547" style="stroke: #A80036; stroke-width: 1.0;" width="10" x="466" y="483.8281"/><rect fill="#FFFFFF" filter="url(#fgpbesalfr9tv)" height="151.4063" style="stroke: #A80036; stroke-width: 1.0;" width="10" x="664" y="150.3125"/><rect fill="#FFFFFF" filter="url(#fgpbesalfr9tv)" height="30.3516" style="stroke: #A80036; stroke-width: 1.0;" width="10" x="664" y="392.7734"/><rect fill="#FFFFFF" filter="url(#fgpbesalfr9tv)" height="60.3516" style="stroke: #A80036; stroke-width: 1.0;" width="10" x="664" y="514.1797"/><rect fill="#FFFFFF" filter="url(#fgpbesalfr9tv)" height="121.0547" style="stroke: #A80036; stroke-width: 1.0;" width="10" x="826" y="180.6641"/><rect fill="#FFFFFF" filter="url(#fgpbesalfr9tv)" height="60.3516" style="stroke: #A80036; stroke-width: 1.0;" width="10" x="996.5" y="211.0156"/><rect fill="#FFFFFF" filter="url(#fgpbesalfr9tv)" height="30" style="stroke: #A80036; stroke-width: 1.0;" width="10" x="1157" y="241.3672"/><rect fill="#FFFFFF" filter="url(#fgpbesalfr9tv)" height="30" style="stroke: #A80036; stroke-width: 1.0;" width="10" x="1157" y="544.5313"/><line style="stroke: #A80036; stroke-width: 1.0; stroke-dasharray: 5.0,5.0;" x1="24" x2="24" y1="87.6094" y2="622.8828"/><line style="stroke: #A80036; stroke-width: 1.0; stroke-dasharray: 5.0,5.0;" x1="470.5" x2="470.5" y1="87.6094" y2="622.8828"/><line style="stroke: #A80036; stroke-width: 1.0; stroke-dasharray: 5.0,5.0;" x1="669" x2="669" y1="87.6094" y2="622.8828"/><line style="stroke: #A80036; stroke-width: 1.0; stroke-dasharray: 5.0,5.0;" x1="831" x2="831" y1="87.6094" y2="622.8828"/><line style="stroke: #A80036; stroke-width: 1.0; stroke-dasharray: 5.0,5.0;" x1="1001" x2="1001" y1="87.6094" y2="622.8828"/><line style="stroke: #A80036; stroke-width: 1.0; stroke-dasharray: 5.0,5.0;" x1="1162" x2="1162" y1="87.6094" y2="622.8828"/><line style="stroke: #A80036; stroke-width: 1.0; stroke-dasharray: 5.0,5.0;" x1="1280" x2="1280" y1="87.6094" y2="622.8828"/><text fill="#000000" font-family="sans-serif" font-size="14" lengthAdjust="spacingAndGlyphs" textLength="26" x="8" y="84.5332">Ator</text><ellipse cx="24" cy="13" fill="#FEFECE" filter="url(#fgpbesalfr9tv)" rx="8" ry="8" style="stroke: #A80036; stroke-width: 2.0;"/><path d="M24,21 L24,48 M11,29 L37,29 M24,48 L11,63 M24,48 L37,63 " fill="none" filter="url(#fgpbesalfr9tv)" style="stroke: #A80036; stroke-width: 2.0;"/><text fill="#000000" font-family="sans-serif" font-size="14" lengthAdjust="spacingAndGlyphs" textLength="26" x="8" y="636.416">Ator</text><ellipse cx="24" cy="649.4922" fill="#FEFECE" filter="url(#fgpbesalfr9tv)" rx="8" ry="8" style="stroke: #A80036; stroke-width: 2.0;"/><path d="M24,657.4922 L24,684.4922 M11,665.4922 L37,665.4922 M24,684.4922 L11,699.4922 M24,684.4922 L37,699.4922 " fill="none" filter="url(#fgpbesalfr9tv)" style="stroke: #A80036; stroke-width: 2.0;"/><rect fill="#FEFECE" filter="url(#fgpbesalfr9tv)" height="49.2188" style="stroke: #A80036; stroke-width: 1.5;" width="125" x="406.5" y="33.3906"/><text fill="#000000" font-family="sans-serif" font-size="14" lengthAdjust="spacingAndGlyphs" textLength="111" x="413.5" y="54.9238">&lt;&lt;presentation&gt;&gt;</text><text fill="#000000" font-family="sans-serif" font-size="14" lengthAdjust="spacingAndGlyphs" textLength="58" x="440" y="72.5332">:ObjetoUI</text><rect fill="#FEFECE" filter="url(#fgpbesalfr9tv)" height="49.2188" style="stroke: #A80036; stroke-width: 1.5;" width="125" x="406.5" y="621.8828"/><text fill="#000000" font-family="sans-serif" font-size="14" lengthAdjust="spacingAndGlyphs" textLength="111" x="413.5" y="643.416">&lt;&lt;presentation&gt;&gt;</text><text fill="#000000" font-family="sans-serif" font-size="14" lengthAdjust="spacingAndGlyphs" textLength="58" x="440" y="661.0254">:ObjetoUI</text><rect fill="#FEFECE" filter="url(#fgpbesalfr9tv)" height="49.2188" style="stroke: #A80036; stroke-width: 1.5;" width="122" x="606" y="33.3906"/><text fill="#000000" font-family="sans-serif" font-size="14" lengthAdjust="spacingAndGlyphs" textLength="100" x="617" y="54.9238">&lt;&lt;application&gt;&gt;</text><text fill="#000000" font-family="sans-serif" font-size="14" lengthAdjust="spacingAndGlyphs" textLength="108" x="613" y="72.5332">:ObjetoController</text><rect fill="#FEFECE" filter="url(#fgpbesalfr9tv)" height="49.2188" style="stroke: #A80036; stroke-width: 1.5;" width="122" x="606" y="621.8828"/><text fill="#000000" font-family="sans-serif" font-size="14" lengthAdjust="spacingAndGlyphs" textLength="100" x="617" y="643.416">&lt;&lt;application&gt;&gt;</text><text fill="#000000" font-family="sans-serif" font-size="14" lengthAdjust="spacingAndGlyphs" textLength="108" x="613" y="661.0254">:ObjetoController</text><rect fill="#FEFECE" filter="url(#fgpbesalfr9tv)" height="49.2188" style="stroke: #A80036; stroke-width: 1.5;" width="136" x="761" y="33.3906"/><text fill="#000000" font-family="sans-serif" font-size="14" lengthAdjust="spacingAndGlyphs" textLength="105" x="776.5" y="54.9238">&lt;&lt;persistence&gt;&gt;</text><text fill="#000000" font-family="sans-serif" font-size="14" lengthAdjust="spacingAndGlyphs" textLength="122" x="768" y="72.5332">PersistenceContext</text><rect fill="#FEFECE" filter="url(#fgpbesalfr9tv)" height="49.2188" style="stroke: #A80036; stroke-width: 1.5;" width="136" x="761" y="621.8828"/><text fill="#000000" font-family="sans-serif" font-size="14" lengthAdjust="spacingAndGlyphs" textLength="105" x="776.5" y="643.416">&lt;&lt;persistence&gt;&gt;</text><text fill="#000000" font-family="sans-serif" font-size="14" lengthAdjust="spacingAndGlyphs" textLength="122" x="768" y="661.0254">PersistenceContext</text><rect fill="#FEFECE" filter="url(#fgpbesalfr9tv)" height="49.2188" style="stroke: #A80036; stroke-width: 1.5;" width="177" x="911" y="33.3906"/><text fill="#000000" font-family="sans-serif" font-size="14" lengthAdjust="spacingAndGlyphs" textLength="75" x="962" y="54.9238">&lt;&lt;factory&gt;&gt;</text><text fill="#000000" font-family="sans-serif" font-size="14" lengthAdjust="spacingAndGlyphs" textLength="163" x="918" y="72.5332">factory:RepositoryFactory</text><rect fill="#FEFECE" filter="url(#fgpbesalfr9tv)" height="49.2188" style="stroke: #A80036; stroke-width: 1.5;" width="177" x="911" y="621.8828"/><text fill="#000000" font-family="sans-serif" font-size="14" lengthAdjust="spacingAndGlyphs" textLength="75" x="962" y="643.416">&lt;&lt;factory&gt;&gt;</text><text fill="#000000" font-family="sans-serif" font-size="14" lengthAdjust="spacingAndGlyphs" textLength="163" x="918" y="661.0254">factory:RepositoryFactory</text><text fill="#000000" font-family="sans-serif" font-size="14" lengthAdjust="spacingAndGlyphs" textLength="95" x="1111.5" y="66.9238">&lt;&lt;repository&gt;&gt;</text><text fill="#000000" font-family="sans-serif" font-size="14" lengthAdjust="spacingAndGlyphs" textLength="114" x="1102" y="84.5332">:ObjetoRepository</text><path d="M1144,16.3906 C1144,6.3906 1162,6.3906 1162,6.3906 C1162,6.3906 1180,6.3906 1180,16.3906 L1180,42.3906 C1180,52.3906 1162,52.3906 1162,52.3906 C1162,52.3906 1144,52.3906 1144,42.3906 L1144,16.3906 " fill="#FEFECE" filter="url(#fgpbesalfr9tv)" style="stroke: #000000; stroke-width: 1.5;"/><path d="M1144,16.3906 C1144,26.3906 1162,26.3906 1162,26.3906 C1162,26.3906 1180,26.3906 1180,16.3906 " fill="none" style="stroke: #000000; stroke-width: 1.5;"/><text fill="#000000" font-family="sans-serif" font-size="14" lengthAdjust="spacingAndGlyphs" textLength="95" x="1111.5" y="636.416">&lt;&lt;repository&gt;&gt;</text><text fill="#000000" font-family="sans-serif" font-size="14" lengthAdjust="spacingAndGlyphs" textLength="114" x="1102" y="654.0254">:ObjetoRepository</text><path d="M1144,667.1016 C1144,657.1016 1162,657.1016 1162,657.1016 C1162,657.1016 1180,657.1016 1180,667.1016 L1180,693.1016 C1180,703.1016 1162,703.1016 1162,703.1016 C1162,703.1016 1144,703.1016 1144,693.1016 L1144,667.1016 " fill="#FEFECE" filter="url(#fgpbesalfr9tv)" style="stroke: #000000; stroke-width: 1.5;"/><path d="M1144,667.1016 C1144,677.1016 1162,677.1016 1162,677.1016 C1162,677.1016 1180,677.1016 1180,667.1016 " fill="none" style="stroke: #000000; stroke-width: 1.5;"/><rect fill="#FEFECE" filter="url(#fgpbesalfr9tv)" height="49.2188" style="stroke: #A80036; stroke-width: 1.5;" width="92" x="1232" y="33.3906"/><text fill="#000000" font-family="sans-serif" font-size="14" lengthAdjust="spacingAndGlyphs" textLength="78" x="1239" y="54.9238">&lt;&lt;domain&gt;&gt;</text><text fill="#000000" font-family="sans-serif" font-size="14" lengthAdjust="spacingAndGlyphs" textLength="46" x="1255" y="72.5332">:Objeto</text><rect fill="#FEFECE" filter="url(#fgpbesalfr9tv)" height="49.2188" style="stroke: #A80036; stroke-width: 1.5;" width="92" x="1232" y="621.8828"/><text fill="#000000" font-family="sans-serif" font-size="14" lengthAdjust="spacingAndGlyphs" textLength="78" x="1239" y="643.416">&lt;&lt;domain&gt;&gt;</text><text fill="#000000" font-family="sans-serif" font-size="14" lengthAdjust="spacingAndGlyphs" textLength="46" x="1255" y="661.0254">:Objeto</text><rect fill="#FFFFFF" filter="url(#fgpbesalfr9tv)" height="484.9219" style="stroke: #A80036; stroke-width: 1.0;" width="10" x="19" y="119.9609"/><rect fill="#FFFFFF" filter="url(#fgpbesalfr9tv)" height="212.1094" style="stroke: #A80036; stroke-width: 1.0;" width="10" x="466" y="119.9609"/><rect fill="#FFFFFF" filter="url(#fgpbesalfr9tv)" height="91.0547" style="stroke: #A80036; stroke-width: 1.0;" width="10" x="466" y="362.4219"/><rect fill="#FFFFFF" filter="url(#fgpbesalfr9tv)" height="121.0547" style="stroke: #A80036; stroke-width: 1.0;" width="10" x="466" y="483.8281"/><rect fill="#FFFFFF" filter="url(#fgpbesalfr9tv)" height="151.4063" style="stroke: #A80036; stroke-width: 1.0;" width="10" x="664" y="150.3125"/><rect fill="#FFFFFF" filter="url(#fgpbesalfr9tv)" height="30.3516" style="stroke: #A80036; stroke-width: 1.0;" width="10" x="664" y="392.7734"/><rect fill="#FFFFFF" filter="url(#fgpbesalfr9tv)" height="60.3516" style="stroke: #A80036; stroke-width: 1.0;" width="10" x="664" y="514.1797"/><rect fill="#FFFFFF" filter="url(#fgpbesalfr9tv)" height="121.0547" style="stroke: #A80036; stroke-width: 1.0;" width="10" x="826" y="180.6641"/><rect fill="#FFFFFF" filter="url(#fgpbesalfr9tv)" height="60.3516" style="stroke: #A80036; stroke-width: 1.0;" width="10" x="996.5" y="211.0156"/><rect fill="#FFFFFF" filter="url(#fgpbesalfr9tv)" height="30" style="stroke: #A80036; stroke-width: 1.0;" width="10" x="1157" y="241.3672"/><rect fill="#FFFFFF" filter="url(#fgpbesalfr9tv)" height="30" style="stroke: #A80036; stroke-width: 1.0;" width="10" x="1157" y="544.5313"/><polygon fill="#A80036" points="454,115.9609,464,119.9609,454,123.9609,458,119.9609" style="stroke: #A80036; stroke-width: 1.0;"/><line style="stroke: #A80036; stroke-width: 1.0;" x1="29" x2="460" y1="119.9609" y2="119.9609"/><text fill="#000000" font-family="sans-serif" font-size="13" font-weight="bold" lengthAdjust="spacingAndGlyphs" textLength="7" x="36" y="115.1045">1</text><text fill="#000000" font-family="sans-serif" font-size="13" lengthAdjust="spacingAndGlyphs" textLength="136" x="47" y="115.1045">Especificar novo Objeto</text><polygon fill="#A80036" points="652,146.3125,662,150.3125,652,154.3125,656,150.3125" style="stroke: #A80036; stroke-width: 1.0;"/><line style="stroke: #A80036; stroke-width: 1.0;" x1="476" x2="658" y1="150.3125" y2="150.3125"/><text fill="#000000" font-family="sans-serif" font-size="13" font-weight="bold" lengthAdjust="spacingAndGlyphs" textLength="7" x="483" y="145.4561">2</text><text fill="#000000" font-family="sans-serif" font-size="13" lengthAdjust="spacingAndGlyphs" textLength="36" x="494" y="145.4561">create</text><polygon fill="#A80036" points="814,176.6641,824,180.6641,814,184.6641,818,180.6641" style="stroke: #A80036; stroke-width: 1.0;"/><line style="stroke: #A80036; stroke-width: 1.0;" x1="674" x2="820" y1="180.6641" y2="180.6641"/><text fill="#000000" font-family="sans-serif" font-size="13" font-weight="bold" lengthAdjust="spacingAndGlyphs" textLength="7" x="681" y="175.8076">3</text><text fill="#000000" font-family="sans-serif" font-size="13" lengthAdjust="spacingAndGlyphs" textLength="122" x="692" y="175.8076">factory=repositories()</text><polygon fill="#A80036" points="984.5,207.0156,994.5,211.0156,984.5,215.0156,988.5,211.0156" style="stroke: #A80036; stroke-width: 1.0;"/><line style="stroke: #A80036; stroke-width: 1.0;" x1="836" x2="990.5" y1="211.0156" y2="211.0156"/><text fill="#000000" font-family="sans-serif" font-size="13" font-weight="bold" lengthAdjust="spacingAndGlyphs" textLength="7" x="843" y="206.1592">4</text><text fill="#000000" font-family="sans-serif" font-size="13" lengthAdjust="spacingAndGlyphs" textLength="44" x="854" y="206.1592">create()</text><polygon fill="#A80036" points="1145,237.3672,1155,241.3672,1145,245.3672,1149,241.3672" style="stroke: #A80036; stroke-width: 1.0;"/><line style="stroke: #A80036; stroke-width: 1.0;" x1="1006.5" x2="1151" y1="241.3672" y2="241.3672"/><text fill="#000000" font-family="sans-serif" font-size="13" font-weight="bold" lengthAdjust="spacingAndGlyphs" textLength="7" x="1013.5" y="236.5107">5</text><text fill="#000000" font-family="sans-serif" font-size="13" lengthAdjust="spacingAndGlyphs" textLength="44" x="1024.5" y="236.5107">create()</text><polygon fill="#A80036" points="680,297.7188,670,301.7188,680,305.7188,676,301.7188" style="stroke: #A80036; stroke-width: 1.0;"/><line style="stroke: #A80036; stroke-width: 1.0; stroke-dasharray: 2.0,2.0;" x1="674" x2="830" y1="301.7188" y2="301.7188"/><text fill="#000000" font-family="sans-serif" font-size="13" font-weight="bold" lengthAdjust="spacingAndGlyphs" textLength="7" x="686" y="296.8623">6</text><text fill="#000000" font-family="sans-serif" font-size="13" lengthAdjust="spacingAndGlyphs" textLength="100" x="697" y="296.8623">ObjetoRepository</text><polygon fill="#A80036" points="40,328.0703,30,332.0703,40,336.0703,36,332.0703" style="stroke: #A80036; stroke-width: 1.0;"/><line style="stroke: #A80036; stroke-width: 1.0; stroke-dasharray: 2.0,2.0;" x1="34" x2="470" y1="332.0703" y2="332.0703"/><text fill="#000000" font-family="sans-serif" font-size="13" font-weight="bold" lengthAdjust="spacingAndGlyphs" textLength="7" x="46" y="327.2139">7</text><text fill="#000000" font-family="sans-serif" font-size="13" lengthAdjust="spacingAndGlyphs" textLength="224" x="57" y="327.2139">Solicita as informações sobre o Objeto</text><polygon fill="#A80036" points="454,358.4219,464,362.4219,454,366.4219,458,362.4219" style="stroke: #A80036; stroke-width: 1.0;"/><line style="stroke: #A80036; stroke-width: 1.0;" x1="29" x2="460" y1="362.4219" y2="362.4219"/><text fill="#000000" font-family="sans-serif" font-size="13" font-weight="bold" lengthAdjust="spacingAndGlyphs" textLength="7" x="36" y="357.5654">8</text><text fill="#000000" font-family="sans-serif" font-size="13" lengthAdjust="spacingAndGlyphs" textLength="227" x="47" y="357.5654">Introduz as informações sobre o Objeto</text><polygon fill="#A80036" points="652,388.7734,662,392.7734,652,396.7734,656,392.7734" style="stroke: #A80036; stroke-width: 1.0;"/><line style="stroke: #A80036; stroke-width: 1.0;" x1="476" x2="658" y1="392.7734" y2="392.7734"/><text fill="#000000" font-family="sans-serif" font-size="13" font-weight="bold" lengthAdjust="spacingAndGlyphs" textLength="7" x="483" y="387.917">9</text><text fill="#000000" font-family="sans-serif" font-size="13" lengthAdjust="spacingAndGlyphs" textLength="158" x="494" y="387.917">objeto = novoObjeto(dados)</text><polygon fill="#A80036" points="1268,419.125,1278,423.125,1268,427.125,1272,423.125" style="stroke: #A80036; stroke-width: 1.0;"/><line style="stroke: #A80036; stroke-width: 1.0;" x1="669" x2="1274" y1="423.125" y2="423.125"/><text fill="#000000" font-family="sans-serif" font-size="13" font-weight="bold" lengthAdjust="spacingAndGlyphs" textLength="14" x="676" y="418.2686">10</text><text fill="#000000" font-family="sans-serif" font-size="13" lengthAdjust="spacingAndGlyphs" textLength="79" x="694" y="418.2686">create(dados)</text><polygon fill="#A80036" points="40,449.4766,30,453.4766,40,457.4766,36,453.4766" style="stroke: #A80036; stroke-width: 1.0;"/><line style="stroke: #A80036; stroke-width: 1.0; stroke-dasharray: 2.0,2.0;" x1="34" x2="470" y1="453.4766" y2="453.4766"/><text fill="#000000" font-family="sans-serif" font-size="13" font-weight="bold" lengthAdjust="spacingAndGlyphs" textLength="14" x="46" y="448.6201">11</text><text fill="#000000" font-family="sans-serif" font-size="13" lengthAdjust="spacingAndGlyphs" textLength="280" x="64" y="448.6201">Apresenta as informações e pede para confirmar</text><polygon fill="#A80036" points="454,479.8281,464,483.8281,454,487.8281,458,483.8281" style="stroke: #A80036; stroke-width: 1.0;"/><line style="stroke: #A80036; stroke-width: 1.0;" x1="29" x2="460" y1="483.8281" y2="483.8281"/><text fill="#000000" font-family="sans-serif" font-size="13" font-weight="bold" lengthAdjust="spacingAndGlyphs" textLength="14" x="36" y="478.9717">12</text><text fill="#000000" font-family="sans-serif" font-size="13" lengthAdjust="spacingAndGlyphs" textLength="51" x="54" y="478.9717">Confirma</text><polygon fill="#A80036" points="652,510.1797,662,514.1797,652,518.1797,656,514.1797" style="stroke: #A80036; stroke-width: 1.0;"/><line style="stroke: #A80036; stroke-width: 1.0;" x1="476" x2="658" y1="514.1797" y2="514.1797"/><text fill="#000000" font-family="sans-serif" font-size="13" font-weight="bold" lengthAdjust="spacingAndGlyphs" textLength="14" x="483" y="509.3232">13</text><text fill="#000000" font-family="sans-serif" font-size="13" lengthAdjust="spacingAndGlyphs" textLength="89" x="501" y="509.3232">registarObjeto()</text><polygon fill="#A80036" points="1145,540.5313,1155,544.5313,1145,548.5313,1149,544.5313" style="stroke: #A80036; stroke-width: 1.0;"/><line style="stroke: #A80036; stroke-width: 1.0;" x1="674" x2="1151" y1="544.5313" y2="544.5313"/><text fill="#000000" font-family="sans-serif" font-size="13" font-weight="bold" lengthAdjust="spacingAndGlyphs" textLength="14" x="681" y="539.6748">14</text><text fill="#000000" font-family="sans-serif" font-size="13" lengthAdjust="spacingAndGlyphs" textLength="69" x="699" y="539.6748">save(objeto)</text><polygon fill="#A80036" points="35,600.8828,25,604.8828,35,608.8828,31,604.8828" style="stroke: #A80036; stroke-width: 1.0;"/><line style="stroke: #A80036; stroke-width: 1.0; stroke-dasharray: 2.0,2.0;" x1="29" x2="470" y1="604.8828" y2="604.8828"/><text fill="#000000" font-family="sans-serif" font-size="13" font-weight="bold" lengthAdjust="spacingAndGlyphs" textLength="14" x="41" y="600.0264">15</text><text fill="#000000" font-family="sans-serif" font-size="13" lengthAdjust="spacingAndGlyphs" textLength="395" x="59" y="600.0264">Adiciona as informações à base de dados e informa do seu sucesso</text><!--MD5=[ee84a897866e82e4b12433a7b470740f]
@startuml
autonumber

actor "Ator" as ADMIN
participant "<<presentation>>\n:ObjetoUI" as UI
participant "<<application>>\n:ObjetoController" as CONTROLLER
participant "<<persistence>>\nPersistenceContext" as PERS
participant "<<factory>>\nfactory:RepositoryFactory" as FAC
database "<<repository>>\n:ObjetoRepository" as DB
participant "<<domain>>\n:Objeto" AS C

ADMIN -> UI : Especificar novo Objeto
activate ADMIN

activate UI
UI -> CONTROLLER: create
activate CONTROLLER
CONTROLLER -> PERS: factory=repositories()
activate PERS
PERS ->FAC: create()

activate FAC
FAC->DB : create()
activate DB
deactivate FAC
deactivate DB
PERS- ->CONTROLLER: ObjetoRepository
deactivate PERS
deactivate CONTROLLER

UI - -> ADMIN : Solicita as informações sobre o Objeto
deactivate UI

ADMIN -> UI : Introduz as informações sobre o Objeto
activate UI
    UI -> CONTROLLER : objeto = novoObjeto(dados)
    activate CONTROLLER

        CONTROLLER -> C : create(dados)

    deactivate CONTROLLER

UI - -> ADMIN : Apresenta as informações e pede para confirmar
deactivate UI

ADMIN -> UI : Confirma
activate UI
    UI -> CONTROLLER : registarObjeto()
    activate CONTROLLER

        CONTROLLER-> DB: save(objeto)
        activate DB
        deactivate DB

   deactivate CONTROLLER

UI - -> ADMIN : Adiciona as informações à base de dados e informa do seu sucesso
deactivate UI
deactivate ADMIN

@enduml

PlantUML version 1.2020.07(Sun Apr 19 12:42:40 BST 2020)
(GPL source distribution)
Java Runtime: OpenJDK Runtime Environment
JVM: OpenJDK 64-Bit Server VM
Java Version: 11.0.6+8-b765.25
Operating System: Windows 10
Default Encoding: Cp1252
Language: pt
Country: PT
--></g></svg>