<?xml version="1.0" encoding="UTF-8" standalone="no"?><svg xmlns="http://www.w3.org/2000/svg" xmlns:xlink="http://www.w3.org/1999/xlink" contentScriptType="application/ecmascript" contentStyleType="text/css" height="440px" preserveAspectRatio="none" style="width:974px;height:440px;" version="1.1" viewBox="0 0 974 440" width="974px" zoomAndPan="magnify"><defs><filter height="300%" id="fgkuncbnxuv17" width="300%" x="-1" y="-1"><feGaussianBlur result="blurOut" stdDeviation="2.0"/><feColorMatrix in="blurOut" result="blurOut2" type="matrix" values="0 0 0 0 0 0 0 0 0 0 0 0 0 0 0 0 0 0 .4 0"/><feOffset dx="4.0" dy="4.0" in="blurOut2" result="blurOut3"/><feBlend in="SourceGraphic" in2="blurOut3" mode="normal"/></filter></defs><g><rect fill="#FFFFFF" filter="url(#fgkuncbnxuv17)" height="87.7031" style="stroke:#A80036;stroke-width:1.0;" width="10" x="474.5" y="147.2734"/><rect fill="#FFFFFF" filter="url(#fgkuncbnxuv17)" height="155.4063" style="stroke:#A80036;stroke-width:1.0;" width="10" x="654" y="204.625"/><rect fill="#FFFFFF" filter="url(#fgkuncbnxuv17)" height="136.4063" style="stroke:#000000;stroke-width:2.0;" width="708" x="10" y="106.5703"/><line style="stroke:#A80036;stroke-width:1.0;stroke-dasharray:5.0,5.0;" x1="53" x2="53" y1="59.2188" y2="378.0313"/><line style="stroke:#A80036;stroke-width:1.0;stroke-dasharray:5.0,5.0;" x1="223" x2="223" y1="59.2188" y2="378.0313"/><line style="stroke:#A80036;stroke-width:1.0;stroke-dasharray:5.0,5.0;" x1="479" x2="479" y1="59.2188" y2="378.0313"/><line style="stroke:#A80036;stroke-width:1.0;stroke-dasharray:5.0,5.0;" x1="659" x2="659" y1="59.2188" y2="378.0313"/><line style="stroke:#A80036;stroke-width:1.0;stroke-dasharray:5.0,5.0;" x1="776" x2="776" y1="59.2188" y2="378.0313"/><line style="stroke:#A80036;stroke-width:1.0;stroke-dasharray:5.0,5.0;" x1="904" x2="904" y1="59.2188" y2="378.0313"/><rect fill="#FEFECE" filter="url(#fgkuncbnxuv17)" height="49.2188" style="stroke:#A80036;stroke-width:1.5;" width="63" x="20" y="5"/><text fill="#000000" font-family="sans-serif" font-size="14" font-style="italic" lengthAdjust="spacing" textLength="49" x="27" y="26.5332">«client»</text><text fill="#000000" font-family="sans-serif" font-size="14" lengthAdjust="spacing" textLength="37" x="33" y="44.1426">Portal</text><rect fill="#FEFECE" filter="url(#fgkuncbnxuv17)" height="49.2188" style="stroke:#A80036;stroke-width:1.5;" width="63" x="20" y="377.0313"/><text fill="#000000" font-family="sans-serif" font-size="14" font-style="italic" lengthAdjust="spacing" textLength="49" x="27" y="398.5645">«client»</text><text fill="#000000" font-family="sans-serif" font-size="14" lengthAdjust="spacing" textLength="37" x="33" y="416.1738">Portal</text><rect fill="#FEFECE" filter="url(#fgkuncbnxuv17)" height="31.6094" style="stroke:#A80036;stroke-width:1.5;" width="248" x="97" y="22.6094"/><text fill="#000000" font-family="sans-serif" font-size="14" lengthAdjust="spacing" textLength="234" x="104" y="44.1426">ExecutorTarefasAutomaticasDaemon</text><rect fill="#FEFECE" filter="url(#fgkuncbnxuv17)" height="31.6094" style="stroke:#A80036;stroke-width:1.5;" width="248" x="97" y="377.0313"/><text fill="#000000" font-family="sans-serif" font-size="14" lengthAdjust="spacing" textLength="234" x="104" y="398.5645">ExecutorTarefasAutomaticasDaemon</text><rect fill="#FEFECE" filter="url(#fgkuncbnxuv17)" height="31.6094" style="stroke:#A80036;stroke-width:1.5;" width="237" x="359" y="22.6094"/><text fill="#000000" font-family="sans-serif" font-size="14" lengthAdjust="spacing" textLength="223" x="366" y="44.1426">ExecutorTarefasAutomaticasServer</text><rect fill="#FEFECE" filter="url(#fgkuncbnxuv17)" height="31.6094" style="stroke:#A80036;stroke-width:1.5;" width="237" x="359" y="377.0313"/><text fill="#000000" font-family="sans-serif" font-size="14" lengthAdjust="spacing" textLength="223" x="366" y="398.5645">ExecutorTarefasAutomaticasServer</text><rect fill="#FEFECE" filter="url(#fgkuncbnxuv17)" height="49.2188" style="stroke:#A80036;stroke-width:1.5;" width="94" x="610" y="5"/><text fill="#000000" font-family="sans-serif" font-size="14" font-style="italic" lengthAdjust="spacing" textLength="57" x="628.5" y="26.5332">«thread»</text><text fill="#000000" font-family="sans-serif" font-size="14" lengthAdjust="spacing" textLength="80" x="617" y="44.1426">HandleClient</text><rect fill="#FEFECE" filter="url(#fgkuncbnxuv17)" height="49.2188" style="stroke:#A80036;stroke-width:1.5;" width="94" x="610" y="377.0313"/><text fill="#000000" font-family="sans-serif" font-size="14" font-style="italic" lengthAdjust="spacing" textLength="57" x="628.5" y="398.5645">«thread»</text><text fill="#000000" font-family="sans-serif" font-size="14" lengthAdjust="spacing" textLength="80" x="617" y="416.1738">HandleClient</text><rect fill="#FEFECE" filter="url(#fgkuncbnxuv17)" height="31.6094" style="stroke:#A80036;stroke-width:1.5;" width="113" x="718" y="22.6094"/><text fill="#000000" font-family="sans-serif" font-size="14" lengthAdjust="spacing" textLength="99" x="725" y="44.1426">MessageParser</text><rect fill="#FEFECE" filter="url(#fgkuncbnxuv17)" height="31.6094" style="stroke:#A80036;stroke-width:1.5;" width="113" x="718" y="377.0313"/><text fill="#000000" font-family="sans-serif" font-size="14" lengthAdjust="spacing" textLength="99" x="725" y="398.5645">MessageParser</text><rect fill="#FEFECE" filter="url(#fgkuncbnxuv17)" height="31.6094" style="stroke:#A80036;stroke-width:1.5;" width="115" x="845" y="22.6094"/><text fill="#000000" font-family="sans-serif" font-size="14" lengthAdjust="spacing" textLength="101" x="852" y="44.1426">MessageBuilder</text><rect fill="#FEFECE" filter="url(#fgkuncbnxuv17)" height="31.6094" style="stroke:#A80036;stroke-width:1.5;" width="115" x="845" y="377.0313"/><text fill="#000000" font-family="sans-serif" font-size="14" lengthAdjust="spacing" textLength="101" x="852" y="398.5645">MessageBuilder</text><rect fill="#FFFFFF" filter="url(#fgkuncbnxuv17)" height="87.7031" style="stroke:#A80036;stroke-width:1.0;" width="10" x="474.5" y="147.2734"/><rect fill="#FFFFFF" filter="url(#fgkuncbnxuv17)" height="155.4063" style="stroke:#A80036;stroke-width:1.0;" width="10" x="654" y="204.625"/><polygon fill="#A80036" points="467.5,87.5703,477.5,91.5703,467.5,95.5703,471.5,91.5703" style="stroke:#A80036;stroke-width:1.0;"/><line style="stroke:#A80036;stroke-width:1.0;" x1="223" x2="473.5" y1="91.5703" y2="91.5703"/><text fill="#000000" font-family="sans-serif" font-size="13" lengthAdjust="spacing" textLength="23" x="230" y="86.7139">new</text><path d="M10,106.5703 L83,106.5703 L83,114.5703 L73,124.5703 L10,124.5703 L10,106.5703 " fill="#EEEEEE" style="stroke:#000000;stroke-width:1.0;"/><rect fill="none" height="136.4063" style="stroke:#000000;stroke-width:2.0;" width="708" x="10" y="106.5703"/><text fill="#000000" font-family="sans-serif" font-size="13" font-weight="bold" lengthAdjust="spacing" textLength="28" x="25" y="121.0654">loop</text><text fill="#000000" font-family="sans-serif" font-size="11" font-weight="bold" lengthAdjust="spacing" textLength="31" x="98" y="119.9893">[true]</text><polygon fill="#A80036" points="462.5,143.2734,472.5,147.2734,462.5,151.2734,466.5,147.2734" style="stroke:#A80036;stroke-width:1.0;"/><line style="stroke:#A80036;stroke-width:1.0;" x1="223" x2="468.5" y1="147.2734" y2="147.2734"/><text fill="#000000" font-family="sans-serif" font-size="13" lengthAdjust="spacing" textLength="26" x="230" y="142.417">start</text><line style="stroke:#A80036;stroke-width:1.0;" x1="484.5" x2="526.5" y1="177.625" y2="177.625"/><line style="stroke:#A80036;stroke-width:1.0;" x1="526.5" x2="526.5" y1="177.625" y2="190.625"/><line style="stroke:#A80036;stroke-width:1.0;" x1="485.5" x2="526.5" y1="190.625" y2="190.625"/><polygon fill="#A80036" points="495.5,186.625,485.5,190.625,495.5,194.625,491.5,190.625" style="stroke:#A80036;stroke-width:1.0;"/><text fill="#000000" font-family="sans-serif" font-size="13" lengthAdjust="spacing" textLength="39" x="491.5" y="172.7686">accept</text><polygon fill="#A80036" points="462.5,200.625,472.5,204.625,462.5,208.625,466.5,204.625" style="stroke:#A80036;stroke-width:1.0;"/><line style="stroke:#A80036;stroke-width:1.0;stroke-dasharray:2.0,2.0;" x1="53.5" x2="468.5" y1="204.625" y2="204.625"/><polygon fill="#A80036" points="642,230.9766,652,234.9766,642,234.9766" style="stroke:#A80036;stroke-width:1.0;"/><line style="stroke:#A80036;stroke-width:1.0;" x1="479.5" x2="653" y1="234.9766" y2="234.9766"/><text fill="#000000" font-family="sans-serif" font-size="13" lengthAdjust="spacing" textLength="26" x="486.5" y="230.1201">start</text><polygon fill="#A80036" points="764.5,268.3281,774.5,272.3281,764.5,276.3281,768.5,272.3281" style="stroke:#A80036;stroke-width:1.0;"/><line style="stroke:#A80036;stroke-width:1.0;" x1="664" x2="770.5" y1="272.3281" y2="272.3281"/><text fill="#000000" font-family="sans-serif" font-size="13" lengthAdjust="spacing" textLength="32" x="671" y="267.4717">parse</text><line style="stroke:#A80036;stroke-width:1.0;" x1="664" x2="706" y1="302.6797" y2="302.6797"/><line style="stroke:#A80036;stroke-width:1.0;" x1="706" x2="706" y1="302.6797" y2="315.6797"/><line style="stroke:#A80036;stroke-width:1.0;" x1="665" x2="706" y1="315.6797" y2="315.6797"/><polygon fill="#A80036" points="675,311.6797,665,315.6797,675,319.6797,671,315.6797" style="stroke:#A80036;stroke-width:1.0;"/><text fill="#000000" font-family="sans-serif" font-size="13" lengthAdjust="spacing" textLength="46" x="671" y="297.8232">execute</text><polygon fill="#A80036" points="892.5,342.0313,902.5,346.0313,892.5,350.0313,896.5,346.0313" style="stroke:#A80036;stroke-width:1.0;"/><line style="stroke:#A80036;stroke-width:1.0;" x1="664" x2="898.5" y1="346.0313" y2="346.0313"/><text fill="#000000" font-family="sans-serif" font-size="13" lengthAdjust="spacing" textLength="27" x="671" y="341.1748">build</text><polygon fill="#A80036" points="64.5,356.0313,54.5,360.0313,64.5,364.0313,60.5,360.0313" style="stroke:#A80036;stroke-width:1.0;"/><line style="stroke:#A80036;stroke-width:1.0;stroke-dasharray:2.0,2.0;" x1="58.5" x2="658" y1="360.0313" y2="360.0313"/><!--MD5=[fb2d411a140c69209d14289e865c521e]
@startuml use-case-realization.svg

participant Portal <<client>>

ExecutorTarefasAutomaticasDaemon -> ExecutorTarefasAutomaticasServer : new
loop true
ExecutorTarefasAutomaticasDaemon -> ExecutorTarefasAutomaticasServer: start
activate ExecutorTarefasAutomaticasServer
ExecutorTarefasAutomaticasServer -> ExecutorTarefasAutomaticasServer: accept

Portal - -> ExecutorTarefasAutomaticasServer

participant HandleClient <<thread>>
activate HandleClient
ExecutorTarefasAutomaticasServer -\ HandleClient: start
deactivate ExecutorTarefasAutomaticasServer
end

HandleClient -> MessageParser:parse
HandleClient -> HandleClient: execute
HandleClient -> MessageBuilder:build

HandleClient - -> Portal
deactivate HandleClient

@enduml

PlantUML version 1.2021.5(Sun Apr 25 12:20:28 BST 2021)
(GPL source distribution)
Java Runtime: OpenJDK Runtime Environment
JVM: OpenJDK 64-Bit Server VM
Default Encoding: Cp1252
Language: pt
Country: PT
--></g></svg>