<?xml version="1.0" encoding="UTF-8" standalone="no"?><svg xmlns="http://www.w3.org/2000/svg" xmlns:xlink="http://www.w3.org/1999/xlink" contentScriptType="application/ecmascript" contentStyleType="text/css" height="697px" preserveAspectRatio="none" style="width:1518px;height:697px;" version="1.1" viewBox="0 0 1518 697" width="1518px" zoomAndPan="magnify"><defs><filter height="300%" id="f59f5tmiuc6wd" width="300%" x="-1" y="-1"><feGaussianBlur result="blurOut" stdDeviation="2.0"/><feColorMatrix in="blurOut" result="blurOut2" type="matrix" values="0 0 0 0 0 0 0 0 0 0 0 0 0 0 0 0 0 0 .4 0"/><feOffset dx="4.0" dy="4.0" in="blurOut2" result="blurOut3"/><feBlend in="SourceGraphic" in2="blurOut3" mode="normal"/></filter></defs><g><!--MD5=[cacd3d18b727cb321ef8926f1d659b83]
entity CatalogoRepository--><path d="M546,654 C546,644 618.5,644 618.5,644 C618.5,644 691,644 691,654 L691,680.6094 C691,690.6094 618.5,690.6094 618.5,690.6094 C618.5,690.6094 546,690.6094 546,680.6094 L546,654 " fill="#FFFFFF" filter="url(#f59f5tmiuc6wd)" style="stroke:#000000;stroke-width:1.5;"/><path d="M546,654 C546,664 618.5,664 618.5,664 C618.5,664 691,664 691,654 " fill="none" style="stroke:#000000;stroke-width:1.5;"/><text fill="#000000" font-family="sans-serif" font-size="14" lengthAdjust="spacing" textLength="125" x="556" y="682.5332">CatalogoRepository</text><!--MD5=[cf3e256d69afccc74918316e49942329]
entity ServicoRepository--><path d="M208,654 C208,644 275.5,644 275.5,644 C275.5,644 343,644 343,654 L343,680.6094 C343,690.6094 275.5,690.6094 275.5,690.6094 C275.5,690.6094 208,690.6094 208,680.6094 L208,654 " fill="#FFFFFF" filter="url(#f59f5tmiuc6wd)" style="stroke:#000000;stroke-width:1.5;"/><path d="M208,654 C208,664 275.5,664 275.5,664 C275.5,664 343,664 343,654 " fill="none" style="stroke:#000000;stroke-width:1.5;"/><text fill="#000000" font-family="sans-serif" font-size="14" lengthAdjust="spacing" textLength="115" x="218" y="682.5332">ServicoRepository</text><!--MD5=[28c9bda271030807cdad5c6d2fc077c2]
entity ObjetivoRepository--><path d="M1033.5,654 C1033.5,644 1103.5,644 1103.5,644 C1103.5,644 1173.5,644 1173.5,654 L1173.5,680.6094 C1173.5,690.6094 1103.5,690.6094 1103.5,690.6094 C1103.5,690.6094 1033.5,690.6094 1033.5,680.6094 L1033.5,654 " fill="#FFFFFF" filter="url(#f59f5tmiuc6wd)" style="stroke:#000000;stroke-width:1.5;"/><path d="M1033.5,654 C1033.5,664 1103.5,664 1103.5,664 C1103.5,664 1173.5,664 1173.5,654 " fill="none" style="stroke:#000000;stroke-width:1.5;"/><text fill="#000000" font-family="sans-serif" font-size="14" lengthAdjust="spacing" textLength="120" x="1043.5" y="682.5332">ObjetivoRepository</text><!--MD5=[27c29abab0c7775de6854ef0ca282742]
entity ColaboradorRepository--><path d="M6,654 C6,644 89.5,644 89.5,644 C89.5,644 173,644 173,654 L173,680.6094 C173,690.6094 89.5,690.6094 89.5,690.6094 C89.5,690.6094 6,690.6094 6,680.6094 L6,654 " fill="#FFFFFF" filter="url(#f59f5tmiuc6wd)" style="stroke:#000000;stroke-width:1.5;"/><path d="M6,654 C6,664 89.5,664 89.5,664 C89.5,664 173,664 173,654 " fill="none" style="stroke:#000000;stroke-width:1.5;"/><text fill="#000000" font-family="sans-serif" font-size="14" lengthAdjust="spacing" textLength="147" x="16" y="682.5332">ColaboradorRepository</text><!--MD5=[905ea744a9ca46b816587bb64f7c2c7a]
entity EquipaRepository--><path d="M378.5,654 C378.5,644 444.5,644 444.5,644 C444.5,644 510.5,644 510.5,654 L510.5,680.6094 C510.5,690.6094 444.5,690.6094 444.5,690.6094 C444.5,690.6094 378.5,690.6094 378.5,680.6094 L378.5,654 " fill="#FFFFFF" filter="url(#f59f5tmiuc6wd)" style="stroke:#000000;stroke-width:1.5;"/><path d="M378.5,654 C378.5,664 444.5,664 444.5,664 C444.5,664 510.5,664 510.5,654 " fill="none" style="stroke:#000000;stroke-width:1.5;"/><text fill="#000000" font-family="sans-serif" font-size="14" lengthAdjust="spacing" textLength="112" x="388.5" y="682.5332">EquipaRepository</text><!--MD5=[8c01ac59a611d6936397882cc9b13394]
class CriarCatalogoUI--><rect codeLine="6" fill="#FEFECE" filter="url(#f59f5tmiuc6wd)" height="48" id="CriarCatalogoUI" style="stroke:#A80036;stroke-width:1.5;" width="121" x="465" y="7"/><ellipse cx="480" cy="23" fill="#ADD1B2" rx="11" ry="11" style="stroke:#A80036;stroke-width:1.0;"/><path d="M482,19.5 Q482.2031,19 482.4375,18.75 Q482.6719,18.5 482.9375,18.5 Q483.4063,18.5 483.7031,18.7813 Q484,19.0625 484,19.7188 L484,21.2813 Q484,21.9375 483.7188,22.2188 Q483.4375,22.5 483,22.5 Q482.6094,22.5 482.3594,22.3281 Q482.1094,22.1563 482,21.7031 Q481.9531,21.3906 481.7813,21.2188 Q481.4688,20.8906 480.9063,20.7031 Q480.3438,20.5 479.7813,20.5 Q479.0781,20.5 478.4844,20.7813 Q477.9063,21.0625 477.4531,21.6875 Q477,22.3125 477,23.1719 L477,24.0938 Q477,25.125 477.8438,25.8125 Q478.6875,26.5 480.1875,26.5 Q481.0781,26.5 481.7031,26.2969 Q482.0625,26.1875 482.4688,25.8281 Q482.7344,25.625 482.875,25.5625 Q483.0156,25.5 483.1875,25.5 Q483.5156,25.5 483.75,25.7656 Q484,26.0156 484,26.375 Q484,26.7188 483.6563,27.125 Q483.1563,27.7188 482.3594,28.0469 Q481.3125,28.5 480.0313,28.5 Q478.5313,28.5 477.3281,27.9063 Q476.3594,27.4375 475.6719,26.4219 Q475,25.4063 475,24.2031 L475,23.1094 Q475,21.8594 475.5938,20.7656 Q476.2031,19.6719 477.25,19.0938 Q478.3125,18.5 479.5,18.5 Q480.2188,18.5 480.8438,18.75 Q481.4688,19 482,19.5 Z " fill="#000000"/><text fill="#000000" font-family="sans-serif" font-size="12" lengthAdjust="spacing" textLength="89" x="494" y="27.9102">CriarCatalogoUI</text><line style="stroke:#A80036;stroke-width:1.5;" x1="466" x2="585" y1="39" y2="39"/><line style="stroke:#A80036;stroke-width:1.5;" x1="466" x2="585" y1="47" y2="47"/><!--MD5=[0e1dc43859b84d1dc076ca03782cdf89]
class CriarCatalogoController--><rect codeLine="9" fill="#FEFECE" filter="url(#f59f5tmiuc6wd)" height="131.0156" id="CriarCatalogoController" style="stroke:#A80036;stroke-width:1.5;" width="601" x="225" y="116"/><ellipse cx="455.75" cy="132" fill="#ADD1B2" rx="11" ry="11" style="stroke:#A80036;stroke-width:1.0;"/><path d="M457.75,128.5 Q457.9531,128 458.1875,127.75 Q458.4219,127.5 458.6875,127.5 Q459.1563,127.5 459.4531,127.7813 Q459.75,128.0625 459.75,128.7188 L459.75,130.2813 Q459.75,130.9375 459.4688,131.2188 Q459.1875,131.5 458.75,131.5 Q458.3594,131.5 458.1094,131.3281 Q457.8594,131.1563 457.75,130.7031 Q457.7031,130.3906 457.5313,130.2188 Q457.2188,129.8906 456.6563,129.7031 Q456.0938,129.5 455.5313,129.5 Q454.8281,129.5 454.2344,129.7813 Q453.6563,130.0625 453.2031,130.6875 Q452.75,131.3125 452.75,132.1719 L452.75,133.0938 Q452.75,134.125 453.5938,134.8125 Q454.4375,135.5 455.9375,135.5 Q456.8281,135.5 457.4531,135.2969 Q457.8125,135.1875 458.2188,134.8281 Q458.4844,134.625 458.625,134.5625 Q458.7656,134.5 458.9375,134.5 Q459.2656,134.5 459.5,134.7656 Q459.75,135.0156 459.75,135.375 Q459.75,135.7188 459.4063,136.125 Q458.9063,136.7188 458.1094,137.0469 Q457.0625,137.5 455.7813,137.5 Q454.2813,137.5 453.0781,136.9063 Q452.1094,136.4375 451.4219,135.4219 Q450.75,134.4063 450.75,133.2031 L450.75,132.1094 Q450.75,130.8594 451.3438,129.7656 Q451.9531,128.6719 453,128.0938 Q454.0625,127.5 455.25,127.5 Q455.9688,127.5 456.5938,127.75 Q457.2188,128 457.75,128.5 Z " fill="#000000"/><text fill="#000000" font-family="sans-serif" font-size="12" lengthAdjust="spacing" textLength="131" x="476.25" y="136.9102">CriarCatalogoController</text><line style="stroke:#A80036;stroke-width:1.5;" x1="226" x2="825" y1="148" y2="148"/><line style="stroke:#A80036;stroke-width:1.5;" x1="226" x2="825" y1="156" y2="156"/><ellipse cx="236" cy="167" fill="#84BE84" rx="3" ry="3" style="stroke:#038048;stroke-width:1.0;"/><text fill="#000000" font-family="sans-serif" font-size="11" lengthAdjust="spacing" textLength="39" x="245" y="171.4189">create()</text><ellipse cx="236" cy="180.8359" fill="#84BE84" rx="3" ry="3" style="stroke:#038048;stroke-width:1.0;"/><text fill="#000000" font-family="sans-serif" font-size="11" lengthAdjust="spacing" textLength="575" x="245" y="185.2549">Catalogo novoCatalogo(iconeCatalogo,descricaoCompleta,descricaoSimples,titulo,identificadorUnico,criterioAcesso,sla)</text><ellipse cx="236" cy="194.6719" fill="#84BE84" rx="3" ry="3" style="stroke:#038048;stroke-width:1.0;"/><text fill="#000000" font-family="sans-serif" font-size="11" lengthAdjust="spacing" textLength="173" x="245" y="199.0908">registarCatalogo(Catalogo catalogo)</text><ellipse cx="236" cy="208.5078" fill="#84BE84" rx="3" ry="3" style="stroke:#038048;stroke-width:1.0;"/><text fill="#000000" font-family="sans-serif" font-size="11" lengthAdjust="spacing" textLength="89" x="245" y="212.9268">getListaServicos()</text><ellipse cx="236" cy="222.3438" fill="#84BE84" rx="3" ry="3" style="stroke:#038048;stroke-width:1.0;"/><text fill="#000000" font-family="sans-serif" font-size="11" lengthAdjust="spacing" textLength="89" x="245" y="226.7627">adicionarServico()</text><ellipse cx="236" cy="236.1797" fill="#84BE84" rx="3" ry="3" style="stroke:#038048;stroke-width:1.0;"/><text fill="#000000" font-family="sans-serif" font-size="11" lengthAdjust="spacing" textLength="550" x="245" y="240.5986">adicionarObjetivo(tempoMaximoAprovacao,tempoMedioAprovacao,tempoMaximoAceitacao,tempoMedioAceitacao)</text><!--MD5=[e8c189551b7885b999ad7cefb30fc2a3]
class PersistenceContext--><rect codeLine="18" fill="#FEFECE" filter="url(#f59f5tmiuc6wd)" height="61.8359" id="PersistenceContext" style="stroke:#A80036;stroke-width:1.5;" width="139" x="251" y="339"/><ellipse cx="266" cy="355" fill="#ADD1B2" rx="11" ry="11" style="stroke:#A80036;stroke-width:1.0;"/><path d="M268,351.5 Q268.2031,351 268.4375,350.75 Q268.6719,350.5 268.9375,350.5 Q269.4063,350.5 269.7031,350.7813 Q270,351.0625 270,351.7188 L270,353.2813 Q270,353.9375 269.7188,354.2188 Q269.4375,354.5 269,354.5 Q268.6094,354.5 268.3594,354.3281 Q268.1094,354.1563 268,353.7031 Q267.9531,353.3906 267.7813,353.2188 Q267.4688,352.8906 266.9063,352.7031 Q266.3438,352.5 265.7813,352.5 Q265.0781,352.5 264.4844,352.7813 Q263.9063,353.0625 263.4531,353.6875 Q263,354.3125 263,355.1719 L263,356.0938 Q263,357.125 263.8438,357.8125 Q264.6875,358.5 266.1875,358.5 Q267.0781,358.5 267.7031,358.2969 Q268.0625,358.1875 268.4688,357.8281 Q268.7344,357.625 268.875,357.5625 Q269.0156,357.5 269.1875,357.5 Q269.5156,357.5 269.75,357.7656 Q270,358.0156 270,358.375 Q270,358.7188 269.6563,359.125 Q269.1563,359.7188 268.3594,360.0469 Q267.3125,360.5 266.0313,360.5 Q264.5313,360.5 263.3281,359.9063 Q262.3594,359.4375 261.6719,358.4219 Q261,357.4063 261,356.2031 L261,355.1094 Q261,353.8594 261.5938,352.7656 Q262.2031,351.6719 263.25,351.0938 Q264.3125,350.5 265.5,350.5 Q266.2188,350.5 266.8438,350.75 Q267.4688,351 268,351.5 Z " fill="#000000"/><text fill="#000000" font-family="sans-serif" font-size="12" lengthAdjust="spacing" textLength="107" x="280" y="359.9102">PersistenceContext</text><line style="stroke:#A80036;stroke-width:1.5;" x1="252" x2="389" y1="371" y2="371"/><line style="stroke:#A80036;stroke-width:1.5;" x1="252" x2="389" y1="379" y2="379"/><ellipse cx="262" cy="390" fill="#84BE84" rx="3" ry="3" style="stroke:#038048;stroke-width:1.0;"/><text fill="#000000" font-family="sans-serif" font-size="11" lengthAdjust="spacing" textLength="65" x="271" y="394.4189">repositories()</text><!--MD5=[48590afff58a68e2fcba47824d6f8a11]
class RepositoryFactory--><rect codeLine="22" fill="#FEFECE" filter="url(#f59f5tmiuc6wd)" height="89.5078" id="RepositoryFactory" style="stroke:#A80036;stroke-width:1.5;" width="185" x="216" y="493"/><ellipse cx="255.75" cy="509" fill="#ADD1B2" rx="11" ry="11" style="stroke:#A80036;stroke-width:1.0;"/><path d="M257.75,505.5 Q257.9531,505 258.1875,504.75 Q258.4219,504.5 258.6875,504.5 Q259.1563,504.5 259.4531,504.7813 Q259.75,505.0625 259.75,505.7188 L259.75,507.2813 Q259.75,507.9375 259.4688,508.2188 Q259.1875,508.5 258.75,508.5 Q258.3594,508.5 258.1094,508.3281 Q257.8594,508.1563 257.75,507.7031 Q257.7031,507.3906 257.5313,507.2188 Q257.2188,506.8906 256.6563,506.7031 Q256.0938,506.5 255.5313,506.5 Q254.8281,506.5 254.2344,506.7813 Q253.6563,507.0625 253.2031,507.6875 Q252.75,508.3125 252.75,509.1719 L252.75,510.0938 Q252.75,511.125 253.5938,511.8125 Q254.4375,512.5 255.9375,512.5 Q256.8281,512.5 257.4531,512.2969 Q257.8125,512.1875 258.2188,511.8281 Q258.4844,511.625 258.625,511.5625 Q258.7656,511.5 258.9375,511.5 Q259.2656,511.5 259.5,511.7656 Q259.75,512.0156 259.75,512.375 Q259.75,512.7188 259.4063,513.125 Q258.9063,513.7188 258.1094,514.0469 Q257.0625,514.5 255.7813,514.5 Q254.2813,514.5 253.0781,513.9063 Q252.1094,513.4375 251.4219,512.4219 Q250.75,511.4063 250.75,510.2031 L250.75,509.1094 Q250.75,507.8594 251.3438,506.7656 Q251.9531,505.6719 253,505.0938 Q254.0625,504.5 255.25,504.5 Q255.9688,504.5 256.5938,504.75 Q257.2188,505 257.75,505.5 Z " fill="#000000"/><text fill="#000000" font-family="sans-serif" font-size="12" lengthAdjust="spacing" textLength="98" x="275.25" y="513.9102">RepositoryFactory</text><line style="stroke:#A80036;stroke-width:1.5;" x1="217" x2="400" y1="525" y2="525"/><line style="stroke:#A80036;stroke-width:1.5;" x1="217" x2="400" y1="533" y2="533"/><ellipse cx="227" cy="544" fill="#84BE84" rx="3" ry="3" style="stroke:#038048;stroke-width:1.0;"/><text fill="#000000" font-family="sans-serif" font-size="11" lengthAdjust="spacing" textLength="39" x="236" y="548.4189">create()</text><ellipse cx="227" cy="557.8359" fill="#84BE84" rx="3" ry="3" style="stroke:#038048;stroke-width:1.0;"/><text fill="#000000" font-family="sans-serif" font-size="11" lengthAdjust="spacing" textLength="132" x="236" y="562.2549">newTransactionalContext()</text><ellipse cx="227" cy="571.6719" fill="#84BE84" rx="3" ry="3" style="stroke:#038048;stroke-width:1.0;"/><text fill="#000000" font-family="sans-serif" font-size="11" lengthAdjust="spacing" textLength="159" x="236" y="576.0908">create(TransactionalContext ctx)</text><!--MD5=[28183b5fe251cf9d4adbbaa3c2129d6e]
class Catalogo--><rect codeLine="43" fill="#FEFECE" filter="url(#f59f5tmiuc6wd)" height="89.5078" id="Catalogo" style="stroke:#A80036;stroke-width:1.5;" width="524" x="833.5" y="325"/><ellipse cx="1066.25" cy="341" fill="#ADD1B2" rx="11" ry="11" style="stroke:#A80036;stroke-width:1.0;"/><path d="M1068.25,337.5 Q1068.4531,337 1068.6875,336.75 Q1068.9219,336.5 1069.1875,336.5 Q1069.6563,336.5 1069.9531,336.7813 Q1070.25,337.0625 1070.25,337.7188 L1070.25,339.2813 Q1070.25,339.9375 1069.9688,340.2188 Q1069.6875,340.5 1069.25,340.5 Q1068.8594,340.5 1068.6094,340.3281 Q1068.3594,340.1563 1068.25,339.7031 Q1068.2031,339.3906 1068.0313,339.2188 Q1067.7188,338.8906 1067.1563,338.7031 Q1066.5938,338.5 1066.0313,338.5 Q1065.3281,338.5 1064.7344,338.7813 Q1064.1563,339.0625 1063.7031,339.6875 Q1063.25,340.3125 1063.25,341.1719 L1063.25,342.0938 Q1063.25,343.125 1064.0938,343.8125 Q1064.9375,344.5 1066.4375,344.5 Q1067.3281,344.5 1067.9531,344.2969 Q1068.3125,344.1875 1068.7188,343.8281 Q1068.9844,343.625 1069.125,343.5625 Q1069.2656,343.5 1069.4375,343.5 Q1069.7656,343.5 1070,343.7656 Q1070.25,344.0156 1070.25,344.375 Q1070.25,344.7188 1069.9063,345.125 Q1069.4063,345.7188 1068.6094,346.0469 Q1067.5625,346.5 1066.2813,346.5 Q1064.7813,346.5 1063.5781,345.9063 Q1062.6094,345.4375 1061.9219,344.4219 Q1061.25,343.4063 1061.25,342.2031 L1061.25,341.1094 Q1061.25,339.8594 1061.8438,338.7656 Q1062.4531,337.6719 1063.5,337.0938 Q1064.5625,336.5 1065.75,336.5 Q1066.4688,336.5 1067.0938,336.75 Q1067.7188,337 1068.25,337.5 Z " fill="#000000"/><text fill="#000000" font-family="sans-serif" font-size="12" lengthAdjust="spacing" textLength="50" x="1086.75" y="345.9102">Catalogo</text><line style="stroke:#A80036;stroke-width:1.5;" x1="834.5" x2="1356.5" y1="357" y2="357"/><line style="stroke:#A80036;stroke-width:1.5;" x1="834.5" x2="1356.5" y1="365" y2="365"/><ellipse cx="844.5" cy="376" fill="#84BE84" rx="3" ry="3" style="stroke:#038048;stroke-width:1.0;"/><text fill="#000000" font-family="sans-serif" font-size="11" lengthAdjust="spacing" textLength="498" x="853.5" y="380.4189">create (iconeCatalogo,descricaoCompleta,descricaoSimples,titulo,identificadorUnico,criterioAcesso,sla)</text><ellipse cx="844.5" cy="389.8359" fill="#84BE84" rx="3" ry="3" style="stroke:#038048;stroke-width:1.0;"/><text fill="#000000" font-family="sans-serif" font-size="11" lengthAdjust="spacing" textLength="125" x="853.5" y="394.2549">adicionarServico(servico)</text><ellipse cx="844.5" cy="403.6719" fill="#84BE84" rx="3" ry="3" style="stroke:#038048;stroke-width:1.0;"/><text fill="#000000" font-family="sans-serif" font-size="11" lengthAdjust="spacing" textLength="128" x="853.5" y="408.0908">adicionarObjetivo(objetivo)</text><!--MD5=[6fa8d92e41e8fcfab0f3791a7c2bd7d7]
class Objetivo--><rect codeLine="50" fill="#FEFECE" filter="url(#f59f5tmiuc6wd)" height="61.8359" id="Objetivo" style="stroke:#A80036;stroke-width:1.5;" width="527" x="579" y="507"/><ellipse cx="816.25" cy="523" fill="#ADD1B2" rx="11" ry="11" style="stroke:#A80036;stroke-width:1.0;"/><path d="M818.25,519.5 Q818.4531,519 818.6875,518.75 Q818.9219,518.5 819.1875,518.5 Q819.6563,518.5 819.9531,518.7813 Q820.25,519.0625 820.25,519.7188 L820.25,521.2813 Q820.25,521.9375 819.9688,522.2188 Q819.6875,522.5 819.25,522.5 Q818.8594,522.5 818.6094,522.3281 Q818.3594,522.1563 818.25,521.7031 Q818.2031,521.3906 818.0313,521.2188 Q817.7188,520.8906 817.1563,520.7031 Q816.5938,520.5 816.0313,520.5 Q815.3281,520.5 814.7344,520.7813 Q814.1563,521.0625 813.7031,521.6875 Q813.25,522.3125 813.25,523.1719 L813.25,524.0938 Q813.25,525.125 814.0938,525.8125 Q814.9375,526.5 816.4375,526.5 Q817.3281,526.5 817.9531,526.2969 Q818.3125,526.1875 818.7188,525.8281 Q818.9844,525.625 819.125,525.5625 Q819.2656,525.5 819.4375,525.5 Q819.7656,525.5 820,525.7656 Q820.25,526.0156 820.25,526.375 Q820.25,526.7188 819.9063,527.125 Q819.4063,527.7188 818.6094,528.0469 Q817.5625,528.5 816.2813,528.5 Q814.7813,528.5 813.5781,527.9063 Q812.6094,527.4375 811.9219,526.4219 Q811.25,525.4063 811.25,524.2031 L811.25,523.1094 Q811.25,521.8594 811.8438,520.7656 Q812.4531,519.6719 813.5,519.0938 Q814.5625,518.5 815.75,518.5 Q816.4688,518.5 817.0938,518.75 Q817.7188,519 818.25,519.5 Z " fill="#000000"/><text fill="#000000" font-family="sans-serif" font-size="12" lengthAdjust="spacing" textLength="44" x="836.75" y="527.9102">Objetivo</text><line style="stroke:#A80036;stroke-width:1.5;" x1="580" x2="1105" y1="539" y2="539"/><line style="stroke:#A80036;stroke-width:1.5;" x1="580" x2="1105" y1="547" y2="547"/><ellipse cx="590" cy="558" fill="#84BE84" rx="3" ry="3" style="stroke:#038048;stroke-width:1.0;"/><text fill="#000000" font-family="sans-serif" font-size="11" lengthAdjust="spacing" textLength="501" x="599" y="562.4189">create(tempoMaximoAprovacao,tempoMedioAprovacao,tempoMaximoAceitacao,tempoMedioAceitacao )</text><!--MD5=[faf4d635eea35b16677487bac6ad9bf5]
class Servico--><rect codeLine="54" fill="#FEFECE" filter="url(#f59f5tmiuc6wd)" height="48" id="Servico" style="stroke:#A80036;stroke-width:1.5;" width="72" x="1141.5" y="514"/><ellipse cx="1156.5" cy="530" fill="#ADD1B2" rx="11" ry="11" style="stroke:#A80036;stroke-width:1.0;"/><path d="M1158.5,526.5 Q1158.7031,526 1158.9375,525.75 Q1159.1719,525.5 1159.4375,525.5 Q1159.9063,525.5 1160.2031,525.7813 Q1160.5,526.0625 1160.5,526.7188 L1160.5,528.2813 Q1160.5,528.9375 1160.2188,529.2188 Q1159.9375,529.5 1159.5,529.5 Q1159.1094,529.5 1158.8594,529.3281 Q1158.6094,529.1563 1158.5,528.7031 Q1158.4531,528.3906 1158.2813,528.2188 Q1157.9688,527.8906 1157.4063,527.7031 Q1156.8438,527.5 1156.2813,527.5 Q1155.5781,527.5 1154.9844,527.7813 Q1154.4063,528.0625 1153.9531,528.6875 Q1153.5,529.3125 1153.5,530.1719 L1153.5,531.0938 Q1153.5,532.125 1154.3438,532.8125 Q1155.1875,533.5 1156.6875,533.5 Q1157.5781,533.5 1158.2031,533.2969 Q1158.5625,533.1875 1158.9688,532.8281 Q1159.2344,532.625 1159.375,532.5625 Q1159.5156,532.5 1159.6875,532.5 Q1160.0156,532.5 1160.25,532.7656 Q1160.5,533.0156 1160.5,533.375 Q1160.5,533.7188 1160.1563,534.125 Q1159.6563,534.7188 1158.8594,535.0469 Q1157.8125,535.5 1156.5313,535.5 Q1155.0313,535.5 1153.8281,534.9063 Q1152.8594,534.4375 1152.1719,533.4219 Q1151.5,532.4063 1151.5,531.2031 L1151.5,530.1094 Q1151.5,528.8594 1152.0938,527.7656 Q1152.7031,526.6719 1153.75,526.0938 Q1154.8125,525.5 1156,525.5 Q1156.7188,525.5 1157.3438,525.75 Q1157.9688,526 1158.5,526.5 Z " fill="#000000"/><text fill="#000000" font-family="sans-serif" font-size="12" lengthAdjust="spacing" textLength="40" x="1170.5" y="534.9102">Servico</text><line style="stroke:#A80036;stroke-width:1.5;" x1="1142.5" x2="1212.5" y1="546" y2="546"/><line style="stroke:#A80036;stroke-width:1.5;" x1="1142.5" x2="1212.5" y1="554" y2="554"/><!--MD5=[ac8682ea5466d223e49472789fb200d2]
class Colaborador--><rect codeLine="58" fill="#FEFECE" filter="url(#f59f5tmiuc6wd)" height="48" id="Colaborador" style="stroke:#A80036;stroke-width:1.5;" width="101" x="1249" y="514"/><ellipse cx="1264" cy="530" fill="#ADD1B2" rx="11" ry="11" style="stroke:#A80036;stroke-width:1.0;"/><path d="M1266,526.5 Q1266.2031,526 1266.4375,525.75 Q1266.6719,525.5 1266.9375,525.5 Q1267.4063,525.5 1267.7031,525.7813 Q1268,526.0625 1268,526.7188 L1268,528.2813 Q1268,528.9375 1267.7188,529.2188 Q1267.4375,529.5 1267,529.5 Q1266.6094,529.5 1266.3594,529.3281 Q1266.1094,529.1563 1266,528.7031 Q1265.9531,528.3906 1265.7813,528.2188 Q1265.4688,527.8906 1264.9063,527.7031 Q1264.3438,527.5 1263.7813,527.5 Q1263.0781,527.5 1262.4844,527.7813 Q1261.9063,528.0625 1261.4531,528.6875 Q1261,529.3125 1261,530.1719 L1261,531.0938 Q1261,532.125 1261.8438,532.8125 Q1262.6875,533.5 1264.1875,533.5 Q1265.0781,533.5 1265.7031,533.2969 Q1266.0625,533.1875 1266.4688,532.8281 Q1266.7344,532.625 1266.875,532.5625 Q1267.0156,532.5 1267.1875,532.5 Q1267.5156,532.5 1267.75,532.7656 Q1268,533.0156 1268,533.375 Q1268,533.7188 1267.6563,534.125 Q1267.1563,534.7188 1266.3594,535.0469 Q1265.3125,535.5 1264.0313,535.5 Q1262.5313,535.5 1261.3281,534.9063 Q1260.3594,534.4375 1259.6719,533.4219 Q1259,532.4063 1259,531.2031 L1259,530.1094 Q1259,528.8594 1259.5938,527.7656 Q1260.2031,526.6719 1261.25,526.0938 Q1262.3125,525.5 1263.5,525.5 Q1264.2188,525.5 1264.8438,525.75 Q1265.4688,526 1266,526.5 Z " fill="#000000"/><text fill="#000000" font-family="sans-serif" font-size="12" lengthAdjust="spacing" textLength="69" x="1278" y="534.9102">Colaborador</text><line style="stroke:#A80036;stroke-width:1.5;" x1="1250" x2="1349" y1="546" y2="546"/><line style="stroke:#A80036;stroke-width:1.5;" x1="1250" x2="1349" y1="554" y2="554"/><!--MD5=[288bffab58163169a8d16c57b889bc0c]
class TransactionalContext--><rect codeLine="62" fill="#FEFECE" filter="url(#f59f5tmiuc6wd)" height="75.6719" id="TransactionalContext" style="stroke:#A80036;stroke-width:1.5;" width="148" x="649.5" y="332"/><ellipse cx="664.5" cy="348" fill="#ADD1B2" rx="11" ry="11" style="stroke:#A80036;stroke-width:1.0;"/><path d="M666.5,344.5 Q666.7031,344 666.9375,343.75 Q667.1719,343.5 667.4375,343.5 Q667.9063,343.5 668.2031,343.7813 Q668.5,344.0625 668.5,344.7188 L668.5,346.2813 Q668.5,346.9375 668.2188,347.2188 Q667.9375,347.5 667.5,347.5 Q667.1094,347.5 666.8594,347.3281 Q666.6094,347.1563 666.5,346.7031 Q666.4531,346.3906 666.2813,346.2188 Q665.9688,345.8906 665.4063,345.7031 Q664.8438,345.5 664.2813,345.5 Q663.5781,345.5 662.9844,345.7813 Q662.4063,346.0625 661.9531,346.6875 Q661.5,347.3125 661.5,348.1719 L661.5,349.0938 Q661.5,350.125 662.3438,350.8125 Q663.1875,351.5 664.6875,351.5 Q665.5781,351.5 666.2031,351.2969 Q666.5625,351.1875 666.9688,350.8281 Q667.2344,350.625 667.375,350.5625 Q667.5156,350.5 667.6875,350.5 Q668.0156,350.5 668.25,350.7656 Q668.5,351.0156 668.5,351.375 Q668.5,351.7188 668.1563,352.125 Q667.6563,352.7188 666.8594,353.0469 Q665.8125,353.5 664.5313,353.5 Q663.0313,353.5 661.8281,352.9063 Q660.8594,352.4375 660.1719,351.4219 Q659.5,350.4063 659.5,349.2031 L659.5,348.1094 Q659.5,346.8594 660.0938,345.7656 Q660.7031,344.6719 661.75,344.0938 Q662.8125,343.5 664,343.5 Q664.7188,343.5 665.3438,343.75 Q665.9688,344 666.5,344.5 Z " fill="#000000"/><text fill="#000000" font-family="sans-serif" font-size="12" lengthAdjust="spacing" textLength="116" x="678.5" y="352.9102">TransactionalContext</text><line style="stroke:#A80036;stroke-width:1.5;" x1="650.5" x2="796.5" y1="364" y2="364"/><line style="stroke:#A80036;stroke-width:1.5;" x1="650.5" x2="796.5" y1="372" y2="372"/><ellipse cx="660.5" cy="383" fill="#84BE84" rx="3" ry="3" style="stroke:#038048;stroke-width:1.0;"/><text fill="#000000" font-family="sans-serif" font-size="11" lengthAdjust="spacing" textLength="91" x="669.5" y="387.4189">beginTransaction()</text><ellipse cx="660.5" cy="396.8359" fill="#84BE84" rx="3" ry="3" style="stroke:#038048;stroke-width:1.0;"/><text fill="#000000" font-family="sans-serif" font-size="11" lengthAdjust="spacing" textLength="41" x="669.5" y="401.2549">commit()</text><!--MD5=[d34c3374e9f1ea92600999ba19e06c1c]
class Equipa--><rect fill="#FEFECE" filter="url(#f59f5tmiuc6wd)" height="48" id="Equipa" style="stroke:#A80036;stroke-width:1.5;" width="71" x="1433" y="157.5"/><ellipse cx="1448" cy="173.5" fill="#ADD1B2" rx="11" ry="11" style="stroke:#A80036;stroke-width:1.0;"/><path d="M1450,170 Q1450.2031,169.5 1450.4375,169.25 Q1450.6719,169 1450.9375,169 Q1451.4063,169 1451.7031,169.2813 Q1452,169.5625 1452,170.2188 L1452,171.7813 Q1452,172.4375 1451.7188,172.7188 Q1451.4375,173 1451,173 Q1450.6094,173 1450.3594,172.8281 Q1450.1094,172.6563 1450,172.2031 Q1449.9531,171.8906 1449.7813,171.7188 Q1449.4688,171.3906 1448.9063,171.2031 Q1448.3438,171 1447.7813,171 Q1447.0781,171 1446.4844,171.2813 Q1445.9063,171.5625 1445.4531,172.1875 Q1445,172.8125 1445,173.6719 L1445,174.5938 Q1445,175.625 1445.8438,176.3125 Q1446.6875,177 1448.1875,177 Q1449.0781,177 1449.7031,176.7969 Q1450.0625,176.6875 1450.4688,176.3281 Q1450.7344,176.125 1450.875,176.0625 Q1451.0156,176 1451.1875,176 Q1451.5156,176 1451.75,176.2656 Q1452,176.5156 1452,176.875 Q1452,177.2188 1451.6563,177.625 Q1451.1563,178.2188 1450.3594,178.5469 Q1449.3125,179 1448.0313,179 Q1446.5313,179 1445.3281,178.4063 Q1444.3594,177.9375 1443.6719,176.9219 Q1443,175.9063 1443,174.7031 L1443,173.6094 Q1443,172.3594 1443.5938,171.2656 Q1444.2031,170.1719 1445.25,169.5938 Q1446.3125,169 1447.5,169 Q1448.2188,169 1448.8438,169.25 Q1449.4688,169.5 1450,170 Z " fill="#000000"/><text fill="#000000" font-family="sans-serif" font-size="12" lengthAdjust="spacing" textLength="39" x="1462" y="178.4102">Equipa</text><line style="stroke:#A80036;stroke-width:1.5;" x1="1434" x2="1503" y1="189.5" y2="189.5"/><line style="stroke:#A80036;stroke-width:1.5;" x1="1434" x2="1503" y1="197.5" y2="197.5"/><!--MD5=[9cd3e499328ea8967caf6d8accf9a3ad]
link CriarCatalogoUI to CriarCatalogoController--><path codeLine="67" d="M525.5,55.2 C525.5,70.24 525.5,90.7 525.5,110.72 " fill="none" id="CriarCatalogoUI-to-CriarCatalogoController" style="stroke:#A80036;stroke-width:1.0;stroke-dasharray:7.0,7.0;"/><polygon fill="#A80036" points="525.5,115.8,529.5,106.8,525.5,110.8,521.5,106.8,525.5,115.8" style="stroke:#A80036;stroke-width:1.0;"/><!--MD5=[947ce0c11457b2186eb9a695daedc6e6]
link CriarCatalogoController to PersistenceContext--><path codeLine="69" d="M454.38,247.21 C421.75,276.89 384.43,310.84 357.5,335.34 " fill="none" id="CriarCatalogoController-to-PersistenceContext" style="stroke:#A80036;stroke-width:1.0;stroke-dasharray:7.0,7.0;"/><polygon fill="#A80036" points="353.6,338.89,362.9466,335.7849,357.2958,335.5224,357.5584,329.8716,353.6,338.89" style="stroke:#A80036;stroke-width:1.0;"/><!--MD5=[05a7f226f287f87cf71947dff98ca636]
link CriarCatalogoController to Catalogo--><path codeLine="70" d="M722.86,247.07 C799.51,272.15 885.52,300.3 955.58,323.22 " fill="none" id="CriarCatalogoController-to-Catalogo" style="stroke:#A80036;stroke-width:1.0;stroke-dasharray:7.0,7.0;"/><polygon fill="#A80036" points="960.6,324.86,953.273,318.2786,955.8439,323.3175,950.805,325.8883,960.6,324.86" style="stroke:#A80036;stroke-width:1.0;"/><!--MD5=[dc2a28826db732edc642f75672dd6acd]
link CriarCatalogoController to Objetivo--><path codeLine="71" d="M543.03,247.05 C559.32,297.46 587.74,366.8 631.5,415 C667.11,454.22 718.35,484.26 761.42,504.71 " fill="none" id="CriarCatalogoController-to-Objetivo" style="stroke:#A80036;stroke-width:1.0;stroke-dasharray:7.0,7.0;"/><polygon fill="#A80036" points="766.09,506.91,759.6464,499.4615,761.5649,504.7831,756.2433,506.7016,766.09,506.91" style="stroke:#A80036;stroke-width:1.0;"/><!--MD5=[0ed46338674018143b07466b1cb9293b]
link CriarCatalogoController to TransactionalContext--><path codeLine="72" d="M594.2,247.21 C622.83,274.18 655.21,304.68 680.41,328.41 " fill="none" id="CriarCatalogoController-to-TransactionalContext" style="stroke:#A80036;stroke-width:1.0;stroke-dasharray:7.0,7.0;"/><polygon fill="#A80036" points="684.07,331.86,680.2577,322.7789,680.429,328.4332,674.7747,328.6045,684.07,331.86" style="stroke:#A80036;stroke-width:1.0;"/><!--MD5=[177fda96415eb9cbd7e6bcc0f75a634e]
link CriarCatalogoController to CatalogoRepository--><path codeLine="73" d="M521.49,247.06 C518.65,328.03 520.97,469.97 561.5,583 C568.92,603.69 582.72,624.12 594.88,639.59 " fill="none" id="CriarCatalogoController-to-CatalogoRepository" style="stroke:#A80036;stroke-width:1.0;stroke-dasharray:7.0,7.0;"/><polygon fill="#A80036" points="598.26,643.82,595.7655,634.2923,595.1383,639.9143,589.5163,639.2871,598.26,643.82" style="stroke:#A80036;stroke-width:1.0;"/><!--MD5=[24d94d65a7e10ce59b9340327f143abc]
link CriarCatalogoController to ServicoRepository--><path codeLine="74" d="M329.95,247.02 C293.39,266.94 258.78,292.5 233.5,325 C162.45,416.34 156.39,475.22 198.5,583 C207.23,605.35 225.06,625.32 241.37,640.12 " fill="none" id="CriarCatalogoController-to-ServicoRepository" style="stroke:#A80036;stroke-width:1.0;stroke-dasharray:7.0,7.0;"/><polygon fill="#A80036" points="245.47,643.77,241.4029,634.8001,241.7337,640.4473,236.0866,640.7781,245.47,643.77" style="stroke:#A80036;stroke-width:1.0;"/><!--MD5=[4cce860cd13d51ce5eba07714256cb66]
link CriarCatalogoController to ObjetivoRepository--><path codeLine="75" d="M826.25,192.9 C1041.58,207.42 1305.36,242.12 1375.5,325 C1400.59,354.65 1401.82,538.41 1367.5,583 C1323.44,640.24 1240.13,659.05 1178.84,664.83 " fill="none" id="CriarCatalogoController-to-ObjetivoRepository" style="stroke:#A80036;stroke-width:1.0;stroke-dasharray:7.0,7.0;"/><polygon fill="#A80036" points="1173.73,665.29,1183.0494,668.4757,1178.7103,664.8464,1182.3396,660.5072,1173.73,665.29" style="stroke:#A80036;stroke-width:1.0;"/><!--MD5=[22cc6464a69648b10784196ff49d1d5b]
link CriarCatalogoController to ColaboradorRepository--><path codeLine="76" d="M269.12,247.15 C232.53,266.66 199.04,292.03 174.5,325 C101.58,422.96 90.71,576.14 89.45,638.58 " fill="none" id="CriarCatalogoController-to-ColaboradorRepository" style="stroke:#A80036;stroke-width:1.0;stroke-dasharray:7.0,7.0;"/><polygon fill="#A80036" points="89.37,643.63,93.5237,634.6999,89.4557,638.6307,85.5249,634.5628,89.37,643.63" style="stroke:#A80036;stroke-width:1.0;"/><!--MD5=[6d4ca65c5daceb9f7a1338269ad6d623]
link CriarCatalogoController to EquipaRepository--><path codeLine="77" d="M506.56,247.05 C503.98,257.03 501.52,267.25 499.5,277 C471.66,411.31 453.65,574.63 447.18,638.76 " fill="none" id="CriarCatalogoController-to-EquipaRepository" style="stroke:#A80036;stroke-width:1.0;stroke-dasharray:7.0,7.0;"/><polygon fill="#A80036" points="446.66,643.93,451.5406,635.3755,447.1603,638.9551,443.5807,634.5749,446.66,643.93" style="stroke:#A80036;stroke-width:1.0;"/><!--MD5=[754b775031405e096442b27febffa290]
link PersistenceContext to RepositoryFactory--><path codeLine="79" d="M318.33,401.06 C316.58,425.16 314.1,459.48 312.07,487.61 " fill="none" id="PersistenceContext-to-RepositoryFactory" style="stroke:#A80036;stroke-width:1.0;stroke-dasharray:7.0,7.0;"/><polygon fill="#A80036" points="311.7,492.78,316.3328,484.0888,312.0573,487.7928,308.3533,483.5172,311.7,492.78" style="stroke:#A80036;stroke-width:1.0;"/><!--MD5=[1c7e7a1fe085f3cc90df717ea11f1cec]
link RepositoryFactory to CatalogoRepository--><path codeLine="81" d="M395.54,583.11 C417.79,593.76 441.83,604.73 464.5,614 C489.25,624.13 516.77,633.95 541.61,642.3 " fill="none" id="RepositoryFactory-to-CatalogoRepository" style="stroke:#A80036;stroke-width:1.0;stroke-dasharray:7.0,7.0;"/><polygon fill="#A80036" points="546.54,643.95,539.2728,637.3026,541.798,642.3646,536.7361,644.8898,546.54,643.95" style="stroke:#A80036;stroke-width:1.0;"/><!--MD5=[4c2782ef650e763910e10e8b58df1401]
link RepositoryFactory to ServicoRepository--><path codeLine="82" d="M297.05,583.24 C292.26,601.75 286.84,622.69 282.63,638.94 " fill="none" id="RepositoryFactory-to-ServicoRepository" style="stroke:#A80036;stroke-width:1.0;stroke-dasharray:7.0,7.0;"/><polygon fill="#A80036" points="281.37,643.82,287.503,636.1138,282.6263,638.9804,279.7597,634.1037,281.37,643.82" style="stroke:#A80036;stroke-width:1.0;"/><!--MD5=[7d2b57d03ffff6f551b49f6d544833c7]
link RepositoryFactory to ObjetivoRepository--><path codeLine="83" d="M401.25,555.57 C449.08,564.01 508.38,574.29 561.5,583 C727.81,610.27 923.26,639.75 1028.04,655.35 " fill="none" id="RepositoryFactory-to-ObjetivoRepository" style="stroke:#A80036;stroke-width:1.0;stroke-dasharray:7.0,7.0;"/><polygon fill="#A80036" points="1033.27,656.12,1024.9495,650.8503,1028.3234,655.3909,1023.7829,658.7648,1033.27,656.12" style="stroke:#A80036;stroke-width:1.0;"/><!--MD5=[f69c8ab88bf9359224da8c715bf10dd8]
link RepositoryFactory to ColaboradorRepository--><path codeLine="84" d="M232.83,583.06 C199.38,602.53 161.26,624.72 132.75,641.32 " fill="none" id="RepositoryFactory-to-ColaboradorRepository" style="stroke:#A80036;stroke-width:1.0;stroke-dasharray:7.0,7.0;"/><polygon fill="#A80036" points="128.26,643.93,138.0499,642.8543,132.5799,641.4124,134.0218,635.9424,128.26,643.93" style="stroke:#A80036;stroke-width:1.0;"/><!--MD5=[2778d99b3c12bc11ad4233191bb1c898]
link RepositoryFactory to EquipaRepository--><path codeLine="85" d="M342.41,583.09 C351.39,593.69 361.4,604.63 371.5,614 C381.8,623.55 393.87,632.87 405.2,640.94 " fill="none" id="RepositoryFactory-to-EquipaRepository" style="stroke:#A80036;stroke-width:1.0;stroke-dasharray:7.0,7.0;"/><polygon fill="#A80036" points="409.34,643.86,404.2963,635.4006,405.256,640.9755,399.6811,641.9351,409.34,643.86" style="stroke:#A80036;stroke-width:1.0;"/><!--MD5=[8b8d37a1988efc7219c8b7e82898e14a]
link Catalogo to Objetivo--><path codeLine="87" d="M1028.36,415.05 C985.71,443.04 931.41,478.67 892.53,504.17 " fill="none" id="Catalogo-to-Objetivo" style="stroke:#A80036;stroke-width:1.0;"/><polygon fill="#A80036" points="888.34,506.92,898.0576,505.3176,892.5178,504.173,893.6624,498.6331,888.34,506.92" style="stroke:#A80036;stroke-width:1.0;"/><text fill="#000000" font-family="sans-serif" font-size="13" lengthAdjust="spacing" textLength="38" x="977.5" y="459.4951">possui</text><text fill="#000000" font-family="sans-serif" font-size="13" lengthAdjust="spacing" textLength="7" x="1011.4263" y="436.0646">1</text><text fill="#000000" font-family="sans-serif" font-size="13" lengthAdjust="spacing" textLength="5" x="892.8206" y="495.9228">*</text><!--MD5=[2c7badfd2dd31d9dc6c031ecbe349308]
link Catalogo to Servico--><path codeLine="88" d="M1117.26,415.05 C1132,444.89 1151.03,483.42 1163.72,509.1 " fill="none" id="Catalogo-to-Servico" style="stroke:#A80036;stroke-width:1.0;"/><polygon fill="#A80036" points="1166.01,513.74,1165.6131,503.8991,1163.7968,509.2565,1158.4395,507.4403,1166.01,513.74" style="stroke:#A80036;stroke-width:1.0;"/><text fill="#000000" font-family="sans-serif" font-size="13" lengthAdjust="spacing" textLength="38" x="1139.5" y="459.4951">possui</text><text fill="#000000" font-family="sans-serif" font-size="13" lengthAdjust="spacing" textLength="7" x="1112.8278" y="436.0646">1</text><text fill="#000000" font-family="sans-serif" font-size="13" lengthAdjust="spacing" textLength="5" x="1157.4251" y="503.0135">*</text><!--MD5=[eefd46dd0fa1bc1b47b0a9f6cb54c94c]
link Catalogo to Colaborador--><path codeLine="89" d="M1149.88,415.21 C1161.94,425.02 1174.65,435.36 1186.5,445 C1213.66,467.1 1244.47,492.19 1267.06,510.58 " fill="none" id="Catalogo-to-Colaborador" style="stroke:#A80036;stroke-width:1.0;"/><polygon fill="#A80036" points="1271.18,513.93,1266.7332,505.1422,1267.3051,510.77,1261.6773,511.342,1271.18,513.93" style="stroke:#A80036;stroke-width:1.0;"/><text fill="#000000" font-family="sans-serif" font-size="13" lengthAdjust="spacing" textLength="130" x="1208.5" y="459.4951">tem como responsável</text><text fill="#000000" font-family="sans-serif" font-size="13" lengthAdjust="spacing" textLength="7" x="1149.717" y="435.9119">1</text><text fill="#000000" font-family="sans-serif" font-size="13" lengthAdjust="spacing" textLength="7" x="1256.0261" y="503.2522">1</text><!--MD5=[f61d05816f408175757c7f087e7ae3cc]
link Equipa to Catalogo--><path codeLine="90" d="M1432.74,200.38 C1376.96,228.27 1267.45,283.03 1188.32,322.59 " fill="none" id="Equipa-to-Catalogo" style="stroke:#A80036;stroke-width:1.0;"/><polygon fill="#A80036" points="1183.63,324.93,1193.4693,324.4954,1188.105,322.6997,1189.9007,317.3354,1183.63,324.93" style="stroke:#A80036;stroke-width:1.0;"/><text fill="#000000" font-family="sans-serif" font-size="13" lengthAdjust="spacing" textLength="79" x="1271.5" y="291.4951">tem acesso a</text><text fill="#000000" font-family="sans-serif" font-size="13" lengthAdjust="spacing" textLength="5" x="1419.8489" y="200.1554">*</text><text fill="#000000" font-family="sans-serif" font-size="13" lengthAdjust="spacing" textLength="7" x="1190.1179" y="314.0343">1</text><!--MD5=[3b52f22bc6ac1c0b7586cc9d37d3c9ea]
@startuml


class CriarCatalogoUI{
}

class CriarCatalogoController{
+create()
+Catalogo novoCatalogo(iconeCatalogo,descricaoCompleta,descricaoSimples,titulo,identificadorUnico,criterioAcesso,sla)
+registarCatalogo(Catalogo catalogo)
+getListaServicos()
+adicionarServico()
+adicionarObjetivo(tempoMaximoAprovacao,tempoMedioAprovacao,tempoMaximoAceitacao,tempoMedioAceitacao)
}

class PersistenceContext{
+repositories()
}

class RepositoryFactory{
+create()
+newTransactionalContext()
+create(TransactionalContext ctx)
}

database CatalogoRepository{
}

database ServicoRepository{
}

database ObjetivoRepository{
}

database ColaboradorRepository{
}

database EquipaRepository{
}

class Catalogo{
+create (iconeCatalogo,descricaoCompleta,descricaoSimples,titulo,identificadorUnico,criterioAcesso,sla)
+adicionarServico(servico)
+adicionarObjetivo(objetivo)
}


class Objetivo {
+create(tempoMaximoAprovacao,tempoMedioAprovacao,tempoMaximoAceitacao,tempoMedioAceitacao )
}

class Servico {

}

class Colaborador{

}

class TransactionalContext{
+beginTransaction()
+commit()
}

CriarCatalogoUI..> CriarCatalogoController

CriarCatalogoController..>PersistenceContext
CriarCatalogoController..>Catalogo
CriarCatalogoController..>Objetivo
CriarCatalogoController..>TransactionalContext
CriarCatalogoController..>CatalogoRepository
CriarCatalogoController..>ServicoRepository
CriarCatalogoController..>ObjetivoRepository
CriarCatalogoController..>ColaboradorRepository
CriarCatalogoController..>EquipaRepository

PersistenceContext..>RepositoryFactory

RepositoryFactory..>CatalogoRepository
RepositoryFactory..>ServicoRepository
RepositoryFactory..>ObjetivoRepository
RepositoryFactory..>ColaboradorRepository
RepositoryFactory..>EquipaRepository

Catalogo "1" - -> "*" Objetivo: possui
Catalogo "1" - -> "*" Servico : possui
Catalogo "1" - -> "1" Colaborador : tem como responsável
Equipa "*" - -> "1" Catalogo : tem acesso a

@enduml

PlantUML version 1.2021.5(Sun Apr 25 12:20:28 BST 2021)
(GPL source distribution)
Java Runtime: OpenJDK Runtime Environment
JVM: OpenJDK 64-Bit Server VM
Default Encoding: Cp1252
Language: pt
Country: PT
--></g></svg>