<?xml version="1.0" encoding="UTF-8" standalone="no"?><svg xmlns="http://www.w3.org/2000/svg" xmlns:xlink="http://www.w3.org/1999/xlink" contentScriptType="application/ecmascript" contentStyleType="text/css" height="572px" preserveAspectRatio="none" style="width:642px;height:572px;" version="1.1" viewBox="0 0 642 572" width="642px" zoomAndPan="magnify"><defs><filter height="300%" id="f125duzk5ioviq" width="300%" x="-1" y="-1"><feGaussianBlur result="blurOut" stdDeviation="2.0"/><feColorMatrix in="blurOut" result="blurOut2" type="matrix" values="0 0 0 0 0 0 0 0 0 0 0 0 0 0 0 0 0 0 .4 0"/><feOffset dx="4.0" dy="4.0" in="blurOut2" result="blurOut3"/><feBlend in="SourceGraphic" in2="blurOut3" mode="normal"/></filter></defs><g><!--MD5=[632d88444d158d97a01a30a70582059f]
class DefinirNiveisCriticidadeUI--><rect codeLine="2" fill="#FEFECE" filter="url(#f125duzk5ioviq)" height="48" id="DefinirNiveisCriticidadeUI" style="stroke:#A80036;stroke-width:1.5;" width="173" x="261.5" y="7"/><ellipse cx="276.5" cy="23" fill="#ADD1B2" rx="11" ry="11" style="stroke:#A80036;stroke-width:1.0;"/><path d="M278.5,19.5 Q278.7031,19 278.9375,18.75 Q279.1719,18.5 279.4375,18.5 Q279.9063,18.5 280.2031,18.7813 Q280.5,19.0625 280.5,19.7188 L280.5,21.2813 Q280.5,21.9375 280.2188,22.2188 Q279.9375,22.5 279.5,22.5 Q279.1094,22.5 278.8594,22.3281 Q278.6094,22.1563 278.5,21.7031 Q278.4531,21.3906 278.2813,21.2188 Q277.9688,20.8906 277.4063,20.7031 Q276.8438,20.5 276.2813,20.5 Q275.5781,20.5 274.9844,20.7813 Q274.4063,21.0625 273.9531,21.6875 Q273.5,22.3125 273.5,23.1719 L273.5,24.0938 Q273.5,25.125 274.3438,25.8125 Q275.1875,26.5 276.6875,26.5 Q277.5781,26.5 278.2031,26.2969 Q278.5625,26.1875 278.9688,25.8281 Q279.2344,25.625 279.375,25.5625 Q279.5156,25.5 279.6875,25.5 Q280.0156,25.5 280.25,25.7656 Q280.5,26.0156 280.5,26.375 Q280.5,26.7188 280.1563,27.125 Q279.6563,27.7188 278.8594,28.0469 Q277.8125,28.5 276.5313,28.5 Q275.0313,28.5 273.8281,27.9063 Q272.8594,27.4375 272.1719,26.4219 Q271.5,25.4063 271.5,24.2031 L271.5,23.1094 Q271.5,21.8594 272.0938,20.7656 Q272.7031,19.6719 273.75,19.0938 Q274.8125,18.5 276,18.5 Q276.7188,18.5 277.3438,18.75 Q277.9688,19 278.5,19.5 Z " fill="#000000"/><text fill="#000000" font-family="sans-serif" font-size="12" lengthAdjust="spacing" textLength="141" x="290.5" y="27.9102">DefinirNiveisCriticidadeUI</text><line style="stroke:#A80036;stroke-width:1.5;" x1="262.5" x2="433.5" y1="39" y2="39"/><line style="stroke:#A80036;stroke-width:1.5;" x1="262.5" x2="433.5" y1="47" y2="47"/><!--MD5=[01e593a0cef5de092a2dd87f8daf4147]
class DefinirNiveisCriticidadeController--><rect codeLine="5" fill="#FEFECE" filter="url(#f125duzk5ioviq)" height="117.1797" id="DefinirNiveisCriticidadeController" style="stroke:#A80036;stroke-width:1.5;" width="561" x="67.5" y="115"/><ellipse cx="252.25" cy="131" fill="#ADD1B2" rx="11" ry="11" style="stroke:#A80036;stroke-width:1.0;"/><path d="M254.25,127.5 Q254.4531,127 254.6875,126.75 Q254.9219,126.5 255.1875,126.5 Q255.6563,126.5 255.9531,126.7813 Q256.25,127.0625 256.25,127.7188 L256.25,129.2813 Q256.25,129.9375 255.9688,130.2188 Q255.6875,130.5 255.25,130.5 Q254.8594,130.5 254.6094,130.3281 Q254.3594,130.1563 254.25,129.7031 Q254.2031,129.3906 254.0313,129.2188 Q253.7188,128.8906 253.1563,128.7031 Q252.5938,128.5 252.0313,128.5 Q251.3281,128.5 250.7344,128.7813 Q250.1563,129.0625 249.7031,129.6875 Q249.25,130.3125 249.25,131.1719 L249.25,132.0938 Q249.25,133.125 250.0938,133.8125 Q250.9375,134.5 252.4375,134.5 Q253.3281,134.5 253.9531,134.2969 Q254.3125,134.1875 254.7188,133.8281 Q254.9844,133.625 255.125,133.5625 Q255.2656,133.5 255.4375,133.5 Q255.7656,133.5 256,133.7656 Q256.25,134.0156 256.25,134.375 Q256.25,134.7188 255.9063,135.125 Q255.4063,135.7188 254.6094,136.0469 Q253.5625,136.5 252.2813,136.5 Q250.7813,136.5 249.5781,135.9063 Q248.6094,135.4375 247.9219,134.4219 Q247.25,133.4063 247.25,132.2031 L247.25,131.1094 Q247.25,129.8594 247.8438,128.7656 Q248.4531,127.6719 249.5,127.0938 Q250.5625,126.5 251.75,126.5 Q252.4688,126.5 253.0938,126.75 Q253.7188,127 254.25,127.5 Z " fill="#000000"/><text fill="#000000" font-family="sans-serif" font-size="12" lengthAdjust="spacing" textLength="183" x="272.75" y="135.9102">DefinirNiveisCriticidadeController</text><line style="stroke:#A80036;stroke-width:1.5;" x1="68.5" x2="627.5" y1="147" y2="147"/><rect fill="none" height="6" style="stroke:#C82930;stroke-width:1.0;" width="6" x="75.5" y="155"/><text fill="#000000" font-family="sans-serif" font-size="11" lengthAdjust="spacing" textLength="98" x="87.5" y="162.4189">NivelCriticidade nivel</text><rect fill="none" height="6" style="stroke:#C82930;stroke-width:1.0;" width="6" x="75.5" y="168.8359"/><text fill="#000000" font-family="sans-serif" font-size="11" lengthAdjust="spacing" textLength="79" x="87.5" y="176.2549">Objetivo objetivo</text><line style="stroke:#A80036;stroke-width:1.5;" x1="68.5" x2="627.5" y1="182.6719" y2="182.6719"/><ellipse cx="78.5" cy="193.6719" fill="#84BE84" rx="3" ry="3" style="stroke:#038048;stroke-width:1.0;"/><text fill="#000000" font-family="sans-serif" font-size="11" lengthAdjust="spacing" textLength="121" x="87.5" y="198.0908">novoNivel(cor, etiquetas)</text><ellipse cx="78.5" cy="207.5078" fill="#84BE84" rx="3" ry="3" style="stroke:#038048;stroke-width:1.0;"/><text fill="#000000" font-family="sans-serif" font-size="11" lengthAdjust="spacing" textLength="535" x="87.5" y="211.9268">novoObjeto(tempoMaximoAprovacao, tempoMedioAprovacao, tempoMaximoResolucao, tempoMedioResolucao)</text><ellipse cx="78.5" cy="221.3438" fill="#84BE84" rx="3" ry="3" style="stroke:#038048;stroke-width:1.0;"/><text fill="#000000" font-family="sans-serif" font-size="11" lengthAdjust="spacing" textLength="121" x="87.5" y="225.7627">registaNiveisEObjetivos()</text><!--MD5=[e8c189551b7885b999ad7cefb30fc2a3]
class PersistenceContext--><rect codeLine="13" fill="#FEFECE" filter="url(#f125duzk5ioviq)" height="61.8359" id="PersistenceContext" style="stroke:#A80036;stroke-width:1.5;" width="139" x="191.5" y="312.5"/><ellipse cx="206.5" cy="328.5" fill="#ADD1B2" rx="11" ry="11" style="stroke:#A80036;stroke-width:1.0;"/><path d="M208.5,325 Q208.7031,324.5 208.9375,324.25 Q209.1719,324 209.4375,324 Q209.9063,324 210.2031,324.2813 Q210.5,324.5625 210.5,325.2188 L210.5,326.7813 Q210.5,327.4375 210.2188,327.7188 Q209.9375,328 209.5,328 Q209.1094,328 208.8594,327.8281 Q208.6094,327.6563 208.5,327.2031 Q208.4531,326.8906 208.2813,326.7188 Q207.9688,326.3906 207.4063,326.2031 Q206.8438,326 206.2813,326 Q205.5781,326 204.9844,326.2813 Q204.4063,326.5625 203.9531,327.1875 Q203.5,327.8125 203.5,328.6719 L203.5,329.5938 Q203.5,330.625 204.3438,331.3125 Q205.1875,332 206.6875,332 Q207.5781,332 208.2031,331.7969 Q208.5625,331.6875 208.9688,331.3281 Q209.2344,331.125 209.375,331.0625 Q209.5156,331 209.6875,331 Q210.0156,331 210.25,331.2656 Q210.5,331.5156 210.5,331.875 Q210.5,332.2188 210.1563,332.625 Q209.6563,333.2188 208.8594,333.5469 Q207.8125,334 206.5313,334 Q205.0313,334 203.8281,333.4063 Q202.8594,332.9375 202.1719,331.9219 Q201.5,330.9063 201.5,329.7031 L201.5,328.6094 Q201.5,327.3594 202.0938,326.2656 Q202.7031,325.1719 203.75,324.5938 Q204.8125,324 206,324 Q206.7188,324 207.3438,324.25 Q207.9688,324.5 208.5,325 Z " fill="#000000"/><text fill="#000000" font-family="sans-serif" font-size="12" lengthAdjust="spacing" textLength="107" x="220.5" y="333.4102">PersistenceContext</text><line style="stroke:#A80036;stroke-width:1.5;" x1="192.5" x2="329.5" y1="344.5" y2="344.5"/><line style="stroke:#A80036;stroke-width:1.5;" x1="192.5" x2="329.5" y1="352.5" y2="352.5"/><ellipse cx="202.5" cy="363.5" fill="#84BE84" rx="3" ry="3" style="stroke:#038048;stroke-width:1.0;"/><text fill="#000000" font-family="sans-serif" font-size="11" lengthAdjust="spacing" textLength="65" x="211.5" y="367.9189">repositories()</text><!--MD5=[48590afff58a68e2fcba47824d6f8a11]
class RepositoryFactory--><rect codeLine="17" fill="#FEFECE" filter="url(#f125duzk5ioviq)" height="75.6719" id="RepositoryFactory" style="stroke:#A80036;stroke-width:1.5;" width="150" x="7" y="468.5"/><ellipse cx="31" cy="484.5" fill="#ADD1B2" rx="11" ry="11" style="stroke:#A80036;stroke-width:1.0;"/><path d="M33,481 Q33.2031,480.5 33.4375,480.25 Q33.6719,480 33.9375,480 Q34.4063,480 34.7031,480.2813 Q35,480.5625 35,481.2188 L35,482.7813 Q35,483.4375 34.7188,483.7188 Q34.4375,484 34,484 Q33.6094,484 33.3594,483.8281 Q33.1094,483.6563 33,483.2031 Q32.9531,482.8906 32.7813,482.7188 Q32.4688,482.3906 31.9063,482.2031 Q31.3438,482 30.7813,482 Q30.0781,482 29.4844,482.2813 Q28.9063,482.5625 28.4531,483.1875 Q28,483.8125 28,484.6719 L28,485.5938 Q28,486.625 28.8438,487.3125 Q29.6875,488 31.1875,488 Q32.0781,488 32.7031,487.7969 Q33.0625,487.6875 33.4688,487.3281 Q33.7344,487.125 33.875,487.0625 Q34.0156,487 34.1875,487 Q34.5156,487 34.75,487.2656 Q35,487.5156 35,487.875 Q35,488.2188 34.6563,488.625 Q34.1563,489.2188 33.3594,489.5469 Q32.3125,490 31.0313,490 Q29.5313,490 28.3281,489.4063 Q27.3594,488.9375 26.6719,487.9219 Q26,486.9063 26,485.7031 L26,484.6094 Q26,483.3594 26.5938,482.2656 Q27.2031,481.1719 28.25,480.5938 Q29.3125,480 30.5,480 Q31.2188,480 31.8438,480.25 Q32.4688,480.5 33,481 Z " fill="#000000"/><text fill="#000000" font-family="sans-serif" font-size="12" lengthAdjust="spacing" textLength="98" x="47" y="489.4102">RepositoryFactory</text><line style="stroke:#A80036;stroke-width:1.5;" x1="8" x2="156" y1="500.5" y2="500.5"/><line style="stroke:#A80036;stroke-width:1.5;" x1="8" x2="156" y1="508.5" y2="508.5"/><ellipse cx="18" cy="519.5" fill="#84BE84" rx="3" ry="3" style="stroke:#038048;stroke-width:1.0;"/><text fill="#000000" font-family="sans-serif" font-size="11" lengthAdjust="spacing" textLength="124" x="27" y="523.9189">newTransactionContext()</text><ellipse cx="18" cy="533.3359" fill="#84BE84" rx="3" ry="3" style="stroke:#038048;stroke-width:1.0;"/><text fill="#000000" font-family="sans-serif" font-size="11" lengthAdjust="spacing" textLength="39" x="27" y="537.7549">create()</text><!--MD5=[6f77dd65fc1ccb211befa507bd2ea97a]
class NivelCriticidade--><rect codeLine="22" fill="#FEFECE" filter="url(#f125duzk5ioviq)" height="103.3438" id="NivelCriticidade" style="stroke:#A80036;stroke-width:1.5;" width="140" x="370" y="292"/><ellipse cx="394.9" cy="308" fill="#ADD1B2" rx="11" ry="11" style="stroke:#A80036;stroke-width:1.0;"/><path d="M396.9,304.5 Q397.1031,304 397.3375,303.75 Q397.5719,303.5 397.8375,303.5 Q398.3063,303.5 398.6031,303.7813 Q398.9,304.0625 398.9,304.7188 L398.9,306.2813 Q398.9,306.9375 398.6188,307.2188 Q398.3375,307.5 397.9,307.5 Q397.5094,307.5 397.2594,307.3281 Q397.0094,307.1563 396.9,306.7031 Q396.8531,306.3906 396.6813,306.2188 Q396.3688,305.8906 395.8063,305.7031 Q395.2438,305.5 394.6813,305.5 Q393.9781,305.5 393.3844,305.7813 Q392.8063,306.0625 392.3531,306.6875 Q391.9,307.3125 391.9,308.1719 L391.9,309.0938 Q391.9,310.125 392.7438,310.8125 Q393.5875,311.5 395.0875,311.5 Q395.9781,311.5 396.6031,311.2969 Q396.9625,311.1875 397.3688,310.8281 Q397.6344,310.625 397.775,310.5625 Q397.9156,310.5 398.0875,310.5 Q398.4156,310.5 398.65,310.7656 Q398.9,311.0156 398.9,311.375 Q398.9,311.7188 398.5563,312.125 Q398.0563,312.7188 397.2594,313.0469 Q396.2125,313.5 394.9313,313.5 Q393.4313,313.5 392.2281,312.9063 Q391.2594,312.4375 390.5719,311.4219 Q389.9,310.4063 389.9,309.2031 L389.9,308.1094 Q389.9,306.8594 390.4938,305.7656 Q391.1031,304.6719 392.15,304.0938 Q393.2125,303.5 394.4,303.5 Q395.1188,303.5 395.7438,303.75 Q396.3688,304 396.9,304.5 Z " fill="#000000"/><text fill="#000000" font-family="sans-serif" font-size="12" lengthAdjust="spacing" textLength="86" x="411.1" y="312.9102">NivelCriticidade</text><line style="stroke:#A80036;stroke-width:1.5;" x1="371" x2="509" y1="324" y2="324"/><rect fill="none" height="6" style="stroke:#C82930;stroke-width:1.0;" width="6" x="378" y="332"/><text fill="#000000" font-family="sans-serif" font-size="11" lengthAdjust="spacing" textLength="91" x="390" y="339.4189">int escalaNumerica</text><rect fill="none" height="6" style="stroke:#C82930;stroke-width:1.0;" width="6" x="378" y="345.8359"/><text fill="#000000" font-family="sans-serif" font-size="11" lengthAdjust="spacing" textLength="47" x="390" y="353.2549">String cor</text><rect fill="none" height="6" style="stroke:#C82930;stroke-width:1.0;" width="6" x="378" y="359.6719"/><text fill="#000000" font-family="sans-serif" font-size="11" lengthAdjust="spacing" textLength="69" x="390" y="367.0908">String etiqueta</text><line style="stroke:#A80036;stroke-width:1.5;" x1="371" x2="509" y1="373.5078" y2="373.5078"/><ellipse cx="381" cy="384.5078" fill="#84BE84" rx="3" ry="3" style="stroke:#038048;stroke-width:1.0;"/><text fill="#000000" font-family="sans-serif" font-size="11" lengthAdjust="spacing" textLength="114" x="390" y="388.9268">definirObjetivo(objetivo)</text><!--MD5=[6fa8d92e41e8fcfab0f3791a7c2bd7d7]
class Objetivo--><rect codeLine="29" fill="#FEFECE" filter="url(#f125duzk5ioviq)" height="103.3438" id="Objetivo" style="stroke:#A80036;stroke-width:1.5;" width="159" x="365.5" y="455"/><ellipse cx="418.75" cy="471" fill="#ADD1B2" rx="11" ry="11" style="stroke:#A80036;stroke-width:1.0;"/><path d="M420.75,467.5 Q420.9531,467 421.1875,466.75 Q421.4219,466.5 421.6875,466.5 Q422.1563,466.5 422.4531,466.7813 Q422.75,467.0625 422.75,467.7188 L422.75,469.2813 Q422.75,469.9375 422.4688,470.2188 Q422.1875,470.5 421.75,470.5 Q421.3594,470.5 421.1094,470.3281 Q420.8594,470.1563 420.75,469.7031 Q420.7031,469.3906 420.5313,469.2188 Q420.2188,468.8906 419.6563,468.7031 Q419.0938,468.5 418.5313,468.5 Q417.8281,468.5 417.2344,468.7813 Q416.6563,469.0625 416.2031,469.6875 Q415.75,470.3125 415.75,471.1719 L415.75,472.0938 Q415.75,473.125 416.5938,473.8125 Q417.4375,474.5 418.9375,474.5 Q419.8281,474.5 420.4531,474.2969 Q420.8125,474.1875 421.2188,473.8281 Q421.4844,473.625 421.625,473.5625 Q421.7656,473.5 421.9375,473.5 Q422.2656,473.5 422.5,473.7656 Q422.75,474.0156 422.75,474.375 Q422.75,474.7188 422.4063,475.125 Q421.9063,475.7188 421.1094,476.0469 Q420.0625,476.5 418.7813,476.5 Q417.2813,476.5 416.0781,475.9063 Q415.1094,475.4375 414.4219,474.4219 Q413.75,473.4063 413.75,472.2031 L413.75,471.1094 Q413.75,469.8594 414.3438,468.7656 Q414.9531,467.6719 416,467.0938 Q417.0625,466.5 418.25,466.5 Q418.9688,466.5 419.5938,466.75 Q420.2188,467 420.75,467.5 Z " fill="#000000"/><text fill="#000000" font-family="sans-serif" font-size="12" lengthAdjust="spacing" textLength="44" x="439.25" y="475.9102">Objetivo</text><line style="stroke:#A80036;stroke-width:1.5;" x1="366.5" x2="523.5" y1="487" y2="487"/><rect fill="none" height="6" style="stroke:#C82930;stroke-width:1.0;" width="6" x="373.5" y="495"/><text fill="#000000" font-family="sans-serif" font-size="11" lengthAdjust="spacing" textLength="133" x="385.5" y="502.4189">int tempoMaximoAprovacao</text><rect fill="none" height="6" style="stroke:#C82930;stroke-width:1.0;" width="6" x="373.5" y="508.8359"/><text fill="#000000" font-family="sans-serif" font-size="11" lengthAdjust="spacing" textLength="125" x="385.5" y="516.2549">int tempoMedioAprovacao</text><rect fill="none" height="6" style="stroke:#C82930;stroke-width:1.0;" width="6" x="373.5" y="522.6719"/><text fill="#000000" font-family="sans-serif" font-size="11" lengthAdjust="spacing" textLength="130" x="385.5" y="530.0908">int tempoMaximoResolucao</text><rect fill="none" height="6" style="stroke:#C82930;stroke-width:1.0;" width="6" x="373.5" y="536.5078"/><text fill="#000000" font-family="sans-serif" font-size="11" lengthAdjust="spacing" textLength="122" x="385.5" y="543.9268">int tempoMedioResolucao</text><line style="stroke:#A80036;stroke-width:1.5;" x1="366.5" x2="523.5" y1="550.3438" y2="550.3438"/><!--MD5=[2dee36f97fa9125c337eb2bc97d3c523]
class TransactionContext--><rect codeLine="36" fill="#FEFECE" filter="url(#f125duzk5ioviq)" height="75.6719" id="TransactionContext" style="stroke:#A80036;stroke-width:1.5;" width="138" x="192" y="468.5"/><ellipse cx="207" cy="484.5" fill="#ADD1B2" rx="11" ry="11" style="stroke:#A80036;stroke-width:1.0;"/><path d="M209,481 Q209.2031,480.5 209.4375,480.25 Q209.6719,480 209.9375,480 Q210.4063,480 210.7031,480.2813 Q211,480.5625 211,481.2188 L211,482.7813 Q211,483.4375 210.7188,483.7188 Q210.4375,484 210,484 Q209.6094,484 209.3594,483.8281 Q209.1094,483.6563 209,483.2031 Q208.9531,482.8906 208.7813,482.7188 Q208.4688,482.3906 207.9063,482.2031 Q207.3438,482 206.7813,482 Q206.0781,482 205.4844,482.2813 Q204.9063,482.5625 204.4531,483.1875 Q204,483.8125 204,484.6719 L204,485.5938 Q204,486.625 204.8438,487.3125 Q205.6875,488 207.1875,488 Q208.0781,488 208.7031,487.7969 Q209.0625,487.6875 209.4688,487.3281 Q209.7344,487.125 209.875,487.0625 Q210.0156,487 210.1875,487 Q210.5156,487 210.75,487.2656 Q211,487.5156 211,487.875 Q211,488.2188 210.6563,488.625 Q210.1563,489.2188 209.3594,489.5469 Q208.3125,490 207.0313,490 Q205.5313,490 204.3281,489.4063 Q203.3594,488.9375 202.6719,487.9219 Q202,486.9063 202,485.7031 L202,484.6094 Q202,483.3594 202.5938,482.2656 Q203.2031,481.1719 204.25,480.5938 Q205.3125,480 206.5,480 Q207.2188,480 207.8438,480.25 Q208.4688,480.5 209,481 Z " fill="#000000"/><text fill="#000000" font-family="sans-serif" font-size="12" lengthAdjust="spacing" textLength="106" x="221" y="489.4102">TransactionContext</text><line style="stroke:#A80036;stroke-width:1.5;" x1="193" x2="329" y1="500.5" y2="500.5"/><line style="stroke:#A80036;stroke-width:1.5;" x1="193" x2="329" y1="508.5" y2="508.5"/><ellipse cx="203" cy="519.5" fill="#84BE84" rx="3" ry="3" style="stroke:#038048;stroke-width:1.0;"/><text fill="#000000" font-family="sans-serif" font-size="11" lengthAdjust="spacing" textLength="91" x="212" y="523.9189">beginTransaction()</text><ellipse cx="203" cy="533.3359" fill="#84BE84" rx="3" ry="3" style="stroke:#038048;stroke-width:1.0;"/><text fill="#000000" font-family="sans-serif" font-size="11" lengthAdjust="spacing" textLength="41" x="212" y="537.7549">commit()</text><!--MD5=[ae0600ceacf79dd6f8c39675f9b38d77]
link DefinirNiveisCriticidadeUI to DefinirNiveisCriticidadeController--><path codeLine="41" d="M348,55.2 C348,70.09 348,90.2 348,109.56 " fill="none" id="DefinirNiveisCriticidadeUI-to-DefinirNiveisCriticidadeController" style="stroke:#A80036;stroke-width:1.0;stroke-dasharray:7.0,7.0;"/><polygon fill="#A80036" points="348,115,352,106,348,110,344,106,348,115" style="stroke:#A80036;stroke-width:1.0;"/><!--MD5=[b8d89b2aee8188d0776b72e1a2a1bcee]
link DefinirNiveisCriticidadeController to PersistenceContext--><path codeLine="43" d="M318.06,232.32 C305.03,257.48 290.19,286.13 278.91,307.91 " fill="none" id="DefinirNiveisCriticidadeController-to-PersistenceContext" style="stroke:#A80036;stroke-width:1.0;stroke-dasharray:7.0,7.0;"/><polygon fill="#A80036" points="276.56,312.45,284.2498,306.2964,278.8587,308.0097,277.1454,302.6186,276.56,312.45" style="stroke:#A80036;stroke-width:1.0;"/><!--MD5=[9ec48f75488f549fbbbe9e4d0dc3b92b]
link DefinirNiveisCriticidadeController to NivelCriticidade--><path codeLine="44" d="M379.66,232.32 C389.44,250.17 400.17,269.77 409.84,287.43 " fill="none" id="DefinirNiveisCriticidadeController-to-NivelCriticidade" style="stroke:#A80036;stroke-width:1.0;stroke-dasharray:7.0,7.0;"/><polygon fill="#A80036" points="412.28,291.87,411.4685,282.0546,409.8797,287.4838,404.4506,285.8951,412.28,291.87" style="stroke:#A80036;stroke-width:1.0;"/><!--MD5=[565d8206cfab69d2c786d0f44bd58de7]
link NivelCriticidade to Objetivo--><path codeLine="46" d="M441.58,395.44 C442.12,412.64 442.72,431.93 443.26,449.5 " fill="none" id="NivelCriticidade-to-Objetivo" style="stroke:#A80036;stroke-width:1.0;stroke-dasharray:7.0,7.0;"/><polygon fill="#A80036" points="443.43,454.89,447.1453,445.7688,443.2729,449.8925,439.1493,446.0201,443.43,454.89" style="stroke:#A80036;stroke-width:1.0;"/><!--MD5=[754b775031405e096442b27febffa290]
link PersistenceContext to RepositoryFactory--><path codeLine="48" d="M227.33,374.78 C199.01,400.25 158.28,436.89 127.13,464.91 " fill="none" id="PersistenceContext-to-RepositoryFactory" style="stroke:#A80036;stroke-width:1.0;stroke-dasharray:7.0,7.0;"/><polygon fill="#A80036" points="123.38,468.28,132.7455,465.2325,127.0965,464.9352,127.3938,459.2861,123.38,468.28" style="stroke:#A80036;stroke-width:1.0;"/><!--MD5=[4c6877a23713a8ec46ce494b840b62da]
link PersistenceContext to TransactionContext--><path codeLine="49" d="M261,374.78 C261,399.74 261,435.41 261,463.19 " fill="none" id="PersistenceContext-to-TransactionContext" style="stroke:#A80036;stroke-width:1.0;stroke-dasharray:7.0,7.0;"/><polygon fill="#A80036" points="261,468.28,265,459.28,261,463.28,257,459.28,261,468.28" style="stroke:#A80036;stroke-width:1.0;"/><!--MD5=[f32bb5287779bd14d5427d6bdb277903]
@startuml

class DefinirNiveisCriticidadeUI {
}

class DefinirNiveisCriticidadeController {
    -NivelCriticidade nivel
    -Objetivo objetivo
    +novoNivel(cor, etiquetas)
    +novoObjeto(tempoMaximoAprovacao, tempoMedioAprovacao, tempoMaximoResolucao, tempoMedioResolucao)
    +registaNiveisEObjetivos()
}

class PersistenceContext{
    +repositories()
}

class RepositoryFactory{
    +newTransactionContext()
    +create()
}

class NivelCriticidade {
    -int escalaNumerica
    -String cor
    -String etiqueta
    +definirObjetivo(objetivo)
}

class Objetivo {
    -int tempoMaximoAprovacao
    -int tempoMedioAprovacao
    -int tempoMaximoResolucao
    -int tempoMedioResolucao
}

class TransactionContext {
    +beginTransaction()
    +commit()
}

DefinirNiveisCriticidadeUI ..> DefinirNiveisCriticidadeController

DefinirNiveisCriticidadeController ..> PersistenceContext
DefinirNiveisCriticidadeController ..> NivelCriticidade

NivelCriticidade ..> Objetivo

PersistenceContext ..> RepositoryFactory
PersistenceContext ..> TransactionContext

@enduml

PlantUML version 1.2021.5(Sun Apr 25 12:20:28 BST 2021)
(GPL source distribution)
Java Runtime: OpenJDK Runtime Environment
JVM: Dynamic Code Evolution 64-Bit Server VM
Default Encoding: Cp1252
Language: pt
Country: PT
--></g></svg>