<?xml version="1.0" encoding="UTF-8" standalone="no"?><svg xmlns="http://www.w3.org/2000/svg" xmlns:xlink="http://www.w3.org/1999/xlink" contentScriptType="application/ecmascript" contentStyleType="text/css" height="1515px" preserveAspectRatio="none" style="width:2494px;height:1515px;" version="1.1" viewBox="0 0 2494 1515" width="2494px" zoomAndPan="magnify"><defs><filter height="300%" id="f1e8brwv0um4th" width="300%" x="-1" y="-1"><feGaussianBlur result="blurOut" stdDeviation="2.0"/><feColorMatrix in="blurOut" result="blurOut2" type="matrix" values="0 0 0 0 0 0 0 0 0 0 0 0 0 0 0 0 0 0 .4 0"/><feOffset dx="4.0" dy="4.0" in="blurOut2" result="blurOut3"/><feBlend in="SourceGraphic" in2="blurOut3" mode="normal"/></filter></defs><g><rect fill="#FFFFFF" filter="url(#f1e8brwv0um4th)" height="1310.5547" style="stroke:#A80036;stroke-width:1.0;" width="10" x="32.5" y="99.6094"/><rect fill="#FFFFFF" filter="url(#f1e8brwv0um4th)" height="509.9219" style="stroke:#A80036;stroke-width:1.0;" width="10" x="659.5" y="121.9609"/><rect fill="#FFFFFF" filter="url(#f1e8brwv0um4th)" height="158.8828" style="stroke:#A80036;stroke-width:1.0;" width="10" x="659.5" y="662.2344"/><rect fill="#FFFFFF" filter="url(#f1e8brwv0um4th)" height="226.2344" style="stroke:#A80036;stroke-width:1.0;" width="10" x="659.5" y="851.4688"/><rect fill="#FFFFFF" filter="url(#f1e8brwv0um4th)" height="302.1094" style="stroke:#A80036;stroke-width:1.0;" width="10" x="659.5" y="1108.0547"/><rect fill="#FFFFFF" filter="url(#f1e8brwv0um4th)" height="423.8672" style="stroke:#A80036;stroke-width:1.0;" width="10" x="1281.5" y="152.3125"/><rect fill="#FFFFFF" filter="url(#f1e8brwv0um4th)" height="30.3516" style="stroke:#A80036;stroke-width:1.0;" width="10" x="1281.5" y="692.5859"/><rect fill="#FFFFFF" filter="url(#f1e8brwv0um4th)" height="142.1797" style="stroke:#A80036;stroke-width:1.0;" width="10" x="1281.5" y="898.1719"/><rect fill="#FFFFFF" filter="url(#f1e8brwv0um4th)" height="241.4063" style="stroke:#A80036;stroke-width:1.0;" width="10" x="1281.5" y="1138.4063"/><rect fill="#FFFFFF" filter="url(#f1e8brwv0um4th)" height="90.7031" style="stroke:#A80036;stroke-width:1.0;" width="10" x="1476.5" y="182.6641"/><rect fill="#FFFFFF" filter="url(#f1e8brwv0um4th)" height="121.0547" style="stroke:#A80036;stroke-width:1.0;" width="10" x="1476.5" y="303.7188"/><rect fill="#FFFFFF" filter="url(#f1e8brwv0um4th)" height="121.0547" style="stroke:#A80036;stroke-width:1.0;" width="10" x="1476.5" y="455.125"/><rect fill="#FFFFFF" filter="url(#f1e8brwv0um4th)" height="30" style="stroke:#A80036;stroke-width:1.0;" width="10" x="1659.5" y="213.0156"/><rect fill="#FFFFFF" filter="url(#f1e8brwv0um4th)" height="60.3516" style="stroke:#A80036;stroke-width:1.0;" width="10" x="1659.5" y="334.0703"/><rect fill="#FFFFFF" filter="url(#f1e8brwv0um4th)" height="60.3516" style="stroke:#A80036;stroke-width:1.0;" width="10" x="1659.5" y="485.4766"/><rect fill="#FFFFFF" filter="url(#f1e8brwv0um4th)" height="30" style="stroke:#A80036;stroke-width:1.0;" width="10" x="1832.5" y="1168.7578"/><rect fill="#FFFFFF" filter="url(#f1e8brwv0um4th)" height="30" style="stroke:#A80036;stroke-width:1.0;" width="10" x="1832.5" y="1349.8125"/><rect fill="#FFFFFF" filter="url(#f1e8brwv0um4th)" height="30" style="stroke:#A80036;stroke-width:1.0;" width="10" x="2002.5" y="364.4219"/><rect fill="#FFFFFF" filter="url(#f1e8brwv0um4th)" height="30" style="stroke:#A80036;stroke-width:1.0;" width="10" x="2002.5" y="1289.4609"/><rect fill="#FFFFFF" filter="url(#f1e8brwv0um4th)" height="30" style="stroke:#A80036;stroke-width:1.0;" width="10" x="2165" y="515.8281"/><rect fill="#FFFFFF" filter="url(#f1e8brwv0um4th)" height="30" style="stroke:#A80036;stroke-width:1.0;" width="10" x="2165" y="1229.1094"/><rect fill="#FFFFFF" filter="url(#f1e8brwv0um4th)" height="30" style="stroke:#A80036;stroke-width:1.0;" width="10" x="2299.5" y="1010.3516"/><rect fill="#FFFFFF" filter="url(#f1e8brwv0um4th)" height="457.1719" style="stroke:#000000;stroke-width:2.0;" width="2470" x="10" y="591.1797"/><line style="stroke:#A80036;stroke-width:1.0;stroke-dasharray:5.0,5.0;" x1="37" x2="37" y1="89.6094" y2="1428.1641"/><line style="stroke:#A80036;stroke-width:1.0;stroke-dasharray:5.0,5.0;" x1="664" x2="664" y1="89.6094" y2="1428.1641"/><line style="stroke:#A80036;stroke-width:1.0;stroke-dasharray:5.0,5.0;" x1="1286" x2="1286" y1="89.6094" y2="1428.1641"/><line style="stroke:#A80036;stroke-width:1.0;stroke-dasharray:5.0,5.0;" x1="1481.5" x2="1481.5" y1="89.6094" y2="1428.1641"/><line style="stroke:#A80036;stroke-width:1.0;stroke-dasharray:5.0,5.0;" x1="1664" x2="1664" y1="89.6094" y2="1428.1641"/><line style="stroke:#A80036;stroke-width:1.0;stroke-dasharray:5.0,5.0;" x1="1837" x2="1837" y1="89.6094" y2="1428.1641"/><line style="stroke:#A80036;stroke-width:1.0;stroke-dasharray:5.0,5.0;" x1="2007" x2="2007" y1="89.6094" y2="1428.1641"/><line style="stroke:#A80036;stroke-width:1.0;stroke-dasharray:5.0,5.0;" x1="2170" x2="2170" y1="89.6094" y2="1428.1641"/><line style="stroke:#A80036;stroke-width:1.0;stroke-dasharray:5.0,5.0;" x1="2304" x2="2304" y1="751.5" y2="1428.1641"/><line style="stroke:#A80036;stroke-width:1.0;stroke-dasharray:5.0,5.0;" x1="2422" x2="2422" y1="957.0859" y2="1428.1641"/><text fill="#000000" font-family="sans-serif" font-size="14" lengthAdjust="spacing" textLength="29" x="20" y="86.5332">GSH</text><ellipse cx="37.5" cy="15" fill="#FEFECE" filter="url(#f1e8brwv0um4th)" rx="8" ry="8" style="stroke:#A80036;stroke-width:2.0;"/><path d="M37.5,23 L37.5,50 M24.5,31 L50.5,31 M37.5,50 L24.5,65 M37.5,50 L50.5,65 " fill="none" filter="url(#f1e8brwv0um4th)" style="stroke:#A80036;stroke-width:2.0;"/><text fill="#000000" font-family="sans-serif" font-size="14" lengthAdjust="spacing" textLength="29" x="20" y="1441.6973">GSH</text><ellipse cx="37.5" cy="1454.7734" fill="#FEFECE" filter="url(#f1e8brwv0um4th)" rx="8" ry="8" style="stroke:#A80036;stroke-width:2.0;"/><path d="M37.5,1462.7734 L37.5,1489.7734 M24.5,1470.7734 L50.5,1470.7734 M37.5,1489.7734 L24.5,1504.7734 M37.5,1489.7734 L50.5,1504.7734 " fill="none" filter="url(#f1e8brwv0um4th)" style="stroke:#A80036;stroke-width:2.0;"/><rect fill="#FEFECE" filter="url(#f1e8brwv0um4th)" height="49.2188" style="stroke:#A80036;stroke-width:1.5;" width="171" x="577" y="35.3906"/><text fill="#000000" font-family="sans-serif" font-size="14" lengthAdjust="spacing" textLength="111" x="607" y="56.9238">&lt;&lt;presentation&gt;&gt;</text><text fill="#000000" font-family="sans-serif" font-size="14" lengthAdjust="spacing" textLength="157" x="584" y="74.5332">DefinirNiveisCriticidadeUI</text><rect fill="#FEFECE" filter="url(#f1e8brwv0um4th)" height="49.2188" style="stroke:#A80036;stroke-width:1.5;" width="171" x="577" y="1427.1641"/><text fill="#000000" font-family="sans-serif" font-size="14" lengthAdjust="spacing" textLength="111" x="607" y="1448.6973">&lt;&lt;presentation&gt;&gt;</text><text fill="#000000" font-family="sans-serif" font-size="14" lengthAdjust="spacing" textLength="157" x="584" y="1466.3066">DefinirNiveisCriticidadeUI</text><rect fill="#FEFECE" filter="url(#f1e8brwv0um4th)" height="49.2188" style="stroke:#A80036;stroke-width:1.5;" width="221" x="1174" y="35.3906"/><text fill="#000000" font-family="sans-serif" font-size="14" lengthAdjust="spacing" textLength="100" x="1234.5" y="56.9238">&lt;&lt;application&gt;&gt;</text><text fill="#000000" font-family="sans-serif" font-size="14" lengthAdjust="spacing" textLength="207" x="1181" y="74.5332">DefinirNiveisCriticidadeController</text><rect fill="#FEFECE" filter="url(#f1e8brwv0um4th)" height="49.2188" style="stroke:#A80036;stroke-width:1.5;" width="221" x="1174" y="1427.1641"/><text fill="#000000" font-family="sans-serif" font-size="14" lengthAdjust="spacing" textLength="100" x="1234.5" y="1448.6973">&lt;&lt;application&gt;&gt;</text><text fill="#000000" font-family="sans-serif" font-size="14" lengthAdjust="spacing" textLength="207" x="1181" y="1466.3066">DefinirNiveisCriticidadeController</text><rect fill="#FEFECE" filter="url(#f1e8brwv0um4th)" height="49.2188" style="stroke:#A80036;stroke-width:1.5;" width="136" x="1411.5" y="35.3906"/><text fill="#000000" font-family="sans-serif" font-size="14" lengthAdjust="spacing" textLength="105" x="1427" y="56.9238">&lt;&lt;persistence&gt;&gt;</text><text fill="#000000" font-family="sans-serif" font-size="14" lengthAdjust="spacing" textLength="122" x="1418.5" y="74.5332">PersistenceContext</text><rect fill="#FEFECE" filter="url(#f1e8brwv0um4th)" height="49.2188" style="stroke:#A80036;stroke-width:1.5;" width="136" x="1411.5" y="1427.1641"/><text fill="#000000" font-family="sans-serif" font-size="14" lengthAdjust="spacing" textLength="105" x="1427" y="1448.6973">&lt;&lt;persistence&gt;&gt;</text><text fill="#000000" font-family="sans-serif" font-size="14" lengthAdjust="spacing" textLength="122" x="1418.5" y="1466.3066">PersistenceContext</text><rect fill="#FEFECE" filter="url(#f1e8brwv0um4th)" height="49.2188" style="stroke:#A80036;stroke-width:1.5;" width="177" x="1574" y="35.3906"/><text fill="#000000" font-family="sans-serif" font-size="14" lengthAdjust="spacing" textLength="75" x="1625" y="56.9238">&lt;&lt;factory&gt;&gt;</text><text fill="#000000" font-family="sans-serif" font-size="14" lengthAdjust="spacing" textLength="163" x="1581" y="74.5332">factory:RepositoryFactory</text><rect fill="#FEFECE" filter="url(#f1e8brwv0um4th)" height="49.2188" style="stroke:#A80036;stroke-width:1.5;" width="177" x="1574" y="1427.1641"/><text fill="#000000" font-family="sans-serif" font-size="14" lengthAdjust="spacing" textLength="75" x="1625" y="1448.6973">&lt;&lt;factory&gt;&gt;</text><text fill="#000000" font-family="sans-serif" font-size="14" lengthAdjust="spacing" textLength="163" x="1581" y="1466.3066">factory:RepositoryFactory</text><rect fill="#FEFECE" filter="url(#f1e8brwv0um4th)" height="49.2188" style="stroke:#A80036;stroke-width:1.5;" width="141" x="1765" y="35.3906"/><text fill="#000000" font-family="sans-serif" font-size="14" lengthAdjust="spacing" textLength="17" x="1827" y="56.9238">ctx</text><text fill="#000000" font-family="sans-serif" font-size="14" lengthAdjust="spacing" textLength="127" x="1772" y="74.5332">:TransactionContext</text><rect fill="#FEFECE" filter="url(#f1e8brwv0um4th)" height="49.2188" style="stroke:#A80036;stroke-width:1.5;" width="141" x="1765" y="1427.1641"/><text fill="#000000" font-family="sans-serif" font-size="14" lengthAdjust="spacing" textLength="17" x="1827" y="1448.6973">ctx</text><text fill="#000000" font-family="sans-serif" font-size="14" lengthAdjust="spacing" textLength="127" x="1772" y="1466.3066">:TransactionContext</text><text fill="#000000" font-family="sans-serif" font-size="14" lengthAdjust="spacing" textLength="95" x="1957" y="68.9238">&lt;&lt;repository&gt;&gt;</text><text fill="#000000" font-family="sans-serif" font-size="14" lengthAdjust="spacing" textLength="169" x="1920" y="86.5332">:NivelCriticidadeRepository</text><path d="M1989.5,18.3906 C1989.5,8.3906 2007.5,8.3906 2007.5,8.3906 C2007.5,8.3906 2025.5,8.3906 2025.5,18.3906 L2025.5,44.3906 C2025.5,54.3906 2007.5,54.3906 2007.5,54.3906 C2007.5,54.3906 1989.5,54.3906 1989.5,44.3906 L1989.5,18.3906 " fill="#FEFECE" filter="url(#f1e8brwv0um4th)" style="stroke:#000000;stroke-width:1.5;"/><path d="M1989.5,18.3906 C1989.5,28.3906 2007.5,28.3906 2007.5,28.3906 C2007.5,28.3906 2025.5,28.3906 2025.5,18.3906 " fill="none" style="stroke:#000000;stroke-width:1.5;"/><text fill="#000000" font-family="sans-serif" font-size="14" lengthAdjust="spacing" textLength="95" x="1957" y="1441.6973">&lt;&lt;repository&gt;&gt;</text><text fill="#000000" font-family="sans-serif" font-size="14" lengthAdjust="spacing" textLength="169" x="1920" y="1459.3066">:NivelCriticidadeRepository</text><path d="M1989.5,1472.3828 C1989.5,1462.3828 2007.5,1462.3828 2007.5,1462.3828 C2007.5,1462.3828 2025.5,1462.3828 2025.5,1472.3828 L2025.5,1498.3828 C2025.5,1508.3828 2007.5,1508.3828 2007.5,1508.3828 C2007.5,1508.3828 1989.5,1508.3828 1989.5,1498.3828 L1989.5,1472.3828 " fill="#FEFECE" filter="url(#f1e8brwv0um4th)" style="stroke:#000000;stroke-width:1.5;"/><path d="M1989.5,1472.3828 C1989.5,1482.3828 2007.5,1482.3828 2007.5,1482.3828 C2007.5,1482.3828 2025.5,1482.3828 2025.5,1472.3828 " fill="none" style="stroke:#000000;stroke-width:1.5;"/><text fill="#000000" font-family="sans-serif" font-size="14" lengthAdjust="spacing" textLength="95" x="2119.5" y="68.9238">&lt;&lt;repository&gt;&gt;</text><text fill="#000000" font-family="sans-serif" font-size="14" lengthAdjust="spacing" textLength="124" x="2105" y="86.5332">:ObjetivoRepository</text><path d="M2152,18.3906 C2152,8.3906 2170,8.3906 2170,8.3906 C2170,8.3906 2188,8.3906 2188,18.3906 L2188,44.3906 C2188,54.3906 2170,54.3906 2170,54.3906 C2170,54.3906 2152,54.3906 2152,44.3906 L2152,18.3906 " fill="#FEFECE" filter="url(#f1e8brwv0um4th)" style="stroke:#000000;stroke-width:1.5;"/><path d="M2152,18.3906 C2152,28.3906 2170,28.3906 2170,28.3906 C2170,28.3906 2188,28.3906 2188,18.3906 " fill="none" style="stroke:#000000;stroke-width:1.5;"/><text fill="#000000" font-family="sans-serif" font-size="14" lengthAdjust="spacing" textLength="95" x="2119.5" y="1441.6973">&lt;&lt;repository&gt;&gt;</text><text fill="#000000" font-family="sans-serif" font-size="14" lengthAdjust="spacing" textLength="124" x="2105" y="1459.3066">:ObjetivoRepository</text><path d="M2152,1472.3828 C2152,1462.3828 2170,1462.3828 2170,1462.3828 C2170,1462.3828 2188,1462.3828 2188,1472.3828 L2188,1498.3828 C2188,1508.3828 2170,1508.3828 2170,1508.3828 C2170,1508.3828 2152,1508.3828 2152,1498.3828 L2152,1472.3828 " fill="#FEFECE" filter="url(#f1e8brwv0um4th)" style="stroke:#000000;stroke-width:1.5;"/><path d="M2152,1472.3828 C2152,1482.3828 2170,1482.3828 2170,1482.3828 C2170,1482.3828 2188,1482.3828 2188,1472.3828 " fill="none" style="stroke:#000000;stroke-width:1.5;"/><rect fill="#FEFECE" filter="url(#f1e8brwv0um4th)" height="66.8281" style="stroke:#A80036;stroke-width:1.5;" width="115" x="2245" y="1427.1641"/><text fill="#000000" font-family="sans-serif" font-size="14" lengthAdjust="spacing" textLength="78" x="2263.5" y="1448.6973">&lt;&lt;domain&gt;&gt;</text><text fill="#000000" font-family="sans-serif" font-size="14" lengthAdjust="spacing" textLength="33" x="2286" y="1466.3066">:nivel</text><text fill="#000000" font-family="sans-serif" font-size="14" lengthAdjust="spacing" textLength="101" x="2252" y="1483.916">:NivelCriticidade</text><rect fill="#FEFECE" filter="url(#f1e8brwv0um4th)" height="66.8281" style="stroke:#A80036;stroke-width:1.5;" width="92" x="2374" y="1427.1641"/><text fill="#000000" font-family="sans-serif" font-size="14" lengthAdjust="spacing" textLength="78" x="2381" y="1448.6973">&lt;&lt;domain&gt;&gt;</text><text fill="#000000" font-family="sans-serif" font-size="14" lengthAdjust="spacing" textLength="53" x="2393.5" y="1466.3066">:objetivo</text><text fill="#000000" font-family="sans-serif" font-size="14" lengthAdjust="spacing" textLength="56" x="2392" y="1483.916">:Objetivo</text><rect fill="#FFFFFF" filter="url(#f1e8brwv0um4th)" height="1310.5547" style="stroke:#A80036;stroke-width:1.0;" width="10" x="32.5" y="99.6094"/><rect fill="#FFFFFF" filter="url(#f1e8brwv0um4th)" height="509.9219" style="stroke:#A80036;stroke-width:1.0;" width="10" x="659.5" y="121.9609"/><rect fill="#FFFFFF" filter="url(#f1e8brwv0um4th)" height="158.8828" style="stroke:#A80036;stroke-width:1.0;" width="10" x="659.5" y="662.2344"/><rect fill="#FFFFFF" filter="url(#f1e8brwv0um4th)" height="226.2344" style="stroke:#A80036;stroke-width:1.0;" width="10" x="659.5" y="851.4688"/><rect fill="#FFFFFF" filter="url(#f1e8brwv0um4th)" height="302.1094" style="stroke:#A80036;stroke-width:1.0;" width="10" x="659.5" y="1108.0547"/><rect fill="#FFFFFF" filter="url(#f1e8brwv0um4th)" height="423.8672" style="stroke:#A80036;stroke-width:1.0;" width="10" x="1281.5" y="152.3125"/><rect fill="#FFFFFF" filter="url(#f1e8brwv0um4th)" height="30.3516" style="stroke:#A80036;stroke-width:1.0;" width="10" x="1281.5" y="692.5859"/><rect fill="#FFFFFF" filter="url(#f1e8brwv0um4th)" height="142.1797" style="stroke:#A80036;stroke-width:1.0;" width="10" x="1281.5" y="898.1719"/><rect fill="#FFFFFF" filter="url(#f1e8brwv0um4th)" height="241.4063" style="stroke:#A80036;stroke-width:1.0;" width="10" x="1281.5" y="1138.4063"/><rect fill="#FFFFFF" filter="url(#f1e8brwv0um4th)" height="90.7031" style="stroke:#A80036;stroke-width:1.0;" width="10" x="1476.5" y="182.6641"/><rect fill="#FFFFFF" filter="url(#f1e8brwv0um4th)" height="121.0547" style="stroke:#A80036;stroke-width:1.0;" width="10" x="1476.5" y="303.7188"/><rect fill="#FFFFFF" filter="url(#f1e8brwv0um4th)" height="121.0547" style="stroke:#A80036;stroke-width:1.0;" width="10" x="1476.5" y="455.125"/><rect fill="#FFFFFF" filter="url(#f1e8brwv0um4th)" height="30" style="stroke:#A80036;stroke-width:1.0;" width="10" x="1659.5" y="213.0156"/><rect fill="#FFFFFF" filter="url(#f1e8brwv0um4th)" height="60.3516" style="stroke:#A80036;stroke-width:1.0;" width="10" x="1659.5" y="334.0703"/><rect fill="#FFFFFF" filter="url(#f1e8brwv0um4th)" height="60.3516" style="stroke:#A80036;stroke-width:1.0;" width="10" x="1659.5" y="485.4766"/><rect fill="#FFFFFF" filter="url(#f1e8brwv0um4th)" height="30" style="stroke:#A80036;stroke-width:1.0;" width="10" x="1832.5" y="1168.7578"/><rect fill="#FFFFFF" filter="url(#f1e8brwv0um4th)" height="30" style="stroke:#A80036;stroke-width:1.0;" width="10" x="1832.5" y="1349.8125"/><rect fill="#FFFFFF" filter="url(#f1e8brwv0um4th)" height="30" style="stroke:#A80036;stroke-width:1.0;" width="10" x="2002.5" y="364.4219"/><rect fill="#FFFFFF" filter="url(#f1e8brwv0um4th)" height="30" style="stroke:#A80036;stroke-width:1.0;" width="10" x="2002.5" y="1289.4609"/><rect fill="#FFFFFF" filter="url(#f1e8brwv0um4th)" height="30" style="stroke:#A80036;stroke-width:1.0;" width="10" x="2165" y="515.8281"/><rect fill="#FFFFFF" filter="url(#f1e8brwv0um4th)" height="30" style="stroke:#A80036;stroke-width:1.0;" width="10" x="2165" y="1229.1094"/><rect fill="#FFFFFF" filter="url(#f1e8brwv0um4th)" height="30" style="stroke:#A80036;stroke-width:1.0;" width="10" x="2299.5" y="1010.3516"/><polygon fill="#A80036" points="647.5,117.9609,657.5,121.9609,647.5,125.9609,651.5,121.9609" style="stroke:#A80036;stroke-width:1.0;"/><line style="stroke:#A80036;stroke-width:1.0;" x1="42.5" x2="653.5" y1="121.9609" y2="121.9609"/><text fill="#000000" font-family="sans-serif" font-size="13" font-weight="bold" lengthAdjust="spacing" textLength="7" x="49.5" y="117.1045">1</text><text fill="#000000" font-family="sans-serif" font-size="13" lengthAdjust="spacing" textLength="238" x="60.5" y="117.1045">inicia a definicao dos niveis de criticidade</text><polygon fill="#A80036" points="1269.5,148.3125,1279.5,152.3125,1269.5,156.3125,1273.5,152.3125" style="stroke:#A80036;stroke-width:1.0;"/><line style="stroke:#A80036;stroke-width:1.0;" x1="669.5" x2="1275.5" y1="152.3125" y2="152.3125"/><text fill="#000000" font-family="sans-serif" font-size="13" font-weight="bold" lengthAdjust="spacing" textLength="7" x="676.5" y="147.4561">2</text><text fill="#000000" font-family="sans-serif" font-size="13" lengthAdjust="spacing" textLength="44" x="687.5" y="147.4561">create()</text><polygon fill="#A80036" points="1464.5,178.6641,1474.5,182.6641,1464.5,186.6641,1468.5,182.6641" style="stroke:#A80036;stroke-width:1.0;"/><line style="stroke:#A80036;stroke-width:1.0;" x1="1291.5" x2="1470.5" y1="182.6641" y2="182.6641"/><text fill="#000000" font-family="sans-serif" font-size="13" font-weight="bold" lengthAdjust="spacing" textLength="7" x="1298.5" y="177.8076">3</text><text fill="#000000" font-family="sans-serif" font-size="13" lengthAdjust="spacing" textLength="75" x="1309.5" y="177.8076">repositories()</text><polygon fill="#A80036" points="1647.5,209.0156,1657.5,213.0156,1647.5,217.0156,1651.5,213.0156" style="stroke:#A80036;stroke-width:1.0;"/><line style="stroke:#A80036;stroke-width:1.0;" x1="1486.5" x2="1653.5" y1="213.0156" y2="213.0156"/><text fill="#000000" font-family="sans-serif" font-size="13" font-weight="bold" lengthAdjust="spacing" textLength="7" x="1493.5" y="208.1592">4</text><text fill="#000000" font-family="sans-serif" font-size="13" lengthAdjust="spacing" textLength="143" x="1504.5" y="208.1592">newTransactionContext()</text><polygon fill="#A80036" points="1302.5,269.3672,1292.5,273.3672,1302.5,277.3672,1298.5,273.3672" style="stroke:#A80036;stroke-width:1.0;"/><line style="stroke:#A80036;stroke-width:1.0;stroke-dasharray:2.0,2.0;" x1="1296.5" x2="1480.5" y1="273.3672" y2="273.3672"/><text fill="#000000" font-family="sans-serif" font-size="13" font-weight="bold" lengthAdjust="spacing" textLength="7" x="1308.5" y="268.5107">5</text><text fill="#000000" font-family="sans-serif" font-size="13" lengthAdjust="spacing" textLength="18" x="1319.5" y="268.5107">ctx</text><polygon fill="#A80036" points="1464.5,299.7188,1474.5,303.7188,1464.5,307.7188,1468.5,303.7188" style="stroke:#A80036;stroke-width:1.0;"/><line style="stroke:#A80036;stroke-width:1.0;" x1="1291.5" x2="1470.5" y1="303.7188" y2="303.7188"/><text fill="#000000" font-family="sans-serif" font-size="13" font-weight="bold" lengthAdjust="spacing" textLength="7" x="1298.5" y="298.8623">6</text><text fill="#000000" font-family="sans-serif" font-size="13" lengthAdjust="spacing" textLength="75" x="1309.5" y="298.8623">repositories()</text><polygon fill="#A80036" points="1647.5,330.0703,1657.5,334.0703,1647.5,338.0703,1651.5,334.0703" style="stroke:#A80036;stroke-width:1.0;"/><line style="stroke:#A80036;stroke-width:1.0;" x1="1486.5" x2="1653.5" y1="334.0703" y2="334.0703"/><text fill="#000000" font-family="sans-serif" font-size="13" font-weight="bold" lengthAdjust="spacing" textLength="7" x="1493.5" y="329.2139">7</text><text fill="#000000" font-family="sans-serif" font-size="13" lengthAdjust="spacing" textLength="62" x="1504.5" y="329.2139">create(ctx)</text><polygon fill="#A80036" points="1990.5,360.4219,2000.5,364.4219,1990.5,368.4219,1994.5,364.4219" style="stroke:#A80036;stroke-width:1.0;"/><line style="stroke:#A80036;stroke-width:1.0;" x1="1669.5" x2="1996.5" y1="364.4219" y2="364.4219"/><text fill="#000000" font-family="sans-serif" font-size="13" font-weight="bold" lengthAdjust="spacing" textLength="7" x="1676.5" y="359.5654">8</text><text fill="#000000" font-family="sans-serif" font-size="13" lengthAdjust="spacing" textLength="44" x="1687.5" y="359.5654">create()</text><polygon fill="#A80036" points="1302.5,420.7734,1292.5,424.7734,1302.5,428.7734,1298.5,424.7734" style="stroke:#A80036;stroke-width:1.0;"/><line style="stroke:#A80036;stroke-width:1.0;stroke-dasharray:2.0,2.0;" x1="1296.5" x2="1480.5" y1="424.7734" y2="424.7734"/><text fill="#000000" font-family="sans-serif" font-size="13" font-weight="bold" lengthAdjust="spacing" textLength="7" x="1308.5" y="419.917">9</text><text fill="#000000" font-family="sans-serif" font-size="13" lengthAdjust="spacing" textLength="150" x="1319.5" y="419.917">NivelCriticidadeRepository</text><polygon fill="#A80036" points="1464.5,451.125,1474.5,455.125,1464.5,459.125,1468.5,455.125" style="stroke:#A80036;stroke-width:1.0;"/><line style="stroke:#A80036;stroke-width:1.0;" x1="1291.5" x2="1470.5" y1="455.125" y2="455.125"/><text fill="#000000" font-family="sans-serif" font-size="13" font-weight="bold" lengthAdjust="spacing" textLength="14" x="1298.5" y="450.2686">10</text><text fill="#000000" font-family="sans-serif" font-size="13" lengthAdjust="spacing" textLength="75" x="1316.5" y="450.2686">repositories()</text><polygon fill="#A80036" points="1647.5,481.4766,1657.5,485.4766,1647.5,489.4766,1651.5,485.4766" style="stroke:#A80036;stroke-width:1.0;"/><line style="stroke:#A80036;stroke-width:1.0;" x1="1486.5" x2="1653.5" y1="485.4766" y2="485.4766"/><text fill="#000000" font-family="sans-serif" font-size="13" font-weight="bold" lengthAdjust="spacing" textLength="14" x="1493.5" y="480.6201">11</text><text fill="#000000" font-family="sans-serif" font-size="13" lengthAdjust="spacing" textLength="62" x="1511.5" y="480.6201">create(ctx)</text><polygon fill="#A80036" points="2153,511.8281,2163,515.8281,2153,519.8281,2157,515.8281" style="stroke:#A80036;stroke-width:1.0;"/><line style="stroke:#A80036;stroke-width:1.0;" x1="1669.5" x2="2159" y1="515.8281" y2="515.8281"/><text fill="#000000" font-family="sans-serif" font-size="13" font-weight="bold" lengthAdjust="spacing" textLength="14" x="1676.5" y="510.9717">12</text><text fill="#000000" font-family="sans-serif" font-size="13" lengthAdjust="spacing" textLength="44" x="1694.5" y="510.9717">create()</text><polygon fill="#A80036" points="1297.5,572.1797,1287.5,576.1797,1297.5,580.1797,1293.5,576.1797" style="stroke:#A80036;stroke-width:1.0;"/><line style="stroke:#A80036;stroke-width:1.0;stroke-dasharray:2.0,2.0;" x1="1291.5" x2="1480.5" y1="576.1797" y2="576.1797"/><text fill="#000000" font-family="sans-serif" font-size="13" font-weight="bold" lengthAdjust="spacing" textLength="14" x="1303.5" y="571.3232">13</text><text fill="#000000" font-family="sans-serif" font-size="13" lengthAdjust="spacing" textLength="108" x="1321.5" y="571.3232">ObjetivoRepository</text><path d="M10,591.1797 L83,591.1797 L83,599.1797 L73,609.1797 L10,609.1797 L10,591.1797 " fill="#EEEEEE" style="stroke:#000000;stroke-width:1.0;"/><rect fill="none" height="457.1719" style="stroke:#000000;stroke-width:2.0;" width="2470" x="10" y="591.1797"/><text fill="#000000" font-family="sans-serif" font-size="13" font-weight="bold" lengthAdjust="spacing" textLength="28" x="25" y="605.6748">loop</text><text fill="#000000" font-family="sans-serif" font-size="11" font-weight="bold" lengthAdjust="spacing" textLength="186" x="98" y="604.5986">[criação de 5 niveis de criticidade]</text><polygon fill="#A80036" points="53.5,627.8828,43.5,631.8828,53.5,635.8828,49.5,631.8828" style="stroke:#A80036;stroke-width:1.0;"/><line style="stroke:#A80036;stroke-width:1.0;" x1="47.5" x2="663.5" y1="631.8828" y2="631.8828"/><text fill="#000000" font-family="sans-serif" font-size="13" font-weight="bold" lengthAdjust="spacing" textLength="14" x="59.5" y="627.0264">14</text><text fill="#000000" font-family="sans-serif" font-size="13" lengthAdjust="spacing" textLength="310" x="77.5" y="627.0264">solicita os dados do nivel de criticidade (cor, etiqueta)</text><polygon fill="#A80036" points="647.5,658.2344,657.5,662.2344,647.5,666.2344,651.5,662.2344" style="stroke:#A80036;stroke-width:1.0;"/><line style="stroke:#A80036;stroke-width:1.0;" x1="42.5" x2="653.5" y1="662.2344" y2="662.2344"/><text fill="#000000" font-family="sans-serif" font-size="13" font-weight="bold" lengthAdjust="spacing" textLength="14" x="49.5" y="657.3779">15</text><text fill="#000000" font-family="sans-serif" font-size="13" lengthAdjust="spacing" textLength="169" x="67.5" y="657.3779">introduz os dados solicitados</text><polygon fill="#A80036" points="1269.5,688.5859,1279.5,692.5859,1269.5,696.5859,1273.5,692.5859" style="stroke:#A80036;stroke-width:1.0;"/><line style="stroke:#A80036;stroke-width:1.0;" x1="669.5" x2="1275.5" y1="692.5859" y2="692.5859"/><text fill="#000000" font-family="sans-serif" font-size="13" font-weight="bold" lengthAdjust="spacing" textLength="14" x="676.5" y="687.7295">16</text><text fill="#000000" font-family="sans-serif" font-size="13" lengthAdjust="spacing" textLength="133" x="694.5" y="687.7295">novoNivel(cor, etiqueta)</text><polygon fill="#A80036" points="2233,718.9375,2243,722.9375,2233,726.9375,2237,722.9375" style="stroke:#A80036;stroke-width:1.0;"/><line style="stroke:#A80036;stroke-width:1.0;" x1="1286.5" x2="2239" y1="722.9375" y2="722.9375"/><text fill="#000000" font-family="sans-serif" font-size="13" font-weight="bold" lengthAdjust="spacing" textLength="14" x="1293.5" y="718.0811">17</text><text fill="#000000" font-family="sans-serif" font-size="13" lengthAdjust="spacing" textLength="44" x="1311.5" y="718.0811">create()</text><rect fill="#FEFECE" filter="url(#f1e8brwv0um4th)" height="66.8281" style="stroke:#A80036;stroke-width:1.5;" width="115" x="2245" y="700.5859"/><text fill="#000000" font-family="sans-serif" font-size="14" lengthAdjust="spacing" textLength="78" x="2263.5" y="722.1191">&lt;&lt;domain&gt;&gt;</text><text fill="#000000" font-family="sans-serif" font-size="14" lengthAdjust="spacing" textLength="33" x="2286" y="739.7285">:nivel</text><text fill="#000000" font-family="sans-serif" font-size="14" lengthAdjust="spacing" textLength="101" x="2252" y="757.3379">:NivelCriticidade</text><polygon fill="#A80036" points="53.5,817.1172,43.5,821.1172,53.5,825.1172,49.5,821.1172" style="stroke:#A80036;stroke-width:1.0;"/><line style="stroke:#A80036;stroke-width:1.0;" x1="47.5" x2="663.5" y1="821.1172" y2="821.1172"/><text fill="#000000" font-family="sans-serif" font-size="13" font-weight="bold" lengthAdjust="spacing" textLength="14" x="59.5" y="808.085">18</text><text fill="#000000" font-family="sans-serif" font-size="13" lengthAdjust="spacing" textLength="163" x="77.5" y="799.9092">solicita os dados do objetivo</text><text fill="#000000" font-family="sans-serif" font-size="13" lengthAdjust="spacing" textLength="575" x="77.5" y="816.2607">(tempoMaximoAproacao, tempoMedioAprovacao, tempoMaximoResolucao, tempoMedioResolucao)</text><polygon fill="#A80036" points="647.5,847.4688,657.5,851.4688,647.5,855.4688,651.5,851.4688" style="stroke:#A80036;stroke-width:1.0;"/><line style="stroke:#A80036;stroke-width:1.0;" x1="42.5" x2="653.5" y1="851.4688" y2="851.4688"/><text fill="#000000" font-family="sans-serif" font-size="13" font-weight="bold" lengthAdjust="spacing" textLength="14" x="49.5" y="846.6123">19</text><text fill="#000000" font-family="sans-serif" font-size="13" lengthAdjust="spacing" textLength="169" x="67.5" y="846.6123">introduz os dados solicitados</text><polygon fill="#A80036" points="1269.5,894.1719,1279.5,898.1719,1269.5,902.1719,1273.5,898.1719" style="stroke:#A80036;stroke-width:1.0;"/><line style="stroke:#A80036;stroke-width:1.0;" x1="669.5" x2="1275.5" y1="898.1719" y2="898.1719"/><text fill="#000000" font-family="sans-serif" font-size="13" font-weight="bold" lengthAdjust="spacing" textLength="14" x="676.5" y="885.1396">20</text><text fill="#000000" font-family="sans-serif" font-size="13" lengthAdjust="spacing" textLength="72" x="694.5" y="876.9639">novoObjetivo</text><text fill="#000000" font-family="sans-serif" font-size="13" lengthAdjust="spacing" textLength="575" x="694.5" y="893.3154">(tempoMaximoAproacao, tempoMedioAprovacao, tempoMaximoResolucao, tempoMedioResolucao)</text><polygon fill="#A80036" points="2362,924.5234,2372,928.5234,2362,932.5234,2366,928.5234" style="stroke:#A80036;stroke-width:1.0;"/><line style="stroke:#A80036;stroke-width:1.0;" x1="1291.5" x2="2368" y1="928.5234" y2="928.5234"/><text fill="#000000" font-family="sans-serif" font-size="13" font-weight="bold" lengthAdjust="spacing" textLength="14" x="1298.5" y="923.667">21</text><text fill="#000000" font-family="sans-serif" font-size="13" lengthAdjust="spacing" textLength="44" x="1316.5" y="923.667">create()</text><rect fill="#FEFECE" filter="url(#f1e8brwv0um4th)" height="66.8281" style="stroke:#A80036;stroke-width:1.5;" width="92" x="2374" y="906.1719"/><text fill="#000000" font-family="sans-serif" font-size="14" lengthAdjust="spacing" textLength="78" x="2381" y="927.7051">&lt;&lt;domain&gt;&gt;</text><text fill="#000000" font-family="sans-serif" font-size="14" lengthAdjust="spacing" textLength="53" x="2393.5" y="945.3145">:objetivo</text><text fill="#000000" font-family="sans-serif" font-size="14" lengthAdjust="spacing" textLength="56" x="2392" y="962.9238">:Objetivo</text><polygon fill="#A80036" points="2287.5,1006.3516,2297.5,1010.3516,2287.5,1014.3516,2291.5,1010.3516" style="stroke:#A80036;stroke-width:1.0;"/><line style="stroke:#A80036;stroke-width:1.0;" x1="1291.5" x2="2293.5" y1="1010.3516" y2="1010.3516"/><text fill="#000000" font-family="sans-serif" font-size="13" font-weight="bold" lengthAdjust="spacing" textLength="14" x="1298.5" y="1005.4951">22</text><text fill="#000000" font-family="sans-serif" font-size="13" lengthAdjust="spacing" textLength="131" x="1316.5" y="1005.4951">definirObjetivo(objetivo)</text><polygon fill="#A80036" points="53.5,1073.7031,43.5,1077.7031,53.5,1081.7031,49.5,1077.7031" style="stroke:#A80036;stroke-width:1.0;"/><line style="stroke:#A80036;stroke-width:1.0;" x1="47.5" x2="663.5" y1="1077.7031" y2="1077.7031"/><text fill="#000000" font-family="sans-serif" font-size="13" font-weight="bold" lengthAdjust="spacing" textLength="14" x="59.5" y="1072.8467">23</text><text fill="#000000" font-family="sans-serif" font-size="13" lengthAdjust="spacing" textLength="381" x="77.5" y="1072.8467">informa do sucesso da operação e pede confirmacao para registar</text><polygon fill="#A80036" points="647.5,1104.0547,657.5,1108.0547,647.5,1112.0547,651.5,1108.0547" style="stroke:#A80036;stroke-width:1.0;"/><line style="stroke:#A80036;stroke-width:1.0;" x1="42.5" x2="653.5" y1="1108.0547" y2="1108.0547"/><text fill="#000000" font-family="sans-serif" font-size="13" font-weight="bold" lengthAdjust="spacing" textLength="14" x="49.5" y="1103.1982">24</text><text fill="#000000" font-family="sans-serif" font-size="13" lengthAdjust="spacing" textLength="49" x="67.5" y="1103.1982">confirma</text><polygon fill="#A80036" points="1269.5,1134.4063,1279.5,1138.4063,1269.5,1142.4063,1273.5,1138.4063" style="stroke:#A80036;stroke-width:1.0;"/><line style="stroke:#A80036;stroke-width:1.0;" x1="669.5" x2="1275.5" y1="1138.4063" y2="1138.4063"/><text fill="#000000" font-family="sans-serif" font-size="13" font-weight="bold" lengthAdjust="spacing" textLength="14" x="676.5" y="1133.5498">25</text><text fill="#000000" font-family="sans-serif" font-size="13" lengthAdjust="spacing" textLength="143" x="694.5" y="1133.5498">registaNiveisEObjetivos()</text><polygon fill="#A80036" points="1820.5,1164.7578,1830.5,1168.7578,1820.5,1172.7578,1824.5,1168.7578" style="stroke:#A80036;stroke-width:1.0;"/><line style="stroke:#A80036;stroke-width:1.0;" x1="1291.5" x2="1826.5" y1="1168.7578" y2="1168.7578"/><text fill="#000000" font-family="sans-serif" font-size="13" font-weight="bold" lengthAdjust="spacing" textLength="14" x="1298.5" y="1163.9014">26</text><text fill="#000000" font-family="sans-serif" font-size="13" lengthAdjust="spacing" textLength="106" x="1316.5" y="1163.9014">beginTransaction()</text><polygon fill="#A80036" points="2153,1225.1094,2163,1229.1094,2153,1233.1094,2157,1229.1094" style="stroke:#A80036;stroke-width:1.0;"/><line style="stroke:#A80036;stroke-width:1.0;" x1="1291.5" x2="2159" y1="1229.1094" y2="1229.1094"/><text fill="#000000" font-family="sans-serif" font-size="13" font-weight="bold" lengthAdjust="spacing" textLength="14" x="1298.5" y="1224.2529">27</text><text fill="#000000" font-family="sans-serif" font-size="13" lengthAdjust="spacing" textLength="77" x="1316.5" y="1224.2529">save(objetivo)</text><polygon fill="#A80036" points="1990.5,1285.4609,2000.5,1289.4609,1990.5,1293.4609,1994.5,1289.4609" style="stroke:#A80036;stroke-width:1.0;"/><line style="stroke:#A80036;stroke-width:1.0;" x1="1291.5" x2="1996.5" y1="1289.4609" y2="1289.4609"/><text fill="#000000" font-family="sans-serif" font-size="13" font-weight="bold" lengthAdjust="spacing" textLength="14" x="1298.5" y="1284.6045">28</text><text fill="#000000" font-family="sans-serif" font-size="13" lengthAdjust="spacing" textLength="59" x="1316.5" y="1284.6045">save(nivel)</text><polygon fill="#A80036" points="1820.5,1345.8125,1830.5,1349.8125,1820.5,1353.8125,1824.5,1349.8125" style="stroke:#A80036;stroke-width:1.0;"/><line style="stroke:#A80036;stroke-width:1.0;" x1="1291.5" x2="1826.5" y1="1349.8125" y2="1349.8125"/><text fill="#000000" font-family="sans-serif" font-size="13" font-weight="bold" lengthAdjust="spacing" textLength="14" x="1298.5" y="1344.9561">29</text><text fill="#000000" font-family="sans-serif" font-size="13" lengthAdjust="spacing" textLength="51" x="1316.5" y="1344.9561">commit()</text><polygon fill="#A80036" points="48.5,1406.1641,38.5,1410.1641,48.5,1414.1641,44.5,1410.1641" style="stroke:#A80036;stroke-width:1.0;"/><line style="stroke:#A80036;stroke-width:1.0;" x1="42.5" x2="663.5" y1="1410.1641" y2="1410.1641"/><text fill="#000000" font-family="sans-serif" font-size="13" font-weight="bold" lengthAdjust="spacing" textLength="14" x="54.5" y="1405.3076">30</text><text fill="#000000" font-family="sans-serif" font-size="13" lengthAdjust="spacing" textLength="188" x="72.5" y="1405.3076">informa do sucesso da operação</text><!--MD5=[d3a31267ee5b66fd98e967998e7a118e]
@startuml
autonumber

actor GSH as gsh

participant "<<presentation>>\nDefinirNiveisCriticidadeUI" as ui
participant "<<application>>\nDefinirNiveisCriticidadeController" as controller

participant "<<persistence>>\nPersistenceContext" as persistence
participant "<<factory>>\nfactory:RepositoryFactory" as factory

participant "ctx\n:TransactionContext" as ctx

database "<<repository>>\n:NivelCriticidadeRepository" as dbnivel
database "<<repository>>\n:ObjetivoRepository" as dbobjetivo

participant "<<domain>>\n:nivel\n:NivelCriticidade" as nivel
participant "<<domain>>\n:objetivo\n:Objetivo" as objetivo

activate gsh
gsh -> ui : inicia a definicao dos niveis de criticidade
activate ui
ui -> controller : create()
activate controller
controller -> persistence: repositories()
activate persistence
persistence -> factory: newTransactionContext()
activate factory
deactivate factory
persistence - -> controller: ctx
deactivate persistence
controller -> persistence: repositories()
activate persistence
persistence -> factory: create(ctx)
activate factory
factory -> dbnivel : create()
activate dbnivel
deactivate dbnivel
deactivate factory
persistence - -> controller: NivelCriticidadeRepository
deactivate persistence
controller -> persistence: repositories()
activate persistence
persistence -> factory: create(ctx)
activate factory
factory -> dbobjetivo : create()
activate dbobjetivo
deactivate dbobjetivo
deactivate factory
persistence - -> controller: ObjetivoRepository
deactivate persistence
deactivate controller

loop criação de 5 niveis de criticidade
ui -> gsh : solicita os dados do nivel de criticidade (cor, etiqueta)
deactivate ui
gsh -> ui : introduz os dados solicitados
activate ui
ui -> controller : novoNivel(cor, etiqueta)
activate controller
controller -> nivel** : create()
deactivate controller
ui -> gsh : solicita os dados do objetivo \n(tempoMaximoAproacao, tempoMedioAprovacao, tempoMaximoResolucao, tempoMedioResolucao)
deactivate ui
gsh -> ui : introduz os dados solicitados
activate ui
ui -> controller : novoObjetivo\n(tempoMaximoAproacao, tempoMedioAprovacao, tempoMaximoResolucao, tempoMedioResolucao)
activate controller
controller -> objetivo** : create()
controller -> nivel : definirObjetivo(objetivo)
activate nivel
deactivate nivel
deactivate controller
end loop
ui -> gsh : informa do sucesso da operação e pede confirmacao para registar
deactivate ui

gsh -> ui : confirma
activate ui
ui -> controller : registaNiveisEObjetivos()
activate controller
controller -> ctx : beginTransaction()
activate ctx
deactivate ctx

controller -> dbobjetivo : save(objetivo)
activate dbobjetivo
deactivate dbobjetivo

controller -> dbnivel : save(nivel)
activate dbnivel
deactivate dbnivel

controller -> ctx : commit()
activate ctx
deactivate ctx

deactivate controller
ui -> gsh : informa do sucesso da operação
deactivate ui
deactivate gsh


@enduml

PlantUML version 1.2021.5(Sun Apr 25 12:20:28 BST 2021)
(GPL source distribution)
Java Runtime: OpenJDK Runtime Environment
JVM: Dynamic Code Evolution 64-Bit Server VM
Default Encoding: Cp1252
Language: pt
Country: PT
--></g></svg>