<?xml version="1.0" encoding="UTF-8" standalone="no"?><svg xmlns="http://www.w3.org/2000/svg" xmlns:xlink="http://www.w3.org/1999/xlink" contentScriptType="application/ecmascript" contentStyleType="text/css" height="713px" preserveAspectRatio="none" style="width:692px;height:713px;" version="1.1" viewBox="0 0 692 713" width="692px" zoomAndPan="magnify"><defs><filter height="300%" id="fwjfqpmqnbm7d" width="300%" x="-1" y="-1"><feGaussianBlur result="blurOut" stdDeviation="2.0"/><feColorMatrix in="blurOut" result="blurOut2" type="matrix" values="0 0 0 0 0 0 0 0 0 0 0 0 0 0 0 0 0 0 .4 0"/><feOffset dx="4.0" dy="4.0" in="blurOut2" result="blurOut3"/><feBlend in="SourceGraphic" in2="blurOut3" mode="normal"/></filter></defs><g><!--MD5=[905ea744a9ca46b816587bb64f7c2c7a]
entity EquipaRepository--><path d="M6,670 C6,660 72,660 72,660 C72,660 138,660 138,670 L138,696.6094 C138,706.6094 72,706.6094 72,706.6094 C72,706.6094 6,706.6094 6,696.6094 L6,670 " fill="#FFFFFF" filter="url(#fwjfqpmqnbm7d)" style="stroke:#000000;stroke-width:1.5;"/><path d="M6,670 C6,680 72,680 72,680 C72,680 138,680 138,670 " fill="none" style="stroke:#000000;stroke-width:1.5;"/><text fill="#000000" font-family="sans-serif" font-size="14" lengthAdjust="spacing" textLength="112" x="16" y="698.5332">EquipaRepository</text><!--MD5=[3f38b6a0ee1e78b94c5bc689a1e551c9]
entity TipoEquipaRepository--><path d="M173,670 C173,660 253,660 253,660 C253,660 333,660 333,670 L333,696.6094 C333,706.6094 253,706.6094 253,706.6094 C253,706.6094 173,706.6094 173,696.6094 L173,670 " fill="#FFFFFF" filter="url(#fwjfqpmqnbm7d)" style="stroke:#000000;stroke-width:1.5;"/><path d="M173,670 C173,680 253,680 253,680 C253,680 333,680 333,670 " fill="none" style="stroke:#000000;stroke-width:1.5;"/><text fill="#000000" font-family="sans-serif" font-size="14" lengthAdjust="spacing" textLength="140" x="183" y="698.5332">TipoEquipaRepository</text><!--MD5=[27c29abab0c7775de6854ef0ca282742]
entity ColaboradorRepository--><path d="M368.5,670 C368.5,660 452,660 452,660 C452,660 535.5,660 535.5,670 L535.5,696.6094 C535.5,706.6094 452,706.6094 452,706.6094 C452,706.6094 368.5,706.6094 368.5,696.6094 L368.5,670 " fill="#FFFFFF" filter="url(#fwjfqpmqnbm7d)" style="stroke:#000000;stroke-width:1.5;"/><path d="M368.5,670 C368.5,680 452,680 452,680 C452,680 535.5,680 535.5,670 " fill="none" style="stroke:#000000;stroke-width:1.5;"/><text fill="#000000" font-family="sans-serif" font-size="14" lengthAdjust="spacing" textLength="147" x="378.5" y="698.5332">ColaboradorRepository</text><!--MD5=[2666a901eed3b1923b2604e2138d55af]
class EquipaUI--><rect codeLine="2" fill="#FEFECE" filter="url(#fwjfqpmqnbm7d)" height="48" id="EquipaUI" style="stroke:#A80036;stroke-width:1.5;" width="83" x="343.5" y="7"/><ellipse cx="358.5" cy="23" fill="#ADD1B2" rx="11" ry="11" style="stroke:#A80036;stroke-width:1.0;"/><path d="M360.5,19.5 Q360.7031,19 360.9375,18.75 Q361.1719,18.5 361.4375,18.5 Q361.9063,18.5 362.2031,18.7813 Q362.5,19.0625 362.5,19.7188 L362.5,21.2813 Q362.5,21.9375 362.2188,22.2188 Q361.9375,22.5 361.5,22.5 Q361.1094,22.5 360.8594,22.3281 Q360.6094,22.1563 360.5,21.7031 Q360.4531,21.3906 360.2813,21.2188 Q359.9688,20.8906 359.4063,20.7031 Q358.8438,20.5 358.2813,20.5 Q357.5781,20.5 356.9844,20.7813 Q356.4063,21.0625 355.9531,21.6875 Q355.5,22.3125 355.5,23.1719 L355.5,24.0938 Q355.5,25.125 356.3438,25.8125 Q357.1875,26.5 358.6875,26.5 Q359.5781,26.5 360.2031,26.2969 Q360.5625,26.1875 360.9688,25.8281 Q361.2344,25.625 361.375,25.5625 Q361.5156,25.5 361.6875,25.5 Q362.0156,25.5 362.25,25.7656 Q362.5,26.0156 362.5,26.375 Q362.5,26.7188 362.1563,27.125 Q361.6563,27.7188 360.8594,28.0469 Q359.8125,28.5 358.5313,28.5 Q357.0313,28.5 355.8281,27.9063 Q354.8594,27.4375 354.1719,26.4219 Q353.5,25.4063 353.5,24.2031 L353.5,23.1094 Q353.5,21.8594 354.0938,20.7656 Q354.7031,19.6719 355.75,19.0938 Q356.8125,18.5 358,18.5 Q358.7188,18.5 359.3438,18.75 Q359.9688,19 360.5,19.5 Z " fill="#000000"/><text fill="#000000" font-family="sans-serif" font-size="12" lengthAdjust="spacing" textLength="51" x="372.5" y="27.9102">EquipaUI</text><line style="stroke:#A80036;stroke-width:1.5;" x1="344.5" x2="425.5" y1="39" y2="39"/><line style="stroke:#A80036;stroke-width:1.5;" x1="344.5" x2="425.5" y1="47" y2="47"/><!--MD5=[66c9c0526e3d44767119fafdec87e0b5]
class EquipaController--><rect codeLine="5" fill="#FEFECE" filter="url(#fwjfqpmqnbm7d)" height="200.1953" id="EquipaController" style="stroke:#A80036;stroke-width:1.5;" width="344" x="213" y="115"/><ellipse cx="334.25" cy="131" fill="#ADD1B2" rx="11" ry="11" style="stroke:#A80036;stroke-width:1.0;"/><path d="M336.25,127.5 Q336.4531,127 336.6875,126.75 Q336.9219,126.5 337.1875,126.5 Q337.6563,126.5 337.9531,126.7813 Q338.25,127.0625 338.25,127.7188 L338.25,129.2813 Q338.25,129.9375 337.9688,130.2188 Q337.6875,130.5 337.25,130.5 Q336.8594,130.5 336.6094,130.3281 Q336.3594,130.1563 336.25,129.7031 Q336.2031,129.3906 336.0313,129.2188 Q335.7188,128.8906 335.1563,128.7031 Q334.5938,128.5 334.0313,128.5 Q333.3281,128.5 332.7344,128.7813 Q332.1563,129.0625 331.7031,129.6875 Q331.25,130.3125 331.25,131.1719 L331.25,132.0938 Q331.25,133.125 332.0938,133.8125 Q332.9375,134.5 334.4375,134.5 Q335.3281,134.5 335.9531,134.2969 Q336.3125,134.1875 336.7188,133.8281 Q336.9844,133.625 337.125,133.5625 Q337.2656,133.5 337.4375,133.5 Q337.7656,133.5 338,133.7656 Q338.25,134.0156 338.25,134.375 Q338.25,134.7188 337.9063,135.125 Q337.4063,135.7188 336.6094,136.0469 Q335.5625,136.5 334.2813,136.5 Q332.7813,136.5 331.5781,135.9063 Q330.6094,135.4375 329.9219,134.4219 Q329.25,133.4063 329.25,132.2031 L329.25,131.1094 Q329.25,129.8594 329.8438,128.7656 Q330.4531,127.6719 331.5,127.0938 Q332.5625,126.5 333.75,126.5 Q334.4688,126.5 335.0938,126.75 Q335.7188,127 336.25,127.5 Z " fill="#000000"/><text fill="#000000" font-family="sans-serif" font-size="12" lengthAdjust="spacing" textLength="93" x="354.75" y="135.9102">EquipaController</text><line style="stroke:#A80036;stroke-width:1.5;" x1="214" x2="556" y1="147" y2="147"/><line style="stroke:#A80036;stroke-width:1.5;" x1="214" x2="556" y1="155" y2="155"/><ellipse cx="224" cy="166" fill="#84BE84" rx="3" ry="3" style="stroke:#038048;stroke-width:1.0;"/><text fill="#000000" font-family="sans-serif" font-size="11" lengthAdjust="spacing" textLength="39" x="233" y="170.4189">create()</text><ellipse cx="224" cy="179.8359" fill="#84BE84" rx="3" ry="3" style="stroke:#038048;stroke-width:1.0;"/><text fill="#000000" font-family="sans-serif" font-size="11" lengthAdjust="spacing" textLength="318" x="233" y="184.2549">Equipa novaEquipa(identificadorUnico,acronimoUnico,designacao)</text><ellipse cx="224" cy="193.6719" fill="#84BE84" rx="3" ry="3" style="stroke:#038048;stroke-width:1.0;"/><text fill="#000000" font-family="sans-serif" font-size="11" lengthAdjust="spacing" textLength="81" x="233" y="198.0908">getTiposEquipa()</text><ellipse cx="224" cy="207.5078" fill="#84BE84" rx="3" ry="3" style="stroke:#038048;stroke-width:1.0;"/><text fill="#000000" font-family="sans-serif" font-size="11" lengthAdjust="spacing" textLength="207" x="233" y="211.9268">getTipoEquipaByCodigoUnico(codigoUnico)</text><ellipse cx="224" cy="221.3438" fill="#84BE84" rx="3" ry="3" style="stroke:#038048;stroke-width:1.0;"/><text fill="#000000" font-family="sans-serif" font-size="11" lengthAdjust="spacing" textLength="163" x="233" y="225.7627">adicionarTipoEquipa(codigoUnico)</text><ellipse cx="224" cy="235.1797" fill="#84BE84" rx="3" ry="3" style="stroke:#038048;stroke-width:1.0;"/><text fill="#000000" font-family="sans-serif" font-size="11" lengthAdjust="spacing" textLength="94" x="233" y="239.5986">getColaboradores()</text><ellipse cx="224" cy="249.0156" fill="#84BE84" rx="3" ry="3" style="stroke:#038048;stroke-width:1.0;"/><text fill="#000000" font-family="sans-serif" font-size="11" lengthAdjust="spacing" textLength="143" x="233" y="253.4346">getColaboradorByEmail(email)</text><ellipse cx="224" cy="262.8516" fill="#84BE84" rx="3" ry="3" style="stroke:#038048;stroke-width:1.0;"/><text fill="#000000" font-family="sans-serif" font-size="11" lengthAdjust="spacing" textLength="135" x="233" y="267.2705">adicionarColaborador(email)</text><ellipse cx="224" cy="276.6875" fill="#84BE84" rx="3" ry="3" style="stroke:#038048;stroke-width:1.0;"/><text fill="#000000" font-family="sans-serif" font-size="11" lengthAdjust="spacing" textLength="126" x="233" y="281.1064">getColaboradoresEquipa()</text><ellipse cx="224" cy="290.5234" fill="#84BE84" rx="3" ry="3" style="stroke:#038048;stroke-width:1.0;"/><text fill="#000000" font-family="sans-serif" font-size="11" lengthAdjust="spacing" textLength="198" x="233" y="294.9424">adicionarColaboradorResponsavel(email)</text><ellipse cx="224" cy="304.3594" fill="#84BE84" rx="3" ry="3" style="stroke:#038048;stroke-width:1.0;"/><text fill="#000000" font-family="sans-serif" font-size="11" lengthAdjust="spacing" textLength="77" x="233" y="308.7783">registarEquipa()</text><!--MD5=[e8c189551b7885b999ad7cefb30fc2a3]
class PersistenceContext--><rect codeLine="19" fill="#FEFECE" filter="url(#fwjfqpmqnbm7d)" height="61.8359" id="PersistenceContext" style="stroke:#A80036;stroke-width:1.5;" width="139" x="183.5" y="395.5"/><ellipse cx="198.5" cy="411.5" fill="#ADD1B2" rx="11" ry="11" style="stroke:#A80036;stroke-width:1.0;"/><path d="M200.5,408 Q200.7031,407.5 200.9375,407.25 Q201.1719,407 201.4375,407 Q201.9063,407 202.2031,407.2813 Q202.5,407.5625 202.5,408.2188 L202.5,409.7813 Q202.5,410.4375 202.2188,410.7188 Q201.9375,411 201.5,411 Q201.1094,411 200.8594,410.8281 Q200.6094,410.6563 200.5,410.2031 Q200.4531,409.8906 200.2813,409.7188 Q199.9688,409.3906 199.4063,409.2031 Q198.8438,409 198.2813,409 Q197.5781,409 196.9844,409.2813 Q196.4063,409.5625 195.9531,410.1875 Q195.5,410.8125 195.5,411.6719 L195.5,412.5938 Q195.5,413.625 196.3438,414.3125 Q197.1875,415 198.6875,415 Q199.5781,415 200.2031,414.7969 Q200.5625,414.6875 200.9688,414.3281 Q201.2344,414.125 201.375,414.0625 Q201.5156,414 201.6875,414 Q202.0156,414 202.25,414.2656 Q202.5,414.5156 202.5,414.875 Q202.5,415.2188 202.1563,415.625 Q201.6563,416.2188 200.8594,416.5469 Q199.8125,417 198.5313,417 Q197.0313,417 195.8281,416.4063 Q194.8594,415.9375 194.1719,414.9219 Q193.5,413.9063 193.5,412.7031 L193.5,411.6094 Q193.5,410.3594 194.0938,409.2656 Q194.7031,408.1719 195.75,407.5938 Q196.8125,407 198,407 Q198.7188,407 199.3438,407.25 Q199.9688,407.5 200.5,408 Z " fill="#000000"/><text fill="#000000" font-family="sans-serif" font-size="12" lengthAdjust="spacing" textLength="107" x="212.5" y="416.4102">PersistenceContext</text><line style="stroke:#A80036;stroke-width:1.5;" x1="184.5" x2="321.5" y1="427.5" y2="427.5"/><line style="stroke:#A80036;stroke-width:1.5;" x1="184.5" x2="321.5" y1="435.5" y2="435.5"/><ellipse cx="194.5" cy="446.5" fill="#84BE84" rx="3" ry="3" style="stroke:#038048;stroke-width:1.0;"/><text fill="#000000" font-family="sans-serif" font-size="11" lengthAdjust="spacing" textLength="65" x="203.5" y="450.9189">repositories()</text><!--MD5=[48590afff58a68e2fcba47824d6f8a11]
class RepositoryFactory--><rect codeLine="23" fill="#FEFECE" filter="url(#fwjfqpmqnbm7d)" height="61.8359" id="RepositoryFactory" style="stroke:#A80036;stroke-width:1.5;" width="130" x="188" y="538"/><ellipse cx="203" cy="554" fill="#ADD1B2" rx="11" ry="11" style="stroke:#A80036;stroke-width:1.0;"/><path d="M205,550.5 Q205.2031,550 205.4375,549.75 Q205.6719,549.5 205.9375,549.5 Q206.4063,549.5 206.7031,549.7813 Q207,550.0625 207,550.7188 L207,552.2813 Q207,552.9375 206.7188,553.2188 Q206.4375,553.5 206,553.5 Q205.6094,553.5 205.3594,553.3281 Q205.1094,553.1563 205,552.7031 Q204.9531,552.3906 204.7813,552.2188 Q204.4688,551.8906 203.9063,551.7031 Q203.3438,551.5 202.7813,551.5 Q202.0781,551.5 201.4844,551.7813 Q200.9063,552.0625 200.4531,552.6875 Q200,553.3125 200,554.1719 L200,555.0938 Q200,556.125 200.8438,556.8125 Q201.6875,557.5 203.1875,557.5 Q204.0781,557.5 204.7031,557.2969 Q205.0625,557.1875 205.4688,556.8281 Q205.7344,556.625 205.875,556.5625 Q206.0156,556.5 206.1875,556.5 Q206.5156,556.5 206.75,556.7656 Q207,557.0156 207,557.375 Q207,557.7188 206.6563,558.125 Q206.1563,558.7188 205.3594,559.0469 Q204.3125,559.5 203.0313,559.5 Q201.5313,559.5 200.3281,558.9063 Q199.3594,558.4375 198.6719,557.4219 Q198,556.4063 198,555.2031 L198,554.1094 Q198,552.8594 198.5938,551.7656 Q199.2031,550.6719 200.25,550.0938 Q201.3125,549.5 202.5,549.5 Q203.2188,549.5 203.8438,549.75 Q204.4688,550 205,550.5 Z " fill="#000000"/><text fill="#000000" font-family="sans-serif" font-size="12" lengthAdjust="spacing" textLength="98" x="217" y="558.9102">RepositoryFactory</text><line style="stroke:#A80036;stroke-width:1.5;" x1="189" x2="317" y1="570" y2="570"/><line style="stroke:#A80036;stroke-width:1.5;" x1="189" x2="317" y1="578" y2="578"/><ellipse cx="199" cy="589" fill="#84BE84" rx="3" ry="3" style="stroke:#038048;stroke-width:1.0;"/><text fill="#000000" font-family="sans-serif" font-size="11" lengthAdjust="spacing" textLength="39" x="208" y="593.4189">create()</text><!--MD5=[d34c3374e9f1ea92600999ba19e06c1c]
class Equipa--><rect codeLine="36" fill="#FEFECE" filter="url(#fwjfqpmqnbm7d)" height="103.3438" id="Equipa" style="stroke:#A80036;stroke-width:1.5;" width="321" x="357.5" y="375"/><ellipse cx="494.25" cy="391" fill="#ADD1B2" rx="11" ry="11" style="stroke:#A80036;stroke-width:1.0;"/><path d="M496.25,387.5 Q496.4531,387 496.6875,386.75 Q496.9219,386.5 497.1875,386.5 Q497.6563,386.5 497.9531,386.7813 Q498.25,387.0625 498.25,387.7188 L498.25,389.2813 Q498.25,389.9375 497.9688,390.2188 Q497.6875,390.5 497.25,390.5 Q496.8594,390.5 496.6094,390.3281 Q496.3594,390.1563 496.25,389.7031 Q496.2031,389.3906 496.0313,389.2188 Q495.7188,388.8906 495.1563,388.7031 Q494.5938,388.5 494.0313,388.5 Q493.3281,388.5 492.7344,388.7813 Q492.1563,389.0625 491.7031,389.6875 Q491.25,390.3125 491.25,391.1719 L491.25,392.0938 Q491.25,393.125 492.0938,393.8125 Q492.9375,394.5 494.4375,394.5 Q495.3281,394.5 495.9531,394.2969 Q496.3125,394.1875 496.7188,393.8281 Q496.9844,393.625 497.125,393.5625 Q497.2656,393.5 497.4375,393.5 Q497.7656,393.5 498,393.7656 Q498.25,394.0156 498.25,394.375 Q498.25,394.7188 497.9063,395.125 Q497.4063,395.7188 496.6094,396.0469 Q495.5625,396.5 494.2813,396.5 Q492.7813,396.5 491.5781,395.9063 Q490.6094,395.4375 489.9219,394.4219 Q489.25,393.4063 489.25,392.2031 L489.25,391.1094 Q489.25,389.8594 489.8438,388.7656 Q490.4531,387.6719 491.5,387.0938 Q492.5625,386.5 493.75,386.5 Q494.4688,386.5 495.0938,386.75 Q495.7188,387 496.25,387.5 Z " fill="#000000"/><text fill="#000000" font-family="sans-serif" font-size="12" lengthAdjust="spacing" textLength="39" x="514.75" y="395.9102">Equipa</text><line style="stroke:#A80036;stroke-width:1.5;" x1="358.5" x2="677.5" y1="407" y2="407"/><line style="stroke:#A80036;stroke-width:1.5;" x1="358.5" x2="677.5" y1="415" y2="415"/><ellipse cx="368.5" cy="426" fill="#84BE84" rx="3" ry="3" style="stroke:#038048;stroke-width:1.0;"/><text fill="#000000" font-family="sans-serif" font-size="11" lengthAdjust="spacing" textLength="258" x="377.5" y="430.4189">create(identificadorUnico,acronimoUnico,designacao)</text><ellipse cx="368.5" cy="439.8359" fill="#84BE84" rx="3" ry="3" style="stroke:#038048;stroke-width:1.0;"/><text fill="#000000" font-family="sans-serif" font-size="11" lengthAdjust="spacing" textLength="153" x="377.5" y="444.2549">adicionarTipoEquipa(tipoEquipa)</text><ellipse cx="368.5" cy="453.6719" fill="#84BE84" rx="3" ry="3" style="stroke:#038048;stroke-width:1.0;"/><text fill="#000000" font-family="sans-serif" font-size="11" lengthAdjust="spacing" textLength="169" x="377.5" y="458.0908">adicionarColaborador(colaborador)</text><ellipse cx="368.5" cy="467.5078" fill="#84BE84" rx="3" ry="3" style="stroke:#038048;stroke-width:1.0;"/><text fill="#000000" font-family="sans-serif" font-size="11" lengthAdjust="spacing" textLength="295" x="377.5" y="471.9268">adicionarColaboradorResponsavel(colaboradorResponsavel)</text><!--MD5=[2e48931b0f3f40a3683351e34f4fa21a]
link EquipaUI to EquipaController--><path codeLine="43" d="M385,55.05 C385,69.42 385,89.05 385,109.61 " fill="none" id="EquipaUI-to-EquipaController" style="stroke:#A80036;stroke-width:1.0;stroke-dasharray:7.0,7.0;"/><polygon fill="#A80036" points="385,114.86,389,105.86,385,109.86,381,105.86,385,114.86" style="stroke:#A80036;stroke-width:1.0;"/><!--MD5=[622c01f56564b8fdfa97c202c4e75c61]
link EquipaController to PersistenceContext--><path codeLine="45" d="M322.48,315.23 C305.31,342.48 287.82,370.23 274.69,391.08 " fill="none" id="EquipaController-to-PersistenceContext" style="stroke:#A80036;stroke-width:1.0;stroke-dasharray:7.0,7.0;"/><polygon fill="#A80036" points="271.95,395.42,280.1386,389.9476,274.6205,391.1929,273.3752,385.6748,271.95,395.42" style="stroke:#A80036;stroke-width:1.0;"/><!--MD5=[021ea89bf63a534187b4d3e24cb00872]
link EquipaController to Equipa--><path codeLine="46" d="M447.99,315.23 C460.06,334.24 472.29,353.5 483.07,370.48 " fill="none" id="EquipaController-to-Equipa" style="stroke:#A80036;stroke-width:1.0;stroke-dasharray:7.0,7.0;"/><polygon fill="#A80036" points="485.78,374.75,484.3548,365.0048,483.1095,370.5229,477.5914,369.2776,485.78,374.75" style="stroke:#A80036;stroke-width:1.0;"/><!--MD5=[754b775031405e096442b27febffa290]
link PersistenceContext to RepositoryFactory--><path codeLine="48" d="M253,457.64 C253,479.68 253,509.64 253,532.78 " fill="none" id="PersistenceContext-to-RepositoryFactory" style="stroke:#A80036;stroke-width:1.0;stroke-dasharray:7.0,7.0;"/><polygon fill="#A80036" points="253,537.91,257,528.91,253,532.91,249,528.91,253,537.91" style="stroke:#A80036;stroke-width:1.0;"/><!--MD5=[2778d99b3c12bc11ad4233191bb1c898]
link RepositoryFactory to EquipaRepository--><path codeLine="50" d="M204.5,600.15 C175.77,618 139.79,640.37 112.58,657.28 " fill="none" id="RepositoryFactory-to-EquipaRepository" style="stroke:#A80036;stroke-width:1.0;stroke-dasharray:7.0,7.0;"/><polygon fill="#A80036" points="108.29,659.95,118.0441,658.5868,112.534,657.3064,113.8143,651.7964,108.29,659.95" style="stroke:#A80036;stroke-width:1.0;"/><!--MD5=[272d559547cce8897eea9117175317cb]
link RepositoryFactory to TipoEquipaRepository--><path codeLine="51" d="M253,600.15 C253,616.99 253,637.84 253,654.35 " fill="none" id="RepositoryFactory-to-TipoEquipaRepository" style="stroke:#A80036;stroke-width:1.0;stroke-dasharray:7.0,7.0;"/><polygon fill="#A80036" points="253,659.77,257,650.77,253,654.77,249,650.77,253,659.77" style="stroke:#A80036;stroke-width:1.0;"/><!--MD5=[f69c8ab88bf9359224da8c715bf10dd8]
link RepositoryFactory to ColaboradorRepository--><path codeLine="52" d="M306.07,600 C337.78,617.93 377.61,640.45 407.64,657.42 " fill="none" id="RepositoryFactory-to-ColaboradorRepository" style="stroke:#A80036;stroke-width:1.0;stroke-dasharray:7.0,7.0;"/><polygon fill="#A80036" points="412,659.89,406.1255,651.9849,407.6448,657.4339,402.1958,658.9533,412,659.89" style="stroke:#A80036;stroke-width:1.0;"/><!--MD5=[1fa4b61ab75a02809f60ace68dbdf713]
@startuml

class EquipaUI{
}

class EquipaController{
+create()
+Equipa novaEquipa(identificadorUnico,acronimoUnico,designacao)
+getTiposEquipa()
+getTipoEquipaByCodigoUnico(codigoUnico)
+adicionarTipoEquipa(codigoUnico)
+getColaboradores()
+getColaboradorByEmail(email)
+adicionarColaborador(email)
+getColaboradoresEquipa()
+adicionarColaboradorResponsavel(email)
+registarEquipa()
}

class PersistenceContext{
+repositories()
}

class RepositoryFactory{
+create()
}

database EquipaRepository{
}

database TipoEquipaRepository{
}

database ColaboradorRepository{
}

class Equipa{
+create(identificadorUnico,acronimoUnico,designacao)
+adicionarTipoEquipa(tipoEquipa)
+adicionarColaborador(colaborador)
+adicionarColaboradorResponsavel(colaboradorResponsavel)
}

EquipaUI..> EquipaController

EquipaController..>PersistenceContext
EquipaController..>Equipa

PersistenceContext..>RepositoryFactory

RepositoryFactory..>EquipaRepository
RepositoryFactory..>TipoEquipaRepository
RepositoryFactory..>ColaboradorRepository


@enduml

PlantUML version 1.2021.00(Sun Jan 10 10:25:05 GMT 2021)
(GPL source distribution)
Java Runtime: OpenJDK Runtime Environment
JVM: OpenJDK 64-Bit Server VM
Default Encoding: Cp1252
Language: pt
Country: PT
--></g></svg>