<?xml version="1.0" encoding="UTF-8" standalone="no"?><svg xmlns="http://www.w3.org/2000/svg" xmlns:xlink="http://www.w3.org/1999/xlink" contentScriptType="application/ecmascript" contentStyleType="text/css" height="1097px" preserveAspectRatio="none" style="width:1326px;height:1097px;" version="1.1" viewBox="0 0 1326 1097" width="1326px" zoomAndPan="magnify"><defs><filter height="300%" id="fqu98x76xv1rl" width="300%" x="-1" y="-1"><feGaussianBlur result="blurOut" stdDeviation="2.0"/><feColorMatrix in="blurOut" result="blurOut2" type="matrix" values="0 0 0 0 0 0 0 0 0 0 0 0 0 0 0 0 0 0 .4 0"/><feOffset dx="4.0" dy="4.0" in="blurOut2" result="blurOut3"/><feBlend in="SourceGraphic" in2="blurOut3" mode="normal"/></filter></defs><g><!--MD5=[ac8682ea5466d223e49472789fb200d2]
class Colaborador--><rect fill="#FEFECE" filter="url(#fqu98x76xv1rl)" height="117.1797" id="Colaborador" style="stroke: #A80036; stroke-width: 1.5;" width="132" x="156.5" y="8"/><ellipse cx="185.45" cy="24" fill="#ADD1B2" rx="11" ry="11" style="stroke: #A80036; stroke-width: 1.0;"/><path d="M187.45,20.5 Q187.6531,20 187.8875,19.75 Q188.1219,19.5 188.3875,19.5 Q188.8563,19.5 189.1531,19.7813 Q189.45,20.0625 189.45,20.7188 L189.45,22.2813 Q189.45,22.9375 189.1688,23.2188 Q188.8875,23.5 188.45,23.5 Q188.0594,23.5 187.8094,23.3281 Q187.5594,23.1563 187.45,22.7031 Q187.4031,22.3906 187.2313,22.2188 Q186.9188,21.8906 186.3563,21.7031 Q185.7938,21.5 185.2313,21.5 Q184.5281,21.5 183.9344,21.7813 Q183.3563,22.0625 182.9031,22.6875 Q182.45,23.3125 182.45,24.1719 L182.45,25.0938 Q182.45,26.125 183.2938,26.8125 Q184.1375,27.5 185.6375,27.5 Q186.5281,27.5 187.1531,27.2969 Q187.5125,27.1875 187.9188,26.8281 Q188.1844,26.625 188.325,26.5625 Q188.4656,26.5 188.6375,26.5 Q188.9656,26.5 189.2,26.7656 Q189.45,27.0156 189.45,27.375 Q189.45,27.7188 189.1063,28.125 Q188.6063,28.7188 187.8094,29.0469 Q186.7625,29.5 185.4813,29.5 Q183.9813,29.5 182.7781,28.9063 Q181.8094,28.4375 181.1219,27.4219 Q180.45,26.4063 180.45,25.2031 L180.45,24.1094 Q180.45,22.8594 181.0438,21.7656 Q181.6531,20.6719 182.7,20.0938 Q183.7625,19.5 184.95,19.5 Q185.6688,19.5 186.2938,19.75 Q186.9188,20 187.45,20.5 Z "/><text fill="#000000" font-family="sans-serif" font-size="12" lengthAdjust="spacingAndGlyphs" textLength="69" x="202.55" y="28.9102">Colaborador</text><line style="stroke: #A80036; stroke-width: 1.5;" x1="157.5" x2="287.5" y1="40" y2="40"/><rect fill="none" height="6" style="stroke: #C82930; stroke-width: 1.0;" width="6" x="164.5" y="48"/><text fill="#000000" font-family="sans-serif" font-size="11" lengthAdjust="spacingAndGlyphs" textLength="106" x="176.5" y="55.4189">int numMecanografico</text><rect fill="none" height="6" style="stroke: #C82930; stroke-width: 1.0;" width="6" x="164.5" y="61.8359"/><text fill="#000000" font-family="sans-serif" font-size="11" lengthAdjust="spacingAndGlyphs" textLength="92" x="176.5" y="69.2549">String nomeComum</text><rect fill="none" height="6" style="stroke: #C82930; stroke-width: 1.0;" width="6" x="164.5" y="75.6719"/><text fill="#000000" font-family="sans-serif" font-size="11" lengthAdjust="spacingAndGlyphs" textLength="102" x="176.5" y="83.0908">Date dataNascimento</text><rect fill="none" height="6" style="stroke: #C82930; stroke-width: 1.0;" width="6" x="164.5" y="89.5078"/><text fill="#000000" font-family="sans-serif" font-size="11" lengthAdjust="spacingAndGlyphs" textLength="55" x="176.5" y="96.9268">String email</text><rect fill="none" height="6" style="stroke: #C82930; stroke-width: 1.0;" width="6" x="164.5" y="103.3438"/><text fill="#000000" font-family="sans-serif" font-size="11" lengthAdjust="spacingAndGlyphs" textLength="76" x="176.5" y="110.7627">String telemovel</text><line style="stroke: #A80036; stroke-width: 1.5;" x1="157.5" x2="287.5" y1="117.1797" y2="117.1797"/><!--MD5=[90a2bf7202f74ae320fe44f966ecd476]
class TipoEquipa--><rect fill="#FEFECE" filter="url(#fqu98x76xv1rl)" height="89.5078" id="TipoEquipa" style="stroke: #A80036; stroke-width: 1.5;" width="105" x="169" y="808.5"/><ellipse cx="188.5" cy="824.5" fill="#ADD1B2" rx="11" ry="11" style="stroke: #A80036; stroke-width: 1.0;"/><path d="M190.5,821 Q190.7031,820.5 190.9375,820.25 Q191.1719,820 191.4375,820 Q191.9063,820 192.2031,820.2813 Q192.5,820.5625 192.5,821.2188 L192.5,822.7813 Q192.5,823.4375 192.2188,823.7188 Q191.9375,824 191.5,824 Q191.1094,824 190.8594,823.8281 Q190.6094,823.6563 190.5,823.2031 Q190.4531,822.8906 190.2813,822.7188 Q189.9688,822.3906 189.4063,822.2031 Q188.8438,822 188.2813,822 Q187.5781,822 186.9844,822.2813 Q186.4063,822.5625 185.9531,823.1875 Q185.5,823.8125 185.5,824.6719 L185.5,825.5938 Q185.5,826.625 186.3438,827.3125 Q187.1875,828 188.6875,828 Q189.5781,828 190.2031,827.7969 Q190.5625,827.6875 190.9688,827.3281 Q191.2344,827.125 191.375,827.0625 Q191.5156,827 191.6875,827 Q192.0156,827 192.25,827.2656 Q192.5,827.5156 192.5,827.875 Q192.5,828.2188 192.1563,828.625 Q191.6563,829.2188 190.8594,829.5469 Q189.8125,830 188.5313,830 Q187.0313,830 185.8281,829.4063 Q184.8594,828.9375 184.1719,827.9219 Q183.5,826.9063 183.5,825.7031 L183.5,824.6094 Q183.5,823.3594 184.0938,822.2656 Q184.7031,821.1719 185.75,820.5938 Q186.8125,820 188,820 Q188.7188,820 189.3438,820.25 Q189.9688,820.5 190.5,821 Z "/><text fill="#000000" font-family="sans-serif" font-size="12" lengthAdjust="spacingAndGlyphs" textLength="63" x="203.5" y="829.4102">TipoEquipa</text><line style="stroke: #A80036; stroke-width: 1.5;" x1="170" x2="273" y1="840.5" y2="840.5"/><rect fill="none" height="6" style="stroke: #C82930; stroke-width: 1.0;" width="6" x="177" y="848.5"/><text fill="#000000" font-family="sans-serif" font-size="11" lengthAdjust="spacingAndGlyphs" textLength="73" x="189" y="855.9189">int codigoUnico</text><rect fill="none" height="6" style="stroke: #C82930; stroke-width: 1.0;" width="6" x="177" y="862.3359"/><text fill="#000000" font-family="sans-serif" font-size="11" lengthAdjust="spacingAndGlyphs" textLength="79" x="189" y="869.7549">String descricao</text><rect fill="none" height="6" style="stroke: #C82930; stroke-width: 1.0;" width="6" x="177" y="876.1719"/><text fill="#000000" font-family="sans-serif" font-size="11" lengthAdjust="spacingAndGlyphs" textLength="47" x="189" y="883.5908">String cor</text><line style="stroke: #A80036; stroke-width: 1.5;" x1="170" x2="273" y1="890.0078" y2="890.0078"/><!--MD5=[d34c3374e9f1ea92600999ba19e06c1c]
class Equipa--><rect fill="#FEFECE" filter="url(#fqu98x76xv1rl)" height="89.5078" id="Equipa" style="stroke: #A80036; stroke-width: 1.5;" width="128" x="157.5" y="627.5"/><ellipse cx="198.15" cy="643.5" fill="#ADD1B2" rx="11" ry="11" style="stroke: #A80036; stroke-width: 1.0;"/><path d="M200.15,640 Q200.3531,639.5 200.5875,639.25 Q200.8219,639 201.0875,639 Q201.5563,639 201.8531,639.2813 Q202.15,639.5625 202.15,640.2188 L202.15,641.7813 Q202.15,642.4375 201.8688,642.7188 Q201.5875,643 201.15,643 Q200.7594,643 200.5094,642.8281 Q200.2594,642.6563 200.15,642.2031 Q200.1031,641.8906 199.9313,641.7188 Q199.6188,641.3906 199.0563,641.2031 Q198.4938,641 197.9313,641 Q197.2281,641 196.6344,641.2813 Q196.0563,641.5625 195.6031,642.1875 Q195.15,642.8125 195.15,643.6719 L195.15,644.5938 Q195.15,645.625 195.9938,646.3125 Q196.8375,647 198.3375,647 Q199.2281,647 199.8531,646.7969 Q200.2125,646.6875 200.6188,646.3281 Q200.8844,646.125 201.025,646.0625 Q201.1656,646 201.3375,646 Q201.6656,646 201.9,646.2656 Q202.15,646.5156 202.15,646.875 Q202.15,647.2188 201.8063,647.625 Q201.3063,648.2188 200.5094,648.5469 Q199.4625,649 198.1813,649 Q196.6813,649 195.4781,648.4063 Q194.5094,647.9375 193.8219,646.9219 Q193.15,645.9063 193.15,644.7031 L193.15,643.6094 Q193.15,642.3594 193.7438,641.2656 Q194.3531,640.1719 195.4,639.5938 Q196.4625,639 197.65,639 Q198.3688,639 198.9938,639.25 Q199.6188,639.5 200.15,640 Z "/><text fill="#000000" font-family="sans-serif" font-size="12" lengthAdjust="spacingAndGlyphs" textLength="39" x="217.85" y="648.4102">Equipa</text><line style="stroke: #A80036; stroke-width: 1.5;" x1="158.5" x2="284.5" y1="659.5" y2="659.5"/><rect fill="none" height="6" style="stroke: #C82930; stroke-width: 1.0;" width="6" x="165.5" y="667.5"/><text fill="#000000" font-family="sans-serif" font-size="11" lengthAdjust="spacingAndGlyphs" textLength="73" x="177.5" y="674.9189">int codigoUnico</text><rect fill="none" height="6" style="stroke: #C82930; stroke-width: 1.0;" width="6" x="165.5" y="681.3359"/><text fill="#000000" font-family="sans-serif" font-size="11" lengthAdjust="spacingAndGlyphs" textLength="102" x="177.5" y="688.7549">String acronimoUnico</text><rect fill="none" height="6" style="stroke: #C82930; stroke-width: 1.0;" width="6" x="165.5" y="695.1719"/><text fill="#000000" font-family="sans-serif" font-size="11" lengthAdjust="spacingAndGlyphs" textLength="87" x="177.5" y="702.5908">String designacao</text><line style="stroke: #A80036; stroke-width: 1.5;" x1="158.5" x2="284.5" y1="709.0078" y2="709.0078"/><!--MD5=[a26d7a8585b446db7fc8ab4626d8ca8a]
class Pedido--><rect fill="#FEFECE" filter="url(#fqu98x76xv1rl)" height="131.0156" id="Pedido" style="stroke: #A80036; stroke-width: 1.5;" width="163" x="840" y="203"/><ellipse cx="897.75" cy="219" fill="#ADD1B2" rx="11" ry="11" style="stroke: #A80036; stroke-width: 1.0;"/><path d="M899.75,215.5 Q899.9531,215 900.1875,214.75 Q900.4219,214.5 900.6875,214.5 Q901.1563,214.5 901.4531,214.7813 Q901.75,215.0625 901.75,215.7188 L901.75,217.2813 Q901.75,217.9375 901.4688,218.2188 Q901.1875,218.5 900.75,218.5 Q900.3594,218.5 900.1094,218.3281 Q899.8594,218.1563 899.75,217.7031 Q899.7031,217.3906 899.5313,217.2188 Q899.2188,216.8906 898.6563,216.7031 Q898.0938,216.5 897.5313,216.5 Q896.8281,216.5 896.2344,216.7813 Q895.6563,217.0625 895.2031,217.6875 Q894.75,218.3125 894.75,219.1719 L894.75,220.0938 Q894.75,221.125 895.5938,221.8125 Q896.4375,222.5 897.9375,222.5 Q898.8281,222.5 899.4531,222.2969 Q899.8125,222.1875 900.2188,221.8281 Q900.4844,221.625 900.625,221.5625 Q900.7656,221.5 900.9375,221.5 Q901.2656,221.5 901.5,221.7656 Q901.75,222.0156 901.75,222.375 Q901.75,222.7188 901.4063,223.125 Q900.9063,223.7188 900.1094,224.0469 Q899.0625,224.5 897.7813,224.5 Q896.2813,224.5 895.0781,223.9063 Q894.1094,223.4375 893.4219,222.4219 Q892.75,221.4063 892.75,220.2031 L892.75,219.1094 Q892.75,217.8594 893.3438,216.7656 Q893.9531,215.6719 895,215.0938 Q896.0625,214.5 897.25,214.5 Q897.9688,214.5 898.5938,214.75 Q899.2188,215 899.75,215.5 Z "/><text fill="#000000" font-family="sans-serif" font-size="12" lengthAdjust="spacingAndGlyphs" textLength="39" x="918.25" y="223.9102">Pedido</text><line style="stroke: #A80036; stroke-width: 1.5;" x1="841" x2="1002" y1="235" y2="235"/><rect fill="none" height="6" style="stroke: #C82930; stroke-width: 1.0;" width="6" x="848" y="243"/><text fill="#000000" font-family="sans-serif" font-size="11" lengthAdjust="spacingAndGlyphs" textLength="117" x="860" y="250.4189">String identificadorUnico</text><rect fill="none" height="6" style="stroke: #C82930; stroke-width: 1.0;" width="6" x="848" y="256.8359"/><text fill="#000000" font-family="sans-serif" font-size="11" lengthAdjust="spacingAndGlyphs" textLength="98" x="860" y="264.2549">Date dataSolicitacao</text><rect fill="none" height="6" style="stroke: #C82930; stroke-width: 1.0;" width="6" x="848" y="270.6719"/><text fill="#000000" font-family="sans-serif" font-size="11" lengthAdjust="spacingAndGlyphs" textLength="80" x="860" y="278.0908">String criticidade</text><rect fill="none" height="6" style="stroke: #C82930; stroke-width: 1.0;" width="6" x="848" y="284.5078"/><text fill="#000000" font-family="sans-serif" font-size="11" lengthAdjust="spacingAndGlyphs" textLength="73" x="860" y="291.9268">Date dataLimite</text><rect fill="none" height="6" style="stroke: #C82930; stroke-width: 1.0;" width="6" x="848" y="298.3438"/><text fill="#000000" font-family="sans-serif" font-size="11" lengthAdjust="spacingAndGlyphs" textLength="137" x="860" y="305.7627">String comentarioConclusivo</text><rect fill="none" height="6" style="stroke: #C82930; stroke-width: 1.0;" width="6" x="848" y="312.1797"/><text fill="#000000" font-family="sans-serif" font-size="11" lengthAdjust="spacingAndGlyphs" textLength="78" x="860" y="319.5986">int classificacao</text><line style="stroke: #A80036; stroke-width: 1.5;" x1="841" x2="1002" y1="326.0156" y2="326.0156"/><!--MD5=[b6491c6bfca6d442eeced1751ed765da]
class Funcao--><rect fill="#FEFECE" filter="url(#fqu98x76xv1rl)" height="61.8359" id="Funcao" style="stroke: #A80036; stroke-width: 1.5;" width="105" x="6" y="237.5"/><ellipse cx="35.4" cy="253.5" fill="#ADD1B2" rx="11" ry="11" style="stroke: #A80036; stroke-width: 1.0;"/><path d="M37.4,250 Q37.6031,249.5 37.8375,249.25 Q38.0719,249 38.3375,249 Q38.8063,249 39.1031,249.2813 Q39.4,249.5625 39.4,250.2188 L39.4,251.7813 Q39.4,252.4375 39.1188,252.7188 Q38.8375,253 38.4,253 Q38.0094,253 37.7594,252.8281 Q37.5094,252.6563 37.4,252.2031 Q37.3531,251.8906 37.1813,251.7188 Q36.8688,251.3906 36.3063,251.2031 Q35.7438,251 35.1813,251 Q34.4781,251 33.8844,251.2813 Q33.3063,251.5625 32.8531,252.1875 Q32.4,252.8125 32.4,253.6719 L32.4,254.5938 Q32.4,255.625 33.2438,256.3125 Q34.0875,257 35.5875,257 Q36.4781,257 37.1031,256.7969 Q37.4625,256.6875 37.8688,256.3281 Q38.1344,256.125 38.275,256.0625 Q38.4156,256 38.5875,256 Q38.9156,256 39.15,256.2656 Q39.4,256.5156 39.4,256.875 Q39.4,257.2188 39.0563,257.625 Q38.5563,258.2188 37.7594,258.5469 Q36.7125,259 35.4313,259 Q33.9313,259 32.7281,258.4063 Q31.7594,257.9375 31.0719,256.9219 Q30.4,255.9063 30.4,254.7031 L30.4,253.6094 Q30.4,252.3594 30.9938,251.2656 Q31.6031,250.1719 32.65,249.5938 Q33.7125,249 34.9,249 Q35.6188,249 36.2438,249.25 Q36.8688,249.5 37.4,250 Z "/><text fill="#000000" font-family="sans-serif" font-size="12" lengthAdjust="spacingAndGlyphs" textLength="41" x="52.6" y="258.4102">Funcao</text><line style="stroke: #A80036; stroke-width: 1.5;" x1="7" x2="110" y1="269.5" y2="269.5"/><rect fill="none" height="6" style="stroke: #C82930; stroke-width: 1.0;" width="6" x="14" y="277.5"/><text fill="#000000" font-family="sans-serif" font-size="11" lengthAdjust="spacingAndGlyphs" textLength="79" x="26" y="284.9189">String descricao</text><line style="stroke: #A80036; stroke-width: 1.5;" x1="7" x2="110" y1="291.3359" y2="291.3359"/><!--MD5=[28183b5fe251cf9d4adbbaa3c2129d6e]
class Catalogo--><rect fill="#FEFECE" filter="url(#fqu98x76xv1rl)" height="117.1797" id="Catalogo" style="stroke: #A80036; stroke-width: 1.5;" width="149" x="378" y="210"/><ellipse cx="423.25" cy="226" fill="#ADD1B2" rx="11" ry="11" style="stroke: #A80036; stroke-width: 1.0;"/><path d="M425.25,222.5 Q425.4531,222 425.6875,221.75 Q425.9219,221.5 426.1875,221.5 Q426.6563,221.5 426.9531,221.7813 Q427.25,222.0625 427.25,222.7188 L427.25,224.2813 Q427.25,224.9375 426.9688,225.2188 Q426.6875,225.5 426.25,225.5 Q425.8594,225.5 425.6094,225.3281 Q425.3594,225.1563 425.25,224.7031 Q425.2031,224.3906 425.0313,224.2188 Q424.7188,223.8906 424.1563,223.7031 Q423.5938,223.5 423.0313,223.5 Q422.3281,223.5 421.7344,223.7813 Q421.1563,224.0625 420.7031,224.6875 Q420.25,225.3125 420.25,226.1719 L420.25,227.0938 Q420.25,228.125 421.0938,228.8125 Q421.9375,229.5 423.4375,229.5 Q424.3281,229.5 424.9531,229.2969 Q425.3125,229.1875 425.7188,228.8281 Q425.9844,228.625 426.125,228.5625 Q426.2656,228.5 426.4375,228.5 Q426.7656,228.5 427,228.7656 Q427.25,229.0156 427.25,229.375 Q427.25,229.7188 426.9063,230.125 Q426.4063,230.7188 425.6094,231.0469 Q424.5625,231.5 423.2813,231.5 Q421.7813,231.5 420.5781,230.9063 Q419.6094,230.4375 418.9219,229.4219 Q418.25,228.4063 418.25,227.2031 L418.25,226.1094 Q418.25,224.8594 418.8438,223.7656 Q419.4531,222.6719 420.5,222.0938 Q421.5625,221.5 422.75,221.5 Q423.4688,221.5 424.0938,221.75 Q424.7188,222 425.25,222.5 Z "/><text fill="#000000" font-family="sans-serif" font-size="12" lengthAdjust="spacingAndGlyphs" textLength="50" x="443.75" y="230.9102">Catalogo</text><line style="stroke: #A80036; stroke-width: 1.5;" x1="379" x2="526" y1="242" y2="242"/><rect fill="none" height="6" style="stroke: #C82930; stroke-width: 1.0;" width="6" x="386" y="250"/><text fill="#000000" font-family="sans-serif" font-size="11" lengthAdjust="spacingAndGlyphs" textLength="100" x="398" y="257.4189">int identificadorUnico</text><rect fill="none" height="6" style="stroke: #C82930; stroke-width: 1.0;" width="6" x="386" y="263.8359"/><text fill="#000000" font-family="sans-serif" font-size="11" lengthAdjust="spacingAndGlyphs" textLength="53" x="398" y="271.2549">String titulo</text><rect fill="none" height="6" style="stroke: #C82930; stroke-width: 1.0;" width="6" x="386" y="277.6719"/><text fill="#000000" font-family="sans-serif" font-size="11" lengthAdjust="spacingAndGlyphs" textLength="116" x="398" y="285.0908">String descricaoSimples</text><rect fill="none" height="6" style="stroke: #C82930; stroke-width: 1.0;" width="6" x="386" y="291.5078"/><text fill="#000000" font-family="sans-serif" font-size="11" lengthAdjust="spacingAndGlyphs" textLength="123" x="398" y="298.9268">String descricaoCompleta</text><rect fill="none" height="6" style="stroke: #C82930; stroke-width: 1.0;" width="6" x="386" y="305.3438"/><text fill="#000000" font-family="sans-serif" font-size="11" lengthAdjust="spacingAndGlyphs" textLength="100" x="398" y="312.7627">BufferedImage icone</text><line style="stroke: #A80036; stroke-width: 1.5;" x1="379" x2="526" y1="319.1797" y2="319.1797"/><!--MD5=[76acc874f09693b2f2def29d0cdf8ced]
class Formulario--><rect fill="#FEFECE" filter="url(#fqu98x76xv1rl)" height="75.6719" id="Formulario" style="stroke: #A80036; stroke-width: 1.5;" width="126" x="1095.5" y="815.5"/><ellipse cx="1125.8" cy="831.5" fill="#ADD1B2" rx="11" ry="11" style="stroke: #A80036; stroke-width: 1.0;"/><path d="M1127.8,828 Q1128.0031,827.5 1128.2375,827.25 Q1128.4719,827 1128.7375,827 Q1129.2063,827 1129.5031,827.2813 Q1129.8,827.5625 1129.8,828.2188 L1129.8,829.7813 Q1129.8,830.4375 1129.5188,830.7188 Q1129.2375,831 1128.8,831 Q1128.4094,831 1128.1594,830.8281 Q1127.9094,830.6563 1127.8,830.2031 Q1127.7531,829.8906 1127.5813,829.7188 Q1127.2688,829.3906 1126.7063,829.2031 Q1126.1438,829 1125.5813,829 Q1124.8781,829 1124.2844,829.2813 Q1123.7063,829.5625 1123.2531,830.1875 Q1122.8,830.8125 1122.8,831.6719 L1122.8,832.5938 Q1122.8,833.625 1123.6438,834.3125 Q1124.4875,835 1125.9875,835 Q1126.8781,835 1127.5031,834.7969 Q1127.8625,834.6875 1128.2688,834.3281 Q1128.5344,834.125 1128.675,834.0625 Q1128.8156,834 1128.9875,834 Q1129.3156,834 1129.55,834.2656 Q1129.8,834.5156 1129.8,834.875 Q1129.8,835.2188 1129.4563,835.625 Q1128.9563,836.2188 1128.1594,836.5469 Q1127.1125,837 1125.8313,837 Q1124.3313,837 1123.1281,836.4063 Q1122.1594,835.9375 1121.4719,834.9219 Q1120.8,833.9063 1120.8,832.7031 L1120.8,831.6094 Q1120.8,830.3594 1121.3938,829.2656 Q1122.0031,828.1719 1123.05,827.5938 Q1124.1125,827 1125.3,827 Q1126.0188,827 1126.6438,827.25 Q1127.2688,827.5 1127.8,828 Z "/><text fill="#000000" font-family="sans-serif" font-size="12" lengthAdjust="spacingAndGlyphs" textLength="60" x="1143.2" y="836.4102">Formulario</text><line style="stroke: #A80036; stroke-width: 1.5;" x1="1096.5" x2="1220.5" y1="847.5" y2="847.5"/><rect fill="none" height="6" style="stroke: #C82930; stroke-width: 1.0;" width="6" x="1103.5" y="855.5"/><text fill="#000000" font-family="sans-serif" font-size="11" lengthAdjust="spacingAndGlyphs" textLength="100" x="1115.5" y="862.9189">int identificadorUnico</text><rect fill="none" height="6" style="stroke: #C82930; stroke-width: 1.0;" width="6" x="1103.5" y="869.3359"/><text fill="#000000" font-family="sans-serif" font-size="11" lengthAdjust="spacingAndGlyphs" textLength="57" x="1115.5" y="876.7549">String nome</text><line style="stroke: #A80036; stroke-width: 1.5;" x1="1096.5" x2="1220.5" y1="883.1719" y2="883.1719"/><!--MD5=[faf4d635eea35b16677487bac6ad9bf5]
class Servico--><rect fill="#FEFECE" filter="url(#fqu98x76xv1rl)" height="131.0156" id="Servico" style="stroke: #A80036; stroke-width: 1.5;" width="149" x="448" y="412"/><ellipse cx="498.25" cy="428" fill="#ADD1B2" rx="11" ry="11" style="stroke: #A80036; stroke-width: 1.0;"/><path d="M500.25,424.5 Q500.4531,424 500.6875,423.75 Q500.9219,423.5 501.1875,423.5 Q501.6563,423.5 501.9531,423.7813 Q502.25,424.0625 502.25,424.7188 L502.25,426.2813 Q502.25,426.9375 501.9688,427.2188 Q501.6875,427.5 501.25,427.5 Q500.8594,427.5 500.6094,427.3281 Q500.3594,427.1563 500.25,426.7031 Q500.2031,426.3906 500.0313,426.2188 Q499.7188,425.8906 499.1563,425.7031 Q498.5938,425.5 498.0313,425.5 Q497.3281,425.5 496.7344,425.7813 Q496.1563,426.0625 495.7031,426.6875 Q495.25,427.3125 495.25,428.1719 L495.25,429.0938 Q495.25,430.125 496.0938,430.8125 Q496.9375,431.5 498.4375,431.5 Q499.3281,431.5 499.9531,431.2969 Q500.3125,431.1875 500.7188,430.8281 Q500.9844,430.625 501.125,430.5625 Q501.2656,430.5 501.4375,430.5 Q501.7656,430.5 502,430.7656 Q502.25,431.0156 502.25,431.375 Q502.25,431.7188 501.9063,432.125 Q501.4063,432.7188 500.6094,433.0469 Q499.5625,433.5 498.2813,433.5 Q496.7813,433.5 495.5781,432.9063 Q494.6094,432.4375 493.9219,431.4219 Q493.25,430.4063 493.25,429.2031 L493.25,428.1094 Q493.25,426.8594 493.8438,425.7656 Q494.4531,424.6719 495.5,424.0938 Q496.5625,423.5 497.75,423.5 Q498.4688,423.5 499.0938,423.75 Q499.7188,424 500.25,424.5 Z "/><text fill="#000000" font-family="sans-serif" font-size="12" lengthAdjust="spacingAndGlyphs" textLength="40" x="518.75" y="432.9102">Servico</text><line style="stroke: #A80036; stroke-width: 1.5;" x1="449" x2="596" y1="444" y2="444"/><rect fill="none" height="6" style="stroke: #C82930; stroke-width: 1.0;" width="6" x="456" y="452"/><text fill="#000000" font-family="sans-serif" font-size="11" lengthAdjust="spacingAndGlyphs" textLength="73" x="468" y="459.4189">int codigoUnico</text><rect fill="none" height="6" style="stroke: #C82930; stroke-width: 1.0;" width="6" x="456" y="465.8359"/><text fill="#000000" font-family="sans-serif" font-size="11" lengthAdjust="spacingAndGlyphs" textLength="53" x="468" y="473.2549">String titulo</text><rect fill="none" height="6" style="stroke: #C82930; stroke-width: 1.0;" width="6" x="456" y="479.6719"/><text fill="#000000" font-family="sans-serif" font-size="11" lengthAdjust="spacingAndGlyphs" textLength="116" x="468" y="487.0908">String descricaoSimples</text><rect fill="none" height="6" style="stroke: #C82930; stroke-width: 1.0;" width="6" x="456" y="493.5078"/><text fill="#000000" font-family="sans-serif" font-size="11" lengthAdjust="spacingAndGlyphs" textLength="123" x="468" y="500.9268">String descricaoCompleta</text><rect fill="none" height="6" style="stroke: #C82930; stroke-width: 1.0;" width="6" x="456" y="507.3438"/><text fill="#000000" font-family="sans-serif" font-size="11" lengthAdjust="spacingAndGlyphs" textLength="100" x="468" y="514.7627">BufferedImage icone</text><rect fill="none" height="6" style="stroke: #C82930; stroke-width: 1.0;" width="6" x="456" y="521.1797"/><text fill="#000000" font-family="sans-serif" font-size="11" lengthAdjust="spacingAndGlyphs" textLength="109" x="468" y="528.5986">List&lt;String&gt; keywords</text><line style="stroke: #A80036; stroke-width: 1.5;" x1="449" x2="596" y1="535.0156" y2="535.0156"/><!--MD5=[b03c8d2c79ff946436dec46a889b7268]
class SLA--><rect fill="#FEFECE" filter="url(#fqu98x76xv1rl)" height="48" id="SLA" style="stroke: #A80036; stroke-width: 1.5;" width="54" x="632.5" y="453.5"/><ellipse cx="647.5" cy="469.5" fill="#ADD1B2" rx="11" ry="11" style="stroke: #A80036; stroke-width: 1.0;"/><path d="M649.5,466 Q649.7031,465.5 649.9375,465.25 Q650.1719,465 650.4375,465 Q650.9063,465 651.2031,465.2813 Q651.5,465.5625 651.5,466.2188 L651.5,467.7813 Q651.5,468.4375 651.2188,468.7188 Q650.9375,469 650.5,469 Q650.1094,469 649.8594,468.8281 Q649.6094,468.6563 649.5,468.2031 Q649.4531,467.8906 649.2813,467.7188 Q648.9688,467.3906 648.4063,467.2031 Q647.8438,467 647.2813,467 Q646.5781,467 645.9844,467.2813 Q645.4063,467.5625 644.9531,468.1875 Q644.5,468.8125 644.5,469.6719 L644.5,470.5938 Q644.5,471.625 645.3438,472.3125 Q646.1875,473 647.6875,473 Q648.5781,473 649.2031,472.7969 Q649.5625,472.6875 649.9688,472.3281 Q650.2344,472.125 650.375,472.0625 Q650.5156,472 650.6875,472 Q651.0156,472 651.25,472.2656 Q651.5,472.5156 651.5,472.875 Q651.5,473.2188 651.1563,473.625 Q650.6563,474.2188 649.8594,474.5469 Q648.8125,475 647.5313,475 Q646.0313,475 644.8281,474.4063 Q643.8594,473.9375 643.1719,472.9219 Q642.5,471.9063 642.5,470.7031 L642.5,469.6094 Q642.5,468.3594 643.0938,467.2656 Q643.7031,466.1719 644.75,465.5938 Q645.8125,465 647,465 Q647.7188,465 648.3438,465.25 Q648.9688,465.5 649.5,466 Z "/><text fill="#000000" font-family="sans-serif" font-size="12" lengthAdjust="spacingAndGlyphs" textLength="22" x="661.5" y="474.4102">SLA</text><line style="stroke: #A80036; stroke-width: 1.5;" x1="633.5" x2="685.5" y1="485.5" y2="485.5"/><line style="stroke: #A80036; stroke-width: 1.5;" x1="633.5" x2="685.5" y1="493.5" y2="493.5"/><!--MD5=[27c2d4bbe9f7b9d3b0ea2797cc54308a]
class Tarefa--><rect fill="#FEFECE" filter="url(#fqu98x76xv1rl)" height="103.3438" id="Tarefa" style="stroke: #A80036; stroke-width: 1.5;" width="119" x="934" y="621"/><ellipse cx="972.4" cy="637" fill="#ADD1B2" rx="11" ry="11" style="stroke: #A80036; stroke-width: 1.0;"/><path d="M974.4,633.5 Q974.6031,633 974.8375,632.75 Q975.0719,632.5 975.3375,632.5 Q975.8063,632.5 976.1031,632.7813 Q976.4,633.0625 976.4,633.7188 L976.4,635.2813 Q976.4,635.9375 976.1188,636.2188 Q975.8375,636.5 975.4,636.5 Q975.0094,636.5 974.7594,636.3281 Q974.5094,636.1563 974.4,635.7031 Q974.3531,635.3906 974.1813,635.2188 Q973.8688,634.8906 973.3063,634.7031 Q972.7438,634.5 972.1813,634.5 Q971.4781,634.5 970.8844,634.7813 Q970.3063,635.0625 969.8531,635.6875 Q969.4,636.3125 969.4,637.1719 L969.4,638.0938 Q969.4,639.125 970.2438,639.8125 Q971.0875,640.5 972.5875,640.5 Q973.4781,640.5 974.1031,640.2969 Q974.4625,640.1875 974.8688,639.8281 Q975.1344,639.625 975.275,639.5625 Q975.4156,639.5 975.5875,639.5 Q975.9156,639.5 976.15,639.7656 Q976.4,640.0156 976.4,640.375 Q976.4,640.7188 976.0563,641.125 Q975.5563,641.7188 974.7594,642.0469 Q973.7125,642.5 972.4313,642.5 Q970.9313,642.5 969.7281,641.9063 Q968.7594,641.4375 968.0719,640.4219 Q967.4,639.4063 967.4,638.2031 L967.4,637.1094 Q967.4,635.8594 967.9938,634.7656 Q968.6031,633.6719 969.65,633.0938 Q970.7125,632.5 971.9,632.5 Q972.6188,632.5 973.2438,632.75 Q973.8688,633 974.4,633.5 Z "/><text fill="#000000" font-family="sans-serif" font-size="12" lengthAdjust="spacingAndGlyphs" textLength="35" x="991.6" y="641.9102">Tarefa</text><line style="stroke: #A80036; stroke-width: 1.5;" x1="935" x2="1052" y1="653" y2="653"/><rect fill="none" height="6" style="stroke: #C82930; stroke-width: 1.0;" width="6" x="942" y="661"/><text fill="#000000" font-family="sans-serif" font-size="11" lengthAdjust="spacingAndGlyphs" textLength="79" x="954" y="668.4189">String prioridade</text><rect fill="none" height="6" style="stroke: #C82930; stroke-width: 1.0;" width="6" x="942" y="674.8359"/><text fill="#000000" font-family="sans-serif" font-size="11" lengthAdjust="spacingAndGlyphs" textLength="80" x="954" y="682.2549">String criticidade</text><rect fill="none" height="6" style="stroke: #C82930; stroke-width: 1.0;" width="6" x="942" y="688.6719"/><text fill="#000000" font-family="sans-serif" font-size="11" lengthAdjust="spacingAndGlyphs" textLength="73" x="954" y="696.0908">Date dataLimite</text><rect fill="none" height="6" style="stroke: #C82930; stroke-width: 1.0;" width="6" x="942" y="702.5078"/><text fill="#000000" font-family="sans-serif" font-size="11" lengthAdjust="spacingAndGlyphs" textLength="93" x="954" y="709.9268">boolean automatico</text><line style="stroke: #A80036; stroke-width: 1.5;" x1="935" x2="1052" y1="716.3438" y2="716.3438"/><!--MD5=[a8d192d33def16c012ce1a98d6300525]
class FluxoAtividade--><rect fill="#FEFECE" filter="url(#fqu98x76xv1rl)" height="48" id="FluxoAtividade" style="stroke: #A80036; stroke-width: 1.5;" width="110" x="866.5" y="453.5"/><ellipse cx="881.5" cy="469.5" fill="#ADD1B2" rx="11" ry="11" style="stroke: #A80036; stroke-width: 1.0;"/><path d="M883.5,466 Q883.7031,465.5 883.9375,465.25 Q884.1719,465 884.4375,465 Q884.9063,465 885.2031,465.2813 Q885.5,465.5625 885.5,466.2188 L885.5,467.7813 Q885.5,468.4375 885.2188,468.7188 Q884.9375,469 884.5,469 Q884.1094,469 883.8594,468.8281 Q883.6094,468.6563 883.5,468.2031 Q883.4531,467.8906 883.2813,467.7188 Q882.9688,467.3906 882.4063,467.2031 Q881.8438,467 881.2813,467 Q880.5781,467 879.9844,467.2813 Q879.4063,467.5625 878.9531,468.1875 Q878.5,468.8125 878.5,469.6719 L878.5,470.5938 Q878.5,471.625 879.3438,472.3125 Q880.1875,473 881.6875,473 Q882.5781,473 883.2031,472.7969 Q883.5625,472.6875 883.9688,472.3281 Q884.2344,472.125 884.375,472.0625 Q884.5156,472 884.6875,472 Q885.0156,472 885.25,472.2656 Q885.5,472.5156 885.5,472.875 Q885.5,473.2188 885.1563,473.625 Q884.6563,474.2188 883.8594,474.5469 Q882.8125,475 881.5313,475 Q880.0313,475 878.8281,474.4063 Q877.8594,473.9375 877.1719,472.9219 Q876.5,471.9063 876.5,470.7031 L876.5,469.6094 Q876.5,468.3594 877.0938,467.2656 Q877.7031,466.1719 878.75,465.5938 Q879.8125,465 881,465 Q881.7188,465 882.3438,465.25 Q882.9688,465.5 883.5,466 Z "/><text fill="#000000" font-family="sans-serif" font-size="12" lengthAdjust="spacingAndGlyphs" textLength="78" x="895.5" y="474.4102">FluxoAtividade</text><line style="stroke: #A80036; stroke-width: 1.5;" x1="867.5" x2="975.5" y1="485.5" y2="485.5"/><line style="stroke: #A80036; stroke-width: 1.5;" x1="867.5" x2="975.5" y1="493.5" y2="493.5"/><!--MD5=[58a5d17bcc38eb5f49897c108a6ad5f9]
class LocalResidencia--><rect fill="#FEFECE" filter="url(#fqu98x76xv1rl)" height="48" id="LocalResidencia" style="stroke: #A80036; stroke-width: 1.5;" width="125" x="218" y="244.5"/><ellipse cx="233" cy="260.5" fill="#ADD1B2" rx="11" ry="11" style="stroke: #A80036; stroke-width: 1.0;"/><path d="M235,257 Q235.2031,256.5 235.4375,256.25 Q235.6719,256 235.9375,256 Q236.4063,256 236.7031,256.2813 Q237,256.5625 237,257.2188 L237,258.7813 Q237,259.4375 236.7188,259.7188 Q236.4375,260 236,260 Q235.6094,260 235.3594,259.8281 Q235.1094,259.6563 235,259.2031 Q234.9531,258.8906 234.7813,258.7188 Q234.4688,258.3906 233.9063,258.2031 Q233.3438,258 232.7813,258 Q232.0781,258 231.4844,258.2813 Q230.9063,258.5625 230.4531,259.1875 Q230,259.8125 230,260.6719 L230,261.5938 Q230,262.625 230.8438,263.3125 Q231.6875,264 233.1875,264 Q234.0781,264 234.7031,263.7969 Q235.0625,263.6875 235.4688,263.3281 Q235.7344,263.125 235.875,263.0625 Q236.0156,263 236.1875,263 Q236.5156,263 236.75,263.2656 Q237,263.5156 237,263.875 Q237,264.2188 236.6563,264.625 Q236.1563,265.2188 235.3594,265.5469 Q234.3125,266 233.0313,266 Q231.5313,266 230.3281,265.4063 Q229.3594,264.9375 228.6719,263.9219 Q228,262.9063 228,261.7031 L228,260.6094 Q228,259.3594 228.5938,258.2656 Q229.2031,257.1719 230.25,256.5938 Q231.3125,256 232.5,256 Q233.2188,256 233.8438,256.25 Q234.4688,256.5 235,257 Z "/><text fill="#000000" font-family="sans-serif" font-size="12" lengthAdjust="spacingAndGlyphs" textLength="93" x="247" y="265.4102">LocalResidencia</text><line style="stroke: #A80036; stroke-width: 1.5;" x1="219" x2="342" y1="276.5" y2="276.5"/><line style="stroke: #A80036; stroke-width: 1.5;" x1="219" x2="342" y1="284.5" y2="284.5"/><!--MD5=[fce0b22a22f407139ca921eeb4fdaf13]
class CriterioAcesso--><rect fill="#FEFECE" filter="url(#fqu98x76xv1rl)" height="48" id="CriterioAcesso" style="stroke: #A80036; stroke-width: 1.5;" width="113" x="228" y="453.5"/><ellipse cx="243" cy="469.5" fill="#ADD1B2" rx="11" ry="11" style="stroke: #A80036; stroke-width: 1.0;"/><path d="M245,466 Q245.2031,465.5 245.4375,465.25 Q245.6719,465 245.9375,465 Q246.4063,465 246.7031,465.2813 Q247,465.5625 247,466.2188 L247,467.7813 Q247,468.4375 246.7188,468.7188 Q246.4375,469 246,469 Q245.6094,469 245.3594,468.8281 Q245.1094,468.6563 245,468.2031 Q244.9531,467.8906 244.7813,467.7188 Q244.4688,467.3906 243.9063,467.2031 Q243.3438,467 242.7813,467 Q242.0781,467 241.4844,467.2813 Q240.9063,467.5625 240.4531,468.1875 Q240,468.8125 240,469.6719 L240,470.5938 Q240,471.625 240.8438,472.3125 Q241.6875,473 243.1875,473 Q244.0781,473 244.7031,472.7969 Q245.0625,472.6875 245.4688,472.3281 Q245.7344,472.125 245.875,472.0625 Q246.0156,472 246.1875,472 Q246.5156,472 246.75,472.2656 Q247,472.5156 247,472.875 Q247,473.2188 246.6563,473.625 Q246.1563,474.2188 245.3594,474.5469 Q244.3125,475 243.0313,475 Q241.5313,475 240.3281,474.4063 Q239.3594,473.9375 238.6719,472.9219 Q238,471.9063 238,470.7031 L238,469.6094 Q238,468.3594 238.5938,467.2656 Q239.2031,466.1719 240.25,465.5938 Q241.3125,465 242.5,465 Q243.2188,465 243.8438,465.25 Q244.4688,465.5 245,466 Z "/><text fill="#000000" font-family="sans-serif" font-size="12" lengthAdjust="spacingAndGlyphs" textLength="81" x="257" y="474.4102">CriterioAcesso</text><line style="stroke: #A80036; stroke-width: 1.5;" x1="229" x2="340" y1="485.5" y2="485.5"/><line style="stroke: #A80036; stroke-width: 1.5;" x1="229" x2="340" y1="493.5" y2="493.5"/><!--MD5=[309c0390f5d754f37a04a9368907c71a]
class Atributo--><rect fill="#FEFECE" filter="url(#fqu98x76xv1rl)" height="103.3438" id="Atributo" style="stroke: #A80036; stroke-width: 1.5;" width="133" x="1092" y="983"/><ellipse cx="1134" cy="999" fill="#ADD1B2" rx="11" ry="11" style="stroke: #A80036; stroke-width: 1.0;"/><path d="M1136,995.5 Q1136.2031,995 1136.4375,994.75 Q1136.6719,994.5 1136.9375,994.5 Q1137.4063,994.5 1137.7031,994.7813 Q1138,995.0625 1138,995.7188 L1138,997.2813 Q1138,997.9375 1137.7188,998.2188 Q1137.4375,998.5 1137,998.5 Q1136.6094,998.5 1136.3594,998.3281 Q1136.1094,998.1563 1136,997.7031 Q1135.9531,997.3906 1135.7813,997.2188 Q1135.4688,996.8906 1134.9063,996.7031 Q1134.3438,996.5 1133.7813,996.5 Q1133.0781,996.5 1132.4844,996.7813 Q1131.9063,997.0625 1131.4531,997.6875 Q1131,998.3125 1131,999.1719 L1131,1000.0938 Q1131,1001.125 1131.8438,1001.8125 Q1132.6875,1002.5 1134.1875,1002.5 Q1135.0781,1002.5 1135.7031,1002.2969 Q1136.0625,1002.1875 1136.4688,1001.8281 Q1136.7344,1001.625 1136.875,1001.5625 Q1137.0156,1001.5 1137.1875,1001.5 Q1137.5156,1001.5 1137.75,1001.7656 Q1138,1002.0156 1138,1002.375 Q1138,1002.7188 1137.6563,1003.125 Q1137.1563,1003.7188 1136.3594,1004.0469 Q1135.3125,1004.5 1134.0313,1004.5 Q1132.5313,1004.5 1131.3281,1003.9063 Q1130.3594,1003.4375 1129.6719,1002.4219 Q1129,1001.4063 1129,1000.2031 L1129,999.1094 Q1129,997.8594 1129.5938,996.7656 Q1130.2031,995.6719 1131.25,995.0938 Q1132.3125,994.5 1133.5,994.5 Q1134.2188,994.5 1134.8438,994.75 Q1135.4688,995 1136,995.5 Z "/><text fill="#000000" font-family="sans-serif" font-size="12" lengthAdjust="spacingAndGlyphs" textLength="41" x="1154" y="1003.9102">Atributo</text><line style="stroke: #A80036; stroke-width: 1.5;" x1="1093" x2="1224" y1="1015" y2="1015"/><rect fill="none" height="6" style="stroke: #C82930; stroke-width: 1.0;" width="6" x="1100" y="1023"/><text fill="#000000" font-family="sans-serif" font-size="11" lengthAdjust="spacingAndGlyphs" textLength="97" x="1112" y="1030.4189">String nomeVariavel</text><rect fill="none" height="6" style="stroke: #C82930; stroke-width: 1.0;" width="6" x="1100" y="1036.8359"/><text fill="#000000" font-family="sans-serif" font-size="11" lengthAdjust="spacingAndGlyphs" textLength="53" x="1112" y="1044.2549">String label</text><rect fill="none" height="6" style="stroke: #C82930; stroke-width: 1.0;" width="6" x="1100" y="1050.6719"/><text fill="#000000" font-family="sans-serif" font-size="11" lengthAdjust="spacingAndGlyphs" textLength="107" x="1112" y="1058.0908">String descricaoAjuda</text><rect fill="none" height="6" style="stroke: #C82930; stroke-width: 1.0;" width="6" x="1100" y="1064.5078"/><text fill="#000000" font-family="sans-serif" font-size="11" lengthAdjust="spacingAndGlyphs" textLength="94" x="1112" y="1071.9268">&lt;E&gt; tipoDadosBase</text><line style="stroke: #A80036; stroke-width: 1.5;" x1="1093" x2="1224" y1="1078.3438" y2="1078.3438"/><!--MD5=[6f77dd65fc1ccb211befa507bd2ea97a]
class NivelCriticidade--><rect fill="#FEFECE" filter="url(#fqu98x76xv1rl)" height="75.6719" id="NivelCriticidade" style="stroke: #A80036; stroke-width: 1.5;" width="118" x="557.5" y="634.5"/><ellipse cx="572.5" cy="650.5" fill="#ADD1B2" rx="11" ry="11" style="stroke: #A80036; stroke-width: 1.0;"/><path d="M574.5,647 Q574.7031,646.5 574.9375,646.25 Q575.1719,646 575.4375,646 Q575.9063,646 576.2031,646.2813 Q576.5,646.5625 576.5,647.2188 L576.5,648.7813 Q576.5,649.4375 576.2188,649.7188 Q575.9375,650 575.5,650 Q575.1094,650 574.8594,649.8281 Q574.6094,649.6563 574.5,649.2031 Q574.4531,648.8906 574.2813,648.7188 Q573.9688,648.3906 573.4063,648.2031 Q572.8438,648 572.2813,648 Q571.5781,648 570.9844,648.2813 Q570.4063,648.5625 569.9531,649.1875 Q569.5,649.8125 569.5,650.6719 L569.5,651.5938 Q569.5,652.625 570.3438,653.3125 Q571.1875,654 572.6875,654 Q573.5781,654 574.2031,653.7969 Q574.5625,653.6875 574.9688,653.3281 Q575.2344,653.125 575.375,653.0625 Q575.5156,653 575.6875,653 Q576.0156,653 576.25,653.2656 Q576.5,653.5156 576.5,653.875 Q576.5,654.2188 576.1563,654.625 Q575.6563,655.2188 574.8594,655.5469 Q573.8125,656 572.5313,656 Q571.0313,656 569.8281,655.4063 Q568.8594,654.9375 568.1719,653.9219 Q567.5,652.9063 567.5,651.7031 L567.5,650.6094 Q567.5,649.3594 568.0938,648.2656 Q568.7031,647.1719 569.75,646.5938 Q570.8125,646 572,646 Q572.7188,646 573.3438,646.25 Q573.9688,646.5 574.5,647 Z "/><text fill="#000000" font-family="sans-serif" font-size="12" lengthAdjust="spacingAndGlyphs" textLength="86" x="586.5" y="655.4102">NivelCriticidade</text><line style="stroke: #A80036; stroke-width: 1.5;" x1="558.5" x2="674.5" y1="666.5" y2="666.5"/><rect fill="none" height="6" style="stroke: #C82930; stroke-width: 1.0;" width="6" x="565.5" y="674.5"/><text fill="#000000" font-family="sans-serif" font-size="11" lengthAdjust="spacingAndGlyphs" textLength="83" x="577.5" y="681.9189">int valorNumerico</text><rect fill="none" height="6" style="stroke: #C82930; stroke-width: 1.0;" width="6" x="565.5" y="688.3359"/><text fill="#000000" font-family="sans-serif" font-size="11" lengthAdjust="spacingAndGlyphs" textLength="47" x="577.5" y="695.7549">String cor</text><line style="stroke: #A80036; stroke-width: 1.5;" x1="558.5" x2="674.5" y1="702.1719" y2="702.1719"/><!--MD5=[16a66afcfe3eba7e0d44fa04b14fdc7a]
class Etiqueta--><rect fill="#FEFECE" filter="url(#fqu98x76xv1rl)" height="61.8359" id="Etiqueta" style="stroke: #A80036; stroke-width: 1.5;" width="105" x="597" y="822.5"/><ellipse cx="624.6" cy="838.5" fill="#ADD1B2" rx="11" ry="11" style="stroke: #A80036; stroke-width: 1.0;"/><path d="M626.6,835 Q626.8031,834.5 627.0375,834.25 Q627.2719,834 627.5375,834 Q628.0063,834 628.3031,834.2813 Q628.6,834.5625 628.6,835.2188 L628.6,836.7813 Q628.6,837.4375 628.3188,837.7188 Q628.0375,838 627.6,838 Q627.2094,838 626.9594,837.8281 Q626.7094,837.6563 626.6,837.2031 Q626.5531,836.8906 626.3813,836.7188 Q626.0688,836.3906 625.5063,836.2031 Q624.9438,836 624.3813,836 Q623.6781,836 623.0844,836.2813 Q622.5063,836.5625 622.0531,837.1875 Q621.6,837.8125 621.6,838.6719 L621.6,839.5938 Q621.6,840.625 622.4438,841.3125 Q623.2875,842 624.7875,842 Q625.6781,842 626.3031,841.7969 Q626.6625,841.6875 627.0688,841.3281 Q627.3344,841.125 627.475,841.0625 Q627.6156,841 627.7875,841 Q628.1156,841 628.35,841.2656 Q628.6,841.5156 628.6,841.875 Q628.6,842.2188 628.2563,842.625 Q627.7563,843.2188 626.9594,843.5469 Q625.9125,844 624.6313,844 Q623.1313,844 621.9281,843.4063 Q620.9594,842.9375 620.2719,841.9219 Q619.6,840.9063 619.6,839.7031 L619.6,838.6094 Q619.6,837.3594 620.1938,836.2656 Q620.8031,835.1719 621.85,834.5938 Q622.9125,834 624.1,834 Q624.8188,834 625.4438,834.25 Q626.0688,834.5 626.6,835 Z "/><text fill="#000000" font-family="sans-serif" font-size="12" lengthAdjust="spacingAndGlyphs" textLength="45" x="641.4" y="843.4102">Etiqueta</text><line style="stroke: #A80036; stroke-width: 1.5;" x1="598" x2="701" y1="854.5" y2="854.5"/><rect fill="none" height="6" style="stroke: #C82930; stroke-width: 1.0;" width="6" x="605" y="862.5"/><text fill="#000000" font-family="sans-serif" font-size="11" lengthAdjust="spacingAndGlyphs" textLength="79" x="617" y="869.9189">String prioridade</text><line style="stroke: #A80036; stroke-width: 1.5;" x1="598" x2="701" y1="876.3359" y2="876.3359"/><!--MD5=[6fa8d92e41e8fcfab0f3791a7c2bd7d7]
class Objetivo--><rect fill="#FEFECE" filter="url(#fqu98x76xv1rl)" height="103.3438" id="Objetivo" style="stroke: #A80036; stroke-width: 1.5;" width="159" x="403" y="802"/><ellipse cx="456.25" cy="818" fill="#ADD1B2" rx="11" ry="11" style="stroke: #A80036; stroke-width: 1.0;"/><path d="M458.25,814.5 Q458.4531,814 458.6875,813.75 Q458.9219,813.5 459.1875,813.5 Q459.6563,813.5 459.9531,813.7813 Q460.25,814.0625 460.25,814.7188 L460.25,816.2813 Q460.25,816.9375 459.9688,817.2188 Q459.6875,817.5 459.25,817.5 Q458.8594,817.5 458.6094,817.3281 Q458.3594,817.1563 458.25,816.7031 Q458.2031,816.3906 458.0313,816.2188 Q457.7188,815.8906 457.1563,815.7031 Q456.5938,815.5 456.0313,815.5 Q455.3281,815.5 454.7344,815.7813 Q454.1563,816.0625 453.7031,816.6875 Q453.25,817.3125 453.25,818.1719 L453.25,819.0938 Q453.25,820.125 454.0938,820.8125 Q454.9375,821.5 456.4375,821.5 Q457.3281,821.5 457.9531,821.2969 Q458.3125,821.1875 458.7188,820.8281 Q458.9844,820.625 459.125,820.5625 Q459.2656,820.5 459.4375,820.5 Q459.7656,820.5 460,820.7656 Q460.25,821.0156 460.25,821.375 Q460.25,821.7188 459.9063,822.125 Q459.4063,822.7188 458.6094,823.0469 Q457.5625,823.5 456.2813,823.5 Q454.7813,823.5 453.5781,822.9063 Q452.6094,822.4375 451.9219,821.4219 Q451.25,820.4063 451.25,819.2031 L451.25,818.1094 Q451.25,816.8594 451.8438,815.7656 Q452.4531,814.6719 453.5,814.0938 Q454.5625,813.5 455.75,813.5 Q456.4688,813.5 457.0938,813.75 Q457.7188,814 458.25,814.5 Z "/><text fill="#000000" font-family="sans-serif" font-size="12" lengthAdjust="spacingAndGlyphs" textLength="44" x="476.75" y="822.9102">Objetivo</text><line style="stroke: #A80036; stroke-width: 1.5;" x1="404" x2="561" y1="834" y2="834"/><rect fill="none" height="6" style="stroke: #C82930; stroke-width: 1.0;" width="6" x="411" y="842"/><text fill="#000000" font-family="sans-serif" font-size="11" lengthAdjust="spacingAndGlyphs" textLength="125" x="423" y="849.4189">int tempoMedioAprovacao</text><rect fill="none" height="6" style="stroke: #C82930; stroke-width: 1.0;" width="6" x="411" y="855.8359"/><text fill="#000000" font-family="sans-serif" font-size="11" lengthAdjust="spacingAndGlyphs" textLength="133" x="423" y="863.2549">int tempoMaximoAprovacao</text><rect fill="none" height="6" style="stroke: #C82930; stroke-width: 1.0;" width="6" x="411" y="869.6719"/><text fill="#000000" font-family="sans-serif" font-size="11" lengthAdjust="spacingAndGlyphs" textLength="120" x="423" y="877.0908">int tempoMedioAceitacao</text><rect fill="none" height="6" style="stroke: #C82930; stroke-width: 1.0;" width="6" x="411" y="883.5078"/><text fill="#000000" font-family="sans-serif" font-size="11" lengthAdjust="spacingAndGlyphs" textLength="128" x="423" y="890.9268">int tempoMaximoAceitacao</text><line style="stroke: #A80036; stroke-width: 1.5;" x1="404" x2="561" y1="897.3438" y2="897.3438"/><!--MD5=[578d72d958f01709e7a6d48f2b295331]
class UrgenciaPedido--><rect fill="#FEFECE" filter="url(#fqu98x76xv1rl)" height="61.8359" id="UrgenciaPedido" style="stroke: #A80036; stroke-width: 1.5;" width="121" x="1012" y="446.5"/><ellipse cx="1027" cy="462.5" fill="#ADD1B2" rx="11" ry="11" style="stroke: #A80036; stroke-width: 1.0;"/><path d="M1029,459 Q1029.2031,458.5 1029.4375,458.25 Q1029.6719,458 1029.9375,458 Q1030.4063,458 1030.7031,458.2813 Q1031,458.5625 1031,459.2188 L1031,460.7813 Q1031,461.4375 1030.7188,461.7188 Q1030.4375,462 1030,462 Q1029.6094,462 1029.3594,461.8281 Q1029.1094,461.6563 1029,461.2031 Q1028.9531,460.8906 1028.7813,460.7188 Q1028.4688,460.3906 1027.9063,460.2031 Q1027.3438,460 1026.7813,460 Q1026.0781,460 1025.4844,460.2813 Q1024.9063,460.5625 1024.4531,461.1875 Q1024,461.8125 1024,462.6719 L1024,463.5938 Q1024,464.625 1024.8438,465.3125 Q1025.6875,466 1027.1875,466 Q1028.0781,466 1028.7031,465.7969 Q1029.0625,465.6875 1029.4688,465.3281 Q1029.7344,465.125 1029.875,465.0625 Q1030.0156,465 1030.1875,465 Q1030.5156,465 1030.75,465.2656 Q1031,465.5156 1031,465.875 Q1031,466.2188 1030.6563,466.625 Q1030.1563,467.2188 1029.3594,467.5469 Q1028.3125,468 1027.0313,468 Q1025.5313,468 1024.3281,467.4063 Q1023.3594,466.9375 1022.6719,465.9219 Q1022,464.9063 1022,463.7031 L1022,462.6094 Q1022,461.3594 1022.5938,460.2656 Q1023.2031,459.1719 1024.25,458.5938 Q1025.3125,458 1026.5,458 Q1027.2188,458 1027.8438,458.25 Q1028.4688,458.5 1029,459 Z "/><text fill="#000000" font-family="sans-serif" font-size="12" lengthAdjust="spacingAndGlyphs" textLength="89" x="1041" y="467.4102">UrgenciaPedido</text><line style="stroke: #A80036; stroke-width: 1.5;" x1="1013" x2="1132" y1="478.5" y2="478.5"/><rect fill="none" height="6" style="stroke: #C82930; stroke-width: 1.0;" width="6" x="1020" y="486.5"/><text fill="#000000" font-family="sans-serif" font-size="11" lengthAdjust="spacingAndGlyphs" textLength="73" x="1032" y="493.9189">String urgencia</text><line style="stroke: #A80036; stroke-width: 1.5;" x1="1013" x2="1132" y1="500.3359" y2="500.3359"/><!--MD5=[dba62b35abc94f2a3347f8c217559bd5]
class Ficheiro--><rect fill="#FEFECE" filter="url(#fqu98x76xv1rl)" height="48" id="Ficheiro" style="stroke: #A80036; stroke-width: 1.5;" width="76" x="1239.5" y="453.5"/><ellipse cx="1254.5" cy="469.5" fill="#ADD1B2" rx="11" ry="11" style="stroke: #A80036; stroke-width: 1.0;"/><path d="M1256.5,466 Q1256.7031,465.5 1256.9375,465.25 Q1257.1719,465 1257.4375,465 Q1257.9063,465 1258.2031,465.2813 Q1258.5,465.5625 1258.5,466.2188 L1258.5,467.7813 Q1258.5,468.4375 1258.2188,468.7188 Q1257.9375,469 1257.5,469 Q1257.1094,469 1256.8594,468.8281 Q1256.6094,468.6563 1256.5,468.2031 Q1256.4531,467.8906 1256.2813,467.7188 Q1255.9688,467.3906 1255.4063,467.2031 Q1254.8438,467 1254.2813,467 Q1253.5781,467 1252.9844,467.2813 Q1252.4063,467.5625 1251.9531,468.1875 Q1251.5,468.8125 1251.5,469.6719 L1251.5,470.5938 Q1251.5,471.625 1252.3438,472.3125 Q1253.1875,473 1254.6875,473 Q1255.5781,473 1256.2031,472.7969 Q1256.5625,472.6875 1256.9688,472.3281 Q1257.2344,472.125 1257.375,472.0625 Q1257.5156,472 1257.6875,472 Q1258.0156,472 1258.25,472.2656 Q1258.5,472.5156 1258.5,472.875 Q1258.5,473.2188 1258.1563,473.625 Q1257.6563,474.2188 1256.8594,474.5469 Q1255.8125,475 1254.5313,475 Q1253.0313,475 1251.8281,474.4063 Q1250.8594,473.9375 1250.1719,472.9219 Q1249.5,471.9063 1249.5,470.7031 L1249.5,469.6094 Q1249.5,468.3594 1250.0938,467.2656 Q1250.7031,466.1719 1251.75,465.5938 Q1252.8125,465 1254,465 Q1254.7188,465 1255.3438,465.25 Q1255.9688,465.5 1256.5,466 Z "/><text fill="#000000" font-family="sans-serif" font-size="12" lengthAdjust="spacingAndGlyphs" textLength="44" x="1268.5" y="474.4102">Ficheiro</text><line style="stroke: #A80036; stroke-width: 1.5;" x1="1240.5" x2="1314.5" y1="485.5" y2="485.5"/><line style="stroke: #A80036; stroke-width: 1.5;" x1="1240.5" x2="1314.5" y1="493.5" y2="493.5"/><!--MD5=[9710b5b6cae2118c08e46a4110ebbfcb]
class EstadoPedido--><rect fill="#FEFECE" filter="url(#fqu98x76xv1rl)" height="61.8359" id="EstadoPedido" style="stroke: #A80036; stroke-width: 1.5;" width="110" x="721.5" y="446.5"/><ellipse cx="736.5" cy="462.5" fill="#ADD1B2" rx="11" ry="11" style="stroke: #A80036; stroke-width: 1.0;"/><path d="M738.5,459 Q738.7031,458.5 738.9375,458.25 Q739.1719,458 739.4375,458 Q739.9063,458 740.2031,458.2813 Q740.5,458.5625 740.5,459.2188 L740.5,460.7813 Q740.5,461.4375 740.2188,461.7188 Q739.9375,462 739.5,462 Q739.1094,462 738.8594,461.8281 Q738.6094,461.6563 738.5,461.2031 Q738.4531,460.8906 738.2813,460.7188 Q737.9688,460.3906 737.4063,460.2031 Q736.8438,460 736.2813,460 Q735.5781,460 734.9844,460.2813 Q734.4063,460.5625 733.9531,461.1875 Q733.5,461.8125 733.5,462.6719 L733.5,463.5938 Q733.5,464.625 734.3438,465.3125 Q735.1875,466 736.6875,466 Q737.5781,466 738.2031,465.7969 Q738.5625,465.6875 738.9688,465.3281 Q739.2344,465.125 739.375,465.0625 Q739.5156,465 739.6875,465 Q740.0156,465 740.25,465.2656 Q740.5,465.5156 740.5,465.875 Q740.5,466.2188 740.1563,466.625 Q739.6563,467.2188 738.8594,467.5469 Q737.8125,468 736.5313,468 Q735.0313,468 733.8281,467.4063 Q732.8594,466.9375 732.1719,465.9219 Q731.5,464.9063 731.5,463.7031 L731.5,462.6094 Q731.5,461.3594 732.0938,460.2656 Q732.7031,459.1719 733.75,458.5938 Q734.8125,458 736,458 Q736.7188,458 737.3438,458.25 Q737.9688,458.5 738.5,459 Z "/><text fill="#000000" font-family="sans-serif" font-size="12" lengthAdjust="spacingAndGlyphs" textLength="78" x="750.5" y="467.4102">EstadoPedido</text><line style="stroke: #A80036; stroke-width: 1.5;" x1="722.5" x2="830.5" y1="478.5" y2="478.5"/><rect fill="none" height="6" style="stroke: #C82930; stroke-width: 1.0;" width="6" x="729.5" y="486.5"/><text fill="#000000" font-family="sans-serif" font-size="11" lengthAdjust="spacingAndGlyphs" textLength="64" x="741.5" y="493.9189">String estado</text><line style="stroke: #A80036; stroke-width: 1.5;" x1="722.5" x2="830.5" y1="500.3359" y2="500.3359"/><!--MD5=[6408e6e3ef371a9f6dccf656ae21adf9]
class EstadoTarefa--><rect fill="#FEFECE" filter="url(#fqu98x76xv1rl)" height="61.8359" id="EstadoTarefa" style="stroke: #A80036; stroke-width: 1.5;" width="106" x="940.5" y="822.5"/><ellipse cx="955.5" cy="838.5" fill="#ADD1B2" rx="11" ry="11" style="stroke: #A80036; stroke-width: 1.0;"/><path d="M957.5,835 Q957.7031,834.5 957.9375,834.25 Q958.1719,834 958.4375,834 Q958.9063,834 959.2031,834.2813 Q959.5,834.5625 959.5,835.2188 L959.5,836.7813 Q959.5,837.4375 959.2188,837.7188 Q958.9375,838 958.5,838 Q958.1094,838 957.8594,837.8281 Q957.6094,837.6563 957.5,837.2031 Q957.4531,836.8906 957.2813,836.7188 Q956.9688,836.3906 956.4063,836.2031 Q955.8438,836 955.2813,836 Q954.5781,836 953.9844,836.2813 Q953.4063,836.5625 952.9531,837.1875 Q952.5,837.8125 952.5,838.6719 L952.5,839.5938 Q952.5,840.625 953.3438,841.3125 Q954.1875,842 955.6875,842 Q956.5781,842 957.2031,841.7969 Q957.5625,841.6875 957.9688,841.3281 Q958.2344,841.125 958.375,841.0625 Q958.5156,841 958.6875,841 Q959.0156,841 959.25,841.2656 Q959.5,841.5156 959.5,841.875 Q959.5,842.2188 959.1563,842.625 Q958.6563,843.2188 957.8594,843.5469 Q956.8125,844 955.5313,844 Q954.0313,844 952.8281,843.4063 Q951.8594,842.9375 951.1719,841.9219 Q950.5,840.9063 950.5,839.7031 L950.5,838.6094 Q950.5,837.3594 951.0938,836.2656 Q951.7031,835.1719 952.75,834.5938 Q953.8125,834 955,834 Q955.7188,834 956.3438,834.25 Q956.9688,834.5 957.5,835 Z "/><text fill="#000000" font-family="sans-serif" font-size="12" lengthAdjust="spacingAndGlyphs" textLength="74" x="969.5" y="843.4102">EstadoTarefa</text><line style="stroke: #A80036; stroke-width: 1.5;" x1="941.5" x2="1045.5" y1="854.5" y2="854.5"/><rect fill="none" height="6" style="stroke: #C82930; stroke-width: 1.0;" width="6" x="948.5" y="862.5"/><text fill="#000000" font-family="sans-serif" font-size="11" lengthAdjust="spacingAndGlyphs" textLength="64" x="960.5" y="869.9189">String estado</text><line style="stroke: #A80036; stroke-width: 1.5;" x1="941.5" x2="1045.5" y1="876.3359" y2="876.3359"/><!--MD5=[5516bb47a61354784b6e188a4ca048b6]
link Equipa to TipoEquipa--><path d="M221.5,717.747 C221.5,743.662 221.5,776.446 221.5,803.188 " fill="none" id="Equipa-&gt;TipoEquipa" style="stroke: #A80036; stroke-width: 1.0;"/><polygon fill="#A80036" points="221.5,808.452,225.5,799.452,221.5,803.452,217.5,799.452,221.5,808.452" style="stroke: #A80036; stroke-width: 1.0;"/><text fill="#000000" font-family="sans-serif" font-size="13" lengthAdjust="spacingAndGlyphs" textLength="22" x="222.5" y="768.4951">tem</text><text fill="#000000" font-family="sans-serif" font-size="13" lengthAdjust="spacingAndGlyphs" textLength="7" x="214.0297" y="738.4539">1</text><text fill="#000000" font-family="sans-serif" font-size="13" lengthAdjust="spacingAndGlyphs" textLength="7" x="213.9422" y="797.5598">1</text><!--MD5=[390c889c30cd5726852ec1061e50a760]
link Equipa to Colaborador--><path d="M215.824,627.188 C205.982,543.957 187.949,358.615 200.5,203 C202.424,179.148 206.223,153.162 210.13,130.386 " fill="none" id="Equipa-&gt;Colaborador" style="stroke: #A80036; stroke-width: 1.0;"/><polygon fill="#A80036" points="211.018,125.275,205.5366,133.4575,210.1622,130.2012,213.4185,134.8268,211.018,125.275" style="stroke: #A80036; stroke-width: 1.0;"/><text fill="#000000" font-family="sans-serif" font-size="13" lengthAdjust="spacingAndGlyphs" textLength="22" x="198.5" y="378.4951">tem</text><text fill="#000000" font-family="sans-serif" font-size="13" lengthAdjust="spacingAndGlyphs" textLength="7" x="207.4189" y="616.5843">1</text><text fill="#000000" font-family="sans-serif" font-size="13" lengthAdjust="spacingAndGlyphs" textLength="5" x="204.4013" y="146.5009">*</text><!--MD5=[1681d00302e01ab46752d5f6c75986bd]
link Colaborador to LocalResidencia--><path d="M239.198,125.08 C250.081,162.606 263.8,209.915 272.363,239.443 " fill="none" id="Colaborador-&gt;LocalResidencia" style="stroke: #A80036; stroke-width: 1.0;"/><polygon fill="#A80036" points="273.796,244.383,275.1302,234.6249,272.403,239.581,267.4469,236.8538,273.796,244.383" style="stroke: #A80036; stroke-width: 1.0;"/><text fill="#000000" font-family="sans-serif" font-size="13" lengthAdjust="spacingAndGlyphs" textLength="57" x="252.5" y="169.4951">reside em</text><text fill="#000000" font-family="sans-serif" font-size="13" lengthAdjust="spacingAndGlyphs" textLength="7" x="233.8065" y="146.7">1</text><text fill="#000000" font-family="sans-serif" font-size="13" lengthAdjust="spacingAndGlyphs" textLength="7" x="264.1812" y="233.6932">1</text><!--MD5=[34472ae4dd91b5280d9be9bc7dc9279f]
link Colaborador to Colaborador--><path d="M288.555,48.54 C308.208,49.08 323.5,55.06 323.5,66.5 C323.5,76.87 310.941,82.75 293.958,84.17 " fill="none" id="Colaborador-&gt;Colaborador" style="stroke: #A80036; stroke-width: 1.0;"/><polygon fill="#A80036" points="288.555,84.46,297.7596,87.9636,293.5476,84.1875,297.3237,79.9755,288.555,84.46" style="stroke: #A80036; stroke-width: 1.0;"/><text fill="#000000" font-family="sans-serif" font-size="13" lengthAdjust="spacingAndGlyphs" textLength="79" x="329.5" y="71.9951"> responsavel</text><text fill="#000000" font-family="sans-serif" font-size="13" lengthAdjust="spacingAndGlyphs" textLength="7" x="296.5973" y="43.0434">1</text><text fill="#000000" font-family="sans-serif" font-size="13" lengthAdjust="spacingAndGlyphs" textLength="5" x="296.4817" y="83.1167">*</text><!--MD5=[6e11fc7dc4f4cce934340b65939f2e4c]
link Colaborador to Funcao--><path d="M156.425,86.172 C122.228,99.498 83.368,121.188 62.5,155 C48.377,177.883 48.28,208.667 51.2116,232.248 " fill="none" id="Colaborador-&gt;Funcao" style="stroke: #A80036; stroke-width: 1.0;"/><polygon fill="#A80036" points="51.924,237.469,54.671,228.011,51.2483,232.5149,46.7444,229.0921,51.924,237.469" style="stroke: #A80036; stroke-width: 1.0;"/><text fill="#000000" font-family="sans-serif" font-size="13" lengthAdjust="spacingAndGlyphs" textLength="74" x="63.5" y="169.4951">desempenha</text><text fill="#000000" font-family="sans-serif" font-size="13" lengthAdjust="spacingAndGlyphs" textLength="7" x="141.3804" y="85.0244">1</text><text fill="#000000" font-family="sans-serif" font-size="13" lengthAdjust="spacingAndGlyphs" textLength="7" x="42.7199" y="226.4825">1</text><!--MD5=[a3e92921270e6c443fcd16b8f8e63c52]
link Colaborador to Catalogo--><path d="M288.717,125.08 C318.055,150.592 352.593,180.625 382.371,206.518 " fill="none" id="Colaborador-&gt;Catalogo" style="stroke: #A80036; stroke-width: 1.0;"/><polygon fill="#A80036" points="386.352,209.98,382.1862,201.0555,382.5793,206.6987,376.9361,207.0918,386.352,209.98" style="stroke: #A80036; stroke-width: 1.0;"/><text fill="#000000" font-family="sans-serif" font-size="13" lengthAdjust="spacingAndGlyphs" textLength="79" x="338.5" y="169.4951"> responsavel</text><text fill="#000000" font-family="sans-serif" font-size="13" lengthAdjust="spacingAndGlyphs" textLength="7" x="289.3606" y="146.7">1</text><text fill="#000000" font-family="sans-serif" font-size="13" lengthAdjust="spacingAndGlyphs" textLength="7" x="370.4283" y="198.9633">1</text><!--MD5=[7228efb285b85cdb9b153c15ec9679db]
link Catalogo to CriterioAcesso--><path d="M377.897,321.204 C356.326,337.248 336.446,353.465 328.5,364 C309.4,389.323 297.511,423.991 290.979,448.124 " fill="none" id="Catalogo-&gt;CriterioAcesso" style="stroke: #A80036; stroke-width: 1.0;"/><polygon fill="#A80036" points="289.666,453.106,295.8279,445.4228,290.9404,448.2711,288.0921,443.3837,289.666,453.106" style="stroke: #A80036; stroke-width: 1.0;"/><text fill="#000000" font-family="sans-serif" font-size="13" lengthAdjust="spacingAndGlyphs" textLength="38" x="329.5" y="378.4951">possui</text><text fill="#000000" font-family="sans-serif" font-size="13" lengthAdjust="spacingAndGlyphs" textLength="7" x="362.8426" y="323.3181">1</text><text fill="#000000" font-family="sans-serif" font-size="13" lengthAdjust="spacingAndGlyphs" textLength="5" x="285.3158" y="442.7479">*</text><!--MD5=[8b8d37a1988efc7219c8b7e82898e14a]
link Catalogo to Objetivo--><path d="M441.161,327.134 C436.71,352.97 432.25,383.893 430.5,412 C426.882,470.11 425.66,484.979 430.5,543 C437.968,632.517 457.384,735.098 470.261,796.79 " fill="none" id="Catalogo-&gt;Objetivo" style="stroke: #A80036; stroke-width: 1.0;"/><polygon fill="#A80036" points="471.331,801.895,473.3999,792.2659,470.3054,797.0013,465.57,793.9068,471.331,801.895" style="stroke: #A80036; stroke-width: 1.0;"/><text fill="#000000" font-family="sans-serif" font-size="13" lengthAdjust="spacingAndGlyphs" textLength="38" x="435.5" y="587.4951">possui</text><text fill="#000000" font-family="sans-serif" font-size="13" lengthAdjust="spacingAndGlyphs" textLength="7" x="432.3525" y="348.7606">1</text><text fill="#000000" font-family="sans-serif" font-size="13" lengthAdjust="spacingAndGlyphs" textLength="5" x="464.4088" y="791.0087">*</text><!--MD5=[2c7badfd2dd31d9dc6c031ecbe349308]
link Catalogo to Servico--><path d="M443.276,327.042 C442.41,345.044 443.6,364.711 449.5,382 C452.466,390.691 456.591,399.204 461.386,407.34 " fill="none" id="Catalogo-&gt;Servico" style="stroke: #A80036; stroke-width: 1.0;"/><polygon fill="#A80036" points="464.115,411.82,462.8484,402.0529,461.5136,407.55,456.0165,406.2152,464.115,411.82" style="stroke: #A80036; stroke-width: 1.0;"/><text fill="#000000" font-family="sans-serif" font-size="13" lengthAdjust="spacingAndGlyphs" textLength="38" x="450.5" y="378.4951">possui</text><text fill="#000000" font-family="sans-serif" font-size="13" lengthAdjust="spacingAndGlyphs" textLength="7" x="442.5784" y="348.6574">1</text><text fill="#000000" font-family="sans-serif" font-size="13" lengthAdjust="spacingAndGlyphs" textLength="5" x="452.4557" y="401.2747">*</text><!--MD5=[f0ff81de7d7a98798a88d6a2a033a4de]
link Catalogo to SLA--><path d="M482.151,327.27 C494.557,346.857 510.542,367.439 529.5,382 C561.272,406.402 582.619,387.74 614.5,412 C627.274,421.72 637.806,436.115 645.461,448.842 " fill="none" id="Catalogo-&gt;SLA" style="stroke: #A80036; stroke-width: 1.0;"/><polygon fill="#A80036" points="648.15,453.443,647.0626,443.6544,645.6273,449.1261,640.1555,447.6907,648.15,453.443" style="stroke: #A80036; stroke-width: 1.0;"/><text fill="#000000" font-family="sans-serif" font-size="13" lengthAdjust="spacingAndGlyphs" textLength="38" x="530.5" y="378.4951">possui</text><text fill="#000000" font-family="sans-serif" font-size="13" lengthAdjust="spacingAndGlyphs" textLength="7" x="478.1747" y="348.4953">1</text><text fill="#000000" font-family="sans-serif" font-size="13" lengthAdjust="spacingAndGlyphs" textLength="7" x="637.3447" y="442.7686">1</text><!--MD5=[3097fc231e74786bfd6f5892e42c1584]
link Formulario to Atributo--><path d="M1158.5,891.589 C1158.5,916.461 1158.5,949.67 1158.5,977.71 " fill="none" id="Formulario-&gt;Atributo" style="stroke: #A80036; stroke-width: 1.0;"/><polygon fill="#A80036" points="1158.5,982.882,1162.5,973.882,1158.5,977.882,1154.5,973.882,1158.5,982.882" style="stroke: #A80036; stroke-width: 1.0;"/><text fill="#000000" font-family="sans-serif" font-size="13" lengthAdjust="spacingAndGlyphs" textLength="38" x="1159.5" y="949.4951">possui</text><text fill="#000000" font-family="sans-serif" font-size="13" lengthAdjust="spacingAndGlyphs" textLength="7" x="1150.9203" y="912.7739">1</text><text fill="#000000" font-family="sans-serif" font-size="13" lengthAdjust="spacingAndGlyphs" textLength="5" x="1153.1484" y="971.9939">*</text><!--MD5=[af9396e4409b397109f46ce1fc862769]
link NivelCriticidade to Etiqueta--><path d="M623.338,710.589 C629.102,741.856 637.296,786.3 642.971,817.085 " fill="none" id="NivelCriticidade-&gt;Etiqueta" style="stroke: #A80036; stroke-width: 1.0;"/><polygon fill="#A80036" points="643.93,822.285,646.2308,812.7087,643.0229,817.368,638.3636,814.1601,643.93,822.285" style="stroke: #A80036; stroke-width: 1.0;"/><text fill="#000000" font-family="sans-serif" font-size="13" lengthAdjust="spacingAndGlyphs" textLength="38" x="634.5" y="768.4951">possui</text><text fill="#000000" font-family="sans-serif" font-size="13" lengthAdjust="spacingAndGlyphs" textLength="7" x="616.8909" y="731.7739">1</text><text fill="#000000" font-family="sans-serif" font-size="13" lengthAdjust="spacingAndGlyphs" textLength="7" x="635.0593" y="811.7452">1</text><!--MD5=[565d8206cfab69d2c786d0f44bd58de7]
link NivelCriticidade to Objetivo--><path d="M588.735,710.589 C569.884,735.77 544.635,769.499 523.482,797.755 " fill="none" id="NivelCriticidade-&gt;Objetivo" style="stroke: #A80036; stroke-width: 1.0;"/><polygon fill="#A80036" points="520.392,801.882,528.9882,797.0751,523.3888,797.8796,522.5843,792.2802,520.392,801.882" style="stroke: #A80036; stroke-width: 1.0;"/><text fill="#000000" font-family="sans-serif" font-size="13" lengthAdjust="spacingAndGlyphs" textLength="38" x="554.5" y="768.4951">possui</text><text fill="#000000" font-family="sans-serif" font-size="13" lengthAdjust="spacingAndGlyphs" textLength="7" x="576.5567" y="731.7739">1</text><text fill="#000000" font-family="sans-serif" font-size="13" lengthAdjust="spacingAndGlyphs" textLength="5" x="520.369" y="790.9939">*</text><!--MD5=[500ccda2b37cdb36ed86746d49f7a7ad]
link Pedido to Servico--><path d="M839.718,284.755 C778.7,298.726 695.085,323.517 630.5,364 C611.412,375.965 593.323,392.036 577.6,408.282 " fill="none" id="Pedido-&gt;Servico" style="stroke: #A80036; stroke-width: 1.0;"/><polygon fill="#A80036" points="574.073,411.969,583.1838,408.2282,577.5284,408.3551,577.4015,402.6996,574.073,411.969" style="stroke: #A80036; stroke-width: 1.0;"/><text fill="#000000" font-family="sans-serif" font-size="13" lengthAdjust="spacingAndGlyphs" textLength="100" x="631.5" y="378.4951">caracterizado por</text><text fill="#000000" font-family="sans-serif" font-size="13" lengthAdjust="spacingAndGlyphs" textLength="7" x="825.1226" y="283.0003">1</text><text fill="#000000" font-family="sans-serif" font-size="13" lengthAdjust="spacingAndGlyphs" textLength="7" x="572.6314" y="400.9815">1</text><!--MD5=[e70e4fdf039b28c721484b180c49c6b0]
link Pedido to UrgenciaPedido--><path d="M968.656,334.145 C994.719,369.873 1026.05,412.828 1047.44,442.144 " fill="none" id="Pedido-&gt;UrgenciaPedido" style="stroke: #A80036; stroke-width: 1.0;"/><polygon fill="#A80036" points="1050.52,446.368,1048.4529,436.7385,1047.5756,442.3269,1041.9872,441.4496,1050.52,446.368" style="stroke: #A80036; stroke-width: 1.0;"/><text fill="#000000" font-family="sans-serif" font-size="13" lengthAdjust="spacingAndGlyphs" textLength="22" x="1002.5" y="378.4951">tem</text><text fill="#000000" font-family="sans-serif" font-size="13" lengthAdjust="spacingAndGlyphs" textLength="7" x="966.4309" y="355.7134">1</text><text fill="#000000" font-family="sans-serif" font-size="13" lengthAdjust="spacingAndGlyphs" textLength="7" x="1038.2648" y="435.8453">1</text><!--MD5=[f77db117ecb31b03505ffd589b56d98f]
link Pedido to Formulario--><path d="M1003.135,296.958 C1055.25,319.184 1118.78,356.104 1150.5,412 C1223.73,541.049 1190.57,727.464 1170.21,810.2 " fill="none" id="Pedido-&gt;Formulario" style="stroke: #A80036; stroke-width: 1.0;"/><polygon fill="#A80036" points="1168.89,815.498,1174.9469,807.7318,1170.0986,810.6463,1167.1842,805.798,1168.89,815.498" style="stroke: #A80036; stroke-width: 1.0;"/><text fill="#000000" font-family="sans-serif" font-size="13" lengthAdjust="spacingAndGlyphs" textLength="77" x="1195.5" y="587.4951">possui dados</text><text fill="#000000" font-family="sans-serif" font-size="13" lengthAdjust="spacingAndGlyphs" textLength="7" x="1010.9834" y="296.3546">1</text><text fill="#000000" font-family="sans-serif" font-size="13" lengthAdjust="spacingAndGlyphs" textLength="7" x="1163.1603" y="804.5742">1</text><!--MD5=[89c9a00d7d857d38f872341489283c08]
link Pedido to Ficheiro--><path d="M1003.122,279.824 C1066.05,291.334 1152.22,315.209 1212.5,364 C1239.79,386.085 1257.92,422.894 1267.94,448.363 " fill="none" id="Pedido-&gt;Ficheiro" style="stroke: #A80036; stroke-width: 1.0;"/><polygon fill="#A80036" points="1269.84,453.298,1270.347,443.4622,1268.0472,448.6305,1262.8789,446.3307,1269.84,453.298" style="stroke: #A80036; stroke-width: 1.0;"/><text fill="#000000" font-family="sans-serif" font-size="13" lengthAdjust="spacingAndGlyphs" textLength="22" x="1230.5" y="378.4951">tem</text><text fill="#000000" font-family="sans-serif" font-size="13" lengthAdjust="spacingAndGlyphs" textLength="7" x="1010.9692" y="277.641">1</text><text fill="#000000" font-family="sans-serif" font-size="13" lengthAdjust="spacingAndGlyphs" textLength="5" x="1262.2365" y="442.5864">*</text><!--MD5=[174150320e198045e33259e3796fc992]
link Pedido to SLA--><path d="M839.98,312.285 C796.614,337.562 744.205,372.349 704.5,412 C693.572,422.913 683.516,436.774 675.695,448.848 " fill="none" id="Pedido-&gt;SLA" style="stroke: #A80036; stroke-width: 1.0;"/><polygon fill="#A80036" points="672.917,453.206,681.1276,447.7667,675.6045,448.9897,674.3815,443.4666,672.917,453.206" style="stroke: #A80036; stroke-width: 1.0;"/><text fill="#000000" font-family="sans-serif" font-size="13" lengthAdjust="spacingAndGlyphs" textLength="61" x="758.5" y="378.4951">tem dados</text><text fill="#000000" font-family="sans-serif" font-size="13" lengthAdjust="spacingAndGlyphs" textLength="7" x="824.8765" y="313.2069">1</text><text fill="#000000" font-family="sans-serif" font-size="13" lengthAdjust="spacingAndGlyphs" textLength="7" x="668.4582" y="442.4708">1</text><!--MD5=[078966e4029fc37e1b35ecb15f9b6d41]
link Pedido to EstadoPedido--><path d="M876.218,334.145 C851.19,369.873 821.101,412.828 800.566,442.144 " fill="none" id="Pedido-&gt;EstadoPedido" style="stroke: #A80036; stroke-width: 1.0;"/><polygon fill="#A80036" points="797.607,446.368,806.0472,441.2923,800.476,442.273,799.4953,436.7019,797.607,446.368" style="stroke: #A80036; stroke-width: 1.0;"/><text fill="#000000" font-family="sans-serif" font-size="13" lengthAdjust="spacingAndGlyphs" textLength="22" x="853.5" y="378.4951">tem</text><text fill="#000000" font-family="sans-serif" font-size="13" lengthAdjust="spacingAndGlyphs" textLength="7" x="863.8825" y="355.7134">1</text><text fill="#000000" font-family="sans-serif" font-size="13" lengthAdjust="spacingAndGlyphs" textLength="7" x="794.2384" y="435.8453">1</text><!--MD5=[144ff56a05a01ec025331c49cf98852e]
link Pedido to FluxoAtividade--><path d="M921.5,334.145 C921.5,372.337 921.5,418.788 921.5,448.008 " fill="none" id="Pedido-&gt;FluxoAtividade" style="stroke: #A80036; stroke-width: 1.0;"/><polygon fill="#A80036" points="921.5,453.258,925.5,444.258,921.5,448.258,917.5,444.258,921.5,453.258" style="stroke: #A80036; stroke-width: 1.0;"/><text fill="#000000" font-family="sans-serif" font-size="13" lengthAdjust="spacingAndGlyphs" textLength="22" x="922.5" y="378.4951">tem</text><text fill="#000000" font-family="sans-serif" font-size="13" lengthAdjust="spacingAndGlyphs" textLength="7" x="914.1172" y="355.7134">1</text><text fill="#000000" font-family="sans-serif" font-size="13" lengthAdjust="spacingAndGlyphs" textLength="7" x="913.6031" y="442.5361">1</text><!--MD5=[c0127c9c9776b97f655b47c53db405a6]
link Servico to Objetivo--><path d="M511.443,543.269 C507.569,567.59 503.454,595.512 500.5,621 C493.559,680.886 488.585,749.808 485.648,796.77 " fill="none" id="Servico-&gt;Objetivo" style="stroke: #A80036; stroke-width: 1.0;"/><polygon fill="#A80036" points="485.335,801.815,489.8852,793.0803,485.6449,796.8246,481.9006,792.5844,485.335,801.815" style="stroke: #A80036; stroke-width: 1.0;"/><text fill="#000000" font-family="sans-serif" font-size="13" lengthAdjust="spacingAndGlyphs" textLength="38" x="501.5" y="677.9951">possui</text><text fill="#000000" font-family="sans-serif" font-size="13" lengthAdjust="spacingAndGlyphs" textLength="7" x="502.9418" y="564.3889">1</text><text fill="#000000" font-family="sans-serif" font-size="13" lengthAdjust="spacingAndGlyphs" textLength="5" x="480.38" y="791.2905">*</text><!--MD5=[0fa6861b6289a1249dbc9d2c2422d8e9]
link Servico to NivelCriticidade--><path d="M553.931,543.035 C567.849,571.61 583.82,604.402 596.143,629.703 " fill="none" id="Servico-&gt;NivelCriticidade" style="stroke: #A80036; stroke-width: 1.0;"/><polygon fill="#A80036" points="598.4,634.337,598.0572,624.4941,596.2115,629.8414,590.8642,627.9957,598.4,634.337" style="stroke: #A80036; stroke-width: 1.0;"/><text fill="#000000" font-family="sans-serif" font-size="13" lengthAdjust="spacingAndGlyphs" textLength="38" x="575.5" y="587.4951">possui</text><text fill="#000000" font-family="sans-serif" font-size="13" lengthAdjust="spacingAndGlyphs" textLength="7" x="549.986" y="564.5914">1</text><text fill="#000000" font-family="sans-serif" font-size="13" lengthAdjust="spacingAndGlyphs" textLength="5" x="589.7306" y="623.6699">*</text><!--MD5=[acc75cf9feffade8ed8230025fe51a67]
link SLA to Objetivo--><path d="M671.369,501.816 C697.681,557.153 753.149,697.346 681.5,772 C648.78,806.092 623.329,784.34 579.5,802 C575.297,803.694 571.035,805.51 566.76,807.412 " fill="none" id="SLA-&gt;Objetivo" style="stroke: #A80036; stroke-width: 1.0;"/><polygon fill="#A80036" points="562.12,809.508,571.9687,809.4483,566.6767,807.4496,568.6753,802.1576,562.12,809.508" style="stroke: #A80036; stroke-width: 1.0;"/><text fill="#000000" font-family="sans-serif" font-size="13" lengthAdjust="spacingAndGlyphs" textLength="38" x="717.5" y="677.9951">possui</text><text fill="#000000" font-family="sans-serif" font-size="13" lengthAdjust="spacingAndGlyphs" textLength="7" x="666.3043" y="522.8248">1</text><text fill="#000000" font-family="sans-serif" font-size="13" lengthAdjust="spacingAndGlyphs" textLength="5" x="569.9471" y="802.048">*</text><!--MD5=[8d8e9d8f2ff6cb5a9fea8bd2335e77d7]
link SLA to NivelCriticidade--><path d="M654.313,501.78 C647.301,533.252 634.674,589.929 625.952,629.075 " fill="none" id="SLA-&gt;NivelCriticidade" style="stroke: #A80036; stroke-width: 1.0;"/><polygon fill="#A80036" points="624.802,634.238,630.6633,626.3231,625.8892,629.3576,622.8547,624.5836,624.802,634.238" style="stroke: #A80036; stroke-width: 1.0;"/><text fill="#000000" font-family="sans-serif" font-size="13" lengthAdjust="spacingAndGlyphs" textLength="38" x="638.5" y="587.4951">possui</text><text fill="#000000" font-family="sans-serif" font-size="13" lengthAdjust="spacingAndGlyphs" textLength="7" x="645.1955" y="523.1862">1</text><text fill="#000000" font-family="sans-serif" font-size="13" lengthAdjust="spacingAndGlyphs" textLength="5" x="620.8355" y="623.5532">*</text><!--MD5=[34c504092c7747f1ec9c3e99aa212956]
link Tarefa to Formulario--><path d="M1040.34,724.315 C1065.77,751.9 1096.79,785.554 1120.67,811.457 " fill="none" id="Tarefa-&gt;Formulario" style="stroke: #A80036; stroke-width: 1.0;"/><polygon fill="#A80036" points="1124.14,815.221,1120.9733,805.8951,1120.7481,811.5475,1115.0957,811.3222,1124.14,815.221" style="stroke: #A80036; stroke-width: 1.0;"/><text fill="#000000" font-family="sans-serif" font-size="13" lengthAdjust="spacingAndGlyphs" textLength="22" x="1081.5" y="768.4951">tem</text><text fill="#000000" font-family="sans-serif" font-size="13" lengthAdjust="spacingAndGlyphs" textLength="7" x="1039.1638" y="745.8483">1</text><text fill="#000000" font-family="sans-serif" font-size="13" lengthAdjust="spacingAndGlyphs" textLength="22" x="1094.0603" y="804.5332">0..1</text><!--MD5=[411ffca6f87e4ae5e83b273db463c6c1]
link Tarefa to EstadoTarefa--><path d="M993.5,724.315 C993.5,753.967 993.5,790.633 993.5,817.144 " fill="none" id="Tarefa-&gt;EstadoTarefa" style="stroke: #A80036; stroke-width: 1.0;"/><polygon fill="#A80036" points="993.5,822.306,997.5,813.306,993.5,817.306,989.5,813.306,993.5,822.306" style="stroke: #A80036; stroke-width: 1.0;"/><text fill="#000000" font-family="sans-serif" font-size="13" lengthAdjust="spacingAndGlyphs" textLength="22" x="994.5" y="768.4951">tem</text><text fill="#000000" font-family="sans-serif" font-size="13" lengthAdjust="spacingAndGlyphs" textLength="7" x="986.0297" y="745.8483">1</text><text fill="#000000" font-family="sans-serif" font-size="13" lengthAdjust="spacingAndGlyphs" textLength="7" x="985.7781" y="811.7705">1</text><!--MD5=[cd334f3f56f91076b9fef69be413c1e1]
link FluxoAtividade to Tarefa--><path d="M930.185,501.78 C940.637,529.798 958.541,577.791 972.649,615.608 " fill="none" id="FluxoAtividade-&gt;Tarefa" style="stroke: #A80036; stroke-width: 1.0;"/><polygon fill="#A80036" points="974.525,620.638,975.125,610.8074,972.7764,615.9537,967.6301,613.6051,974.525,620.638" style="stroke: #A80036; stroke-width: 1.0;"/><text fill="#000000" font-family="sans-serif" font-size="13" lengthAdjust="spacingAndGlyphs" textLength="22" x="962.5" y="587.4951">tem</text><text fill="#000000" font-family="sans-serif" font-size="13" lengthAdjust="spacingAndGlyphs" textLength="7" x="924.4488" y="523.1862">1</text><text fill="#000000" font-family="sans-serif" font-size="13" lengthAdjust="spacingAndGlyphs" textLength="5" x="966.6393" y="610.0897">*</text><!--MD5=[820167569b93911917aa4640c62704c8]
link CriterioAcesso to Equipa--><path d="M276.901,501.78 C267.223,531.429 250.243,583.447 237.624,622.104 " fill="none" id="CriterioAcesso-&gt;Equipa" style="stroke: #A80036; stroke-width: 1.0;"/><polygon fill="#A80036" points="235.952,627.227,242.5493,619.9143,237.5048,622.4742,234.9449,617.4298,235.952,627.227" style="stroke: #A80036; stroke-width: 1.0;"/><text fill="#000000" font-family="sans-serif" font-size="13" lengthAdjust="spacingAndGlyphs" textLength="68" x="254.5" y="587.4951">tem acesso</text><text fill="#000000" font-family="sans-serif" font-size="13" lengthAdjust="spacingAndGlyphs" textLength="7" x="267.1956" y="523.1862">1</text><text fill="#000000" font-family="sans-serif" font-size="13" lengthAdjust="spacingAndGlyphs" textLength="5" x="232.7822" y="616.6293">*</text><!--MD5=[b7d9c3fc05d71cbcc53555bfe0279a40]
@startuml


class Colaborador{
    -int numMecanografico
    -String nomeComum
    -Date dataNascimento
    -String email
    -String telemovel
}


class TipoEquipa {
    -int codigoUnico
    -String descricao
    -String cor
}

class Equipa {
    -int codigoUnico
    -String acronimoUnico
    -String designacao
}


class Pedido {
    -String identificadorUnico
    -Date dataSolicitacao
    -String criticidade
    -Date dataLimite
    -String comentarioConclusivo
    -int classificacao
}

class Funcao {
    -String descricao
}

class Catalogo {
    -int identificadorUnico
    -String titulo
    -String descricaoSimples
    -String descricaoCompleta
    -BufferedImage icone
}

class Formulario{
    -int identificadorUnico
    -String nome
}

class Servico {
    -int codigoUnico
    -String titulo
    -String descricaoSimples
    -String descricaoCompleta
    -BufferedImage icone
    -List<String> keywords
}

class SLA {
}

class Tarefa {
    -String prioridade
    -String criticidade
    -Date dataLimite
    -boolean automatico
}

class FluxoAtividade {
}


class LocalResidencia {
}

class CriterioAcesso {
}

class Atributo{
    -String nomeVariavel
    -String label
    -String descricaoAjuda
    -<E> tipoDadosBase
}

class NivelCriticidade{
    -int valorNumerico
    -String cor
}

class Etiqueta {
    -String prioridade
}

class Objetivo {
    -int tempoMedioAprovacao
    -int tempoMaximoAprovacao
    -int tempoMedioAceitacao
    -int tempoMaximoAceitacao
}

class UrgenciaPedido {
    -String urgencia
}

class Ficheiro {
}

class EstadoPedido{
    -String estado
}

class EstadoTarefa{
    -String estado
}


Equipa "1" - -> "1" TipoEquipa : tem
Equipa "1" - -> "*" Colaborador : tem

Colaborador "1" - -> "1" LocalResidencia : reside em
Colaborador "1" - -> "*" Colaborador :  responsavel
Colaborador "1" - -> "1" Funcao : desempenha
Colaborador "1" - -> "1" Catalogo :  responsavel

Catalogo "1" - -> "*" CriterioAcesso : possui
Catalogo "1" - -> "*" Objetivo : possui
Catalogo "1" - -> "*" Servico : possui
Catalogo "1" - -> "1" SLA : possui

Formulario "1" - -> "*" Atributo : possui

NivelCriticidade "1" - -> "1" Etiqueta : possui
NivelCriticidade "1" - -> "*" Objetivo : possui

Pedido "1" - -> "1" Servico : caracterizado por
Pedido "1" - -> "1" UrgenciaPedido : tem
Pedido "1" - -> "1" Formulario : possui dados
Pedido "1" - -> "*" Ficheiro : tem
Pedido "1" - -> "1" SLA : tem dados
Pedido "1" - -> "1" EstadoPedido : tem
Pedido "1" - -> "1" FluxoAtividade : tem

Servico "1" - -> "*" Objetivo : possui
Servico "1" - -> "*" NivelCriticidade : possui

SLA "1" - -> "*" Objetivo : possui
SLA "1" - -> "*" NivelCriticidade : possui

Tarefa "1" - -> "0..1" Formulario : tem
Tarefa "1" - -> "1" EstadoTarefa : tem

FluxoAtividade "1" - -> "*" Tarefa : tem

CriterioAcesso "1" - -> "*" Equipa : tem acesso

@enduml

PlantUML version 1.2020.07(Sun Apr 19 12:42:40 BST 2020)
(GPL source distribution)
Java Runtime: OpenJDK Runtime Environment
JVM: OpenJDK 64-Bit Server VM
Java Version: 11.0.6+8-b765.25
Operating System: Windows 10
Default Encoding: Cp1252
Language: pt
Country: PT
--></g></svg>