<?xml version="1.0" encoding="UTF-8" standalone="no"?><svg xmlns="http://www.w3.org/2000/svg" xmlns:xlink="http://www.w3.org/1999/xlink" contentScriptType="application/ecmascript" contentStyleType="text/css" height="718px" preserveAspectRatio="none" style="width:989px;height:718px;" version="1.1" viewBox="0 0 989 718" width="989px" zoomAndPan="magnify"><defs><filter height="300%" id="f1a6gvgyl7hd4u" width="300%" x="-1" y="-1"><feGaussianBlur result="blurOut" stdDeviation="2.0"/><feColorMatrix in="blurOut" result="blurOut2" type="matrix" values="0 0 0 0 0 0 0 0 0 0 0 0 0 0 0 0 0 0 .4 0"/><feOffset dx="4.0" dy="4.0" in="blurOut2" result="blurOut3"/><feBlend in="SourceGraphic" in2="blurOut3" mode="normal"/></filter></defs><g><!--MD5=[27c29abab0c7775de6854ef0ca282742]
entity ColaboradorRepository--><path d="M627.5,675 C627.5,665 711,665 711,665 C711,665 794.5,665 794.5,675 L794.5,701.6094 C794.5,711.6094 711,711.6094 711,711.6094 C711,711.6094 627.5,711.6094 627.5,701.6094 L627.5,675 " fill="#FFFFFF" filter="url(#f1a6gvgyl7hd4u)" style="stroke:#000000;stroke-width:1.5;"/><path d="M627.5,675 C627.5,685 711,685 711,685 C711,685 794.5,685 794.5,675 " fill="none" style="stroke:#000000;stroke-width:1.5;"/><text fill="#000000" font-family="sans-serif" font-size="14" lengthAdjust="spacing" textLength="147" x="637.5" y="703.5332">ColaboradorRepository</text><!--MD5=[131ef957277a2e64bc2c66aab59271f7]
entity UserRepository--><path d="M865.5,675 C865.5,665 924,665 924,665 C924,665 982.5,665 982.5,675 L982.5,701.6094 C982.5,711.6094 924,711.6094 924,711.6094 C924,711.6094 865.5,711.6094 865.5,701.6094 L865.5,675 " fill="#FFFFFF" filter="url(#f1a6gvgyl7hd4u)" style="stroke:#000000;stroke-width:1.5;"/><path d="M865.5,675 C865.5,685 924,685 924,685 C924,685 982.5,685 982.5,675 " fill="none" style="stroke:#000000;stroke-width:1.5;"/><text fill="#000000" font-family="sans-serif" font-size="14" lengthAdjust="spacing" textLength="97" x="875.5" y="703.5332">UserRepository</text><!--MD5=[fdd143688dd4c22e6f2ee475119423ce]
class EspecificarColaboradorUI--><rect codeLine="2" fill="#FEFECE" filter="url(#f1a6gvgyl7hd4u)" height="48" id="EspecificarColaboradorUI" style="stroke:#A80036;stroke-width:1.5;" width="174" x="646" y="7"/><ellipse cx="661" cy="23" fill="#ADD1B2" rx="11" ry="11" style="stroke:#A80036;stroke-width:1.0;"/><path d="M663,19.5 Q663.2031,19 663.4375,18.75 Q663.6719,18.5 663.9375,18.5 Q664.4063,18.5 664.7031,18.7813 Q665,19.0625 665,19.7188 L665,21.2813 Q665,21.9375 664.7188,22.2188 Q664.4375,22.5 664,22.5 Q663.6094,22.5 663.3594,22.3281 Q663.1094,22.1563 663,21.7031 Q662.9531,21.3906 662.7813,21.2188 Q662.4688,20.8906 661.9063,20.7031 Q661.3438,20.5 660.7813,20.5 Q660.0781,20.5 659.4844,20.7813 Q658.9063,21.0625 658.4531,21.6875 Q658,22.3125 658,23.1719 L658,24.0938 Q658,25.125 658.8438,25.8125 Q659.6875,26.5 661.1875,26.5 Q662.0781,26.5 662.7031,26.2969 Q663.0625,26.1875 663.4688,25.8281 Q663.7344,25.625 663.875,25.5625 Q664.0156,25.5 664.1875,25.5 Q664.5156,25.5 664.75,25.7656 Q665,26.0156 665,26.375 Q665,26.7188 664.6563,27.125 Q664.1563,27.7188 663.3594,28.0469 Q662.3125,28.5 661.0313,28.5 Q659.5313,28.5 658.3281,27.9063 Q657.3594,27.4375 656.6719,26.4219 Q656,25.4063 656,24.2031 L656,23.1094 Q656,21.8594 656.5938,20.7656 Q657.2031,19.6719 658.25,19.0938 Q659.3125,18.5 660.5,18.5 Q661.2188,18.5 661.8438,18.75 Q662.4688,19 663,19.5 Z " fill="#000000"/><text fill="#000000" font-family="sans-serif" font-size="12" lengthAdjust="spacing" textLength="142" x="675" y="27.9102">EspecificarColaboradorUI</text><line style="stroke:#A80036;stroke-width:1.5;" x1="647" x2="819" y1="39" y2="39"/><line style="stroke:#A80036;stroke-width:1.5;" x1="647" x2="819" y1="47" y2="47"/><!--MD5=[ad1e0dfb7967d80be5dad4c9388df9ec]
class EspecificarColaboradorController--><rect codeLine="6" fill="#FEFECE" filter="url(#f1a6gvgyl7hd4u)" height="131.0156" id="EspecificarColaboradorController" style="stroke:#A80036;stroke-width:1.5;" width="461" x="502.5" y="116"/><ellipse cx="636.75" cy="132" fill="#ADD1B2" rx="11" ry="11" style="stroke:#A80036;stroke-width:1.0;"/><path d="M638.75,128.5 Q638.9531,128 639.1875,127.75 Q639.4219,127.5 639.6875,127.5 Q640.1563,127.5 640.4531,127.7813 Q640.75,128.0625 640.75,128.7188 L640.75,130.2813 Q640.75,130.9375 640.4688,131.2188 Q640.1875,131.5 639.75,131.5 Q639.3594,131.5 639.1094,131.3281 Q638.8594,131.1563 638.75,130.7031 Q638.7031,130.3906 638.5313,130.2188 Q638.2188,129.8906 637.6563,129.7031 Q637.0938,129.5 636.5313,129.5 Q635.8281,129.5 635.2344,129.7813 Q634.6563,130.0625 634.2031,130.6875 Q633.75,131.3125 633.75,132.1719 L633.75,133.0938 Q633.75,134.125 634.5938,134.8125 Q635.4375,135.5 636.9375,135.5 Q637.8281,135.5 638.4531,135.2969 Q638.8125,135.1875 639.2188,134.8281 Q639.4844,134.625 639.625,134.5625 Q639.7656,134.5 639.9375,134.5 Q640.2656,134.5 640.5,134.7656 Q640.75,135.0156 640.75,135.375 Q640.75,135.7188 640.4063,136.125 Q639.9063,136.7188 639.1094,137.0469 Q638.0625,137.5 636.7813,137.5 Q635.2813,137.5 634.0781,136.9063 Q633.1094,136.4375 632.4219,135.4219 Q631.75,134.4063 631.75,133.2031 L631.75,132.1094 Q631.75,130.8594 632.3438,129.7656 Q632.9531,128.6719 634,128.0938 Q635.0625,127.5 636.25,127.5 Q636.9688,127.5 637.5938,127.75 Q638.2188,128 638.75,128.5 Z " fill="#000000"/><text fill="#000000" font-family="sans-serif" font-size="12" lengthAdjust="spacing" textLength="184" x="657.25" y="136.9102">EspecificarColaboradorController</text><line style="stroke:#A80036;stroke-width:1.5;" x1="503.5" x2="962.5" y1="148" y2="148"/><line style="stroke:#A80036;stroke-width:1.5;" x1="503.5" x2="962.5" y1="156" y2="156"/><text fill="#000000" font-family="sans-serif" font-size="11" lengthAdjust="spacing" textLength="449" x="508.5" y="171.4189">novoColaborador(email,telemovel,email,dataNascimento,nomeComum,localResidencia,funcao)</text><text fill="#000000" font-family="sans-serif" font-size="11" lengthAdjust="spacing" textLength="104" x="508.5" y="185.2549">registarColaborador()</text><text fill="#000000" font-family="sans-serif" font-size="11" lengthAdjust="spacing" textLength="91" x="508.5" y="199.0908">novoColaborador()</text><text fill="#000000" font-family="sans-serif" font-size="11" lengthAdjust="spacing" textLength="94" x="508.5" y="212.9268">getColaboradores()</text><text fill="#000000" font-family="sans-serif" font-size="11" lengthAdjust="spacing" textLength="103" x="508.5" y="226.7627">getColaboradorById()</text><text fill="#000000" font-family="sans-serif" font-size="11" lengthAdjust="spacing" textLength="65" x="508.5" y="240.5986">getFuncoes()</text><!--MD5=[ac8682ea5466d223e49472789fb200d2]
class Colaborador--><rect codeLine="37" fill="#FEFECE" filter="url(#f1a6gvgyl7hd4u)" height="158.6875" id="Colaborador" style="stroke:#A80036;stroke-width:1.5;" width="472" x="7" y="308"/><ellipse cx="204.25" cy="324" fill="#ADD1B2" rx="11" ry="11" style="stroke:#A80036;stroke-width:1.0;"/><path d="M206.25,320.5 Q206.4531,320 206.6875,319.75 Q206.9219,319.5 207.1875,319.5 Q207.6563,319.5 207.9531,319.7813 Q208.25,320.0625 208.25,320.7188 L208.25,322.2813 Q208.25,322.9375 207.9688,323.2188 Q207.6875,323.5 207.25,323.5 Q206.8594,323.5 206.6094,323.3281 Q206.3594,323.1563 206.25,322.7031 Q206.2031,322.3906 206.0313,322.2188 Q205.7188,321.8906 205.1563,321.7031 Q204.5938,321.5 204.0313,321.5 Q203.3281,321.5 202.7344,321.7813 Q202.1563,322.0625 201.7031,322.6875 Q201.25,323.3125 201.25,324.1719 L201.25,325.0938 Q201.25,326.125 202.0938,326.8125 Q202.9375,327.5 204.4375,327.5 Q205.3281,327.5 205.9531,327.2969 Q206.3125,327.1875 206.7188,326.8281 Q206.9844,326.625 207.125,326.5625 Q207.2656,326.5 207.4375,326.5 Q207.7656,326.5 208,326.7656 Q208.25,327.0156 208.25,327.375 Q208.25,327.7188 207.9063,328.125 Q207.4063,328.7188 206.6094,329.0469 Q205.5625,329.5 204.2813,329.5 Q202.7813,329.5 201.5781,328.9063 Q200.6094,328.4375 199.9219,327.4219 Q199.25,326.4063 199.25,325.2031 L199.25,324.1094 Q199.25,322.8594 199.8438,321.7656 Q200.4531,320.6719 201.5,320.0938 Q202.5625,319.5 203.75,319.5 Q204.4688,319.5 205.0938,319.75 Q205.7188,320 206.25,320.5 Z " fill="#000000"/><text fill="#000000" font-family="sans-serif" font-size="12" lengthAdjust="spacing" textLength="69" x="224.75" y="328.9102">Colaborador</text><line style="stroke:#A80036;stroke-width:1.5;" x1="8" x2="478" y1="340" y2="340"/><text fill="#000000" font-family="sans-serif" font-size="11" lengthAdjust="spacing" textLength="106" x="13" y="355.4189">String localResidencia</text><text fill="#000000" font-family="sans-serif" font-size="11" lengthAdjust="spacing" textLength="76" x="13" y="369.2549">String telemovel</text><text fill="#000000" font-family="sans-serif" font-size="11" lengthAdjust="spacing" textLength="55" x="13" y="383.0908">String email</text><text fill="#000000" font-family="sans-serif" font-size="11" lengthAdjust="spacing" textLength="102" x="13" y="396.9268">Date dataNascimento</text><text fill="#000000" font-family="sans-serif" font-size="11" lengthAdjust="spacing" textLength="92" x="13" y="410.7627">String nomeComum</text><text fill="#000000" font-family="sans-serif" font-size="11" lengthAdjust="spacing" textLength="101" x="13" y="424.5986">String nomeCompleto</text><text fill="#000000" font-family="sans-serif" font-size="11" lengthAdjust="spacing" textLength="65" x="13" y="438.4346">String funcao</text><line style="stroke:#A80036;stroke-width:1.5;" x1="8" x2="478" y1="444.8516" y2="444.8516"/><text fill="#000000" font-family="sans-serif" font-size="11" lengthAdjust="spacing" textLength="460" x="13" y="460.2705">create(email,telemovel,email,dataNascimento,nomeComum,localResidencia,funcao,responsavel)</text><!--MD5=[e8c189551b7885b999ad7cefb30fc2a3]
class PersistenceContext--><rect codeLine="25" fill="#FEFECE" filter="url(#f1a6gvgyl7hd4u)" height="61.8359" id="PersistenceContext" style="stroke:#A80036;stroke-width:1.5;" width="139" x="746.5" y="356.5"/><ellipse cx="761.5" cy="372.5" fill="#ADD1B2" rx="11" ry="11" style="stroke:#A80036;stroke-width:1.0;"/><path d="M763.5,369 Q763.7031,368.5 763.9375,368.25 Q764.1719,368 764.4375,368 Q764.9063,368 765.2031,368.2813 Q765.5,368.5625 765.5,369.2188 L765.5,370.7813 Q765.5,371.4375 765.2188,371.7188 Q764.9375,372 764.5,372 Q764.1094,372 763.8594,371.8281 Q763.6094,371.6563 763.5,371.2031 Q763.4531,370.8906 763.2813,370.7188 Q762.9688,370.3906 762.4063,370.2031 Q761.8438,370 761.2813,370 Q760.5781,370 759.9844,370.2813 Q759.4063,370.5625 758.9531,371.1875 Q758.5,371.8125 758.5,372.6719 L758.5,373.5938 Q758.5,374.625 759.3438,375.3125 Q760.1875,376 761.6875,376 Q762.5781,376 763.2031,375.7969 Q763.5625,375.6875 763.9688,375.3281 Q764.2344,375.125 764.375,375.0625 Q764.5156,375 764.6875,375 Q765.0156,375 765.25,375.2656 Q765.5,375.5156 765.5,375.875 Q765.5,376.2188 765.1563,376.625 Q764.6563,377.2188 763.8594,377.5469 Q762.8125,378 761.5313,378 Q760.0313,378 758.8281,377.4063 Q757.8594,376.9375 757.1719,375.9219 Q756.5,374.9063 756.5,373.7031 L756.5,372.6094 Q756.5,371.3594 757.0938,370.2656 Q757.7031,369.1719 758.75,368.5938 Q759.8125,368 761,368 Q761.7188,368 762.3438,368.25 Q762.9688,368.5 763.5,369 Z " fill="#000000"/><text fill="#000000" font-family="sans-serif" font-size="12" lengthAdjust="spacing" textLength="107" x="775.5" y="377.4102">PersistenceContext</text><line style="stroke:#A80036;stroke-width:1.5;" x1="747.5" x2="884.5" y1="388.5" y2="388.5"/><line style="stroke:#A80036;stroke-width:1.5;" x1="747.5" x2="884.5" y1="396.5" y2="396.5"/><text fill="#000000" font-family="sans-serif" font-size="11" lengthAdjust="spacing" textLength="65" x="752.5" y="411.9189">repositories()</text><!--MD5=[48590afff58a68e2fcba47824d6f8a11]
class RepositoryFactory--><rect codeLine="28" fill="#FEFECE" filter="url(#f1a6gvgyl7hd4u)" height="75.6719" id="RepositoryFactory" style="stroke:#A80036;stroke-width:1.5;" width="144" x="745" y="528"/><ellipse cx="766.3" cy="544" fill="#ADD1B2" rx="11" ry="11" style="stroke:#A80036;stroke-width:1.0;"/><path d="M768.3,540.5 Q768.5031,540 768.7375,539.75 Q768.9719,539.5 769.2375,539.5 Q769.7063,539.5 770.0031,539.7813 Q770.3,540.0625 770.3,540.7188 L770.3,542.2813 Q770.3,542.9375 770.0188,543.2188 Q769.7375,543.5 769.3,543.5 Q768.9094,543.5 768.6594,543.3281 Q768.4094,543.1563 768.3,542.7031 Q768.2531,542.3906 768.0813,542.2188 Q767.7688,541.8906 767.2063,541.7031 Q766.6438,541.5 766.0813,541.5 Q765.3781,541.5 764.7844,541.7813 Q764.2063,542.0625 763.7531,542.6875 Q763.3,543.3125 763.3,544.1719 L763.3,545.0938 Q763.3,546.125 764.1438,546.8125 Q764.9875,547.5 766.4875,547.5 Q767.3781,547.5 768.0031,547.2969 Q768.3625,547.1875 768.7688,546.8281 Q769.0344,546.625 769.175,546.5625 Q769.3156,546.5 769.4875,546.5 Q769.8156,546.5 770.05,546.7656 Q770.3,547.0156 770.3,547.375 Q770.3,547.7188 769.9563,548.125 Q769.4563,548.7188 768.6594,549.0469 Q767.6125,549.5 766.3313,549.5 Q764.8313,549.5 763.6281,548.9063 Q762.6594,548.4375 761.9719,547.4219 Q761.3,546.4063 761.3,545.2031 L761.3,544.1094 Q761.3,542.8594 761.8938,541.7656 Q762.5031,540.6719 763.55,540.0938 Q764.6125,539.5 765.8,539.5 Q766.5188,539.5 767.1438,539.75 Q767.7688,540 768.3,540.5 Z " fill="#000000"/><text fill="#000000" font-family="sans-serif" font-size="12" lengthAdjust="spacing" textLength="98" x="781.7" y="548.9102">RepositoryFactory</text><line style="stroke:#A80036;stroke-width:1.5;" x1="746" x2="888" y1="560" y2="560"/><line style="stroke:#A80036;stroke-width:1.5;" x1="746" x2="888" y1="568" y2="568"/><text fill="#000000" font-family="sans-serif" font-size="11" lengthAdjust="spacing" textLength="132" x="751" y="583.4189">newTransactionalContext()</text><text fill="#000000" font-family="sans-serif" font-size="11" lengthAdjust="spacing" textLength="39" x="751" y="597.2549">create()</text><!--MD5=[efc07359af4002ede352d360e3e5f791]
link EspecificarColaboradorUI to EspecificarColaboradorController--><path codeLine="41" d="M733,55.2 C733,70.24 733,90.7 733,110.72 " fill="none" id="EspecificarColaboradorUI-to-EspecificarColaboradorController" style="stroke:#A80036;stroke-width:1.0;stroke-dasharray:7.0,7.0;"/><polygon fill="#A80036" points="733,115.8,737,106.8,733,110.8,729,106.8,733,115.8" style="stroke:#A80036;stroke-width:1.0;"/><!--MD5=[ea1c4a716374c6a44de667b4314b01f1]
link EspecificarColaboradorController to Colaborador--><path codeLine="43" d="M577.96,247.05 C533.1,265.72 483.56,286.35 436.66,305.88 " fill="none" id="EspecificarColaboradorController-to-Colaborador" style="stroke:#A80036;stroke-width:1.0;stroke-dasharray:7.0,7.0;"/><polygon fill="#A80036" points="431.83,307.88,441.6758,308.1259,436.4483,305.964,438.6102,300.7366,431.83,307.88" style="stroke:#A80036;stroke-width:1.0;"/><!--MD5=[2163307b8210c90ad7d9f9a6825f440f]
link EspecificarColaboradorController to PersistenceContext--><path codeLine="44" d="M759.26,247.05 C773.31,281.59 790.07,322.78 801.72,351.4 " fill="none" id="EspecificarColaboradorController-to-PersistenceContext" style="stroke:#A80036;stroke-width:1.0;stroke-dasharray:7.0,7.0;"/><polygon fill="#A80036" points="803.69,356.23,803.9987,346.386,801.8035,351.5995,796.59,349.4044,803.69,356.23" style="stroke:#A80036;stroke-width:1.0;"/><!--MD5=[cc4f3a5c1d0a83f903f3e7c32aba5051]
link EspecificarColaboradorController to ColaboradorRepository--><path codeLine="45" d="M730.18,247.23 C725.34,358.34 715.64,580.97 712.22,659.39 " fill="none" id="EspecificarColaboradorController-to-ColaboradorRepository" style="stroke:#A80036;stroke-width:1.0;stroke-dasharray:7.0,7.0;"/><polygon fill="#A80036" points="711.99,664.78,716.3717,655.9595,712.2041,659.7846,708.379,655.617,711.99,664.78" style="stroke:#A80036;stroke-width:1.0;"/><!--MD5=[5a1947d9e7120e3a2e538f0223d13a85]
link EspecificarColaboradorController to UserRepository--><path codeLine="46" d="M849.91,247.08 C870.99,264.1 890.28,284.44 903,308 C966.4,425.42 942.74,594.15 930,659.85 " fill="none" id="EspecificarColaboradorController-to-UserRepository" style="stroke:#A80036;stroke-width:1.0;stroke-dasharray:7.0,7.0;"/><polygon fill="#A80036" points="929.03,664.77,934.6812,656.7038,929.9886,659.8627,926.8296,655.1701,929.03,664.77" style="stroke:#A80036;stroke-width:1.0;"/><!--MD5=[34472ae4dd91b5280d9be9bc7dc9279f]
link Colaborador to Colaborador--><path codeLine="48" d="M479.02,371.11 C500.49,374.52 514,379.98 514,387.5 C514,394.37 502.71,399.53 484.37,402.97 " fill="none" id="Colaborador-to-Colaborador" style="stroke:#A80036;stroke-width:1.0;"/><polygon fill="#A80036" points="479.02,403.89,488.5667,406.311,483.948,403.0448,487.2143,398.4262,479.02,403.89" style="stroke:#A80036;stroke-width:1.0;"/><text fill="#000000" font-family="sans-serif" font-size="13" lengthAdjust="spacing" textLength="130" x="520" y="392.9951">tem como responsável</text><!--MD5=[754b775031405e096442b27febffa290]
link PersistenceContext to RepositoryFactory--><path codeLine="50" d="M816.17,418.84 C816.33,447.47 816.58,490.66 816.76,522.67 " fill="none" id="PersistenceContext-to-RepositoryFactory" style="stroke:#A80036;stroke-width:1.0;stroke-dasharray:7.0,7.0;"/><polygon fill="#A80036" points="816.79,527.71,820.7385,518.6873,816.7614,522.7101,812.7386,518.733,816.79,527.71" style="stroke:#A80036;stroke-width:1.0;"/><!--MD5=[f69c8ab88bf9359224da8c715bf10dd8]
link RepositoryFactory to ColaboradorRepository--><path codeLine="52" d="M784.33,604.14 C768.29,622.37 749.33,643.93 734.7,660.56 " fill="none" id="RepositoryFactory-to-ColaboradorRepository" style="stroke:#A80036;stroke-width:1.0;stroke-dasharray:7.0,7.0;"/><polygon fill="#A80036" points="731.08,664.67,740.0246,660.5476,734.3796,660.9133,734.0139,655.2683,731.08,664.67" style="stroke:#A80036;stroke-width:1.0;"/><!--MD5=[0bde64d3861a2e0b7bf5316115f64c06]
link RepositoryFactory to UserRepository--><path codeLine="53" d="M849.98,604.14 C866.17,622.37 885.31,643.93 900.08,660.56 " fill="none" id="RepositoryFactory-to-UserRepository" style="stroke:#A80036;stroke-width:1.0;stroke-dasharray:7.0,7.0;"/><polygon fill="#A80036" points="903.73,664.67,900.7381,655.2866,900.4073,660.9337,894.7601,660.6029,903.73,664.67" style="stroke:#A80036;stroke-width:1.0;"/><!--MD5=[8d3f1fd00a34961012bdd323cccc6dfb]
@startuml

class EspecificarColaboradorUI{

}

class EspecificarColaboradorController{
    novoColaborador(email,telemovel,email,dataNascimento,nomeComum,localResidencia,funcao)
    registarColaborador()
    novoColaborador()
    getColaboradores()
    getColaboradorById()
    getFuncoes()
}

class Colaborador{
    String localResidencia
    String telemovel
    String email
    Date dataNascimento
    String nomeComum
    String nomeCompleto
    String funcao
}

class PersistenceContext{
    repositories()
}
class RepositoryFactory{
newTransactionalContext()
    create()
}
database ColaboradorRepository{
}
database UserRepository{
}

class Colaborador{
    create(email,telemovel,email,dataNascimento,nomeComum,localResidencia,funcao,responsavel)
}

EspecificarColaboradorUI ..> EspecificarColaboradorController

EspecificarColaboradorController ..> Colaborador
EspecificarColaboradorController ..>PersistenceContext
EspecificarColaboradorController ..>ColaboradorRepository
EspecificarColaboradorController ..>UserRepository

Colaborador->Colaborador : tem como responsável

PersistenceContext ..>RepositoryFactory

RepositoryFactory ..>ColaboradorRepository
RepositoryFactory ..>UserRepository

@enduml

PlantUML version 1.2021.5(Sun Apr 25 12:20:28 BST 2021)
(GPL source distribution)
Java Runtime: OpenJDK Runtime Environment
JVM: Dynamic Code Evolution 64-Bit Server VM
Default Encoding: Cp1252
Language: pt
Country: PT
--></g></svg>