<?xml version="1.0" encoding="UTF-8" standalone="no"?><svg xmlns="http://www.w3.org/2000/svg" xmlns:xlink="http://www.w3.org/1999/xlink" contentScriptType="application/ecmascript" contentStyleType="text/css" height="1513px" preserveAspectRatio="none" style="width:2915px;height:1513px;" version="1.1" viewBox="0 0 2915 1513" width="2915px" zoomAndPan="magnify"><defs><filter height="300%" id="ffzfen7801h9m" width="300%" x="-1" y="-1"><feGaussianBlur result="blurOut" stdDeviation="2.0"/><feColorMatrix in="blurOut" result="blurOut2" type="matrix" values="0 0 0 0 0 0 0 0 0 0 0 0 0 0 0 0 0 0 .4 0"/><feOffset dx="4.0" dy="4.0" in="blurOut2" result="blurOut3"/><feBlend in="SourceGraphic" in2="blurOut3" mode="normal"/></filter></defs><g><rect fill="#FFFFFF" filter="url(#ffzfen7801h9m)" height="1308.7656" style="stroke:#A80036;stroke-width:1.0;" width="10" x="117.5" y="99.6094"/><rect fill="#FFFFFF" filter="url(#ffzfen7801h9m)" height="515.2734" style="stroke:#A80036;stroke-width:1.0;" width="10" x="638.5" y="121.9609"/><rect fill="#FFFFFF" filter="url(#ffzfen7801h9m)" height="91.0547" style="stroke:#A80036;stroke-width:1.0;" width="10" x="638.5" y="667.5859"/><rect fill="#FFFFFF" filter="url(#ffzfen7801h9m)" height="184.4609" style="stroke:#A80036;stroke-width:1.0;" width="10" x="638.5" y="788.9922"/><rect fill="#FFFFFF" filter="url(#ffzfen7801h9m)" height="404.5703" style="stroke:#A80036;stroke-width:1.0;" width="10" x="638.5" y="1003.8047"/><rect fill="#FFFFFF" filter="url(#ffzfen7801h9m)" height="393.8672" style="stroke:#A80036;stroke-width:1.0;" width="10" x="1053.5" y="152.3125"/><rect fill="#FFFFFF" filter="url(#ffzfen7801h9m)" height="30.3516" style="stroke:#A80036;stroke-width:1.0;" width="10" x="1053.5" y="576.5313"/><rect fill="#FFFFFF" filter="url(#ffzfen7801h9m)" height="30.3516" style="stroke:#A80036;stroke-width:1.0;" width="10" x="1053.5" y="697.9375"/><rect fill="#FFFFFF" filter="url(#ffzfen7801h9m)" height="46.7031" style="stroke:#A80036;stroke-width:1.0;" width="10" x="1053.5" y="835.6953"/><rect fill="#FFFFFF" filter="url(#ffzfen7801h9m)" height="30.3516" style="stroke:#A80036;stroke-width:1.0;" width="10" x="1053.5" y="912.75"/><rect fill="#FFFFFF" filter="url(#ffzfen7801h9m)" height="374.2188" style="stroke:#A80036;stroke-width:1.0;" width="10" x="1053.5" y="1034.1563"/><rect fill="#FFFFFF" filter="url(#ffzfen7801h9m)" height="60.7031" style="stroke:#A80036;stroke-width:1.0;" width="10" x="1243" y="182.6641"/><rect fill="#FFFFFF" filter="url(#ffzfen7801h9m)" height="121.0547" style="stroke:#A80036;stroke-width:1.0;" width="10" x="1243" y="273.7188"/><rect fill="#FFFFFF" filter="url(#ffzfen7801h9m)" height="121.0547" style="stroke:#A80036;stroke-width:1.0;" width="10" x="1243" y="425.125"/><rect fill="#FFFFFF" filter="url(#ffzfen7801h9m)" height="60.3516" style="stroke:#A80036;stroke-width:1.0;" width="10" x="1436" y="304.0703"/><rect fill="#FFFFFF" filter="url(#ffzfen7801h9m)" height="60.3516" style="stroke:#A80036;stroke-width:1.0;" width="10" x="1436" y="455.4766"/><rect fill="#FFFFFF" filter="url(#ffzfen7801h9m)" height="91.0547" style="stroke:#A80036;stroke-width:1.0;" width="10" x="1583" y="1165.5625"/><rect fill="#FFFFFF" filter="url(#ffzfen7801h9m)" height="30" style="stroke:#A80036;stroke-width:1.0;" width="10" x="2084.5" y="485.8281"/><rect fill="#FFFFFF" filter="url(#ffzfen7801h9m)" height="30" style="stroke:#A80036;stroke-width:1.0;" width="10" x="2226.5" y="334.4219"/><line style="stroke:#A80036;stroke-width:1.0;stroke-dasharray:5.0,5.0;" x1="122" x2="122" y1="89.6094" y2="1426.375"/><line style="stroke:#A80036;stroke-width:1.0;stroke-dasharray:5.0,5.0;" x1="643" x2="643" y1="89.6094" y2="1426.375"/><line style="stroke:#A80036;stroke-width:1.0;stroke-dasharray:5.0,5.0;" x1="1058" x2="1058" y1="89.6094" y2="1426.375"/><line style="stroke:#A80036;stroke-width:1.0;stroke-dasharray:5.0,5.0;" x1="1248" x2="1248" y1="89.6094" y2="1426.375"/><line style="stroke:#A80036;stroke-width:1.0;stroke-dasharray:5.0,5.0;" x1="1440.5" x2="1440.5" y1="89.6094" y2="1426.375"/><line style="stroke:#A80036;stroke-width:1.0;stroke-dasharray:5.0,5.0;" x1="1587.5" x2="1587.5" y1="89.6094" y2="1426.375"/><line style="stroke:#A80036;stroke-width:1.0;stroke-dasharray:5.0,5.0;" x1="1953" x2="1953" y1="89.6094" y2="1426.375"/><line style="stroke:#A80036;stroke-width:1.0;stroke-dasharray:5.0,5.0;" x1="2089" x2="2089" y1="89.6094" y2="1426.375"/><line style="stroke:#A80036;stroke-width:1.0;stroke-dasharray:5.0,5.0;" x1="2231" x2="2231" y1="89.6094" y2="1426.375"/><line style="stroke:#A80036;stroke-width:1.0;stroke-dasharray:5.0,5.0;" x1="2376" x2="2376" y1="89.6094" y2="1426.375"/><line style="stroke:#A80036;stroke-width:1.0;stroke-dasharray:5.0,5.0;" x1="2555" x2="2555" y1="89.6094" y2="1426.375"/><line style="stroke:#A80036;stroke-width:1.0;stroke-dasharray:5.0,5.0;" x1="2702" x2="2702" y1="89.6094" y2="1426.375"/><line style="stroke:#A80036;stroke-width:1.0;stroke-dasharray:5.0,5.0;" x1="2833" x2="2833" y1="89.6094" y2="1426.375"/><text fill="#000000" font-family="sans-serif" font-size="14" lengthAdjust="spacing" textLength="229" x="5" y="86.5332">Responsável de Recursos Humanos</text><ellipse cx="122.5" cy="15" fill="#FEFECE" filter="url(#ffzfen7801h9m)" rx="8" ry="8" style="stroke:#A80036;stroke-width:2.0;"/><path d="M122.5,23 L122.5,50 M109.5,31 L135.5,31 M122.5,50 L109.5,65 M122.5,50 L135.5,65 " fill="none" filter="url(#ffzfen7801h9m)" style="stroke:#A80036;stroke-width:2.0;"/><text fill="#000000" font-family="sans-serif" font-size="14" lengthAdjust="spacing" textLength="229" x="5" y="1439.9082">Responsável de Recursos Humanos</text><ellipse cx="122.5" cy="1452.9844" fill="#FEFECE" filter="url(#ffzfen7801h9m)" rx="8" ry="8" style="stroke:#A80036;stroke-width:2.0;"/><path d="M122.5,1460.9844 L122.5,1487.9844 M109.5,1468.9844 L135.5,1468.9844 M122.5,1487.9844 L109.5,1502.9844 M122.5,1487.9844 L135.5,1502.9844 " fill="none" filter="url(#ffzfen7801h9m)" style="stroke:#A80036;stroke-width:2.0;"/><rect fill="#FEFECE" filter="url(#ffzfen7801h9m)" height="31.6094" style="stroke:#A80036;stroke-width:1.5;" width="165" x="559" y="53"/><text fill="#000000" font-family="sans-serif" font-size="14" lengthAdjust="spacing" textLength="151" x="566" y="74.5332">:EspecificarColabadorUI</text><rect fill="#FEFECE" filter="url(#ffzfen7801h9m)" height="31.6094" style="stroke:#A80036;stroke-width:1.5;" width="165" x="559" y="1425.375"/><text fill="#000000" font-family="sans-serif" font-size="14" lengthAdjust="spacing" textLength="151" x="566" y="1446.9082">:EspecificarColabadorUI</text><rect fill="#FEFECE" filter="url(#ffzfen7801h9m)" height="31.6094" style="stroke:#A80036;stroke-width:1.5;" width="215" x="949" y="53"/><text fill="#000000" font-family="sans-serif" font-size="14" lengthAdjust="spacing" textLength="201" x="956" y="74.5332">:EspecificarColabadorController</text><rect fill="#FEFECE" filter="url(#ffzfen7801h9m)" height="31.6094" style="stroke:#A80036;stroke-width:1.5;" width="215" x="949" y="1425.375"/><text fill="#000000" font-family="sans-serif" font-size="14" lengthAdjust="spacing" textLength="201" x="956" y="1446.9082">:EspecificarColabadorController</text><rect fill="#FEFECE" filter="url(#ffzfen7801h9m)" height="49.2188" style="stroke:#A80036;stroke-width:1.5;" width="136" x="1178" y="35.3906"/><text fill="#000000" font-family="sans-serif" font-size="14" lengthAdjust="spacing" textLength="105" x="1193.5" y="56.9238">&lt;&lt;persistence&gt;&gt;</text><text fill="#000000" font-family="sans-serif" font-size="14" lengthAdjust="spacing" textLength="122" x="1185" y="74.5332">PersistenceContext</text><rect fill="#FEFECE" filter="url(#ffzfen7801h9m)" height="49.2188" style="stroke:#A80036;stroke-width:1.5;" width="136" x="1178" y="1425.375"/><text fill="#000000" font-family="sans-serif" font-size="14" lengthAdjust="spacing" textLength="105" x="1193.5" y="1446.9082">&lt;&lt;persistence&gt;&gt;</text><text fill="#000000" font-family="sans-serif" font-size="14" lengthAdjust="spacing" textLength="122" x="1185" y="1464.5176">PersistenceContext</text><rect fill="#FEFECE" filter="url(#ffzfen7801h9m)" height="49.2188" style="stroke:#A80036;stroke-width:1.5;" width="177" x="1350.5" y="35.3906"/><text fill="#000000" font-family="sans-serif" font-size="14" lengthAdjust="spacing" textLength="75" x="1401.5" y="56.9238">&lt;&lt;factory&gt;&gt;</text><text fill="#000000" font-family="sans-serif" font-size="14" lengthAdjust="spacing" textLength="163" x="1357.5" y="74.5332">factory:RepositoryFactory</text><rect fill="#FEFECE" filter="url(#ffzfen7801h9m)" height="49.2188" style="stroke:#A80036;stroke-width:1.5;" width="177" x="1350.5" y="1425.375"/><text fill="#000000" font-family="sans-serif" font-size="14" lengthAdjust="spacing" textLength="75" x="1401.5" y="1446.9082">&lt;&lt;factory&gt;&gt;</text><text fill="#000000" font-family="sans-serif" font-size="14" lengthAdjust="spacing" textLength="163" x="1357.5" y="1464.5176">factory:RepositoryFactory</text><rect fill="#FEFECE" filter="url(#ffzfen7801h9m)" height="49.2188" style="stroke:#A80036;stroke-width:1.5;" width="89" x="1541.5" y="35.3906"/><text fill="#000000" font-family="sans-serif" font-size="14" lengthAdjust="spacing" textLength="75" x="1548.5" y="56.9238">&lt;&lt;builder&gt;&gt;</text><text fill="#000000" font-family="sans-serif" font-size="14" lengthAdjust="spacing" textLength="73" x="1549.5" y="74.5332">UserBuilder</text><rect fill="#FEFECE" filter="url(#ffzfen7801h9m)" height="49.2188" style="stroke:#A80036;stroke-width:1.5;" width="89" x="1541.5" y="1425.375"/><text fill="#000000" font-family="sans-serif" font-size="14" lengthAdjust="spacing" textLength="75" x="1548.5" y="1446.9082">&lt;&lt;builder&gt;&gt;</text><text fill="#000000" font-family="sans-serif" font-size="14" lengthAdjust="spacing" textLength="73" x="1549.5" y="1464.5176">UserBuilder</text><rect fill="#FEFECE" filter="url(#ffzfen7801h9m)" height="49.2188" style="stroke:#A80036;stroke-width:1.5;" width="92" x="1905" y="35.3906"/><text fill="#000000" font-family="sans-serif" font-size="14" lengthAdjust="spacing" textLength="78" x="1912" y="56.9238">&lt;&lt;domain&gt;&gt;</text><text fill="#000000" font-family="sans-serif" font-size="14" lengthAdjust="spacing" textLength="61" x="1920.5" y="74.5332">user:User</text><rect fill="#FEFECE" filter="url(#ffzfen7801h9m)" height="49.2188" style="stroke:#A80036;stroke-width:1.5;" width="92" x="1905" y="1425.375"/><text fill="#000000" font-family="sans-serif" font-size="14" lengthAdjust="spacing" textLength="78" x="1912" y="1446.9082">&lt;&lt;domain&gt;&gt;</text><text fill="#000000" font-family="sans-serif" font-size="14" lengthAdjust="spacing" textLength="61" x="1920.5" y="1464.5176">user:User</text><text fill="#000000" font-family="sans-serif" font-size="14" lengthAdjust="spacing" textLength="95" x="2039" y="68.9238">&lt;&lt;repository&gt;&gt;</text><text fill="#000000" font-family="sans-serif" font-size="14" lengthAdjust="spacing" textLength="151" x="2011" y="86.5332">:ColaboradorRepository</text><path d="M2071.5,18.3906 C2071.5,8.3906 2089.5,8.3906 2089.5,8.3906 C2089.5,8.3906 2107.5,8.3906 2107.5,18.3906 L2107.5,44.3906 C2107.5,54.3906 2089.5,54.3906 2089.5,54.3906 C2089.5,54.3906 2071.5,54.3906 2071.5,44.3906 L2071.5,18.3906 " fill="#FEFECE" filter="url(#ffzfen7801h9m)" style="stroke:#000000;stroke-width:1.5;"/><path d="M2071.5,18.3906 C2071.5,28.3906 2089.5,28.3906 2089.5,28.3906 C2089.5,28.3906 2107.5,28.3906 2107.5,18.3906 " fill="none" style="stroke:#000000;stroke-width:1.5;"/><text fill="#000000" font-family="sans-serif" font-size="14" lengthAdjust="spacing" textLength="95" x="2039" y="1439.9082">&lt;&lt;repository&gt;&gt;</text><text fill="#000000" font-family="sans-serif" font-size="14" lengthAdjust="spacing" textLength="151" x="2011" y="1457.5176">:ColaboradorRepository</text><path d="M2071.5,1470.5938 C2071.5,1460.5938 2089.5,1460.5938 2089.5,1460.5938 C2089.5,1460.5938 2107.5,1460.5938 2107.5,1470.5938 L2107.5,1496.5938 C2107.5,1506.5938 2089.5,1506.5938 2089.5,1506.5938 C2089.5,1506.5938 2071.5,1506.5938 2071.5,1496.5938 L2071.5,1470.5938 " fill="#FEFECE" filter="url(#ffzfen7801h9m)" style="stroke:#000000;stroke-width:1.5;"/><path d="M2071.5,1470.5938 C2071.5,1480.5938 2089.5,1480.5938 2089.5,1480.5938 C2089.5,1480.5938 2107.5,1480.5938 2107.5,1470.5938 " fill="none" style="stroke:#000000;stroke-width:1.5;"/><text fill="#000000" font-family="sans-serif" font-size="14" lengthAdjust="spacing" textLength="95" x="2181" y="68.9238">&lt;&lt;repository&gt;&gt;</text><text fill="#000000" font-family="sans-serif" font-size="14" lengthAdjust="spacing" textLength="101" x="2178" y="86.5332">:UserRepository</text><path d="M2213.5,18.3906 C2213.5,8.3906 2231.5,8.3906 2231.5,8.3906 C2231.5,8.3906 2249.5,8.3906 2249.5,18.3906 L2249.5,44.3906 C2249.5,54.3906 2231.5,54.3906 2231.5,54.3906 C2231.5,54.3906 2213.5,54.3906 2213.5,44.3906 L2213.5,18.3906 " fill="#FEFECE" filter="url(#ffzfen7801h9m)" style="stroke:#000000;stroke-width:1.5;"/><path d="M2213.5,18.3906 C2213.5,28.3906 2231.5,28.3906 2231.5,28.3906 C2231.5,28.3906 2249.5,28.3906 2249.5,18.3906 " fill="none" style="stroke:#000000;stroke-width:1.5;"/><text fill="#000000" font-family="sans-serif" font-size="14" lengthAdjust="spacing" textLength="95" x="2181" y="1439.9082">&lt;&lt;repository&gt;&gt;</text><text fill="#000000" font-family="sans-serif" font-size="14" lengthAdjust="spacing" textLength="101" x="2178" y="1457.5176">:UserRepository</text><path d="M2213.5,1470.5938 C2213.5,1460.5938 2231.5,1460.5938 2231.5,1460.5938 C2231.5,1460.5938 2249.5,1460.5938 2249.5,1470.5938 L2249.5,1496.5938 C2249.5,1506.5938 2231.5,1506.5938 2231.5,1506.5938 C2231.5,1506.5938 2213.5,1506.5938 2213.5,1496.5938 L2213.5,1470.5938 " fill="#FEFECE" filter="url(#ffzfen7801h9m)" style="stroke:#000000;stroke-width:1.5;"/><path d="M2213.5,1470.5938 C2213.5,1480.5938 2231.5,1480.5938 2231.5,1480.5938 C2231.5,1480.5938 2249.5,1480.5938 2249.5,1470.5938 " fill="none" style="stroke:#000000;stroke-width:1.5;"/><rect fill="#FEFECE" filter="url(#ffzfen7801h9m)" height="31.6094" style="stroke:#A80036;stroke-width:1.5;" width="158" x="2295" y="53"/><text fill="#000000" font-family="sans-serif" font-size="14" lengthAdjust="spacing" textLength="144" x="2302" y="74.5332">ctx:TransactionContext</text><rect fill="#FEFECE" filter="url(#ffzfen7801h9m)" height="31.6094" style="stroke:#A80036;stroke-width:1.5;" width="158" x="2295" y="1425.375"/><text fill="#000000" font-family="sans-serif" font-size="14" lengthAdjust="spacing" textLength="144" x="2302" y="1446.9082">ctx:TransactionContext</text><rect fill="#FEFECE" filter="url(#ffzfen7801h9m)" height="49.2188" style="stroke:#A80036;stroke-width:1.5;" width="173" x="2467" y="35.3906"/><text fill="#000000" font-family="sans-serif" font-size="14" lengthAdjust="spacing" textLength="78" x="2514.5" y="56.9238">&lt;&lt;domain&gt;&gt;</text><text fill="#000000" font-family="sans-serif" font-size="14" lengthAdjust="spacing" textLength="159" x="2474" y="74.5332">colaborador:Colaborador</text><rect fill="#FEFECE" filter="url(#ffzfen7801h9m)" height="49.2188" style="stroke:#A80036;stroke-width:1.5;" width="173" x="2467" y="1425.375"/><text fill="#000000" font-family="sans-serif" font-size="14" lengthAdjust="spacing" textLength="78" x="2514.5" y="1446.9082">&lt;&lt;domain&gt;&gt;</text><text fill="#000000" font-family="sans-serif" font-size="14" lengthAdjust="spacing" textLength="159" x="2474" y="1464.5176">colaborador:Colaborador</text><rect fill="#FEFECE" filter="url(#ffzfen7801h9m)" height="31.6094" style="stroke:#A80036;stroke-width:1.5;" width="93" x="2654" y="53"/><text fill="#000000" font-family="sans-serif" font-size="14" lengthAdjust="spacing" textLength="79" x="2661" y="74.5332">Colaborador</text><rect fill="#FEFECE" filter="url(#ffzfen7801h9m)" height="31.6094" style="stroke:#A80036;stroke-width:1.5;" width="93" x="2654" y="1425.375"/><text fill="#000000" font-family="sans-serif" font-size="14" lengthAdjust="spacing" textLength="79" x="2661" y="1446.9082">Colaborador</text><rect fill="#FEFECE" filter="url(#ffzfen7801h9m)" height="31.6094" style="stroke:#A80036;stroke-width:1.5;" width="140" x="2761" y="53"/><text fill="#000000" font-family="sans-serif" font-size="14" lengthAdjust="spacing" textLength="126" x="2768" y="74.5332">PasswordGenerator</text><rect fill="#FEFECE" filter="url(#ffzfen7801h9m)" height="31.6094" style="stroke:#A80036;stroke-width:1.5;" width="140" x="2761" y="1425.375"/><text fill="#000000" font-family="sans-serif" font-size="14" lengthAdjust="spacing" textLength="126" x="2768" y="1446.9082">PasswordGenerator</text><rect fill="#FFFFFF" filter="url(#ffzfen7801h9m)" height="1308.7656" style="stroke:#A80036;stroke-width:1.0;" width="10" x="117.5" y="99.6094"/><rect fill="#FFFFFF" filter="url(#ffzfen7801h9m)" height="515.2734" style="stroke:#A80036;stroke-width:1.0;" width="10" x="638.5" y="121.9609"/><rect fill="#FFFFFF" filter="url(#ffzfen7801h9m)" height="91.0547" style="stroke:#A80036;stroke-width:1.0;" width="10" x="638.5" y="667.5859"/><rect fill="#FFFFFF" filter="url(#ffzfen7801h9m)" height="184.4609" style="stroke:#A80036;stroke-width:1.0;" width="10" x="638.5" y="788.9922"/><rect fill="#FFFFFF" filter="url(#ffzfen7801h9m)" height="404.5703" style="stroke:#A80036;stroke-width:1.0;" width="10" x="638.5" y="1003.8047"/><rect fill="#FFFFFF" filter="url(#ffzfen7801h9m)" height="393.8672" style="stroke:#A80036;stroke-width:1.0;" width="10" x="1053.5" y="152.3125"/><rect fill="#FFFFFF" filter="url(#ffzfen7801h9m)" height="30.3516" style="stroke:#A80036;stroke-width:1.0;" width="10" x="1053.5" y="576.5313"/><rect fill="#FFFFFF" filter="url(#ffzfen7801h9m)" height="30.3516" style="stroke:#A80036;stroke-width:1.0;" width="10" x="1053.5" y="697.9375"/><rect fill="#FFFFFF" filter="url(#ffzfen7801h9m)" height="46.7031" style="stroke:#A80036;stroke-width:1.0;" width="10" x="1053.5" y="835.6953"/><rect fill="#FFFFFF" filter="url(#ffzfen7801h9m)" height="30.3516" style="stroke:#A80036;stroke-width:1.0;" width="10" x="1053.5" y="912.75"/><rect fill="#FFFFFF" filter="url(#ffzfen7801h9m)" height="374.2188" style="stroke:#A80036;stroke-width:1.0;" width="10" x="1053.5" y="1034.1563"/><rect fill="#FFFFFF" filter="url(#ffzfen7801h9m)" height="60.7031" style="stroke:#A80036;stroke-width:1.0;" width="10" x="1243" y="182.6641"/><rect fill="#FFFFFF" filter="url(#ffzfen7801h9m)" height="121.0547" style="stroke:#A80036;stroke-width:1.0;" width="10" x="1243" y="273.7188"/><rect fill="#FFFFFF" filter="url(#ffzfen7801h9m)" height="121.0547" style="stroke:#A80036;stroke-width:1.0;" width="10" x="1243" y="425.125"/><rect fill="#FFFFFF" filter="url(#ffzfen7801h9m)" height="60.3516" style="stroke:#A80036;stroke-width:1.0;" width="10" x="1436" y="304.0703"/><rect fill="#FFFFFF" filter="url(#ffzfen7801h9m)" height="60.3516" style="stroke:#A80036;stroke-width:1.0;" width="10" x="1436" y="455.4766"/><rect fill="#FFFFFF" filter="url(#ffzfen7801h9m)" height="91.0547" style="stroke:#A80036;stroke-width:1.0;" width="10" x="1583" y="1165.5625"/><rect fill="#FFFFFF" filter="url(#ffzfen7801h9m)" height="30" style="stroke:#A80036;stroke-width:1.0;" width="10" x="2084.5" y="485.8281"/><rect fill="#FFFFFF" filter="url(#ffzfen7801h9m)" height="30" style="stroke:#A80036;stroke-width:1.0;" width="10" x="2226.5" y="334.4219"/><polygon fill="#A80036" points="626.5,117.9609,636.5,121.9609,626.5,125.9609,630.5,121.9609" style="stroke:#A80036;stroke-width:1.0;"/><line style="stroke:#A80036;stroke-width:1.0;" x1="127.5" x2="632.5" y1="121.9609" y2="121.9609"/><text fill="#000000" font-family="sans-serif" font-size="13" font-weight="bold" lengthAdjust="spacing" textLength="7" x="134.5" y="117.1045">1</text><text fill="#000000" font-family="sans-serif" font-size="13" lengthAdjust="spacing" textLength="167" x="145.5" y="117.1045">Especificar novo Colaborador</text><polygon fill="#A80036" points="1041.5,148.3125,1051.5,152.3125,1041.5,156.3125,1045.5,152.3125" style="stroke:#A80036;stroke-width:1.0;"/><line style="stroke:#A80036;stroke-width:1.0;" x1="648.5" x2="1047.5" y1="152.3125" y2="152.3125"/><text fill="#000000" font-family="sans-serif" font-size="13" font-weight="bold" lengthAdjust="spacing" textLength="7" x="655.5" y="147.4561">2</text><text fill="#000000" font-family="sans-serif" font-size="13" lengthAdjust="spacing" textLength="36" x="666.5" y="147.4561">create</text><polygon fill="#A80036" points="1231,178.6641,1241,182.6641,1231,186.6641,1235,182.6641" style="stroke:#A80036;stroke-width:1.0;"/><line style="stroke:#A80036;stroke-width:1.0;" x1="1063.5" x2="1237" y1="182.6641" y2="182.6641"/><text fill="#000000" font-family="sans-serif" font-size="13" font-weight="bold" lengthAdjust="spacing" textLength="7" x="1070.5" y="177.8076">3</text><text fill="#000000" font-family="sans-serif" font-size="13" lengthAdjust="spacing" textLength="75" x="1081.5" y="177.8076">repositories()</text><polygon fill="#A80036" points="1429,209.0156,1439,213.0156,1429,217.0156,1433,213.0156" style="stroke:#A80036;stroke-width:1.0;"/><line style="stroke:#A80036;stroke-width:1.0;" x1="1253" x2="1435" y1="213.0156" y2="213.0156"/><text fill="#000000" font-family="sans-serif" font-size="13" font-weight="bold" lengthAdjust="spacing" textLength="7" x="1260" y="208.1592">4</text><text fill="#000000" font-family="sans-serif" font-size="13" lengthAdjust="spacing" textLength="153" x="1271" y="208.1592">newTransactionalContext()</text><polygon fill="#A80036" points="1074.5,239.3672,1064.5,243.3672,1074.5,247.3672,1070.5,243.3672" style="stroke:#A80036;stroke-width:1.0;"/><line style="stroke:#A80036;stroke-width:1.0;" x1="1068.5" x2="1247" y1="243.3672" y2="243.3672"/><text fill="#000000" font-family="sans-serif" font-size="13" font-weight="bold" lengthAdjust="spacing" textLength="7" x="1080.5" y="238.5107">5</text><text fill="#000000" font-family="sans-serif" font-size="13" lengthAdjust="spacing" textLength="18" x="1091.5" y="238.5107">ctx</text><polygon fill="#A80036" points="1231,269.7188,1241,273.7188,1231,277.7188,1235,273.7188" style="stroke:#A80036;stroke-width:1.0;"/><line style="stroke:#A80036;stroke-width:1.0;" x1="1063.5" x2="1237" y1="273.7188" y2="273.7188"/><text fill="#000000" font-family="sans-serif" font-size="13" font-weight="bold" lengthAdjust="spacing" textLength="7" x="1070.5" y="268.8623">6</text><text fill="#000000" font-family="sans-serif" font-size="13" lengthAdjust="spacing" textLength="75" x="1081.5" y="268.8623">repositories()</text><polygon fill="#A80036" points="1424,300.0703,1434,304.0703,1424,308.0703,1428,304.0703" style="stroke:#A80036;stroke-width:1.0;"/><line style="stroke:#A80036;stroke-width:1.0;" x1="1253" x2="1430" y1="304.0703" y2="304.0703"/><text fill="#000000" font-family="sans-serif" font-size="13" font-weight="bold" lengthAdjust="spacing" textLength="7" x="1260" y="299.2139">7</text><text fill="#000000" font-family="sans-serif" font-size="13" lengthAdjust="spacing" textLength="44" x="1271" y="299.2139">create()</text><polygon fill="#A80036" points="2214.5,330.4219,2224.5,334.4219,2214.5,338.4219,2218.5,334.4219" style="stroke:#A80036;stroke-width:1.0;"/><line style="stroke:#A80036;stroke-width:1.0;" x1="1446" x2="2220.5" y1="334.4219" y2="334.4219"/><text fill="#000000" font-family="sans-serif" font-size="13" font-weight="bold" lengthAdjust="spacing" textLength="7" x="1453" y="329.5654">8</text><text fill="#000000" font-family="sans-serif" font-size="13" lengthAdjust="spacing" textLength="62" x="1464" y="329.5654">create(ctx)</text><polygon fill="#A80036" points="1074.5,390.7734,1064.5,394.7734,1074.5,398.7734,1070.5,394.7734" style="stroke:#A80036;stroke-width:1.0;"/><line style="stroke:#A80036;stroke-width:1.0;stroke-dasharray:2.0,2.0;" x1="1068.5" x2="1247" y1="394.7734" y2="394.7734"/><text fill="#000000" font-family="sans-serif" font-size="13" font-weight="bold" lengthAdjust="spacing" textLength="7" x="1080.5" y="389.917">9</text><text fill="#000000" font-family="sans-serif" font-size="13" lengthAdjust="spacing" textLength="87" x="1091.5" y="389.917">userRepository</text><polygon fill="#A80036" points="1231,421.125,1241,425.125,1231,429.125,1235,425.125" style="stroke:#A80036;stroke-width:1.0;"/><line style="stroke:#A80036;stroke-width:1.0;" x1="1063.5" x2="1237" y1="425.125" y2="425.125"/><text fill="#000000" font-family="sans-serif" font-size="13" font-weight="bold" lengthAdjust="spacing" textLength="14" x="1070.5" y="420.2686">10</text><text fill="#000000" font-family="sans-serif" font-size="13" lengthAdjust="spacing" textLength="75" x="1088.5" y="420.2686">repositories()</text><polygon fill="#A80036" points="1424,451.4766,1434,455.4766,1424,459.4766,1428,455.4766" style="stroke:#A80036;stroke-width:1.0;"/><line style="stroke:#A80036;stroke-width:1.0;" x1="1253" x2="1430" y1="455.4766" y2="455.4766"/><text fill="#000000" font-family="sans-serif" font-size="13" font-weight="bold" lengthAdjust="spacing" textLength="14" x="1260" y="450.6201">11</text><text fill="#000000" font-family="sans-serif" font-size="13" lengthAdjust="spacing" textLength="48" x="1278" y="450.6201">create( )</text><polygon fill="#A80036" points="2072.5,481.8281,2082.5,485.8281,2072.5,489.8281,2076.5,485.8281" style="stroke:#A80036;stroke-width:1.0;"/><line style="stroke:#A80036;stroke-width:1.0;" x1="1446" x2="2078.5" y1="485.8281" y2="485.8281"/><text fill="#000000" font-family="sans-serif" font-size="13" font-weight="bold" lengthAdjust="spacing" textLength="14" x="1453" y="480.9717">12</text><text fill="#000000" font-family="sans-serif" font-size="13" lengthAdjust="spacing" textLength="62" x="1471" y="480.9717">create(ctx)</text><polygon fill="#A80036" points="1069.5,542.1797,1059.5,546.1797,1069.5,550.1797,1065.5,546.1797" style="stroke:#A80036;stroke-width:1.0;"/><line style="stroke:#A80036;stroke-width:1.0;stroke-dasharray:2.0,2.0;" x1="1063.5" x2="1247" y1="546.1797" y2="546.1797"/><text fill="#000000" font-family="sans-serif" font-size="13" font-weight="bold" lengthAdjust="spacing" textLength="14" x="1075.5" y="541.3232">13</text><text fill="#000000" font-family="sans-serif" font-size="13" lengthAdjust="spacing" textLength="132" x="1093.5" y="541.3232">colaboradorRepositorio</text><polygon fill="#A80036" points="1041.5,572.5313,1051.5,576.5313,1041.5,580.5313,1045.5,576.5313" style="stroke:#A80036;stroke-width:1.0;"/><line style="stroke:#A80036;stroke-width:1.0;" x1="648.5" x2="1047.5" y1="576.5313" y2="576.5313"/><text fill="#000000" font-family="sans-serif" font-size="13" font-weight="bold" lengthAdjust="spacing" textLength="14" x="655.5" y="571.6748">14</text><text fill="#000000" font-family="sans-serif" font-size="13" lengthAdjust="spacing" textLength="198" x="673.5" y="571.6748">colaboradores=getColaboradores()</text><polygon fill="#A80036" points="2077.5,602.8828,2087.5,606.8828,2077.5,610.8828,2081.5,606.8828" style="stroke:#A80036;stroke-width:1.0;"/><line style="stroke:#A80036;stroke-width:1.0;" x1="1058.5" x2="2083.5" y1="606.8828" y2="606.8828"/><text fill="#000000" font-family="sans-serif" font-size="13" font-weight="bold" lengthAdjust="spacing" textLength="14" x="1065.5" y="602.0264">15</text><text fill="#000000" font-family="sans-serif" font-size="13" lengthAdjust="spacing" textLength="109" x="1083.5" y="602.0264">getColaboradores()</text><polygon fill="#A80036" points="138.5,633.2344,128.5,637.2344,138.5,641.2344,134.5,637.2344" style="stroke:#A80036;stroke-width:1.0;"/><line style="stroke:#A80036;stroke-width:1.0;stroke-dasharray:2.0,2.0;" x1="132.5" x2="642.5" y1="637.2344" y2="637.2344"/><text fill="#000000" font-family="sans-serif" font-size="13" font-weight="bold" lengthAdjust="spacing" textLength="14" x="144.5" y="632.3779">16</text><text fill="#000000" font-family="sans-serif" font-size="13" lengthAdjust="spacing" textLength="210" x="162.5" y="632.3779">Apresenta a lista dos Colaboradores</text><polygon fill="#A80036" points="626.5,663.5859,636.5,667.5859,626.5,671.5859,630.5,667.5859" style="stroke:#A80036;stroke-width:1.0;"/><line style="stroke:#A80036;stroke-width:1.0;" x1="127.5" x2="632.5" y1="667.5859" y2="667.5859"/><text fill="#000000" font-family="sans-serif" font-size="13" font-weight="bold" lengthAdjust="spacing" textLength="14" x="134.5" y="662.7295">17</text><text fill="#000000" font-family="sans-serif" font-size="13" lengthAdjust="spacing" textLength="203" x="152.5" y="662.7295">Escolhe o Colaborador responsável</text><polygon fill="#A80036" points="1041.5,693.9375,1051.5,697.9375,1041.5,701.9375,1045.5,697.9375" style="stroke:#A80036;stroke-width:1.0;"/><line style="stroke:#A80036;stroke-width:1.0;" x1="648.5" x2="1047.5" y1="697.9375" y2="697.9375"/><text fill="#000000" font-family="sans-serif" font-size="13" font-weight="bold" lengthAdjust="spacing" textLength="14" x="655.5" y="693.0811">18</text><text fill="#000000" font-family="sans-serif" font-size="13" lengthAdjust="spacing" textLength="207" x="673.5" y="693.0811">responsavel=getColaboradorById(id)</text><polygon fill="#A80036" points="2077.5,724.2891,2087.5,728.2891,2077.5,732.2891,2081.5,728.2891" style="stroke:#A80036;stroke-width:1.0;"/><line style="stroke:#A80036;stroke-width:1.0;" x1="1058.5" x2="2083.5" y1="728.2891" y2="728.2891"/><text fill="#000000" font-family="sans-serif" font-size="13" font-weight="bold" lengthAdjust="spacing" textLength="14" x="1065.5" y="723.4326">19</text><text fill="#000000" font-family="sans-serif" font-size="13" lengthAdjust="spacing" textLength="207" x="1083.5" y="723.4326">responsavel=getColaboradorById(id)</text><polygon fill="#A80036" points="138.5,754.6406,128.5,758.6406,138.5,762.6406,134.5,758.6406" style="stroke:#A80036;stroke-width:1.0;"/><line style="stroke:#A80036;stroke-width:1.0;stroke-dasharray:2.0,2.0;" x1="132.5" x2="642.5" y1="758.6406" y2="758.6406"/><text fill="#000000" font-family="sans-serif" font-size="13" font-weight="bold" lengthAdjust="spacing" textLength="14" x="144.5" y="753.7842">20</text><text fill="#000000" font-family="sans-serif" font-size="13" lengthAdjust="spacing" textLength="469" x="162.5" y="753.7842">Apresenta as Funcoes Disponiveis e solicita as informações do novo Colaborador</text><polygon fill="#A80036" points="626.5,784.9922,636.5,788.9922,626.5,792.9922,630.5,788.9922" style="stroke:#A80036;stroke-width:1.0;"/><line style="stroke:#A80036;stroke-width:1.0;" x1="127.5" x2="632.5" y1="788.9922" y2="788.9922"/><text fill="#000000" font-family="sans-serif" font-size="13" font-weight="bold" lengthAdjust="spacing" textLength="14" x="134.5" y="784.1357">21</text><text fill="#000000" font-family="sans-serif" font-size="13" lengthAdjust="spacing" textLength="288" x="152.5" y="784.1357">Introduz as informações sobre o novo Colaborador</text><polygon fill="#A80036" points="1041.5,831.6953,1051.5,835.6953,1041.5,839.6953,1045.5,835.6953" style="stroke:#A80036;stroke-width:1.0;"/><line style="stroke:#A80036;stroke-width:1.0;" x1="648.5" x2="1047.5" y1="835.6953" y2="835.6953"/><text fill="#000000" font-family="sans-serif" font-size="13" font-weight="bold" lengthAdjust="spacing" textLength="14" x="655.5" y="822.6631">22</text><text fill="#000000" font-family="sans-serif" font-size="13" lengthAdjust="spacing" textLength="368" x="673.5" y="814.4873">colaborador = novoColaborador(nomeCompleto,localResidencia,</text><text fill="#000000" font-family="sans-serif" font-size="13" lengthAdjust="spacing" textLength="323" x="673.5" y="830.8389">funcao,telemovel,email,dataNascimento,nomemcomum)</text><polygon fill="#A80036" points="2543.5,878.3984,2553.5,882.3984,2543.5,886.3984,2547.5,882.3984" style="stroke:#A80036;stroke-width:1.0;"/><line style="stroke:#A80036;stroke-width:1.0;" x1="1058.5" x2="2549.5" y1="882.3984" y2="882.3984"/><text fill="#000000" font-family="sans-serif" font-size="13" font-weight="bold" lengthAdjust="spacing" textLength="14" x="1065.5" y="869.3662">23</text><text fill="#000000" font-family="sans-serif" font-size="13" lengthAdjust="spacing" textLength="268" x="1083.5" y="861.1904">create(nomeCompleto,localResidencia,funcao,</text><text fill="#000000" font-family="sans-serif" font-size="13" lengthAdjust="spacing" textLength="281" x="1083.5" y="877.542">telemovel,email,dataNascimento,nomemcomum)</text><polygon fill="#A80036" points="1041.5,908.75,1051.5,912.75,1041.5,916.75,1045.5,912.75" style="stroke:#A80036;stroke-width:1.0;"/><line style="stroke:#A80036;stroke-width:1.0;" x1="648.5" x2="1047.5" y1="912.75" y2="912.75"/><text fill="#000000" font-family="sans-serif" font-size="13" font-weight="bold" lengthAdjust="spacing" textLength="14" x="655.5" y="907.8936">24</text><text fill="#000000" font-family="sans-serif" font-size="13" lengthAdjust="spacing" textLength="137" x="673.5" y="907.8936">funcoes = getFuncoes()</text><polygon fill="#A80036" points="2690.5,939.1016,2700.5,943.1016,2690.5,947.1016,2694.5,943.1016" style="stroke:#A80036;stroke-width:1.0;"/><line style="stroke:#A80036;stroke-width:1.0;" x1="1058.5" x2="2696.5" y1="943.1016" y2="943.1016"/><text fill="#000000" font-family="sans-serif" font-size="13" font-weight="bold" lengthAdjust="spacing" textLength="14" x="1065.5" y="938.2451">25</text><text fill="#000000" font-family="sans-serif" font-size="13" lengthAdjust="spacing" textLength="76" x="1083.5" y="938.2451">getFuncoes()</text><polygon fill="#A80036" points="138.5,969.4531,128.5,973.4531,138.5,977.4531,134.5,973.4531" style="stroke:#A80036;stroke-width:1.0;"/><line style="stroke:#A80036;stroke-width:1.0;stroke-dasharray:2.0,2.0;" x1="132.5" x2="642.5" y1="973.4531" y2="973.4531"/><text fill="#000000" font-family="sans-serif" font-size="13" font-weight="bold" lengthAdjust="spacing" textLength="14" x="144.5" y="968.5967">26</text><text fill="#000000" font-family="sans-serif" font-size="13" lengthAdjust="spacing" textLength="254" x="162.5" y="968.5967">Apresenta a informação e pede confirmação</text><polygon fill="#A80036" points="626.5,999.8047,636.5,1003.8047,626.5,1007.8047,630.5,1003.8047" style="stroke:#A80036;stroke-width:1.0;"/><line style="stroke:#A80036;stroke-width:1.0;" x1="127.5" x2="632.5" y1="1003.8047" y2="1003.8047"/><text fill="#000000" font-family="sans-serif" font-size="13" font-weight="bold" lengthAdjust="spacing" textLength="14" x="134.5" y="998.9482">27</text><text fill="#000000" font-family="sans-serif" font-size="13" lengthAdjust="spacing" textLength="51" x="152.5" y="998.9482">Confirma</text><polygon fill="#A80036" points="1041.5,1030.1563,1051.5,1034.1563,1041.5,1038.1563,1045.5,1034.1563" style="stroke:#A80036;stroke-width:1.0;"/><line style="stroke:#A80036;stroke-width:1.0;" x1="648.5" x2="1047.5" y1="1034.1563" y2="1034.1563"/><text fill="#000000" font-family="sans-serif" font-size="13" font-weight="bold" lengthAdjust="spacing" textLength="14" x="655.5" y="1029.2998">28</text><text fill="#000000" font-family="sans-serif" font-size="13" lengthAdjust="spacing" textLength="120" x="673.5" y="1029.2998">registarColaborador()</text><polygon fill="#A80036" points="2821,1060.5078,2831,1064.5078,2821,1068.5078,2825,1064.5078" style="stroke:#A80036;stroke-width:1.0;"/><line style="stroke:#A80036;stroke-width:1.0;" x1="1063.5" x2="2827" y1="1064.5078" y2="1064.5078"/><text fill="#000000" font-family="sans-serif" font-size="13" font-weight="bold" lengthAdjust="spacing" textLength="14" x="1070.5" y="1059.6514">29</text><text fill="#000000" font-family="sans-serif" font-size="13" lengthAdjust="spacing" textLength="157" x="1088.5" y="1059.6514">password=gerarPassword()</text><polygon fill="#A80036" points="1576,1090.8594,1586,1094.8594,1576,1098.8594,1580,1094.8594" style="stroke:#A80036;stroke-width:1.0;"/><line style="stroke:#A80036;stroke-width:1.0;" x1="1063.5" x2="1582" y1="1094.8594" y2="1094.8594"/><text fill="#000000" font-family="sans-serif" font-size="13" font-weight="bold" lengthAdjust="spacing" textLength="14" x="1070.5" y="1090.0029">30</text><text fill="#000000" font-family="sans-serif" font-size="13" lengthAdjust="spacing" textLength="36" x="1088.5" y="1090.0029">create</text><polygon fill="#A80036" points="1576,1126.2109,1586,1130.2109,1576,1134.2109,1580,1130.2109" style="stroke:#A80036;stroke-width:1.0;"/><line style="stroke:#A80036;stroke-width:1.0;" x1="1063.5" x2="1582" y1="1130.2109" y2="1130.2109"/><text fill="#000000" font-family="sans-serif" font-size="13" font-weight="bold" lengthAdjust="spacing" textLength="14" x="1070.5" y="1125.3545">31</text><text fill="#000000" font-family="sans-serif" font-size="13" lengthAdjust="spacing" textLength="142" x="1088.5" y="1125.3545">setUsername(username)</text><path d="M1593,1107.8594 L1593,1133.8594 L1762,1133.8594 L1762,1117.8594 L1752,1107.8594 L1593,1107.8594 " fill="#FBFB77" filter="url(#ffzfen7801h9m)" style="stroke:#A80036;stroke-width:1.0;"/><path d="M1752,1107.8594 L1752,1117.8594 L1762,1117.8594 L1752,1107.8594 " fill="#FBFB77" style="stroke:#A80036;stroke-width:1.0;"/><text fill="#000000" font-family="sans-serif" font-size="13" lengthAdjust="spacing" textLength="148" x="1599" y="1126.3545">e set aos outros atributos</text><polygon fill="#A80036" points="1571,1161.5625,1581,1165.5625,1571,1169.5625,1575,1165.5625" style="stroke:#A80036;stroke-width:1.0;"/><line style="stroke:#A80036;stroke-width:1.0;" x1="1063.5" x2="1577" y1="1165.5625" y2="1165.5625"/><text fill="#000000" font-family="sans-serif" font-size="13" font-weight="bold" lengthAdjust="spacing" textLength="14" x="1070.5" y="1160.7061">32</text><text fill="#000000" font-family="sans-serif" font-size="13" lengthAdjust="spacing" textLength="71" x="1088.5" y="1160.7061">createUser()</text><polygon fill="#A80036" points="1941,1191.9141,1951,1195.9141,1941,1199.9141,1945,1195.9141" style="stroke:#A80036;stroke-width:1.0;"/><line style="stroke:#A80036;stroke-width:1.0;" x1="1593" x2="1947" y1="1195.9141" y2="1195.9141"/><text fill="#000000" font-family="sans-serif" font-size="13" font-weight="bold" lengthAdjust="spacing" textLength="14" x="1600" y="1191.0576">33</text><text fill="#000000" font-family="sans-serif" font-size="13" lengthAdjust="spacing" textLength="318" x="1618" y="1191.0576">create(username,password,nomeCompleto,email,roles)</text><polygon fill="#A80036" points="1604,1222.2656,1594,1226.2656,1604,1230.2656,1600,1226.2656" style="stroke:#A80036;stroke-width:1.0;"/><line style="stroke:#A80036;stroke-width:1.0;stroke-dasharray:2.0,2.0;" x1="1598" x2="1952" y1="1226.2656" y2="1226.2656"/><text fill="#000000" font-family="sans-serif" font-size="13" font-weight="bold" lengthAdjust="spacing" textLength="14" x="1610" y="1221.4092">34</text><text fill="#000000" font-family="sans-serif" font-size="13" lengthAdjust="spacing" textLength="25" x="1628" y="1221.4092">user</text><polygon fill="#A80036" points="1074.5,1252.6172,1064.5,1256.6172,1074.5,1260.6172,1070.5,1256.6172" style="stroke:#A80036;stroke-width:1.0;"/><line style="stroke:#A80036;stroke-width:1.0;stroke-dasharray:2.0,2.0;" x1="1068.5" x2="1587" y1="1256.6172" y2="1256.6172"/><text fill="#000000" font-family="sans-serif" font-size="13" font-weight="bold" lengthAdjust="spacing" textLength="14" x="1080.5" y="1251.7607">35</text><text fill="#000000" font-family="sans-serif" font-size="13" lengthAdjust="spacing" textLength="25" x="1098.5" y="1251.7607">user</text><polygon fill="#A80036" points="2364,1282.9688,2374,1286.9688,2364,1290.9688,2368,1286.9688" style="stroke:#A80036;stroke-width:1.0;"/><line style="stroke:#A80036;stroke-width:1.0;" x1="1063.5" x2="2370" y1="1286.9688" y2="1286.9688"/><text fill="#000000" font-family="sans-serif" font-size="13" font-weight="bold" lengthAdjust="spacing" textLength="14" x="1070.5" y="1282.1123">36</text><text fill="#000000" font-family="sans-serif" font-size="13" lengthAdjust="spacing" textLength="106" x="1088.5" y="1282.1123">beginTransaction()</text><polygon fill="#A80036" points="2077.5,1313.3203,2087.5,1317.3203,2077.5,1321.3203,2081.5,1317.3203" style="stroke:#A80036;stroke-width:1.0;"/><line style="stroke:#A80036;stroke-width:1.0;" x1="1063.5" x2="2083.5" y1="1317.3203" y2="1317.3203"/><text fill="#000000" font-family="sans-serif" font-size="13" font-weight="bold" lengthAdjust="spacing" textLength="14" x="1070.5" y="1312.4639">37</text><text fill="#000000" font-family="sans-serif" font-size="13" lengthAdjust="spacing" textLength="101" x="1088.5" y="1312.4639">save(colaborador)</text><polygon fill="#A80036" points="2219.5,1343.6719,2229.5,1347.6719,2219.5,1351.6719,2223.5,1347.6719" style="stroke:#A80036;stroke-width:1.0;"/><line style="stroke:#A80036;stroke-width:1.0;" x1="1063.5" x2="2225.5" y1="1347.6719" y2="1347.6719"/><text fill="#000000" font-family="sans-serif" font-size="13" font-weight="bold" lengthAdjust="spacing" textLength="14" x="1070.5" y="1342.8154">38</text><text fill="#000000" font-family="sans-serif" font-size="13" lengthAdjust="spacing" textLength="59" x="1088.5" y="1342.8154">save(user)</text><polygon fill="#A80036" points="2364,1374.0234,2374,1378.0234,2364,1382.0234,2368,1378.0234" style="stroke:#A80036;stroke-width:1.0;"/><line style="stroke:#A80036;stroke-width:1.0;" x1="1063.5" x2="2370" y1="1378.0234" y2="1378.0234"/><text fill="#000000" font-family="sans-serif" font-size="13" font-weight="bold" lengthAdjust="spacing" textLength="14" x="1070.5" y="1373.167">39</text><text fill="#000000" font-family="sans-serif" font-size="13" lengthAdjust="spacing" textLength="51" x="1088.5" y="1373.167">commit()</text><polygon fill="#A80036" points="133.5,1404.375,123.5,1408.375,133.5,1412.375,129.5,1408.375" style="stroke:#A80036;stroke-width:1.0;"/><line style="stroke:#A80036;stroke-width:1.0;stroke-dasharray:2.0,2.0;" x1="127.5" x2="642.5" y1="1408.375" y2="1408.375"/><text fill="#000000" font-family="sans-serif" font-size="13" font-weight="bold" lengthAdjust="spacing" textLength="14" x="139.5" y="1403.5186">40</text><text fill="#000000" font-family="sans-serif" font-size="13" lengthAdjust="spacing" textLength="214" x="157.5" y="1403.5186">Fim da especificação do Colaborador</text><!--MD5=[0e99a0fb7813f63ae5979d8094cbaead]
@startuml
autonumber

actor "Responsável de Recursos Humanos" as ACT
participant ":EspecificarColabadorUI" as UI
participant ":EspecificarColabadorController" as CONTROLLER
participant "<<persistence>>\nPersistenceContext" as PERS
participant "<<factory>>\nfactory:RepositoryFactory" as FAC
participant "<<builder>>\nUserBuilder" as B
participant "<<domain>>\nuser:User" AS C
database "<<repository>>\n:ColaboradorRepository" as DB2
database "<<repository>>\n:UserRepository" as DB
participant "ctx:TransactionContext" as ctx


activate ACT
ACT -> UI : Especificar novo Colaborador
activate UI
            UI -> CONTROLLER: create
            activate CONTROLLER

                 CONTROLLER -> PERS: repositories()
                                activate PERS
                                PERS ->FAC: newTransactionalContext()
                                PERS->CONTROLLER: ctx
                                deactivate PERS


                                CONTROLLER -> PERS: repositories()
                                activate PERS
                                PERS ->FAC: create()
                                activate FAC
                                FAC->DB : create(ctx)
                                activate DB
                                deactivate FAC
                                deactivate DB
                                PERS- ->CONTROLLER: userRepository
                                deactivate PERS

                CONTROLLER -> PERS: repositories()
                activate PERS
                PERS ->FAC: create( )
                activate FAC
                FAC->DB2 : create(ctx)
                activate DB2
                deactivate FAC
                deactivate DB2
                PERS- ->CONTROLLER: colaboradorRepositorio
                deactivate PERS

            deactivate CONTROLLER

            UI->CONTROLLER:  colaboradores=getColaboradores()
            activate CONTROLLER
            CONTROLLER->DB2:getColaboradores()
            deactivate CONTROLLER

            UI- ->ACT: Apresenta a lista dos Colaboradores
            deactivate UI

            ACT->UI:Escolhe o Colaborador responsável
            activate UI
            UI->CONTROLLER: responsavel=getColaboradorById(id)
            activate CONTROLLER
             CONTROLLER->DB2: responsavel=getColaboradorById(id)
            deactivate CONTROLLER
            UI- ->ACT: Apresenta as Funcoes Disponiveis e solicita as informações do novo Colaborador
            deactivate UI

            ACT->UI:   Introduz as informações sobre o novo Colaborador
            activate UI
              UI -> CONTROLLER : colaborador = novoColaborador(nomeCompleto,localResidencia,\nfuncao,telemovel,email,dataNascimento,nomemcomum)
               activate CONTROLLER
                    CONTROLLER -> "<<domain>>\ncolaborador:Colaborador" : create(nomeCompleto,localResidencia,funcao,\ntelemovel,email,dataNascimento,nomemcomum)

                deactivate CONTROLLER
                 UI -> CONTROLLER : funcoes = getFuncoes()
                activate CONTROLLER
                CONTROLLER -> "Colaborador" : getFuncoes()
                deactivate CONTROLLER

             UI - -> ACT: Apresenta a informação e pede confirmação

             deactivate UI

            ACT -> UI:  Confirma

            activate UI
           UI->CONTROLLER:registarColaborador()
           activate CONTROLLER
             CONTROLLER -> "PasswordGenerator":password=gerarPassword()
             CONTROLLER->B : create
                      CONTROLLER->B : setUsername(username)
                      note right : e set aos outros atributos
                      CONTROLLER->B: createUser()
                      activate B
                      B->C:create(username,password,nomeCompleto,email,roles)
                      C- ->B:user
                      B- ->CONTROLLER: user
                      deactivate B

         CONTROLLER->ctx:beginTransaction()
         CONTROLLER->DB2:save(colaborador)
         CONTROLLER->DB:save(user)
         CONTROLLER->ctx:commit()
           UI- ->ACT: Fim da especificação do Colaborador
           deactivate CONTROLLER
           deactivate UI
deactivate UI

deactivate ACT

@enduml

PlantUML version 1.2021.5(Sun Apr 25 12:20:28 BST 2021)
(GPL source distribution)
Java Runtime: OpenJDK Runtime Environment
JVM: Dynamic Code Evolution 64-Bit Server VM
Default Encoding: Cp1252
Language: pt
Country: PT
--></g></svg>