<?xml version="1.0" encoding="UTF-8" standalone="no"?><svg xmlns="http://www.w3.org/2000/svg" xmlns:xlink="http://www.w3.org/1999/xlink" contentScriptType="application/ecmascript" contentStyleType="text/css" height="902px" preserveAspectRatio="none" style="width:744px;height:902px;" version="1.1" viewBox="0 0 744 902" width="744px" zoomAndPan="magnify"><defs><filter height="300%" id="f1tdg95m5c9opo" width="300%" x="-1" y="-1"><feGaussianBlur result="blurOut" stdDeviation="2.0"/><feColorMatrix in="blurOut" result="blurOut2" type="matrix" values="0 0 0 0 0 0 0 0 0 0 0 0 0 0 0 0 0 0 .4 0"/><feOffset dx="4.0" dy="4.0" in="blurOut2" result="blurOut3"/><feBlend in="SourceGraphic" in2="blurOut3" mode="normal"/></filter></defs><g><!--MD5=[7edf8479ad866c43c0130f19b028396c]
class EspecificarServicoUI--><rect codeLine="2" fill="#FEFECE" filter="url(#f1tdg95m5c9opo)" height="48" id="EspecificarServicoUI" style="stroke:#A80036;stroke-width:1.5;" width="145" x="308.5" y="7"/><ellipse cx="323.5" cy="23" fill="#ADD1B2" rx="11" ry="11" style="stroke:#A80036;stroke-width:1.0;"/><path d="M325.5,19.5 Q325.7031,19 325.9375,18.75 Q326.1719,18.5 326.4375,18.5 Q326.9063,18.5 327.2031,18.7813 Q327.5,19.0625 327.5,19.7188 L327.5,21.2813 Q327.5,21.9375 327.2188,22.2188 Q326.9375,22.5 326.5,22.5 Q326.1094,22.5 325.8594,22.3281 Q325.6094,22.1563 325.5,21.7031 Q325.4531,21.3906 325.2813,21.2188 Q324.9688,20.8906 324.4063,20.7031 Q323.8438,20.5 323.2813,20.5 Q322.5781,20.5 321.9844,20.7813 Q321.4063,21.0625 320.9531,21.6875 Q320.5,22.3125 320.5,23.1719 L320.5,24.0938 Q320.5,25.125 321.3438,25.8125 Q322.1875,26.5 323.6875,26.5 Q324.5781,26.5 325.2031,26.2969 Q325.5625,26.1875 325.9688,25.8281 Q326.2344,25.625 326.375,25.5625 Q326.5156,25.5 326.6875,25.5 Q327.0156,25.5 327.25,25.7656 Q327.5,26.0156 327.5,26.375 Q327.5,26.7188 327.1563,27.125 Q326.6563,27.7188 325.8594,28.0469 Q324.8125,28.5 323.5313,28.5 Q322.0313,28.5 320.8281,27.9063 Q319.8594,27.4375 319.1719,26.4219 Q318.5,25.4063 318.5,24.2031 L318.5,23.1094 Q318.5,21.8594 319.0938,20.7656 Q319.7031,19.6719 320.75,19.0938 Q321.8125,18.5 323,18.5 Q323.7188,18.5 324.3438,18.75 Q324.9688,19 325.5,19.5 Z " fill="#000000"/><text fill="#000000" font-family="sans-serif" font-size="12" lengthAdjust="spacing" textLength="113" x="337.5" y="27.9102">EspecificarServicoUI</text><line style="stroke:#A80036;stroke-width:1.5;" x1="309.5" x2="452.5" y1="39" y2="39"/><line style="stroke:#A80036;stroke-width:1.5;" x1="309.5" x2="452.5" y1="47" y2="47"/><!--MD5=[0d4e5460865fab64524af805768c65c5]
class EspecificarServicoController--><rect codeLine="5" fill="#FEFECE" filter="url(#f1tdg95m5c9opo)" height="144.8516" id="EspecificarServicoController" style="stroke:#A80036;stroke-width:1.5;" width="319" x="221.5" y="115"/><ellipse cx="299.25" cy="131" fill="#ADD1B2" rx="11" ry="11" style="stroke:#A80036;stroke-width:1.0;"/><path d="M301.25,127.5 Q301.4531,127 301.6875,126.75 Q301.9219,126.5 302.1875,126.5 Q302.6563,126.5 302.9531,126.7813 Q303.25,127.0625 303.25,127.7188 L303.25,129.2813 Q303.25,129.9375 302.9688,130.2188 Q302.6875,130.5 302.25,130.5 Q301.8594,130.5 301.6094,130.3281 Q301.3594,130.1563 301.25,129.7031 Q301.2031,129.3906 301.0313,129.2188 Q300.7188,128.8906 300.1563,128.7031 Q299.5938,128.5 299.0313,128.5 Q298.3281,128.5 297.7344,128.7813 Q297.1563,129.0625 296.7031,129.6875 Q296.25,130.3125 296.25,131.1719 L296.25,132.0938 Q296.25,133.125 297.0938,133.8125 Q297.9375,134.5 299.4375,134.5 Q300.3281,134.5 300.9531,134.2969 Q301.3125,134.1875 301.7188,133.8281 Q301.9844,133.625 302.125,133.5625 Q302.2656,133.5 302.4375,133.5 Q302.7656,133.5 303,133.7656 Q303.25,134.0156 303.25,134.375 Q303.25,134.7188 302.9063,135.125 Q302.4063,135.7188 301.6094,136.0469 Q300.5625,136.5 299.2813,136.5 Q297.7813,136.5 296.5781,135.9063 Q295.6094,135.4375 294.9219,134.4219 Q294.25,133.4063 294.25,132.2031 L294.25,131.1094 Q294.25,129.8594 294.8438,128.7656 Q295.4531,127.6719 296.5,127.0938 Q297.5625,126.5 298.75,126.5 Q299.4688,126.5 300.0938,126.75 Q300.7188,127 301.25,127.5 Z " fill="#000000"/><text fill="#000000" font-family="sans-serif" font-size="12" lengthAdjust="spacing" textLength="155" x="319.75" y="135.9102">EspecificarServicoController</text><line style="stroke:#A80036;stroke-width:1.5;" x1="222.5" x2="539.5" y1="147" y2="147"/><rect fill="none" height="6" style="stroke:#C82930;stroke-width:1.0;" width="6" x="229.5" y="155"/><text fill="#000000" font-family="sans-serif" font-size="11" lengthAdjust="spacing" textLength="76" x="241.5" y="162.4189">Servico servico</text><line style="stroke:#A80036;stroke-width:1.5;" x1="222.5" x2="539.5" y1="168.8359" y2="168.8359"/><ellipse cx="232.5" cy="179.8359" fill="#84BE84" rx="3" ry="3" style="stroke:#038048;stroke-width:1.0;"/><text fill="#000000" font-family="sans-serif" font-size="11" lengthAdjust="spacing" textLength="69" x="241.5" y="184.2549">novoServico()</text><ellipse cx="232.5" cy="193.6719" fill="#84BE84" rx="3" ry="3" style="stroke:#038048;stroke-width:1.0;"/><text fill="#000000" font-family="sans-serif" font-size="11" lengthAdjust="spacing" textLength="119" x="241.5" y="198.0908">definirDado(index, dado)</text><ellipse cx="232.5" cy="207.5078" fill="#84BE84" rx="3" ry="3" style="stroke:#038048;stroke-width:1.0;"/><text fill="#000000" font-family="sans-serif" font-size="11" lengthAdjust="spacing" textLength="195" x="241.5" y="211.9268">definirCodigoENome(codigoUnico, nome)</text><ellipse cx="232.5" cy="221.3438" fill="#84BE84" rx="3" ry="3" style="stroke:#038048;stroke-width:1.0;"/><text fill="#000000" font-family="sans-serif" font-size="11" lengthAdjust="spacing" textLength="293" x="241.5" y="225.7627">adicionarAtributo(nome, label, descricao, expressaoRegular)</text><ellipse cx="232.5" cy="235.1797" fill="#84BE84" rx="3" ry="3" style="stroke:#038048;stroke-width:1.0;"/><text fill="#000000" font-family="sans-serif" font-size="11" lengthAdjust="spacing" textLength="83" x="241.5" y="239.5986">publicarServico()</text><ellipse cx="232.5" cy="249.0156" fill="#84BE84" rx="3" ry="3" style="stroke:#038048;stroke-width:1.0;"/><text fill="#000000" font-family="sans-serif" font-size="11" lengthAdjust="spacing" textLength="82" x="241.5" y="253.4346">registarServico()</text><!--MD5=[e8c189551b7885b999ad7cefb30fc2a3]
class PersistenceContext--><rect codeLine="15" fill="#FEFECE" filter="url(#f1tdg95m5c9opo)" height="61.8359" id="PersistenceContext" style="stroke:#A80036;stroke-width:1.5;" width="139" x="167.5" y="396"/><ellipse cx="182.5" cy="412" fill="#ADD1B2" rx="11" ry="11" style="stroke:#A80036;stroke-width:1.0;"/><path d="M184.5,408.5 Q184.7031,408 184.9375,407.75 Q185.1719,407.5 185.4375,407.5 Q185.9063,407.5 186.2031,407.7813 Q186.5,408.0625 186.5,408.7188 L186.5,410.2813 Q186.5,410.9375 186.2188,411.2188 Q185.9375,411.5 185.5,411.5 Q185.1094,411.5 184.8594,411.3281 Q184.6094,411.1563 184.5,410.7031 Q184.4531,410.3906 184.2813,410.2188 Q183.9688,409.8906 183.4063,409.7031 Q182.8438,409.5 182.2813,409.5 Q181.5781,409.5 180.9844,409.7813 Q180.4063,410.0625 179.9531,410.6875 Q179.5,411.3125 179.5,412.1719 L179.5,413.0938 Q179.5,414.125 180.3438,414.8125 Q181.1875,415.5 182.6875,415.5 Q183.5781,415.5 184.2031,415.2969 Q184.5625,415.1875 184.9688,414.8281 Q185.2344,414.625 185.375,414.5625 Q185.5156,414.5 185.6875,414.5 Q186.0156,414.5 186.25,414.7656 Q186.5,415.0156 186.5,415.375 Q186.5,415.7188 186.1563,416.125 Q185.6563,416.7188 184.8594,417.0469 Q183.8125,417.5 182.5313,417.5 Q181.0313,417.5 179.8281,416.9063 Q178.8594,416.4375 178.1719,415.4219 Q177.5,414.4063 177.5,413.2031 L177.5,412.1094 Q177.5,410.8594 178.0938,409.7656 Q178.7031,408.6719 179.75,408.0938 Q180.8125,407.5 182,407.5 Q182.7188,407.5 183.3438,407.75 Q183.9688,408 184.5,408.5 Z " fill="#000000"/><text fill="#000000" font-family="sans-serif" font-size="12" lengthAdjust="spacing" textLength="107" x="196.5" y="416.9102">PersistenceContext</text><line style="stroke:#A80036;stroke-width:1.5;" x1="168.5" x2="305.5" y1="428" y2="428"/><line style="stroke:#A80036;stroke-width:1.5;" x1="168.5" x2="305.5" y1="436" y2="436"/><ellipse cx="178.5" cy="447" fill="#84BE84" rx="3" ry="3" style="stroke:#038048;stroke-width:1.0;"/><text fill="#000000" font-family="sans-serif" font-size="11" lengthAdjust="spacing" textLength="65" x="187.5" y="451.4189">repositories()</text><!--MD5=[48590afff58a68e2fcba47824d6f8a11]
class RepositoryFactory--><rect codeLine="19" fill="#FEFECE" filter="url(#f1tdg95m5c9opo)" height="75.6719" id="RepositoryFactory" style="stroke:#A80036;stroke-width:1.5;" width="150" x="7" y="621.5"/><ellipse cx="31" cy="637.5" fill="#ADD1B2" rx="11" ry="11" style="stroke:#A80036;stroke-width:1.0;"/><path d="M33,634 Q33.2031,633.5 33.4375,633.25 Q33.6719,633 33.9375,633 Q34.4063,633 34.7031,633.2813 Q35,633.5625 35,634.2188 L35,635.7813 Q35,636.4375 34.7188,636.7188 Q34.4375,637 34,637 Q33.6094,637 33.3594,636.8281 Q33.1094,636.6563 33,636.2031 Q32.9531,635.8906 32.7813,635.7188 Q32.4688,635.3906 31.9063,635.2031 Q31.3438,635 30.7813,635 Q30.0781,635 29.4844,635.2813 Q28.9063,635.5625 28.4531,636.1875 Q28,636.8125 28,637.6719 L28,638.5938 Q28,639.625 28.8438,640.3125 Q29.6875,641 31.1875,641 Q32.0781,641 32.7031,640.7969 Q33.0625,640.6875 33.4688,640.3281 Q33.7344,640.125 33.875,640.0625 Q34.0156,640 34.1875,640 Q34.5156,640 34.75,640.2656 Q35,640.5156 35,640.875 Q35,641.2188 34.6563,641.625 Q34.1563,642.2188 33.3594,642.5469 Q32.3125,643 31.0313,643 Q29.5313,643 28.3281,642.4063 Q27.3594,641.9375 26.6719,640.9219 Q26,639.9063 26,638.7031 L26,637.6094 Q26,636.3594 26.5938,635.2656 Q27.2031,634.1719 28.25,633.5938 Q29.3125,633 30.5,633 Q31.2188,633 31.8438,633.25 Q32.4688,633.5 33,634 Z " fill="#000000"/><text fill="#000000" font-family="sans-serif" font-size="12" lengthAdjust="spacing" textLength="98" x="47" y="642.4102">RepositoryFactory</text><line style="stroke:#A80036;stroke-width:1.5;" x1="8" x2="156" y1="653.5" y2="653.5"/><line style="stroke:#A80036;stroke-width:1.5;" x1="8" x2="156" y1="661.5" y2="661.5"/><ellipse cx="18" cy="672.5" fill="#84BE84" rx="3" ry="3" style="stroke:#038048;stroke-width:1.0;"/><text fill="#000000" font-family="sans-serif" font-size="11" lengthAdjust="spacing" textLength="124" x="27" y="676.9189">newTransactionContext()</text><ellipse cx="18" cy="686.3359" fill="#84BE84" rx="3" ry="3" style="stroke:#038048;stroke-width:1.0;"/><text fill="#000000" font-family="sans-serif" font-size="11" lengthAdjust="spacing" textLength="39" x="27" y="690.7549">create()</text><!--MD5=[faf4d635eea35b16677487bac6ad9bf5]
class Servico--><rect codeLine="24" fill="#FEFECE" filter="url(#f1tdg95m5c9opo)" height="214.0313" id="Servico" style="stroke:#A80036;stroke-width:1.5;" width="369" x="341.5" y="320"/><ellipse cx="501.75" cy="336" fill="#ADD1B2" rx="11" ry="11" style="stroke:#A80036;stroke-width:1.0;"/><path d="M503.75,332.5 Q503.9531,332 504.1875,331.75 Q504.4219,331.5 504.6875,331.5 Q505.1563,331.5 505.4531,331.7813 Q505.75,332.0625 505.75,332.7188 L505.75,334.2813 Q505.75,334.9375 505.4688,335.2188 Q505.1875,335.5 504.75,335.5 Q504.3594,335.5 504.1094,335.3281 Q503.8594,335.1563 503.75,334.7031 Q503.7031,334.3906 503.5313,334.2188 Q503.2188,333.8906 502.6563,333.7031 Q502.0938,333.5 501.5313,333.5 Q500.8281,333.5 500.2344,333.7813 Q499.6563,334.0625 499.2031,334.6875 Q498.75,335.3125 498.75,336.1719 L498.75,337.0938 Q498.75,338.125 499.5938,338.8125 Q500.4375,339.5 501.9375,339.5 Q502.8281,339.5 503.4531,339.2969 Q503.8125,339.1875 504.2188,338.8281 Q504.4844,338.625 504.625,338.5625 Q504.7656,338.5 504.9375,338.5 Q505.2656,338.5 505.5,338.7656 Q505.75,339.0156 505.75,339.375 Q505.75,339.7188 505.4063,340.125 Q504.9063,340.7188 504.1094,341.0469 Q503.0625,341.5 501.7813,341.5 Q500.2813,341.5 499.0781,340.9063 Q498.1094,340.4375 497.4219,339.4219 Q496.75,338.4063 496.75,337.2031 L496.75,336.1094 Q496.75,334.8594 497.3438,333.7656 Q497.9531,332.6719 499,332.0938 Q500.0625,331.5 501.25,331.5 Q501.9688,331.5 502.5938,331.75 Q503.2188,332 503.75,332.5 Z " fill="#000000"/><text fill="#000000" font-family="sans-serif" font-size="12" lengthAdjust="spacing" textLength="40" x="522.25" y="340.9102">Servico</text><line style="stroke:#A80036;stroke-width:1.5;" x1="342.5" x2="709.5" y1="352" y2="352"/><rect fill="none" height="6" style="stroke:#C82930;stroke-width:1.0;" width="6" x="349.5" y="360"/><text fill="#000000" font-family="sans-serif" font-size="11" lengthAdjust="spacing" textLength="57" x="361.5" y="367.4189">String nome</text><rect fill="none" height="6" style="stroke:#C82930;stroke-width:1.0;" width="6" x="349.5" y="373.8359"/><text fill="#000000" font-family="sans-serif" font-size="11" lengthAdjust="spacing" textLength="63" x="361.5" y="381.2549">String codigo</text><rect fill="none" height="6" style="stroke:#C82930;stroke-width:1.0;" width="6" x="349.5" y="387.6719"/><text fill="#000000" font-family="sans-serif" font-size="11" lengthAdjust="spacing" textLength="92" x="361.5" y="395.0908">String descSimples</text><rect fill="none" height="6" style="stroke:#C82930;stroke-width:1.0;" width="6" x="349.5" y="401.5078"/><text fill="#000000" font-family="sans-serif" font-size="11" lengthAdjust="spacing" textLength="126" x="361.5" y="408.9268">List&lt;Keyword&gt; keywords</text><rect fill="none" height="6" style="stroke:#C82930;stroke-width:1.0;" width="6" x="349.5" y="415.3438"/><text fill="#000000" font-family="sans-serif" font-size="11" lengthAdjust="spacing" textLength="101" x="361.5" y="422.7627">Formulario formulario</text><line style="stroke:#A80036;stroke-width:1.5;" x1="342.5" x2="709.5" y1="429.1797" y2="429.1797"/><ellipse cx="352.5" cy="440.1797" fill="#84BE84" rx="3" ry="3" style="stroke:#038048;stroke-width:1.0;"/><text fill="#000000" font-family="sans-serif" font-size="11" lengthAdjust="spacing" textLength="91" x="361.5" y="444.5986">definirNome(nome)</text><ellipse cx="352.5" cy="454.0156" fill="#84BE84" rx="3" ry="3" style="stroke:#038048;stroke-width:1.0;"/><text fill="#000000" font-family="sans-serif" font-size="11" lengthAdjust="spacing" textLength="103" x="361.5" y="458.4346">definirCodigo(codigo)</text><ellipse cx="352.5" cy="467.8516" fill="#84BE84" rx="3" ry="3" style="stroke:#038048;stroke-width:1.0;"/><text fill="#000000" font-family="sans-serif" font-size="11" lengthAdjust="spacing" textLength="161" x="361.5" y="472.2705">definirDescSimples(descSimples)</text><ellipse cx="352.5" cy="481.6875" fill="#84BE84" rx="3" ry="3" style="stroke:#038048;stroke-width:1.0;"/><text fill="#000000" font-family="sans-serif" font-size="11" lengthAdjust="spacing" textLength="126" x="361.5" y="486.1064">definirKeyword(keyword)</text><ellipse cx="352.5" cy="495.5234" fill="#84BE84" rx="3" ry="3" style="stroke:#038048;stroke-width:1.0;"/><text fill="#000000" font-family="sans-serif" font-size="11" lengthAdjust="spacing" textLength="245" x="361.5" y="499.9424">definirCodigoENomeFormulario(codigoUnico, nome)</text><ellipse cx="352.5" cy="509.3594" fill="#84BE84" rx="3" ry="3" style="stroke:#038048;stroke-width:1.0;"/><text fill="#000000" font-family="sans-serif" font-size="11" lengthAdjust="spacing" textLength="343" x="361.5" y="513.7783">adicionarAtributoFormulario(nome, label, descricao, expressaoRegular)</text><ellipse cx="352.5" cy="523.1953" fill="#84BE84" rx="3" ry="3" style="stroke:#038048;stroke-width:1.0;"/><text fill="#000000" font-family="sans-serif" font-size="11" lengthAdjust="spacing" textLength="100" x="361.5" y="527.6143">verificarPublicacao()</text><!--MD5=[b0bf159f0e5fa97f6c2306d6985a3d70]
class FormularioSolicitacao--><rect codeLine="39" fill="#FEFECE" filter="url(#f1tdg95m5c9opo)" height="131.0156" id="FormularioSolicitacao" style="stroke:#A80036;stroke-width:1.5;" width="183" x="411.5" y="594"/><ellipse cx="440.45" cy="610" fill="#ADD1B2" rx="11" ry="11" style="stroke:#A80036;stroke-width:1.0;"/><path d="M442.45,606.5 Q442.6531,606 442.8875,605.75 Q443.1219,605.5 443.3875,605.5 Q443.8563,605.5 444.1531,605.7813 Q444.45,606.0625 444.45,606.7188 L444.45,608.2813 Q444.45,608.9375 444.1688,609.2188 Q443.8875,609.5 443.45,609.5 Q443.0594,609.5 442.8094,609.3281 Q442.5594,609.1563 442.45,608.7031 Q442.4031,608.3906 442.2313,608.2188 Q441.9188,607.8906 441.3563,607.7031 Q440.7938,607.5 440.2313,607.5 Q439.5281,607.5 438.9344,607.7813 Q438.3563,608.0625 437.9031,608.6875 Q437.45,609.3125 437.45,610.1719 L437.45,611.0938 Q437.45,612.125 438.2938,612.8125 Q439.1375,613.5 440.6375,613.5 Q441.5281,613.5 442.1531,613.2969 Q442.5125,613.1875 442.9188,612.8281 Q443.1844,612.625 443.325,612.5625 Q443.4656,612.5 443.6375,612.5 Q443.9656,612.5 444.2,612.7656 Q444.45,613.0156 444.45,613.375 Q444.45,613.7188 444.1063,614.125 Q443.6063,614.7188 442.8094,615.0469 Q441.7625,615.5 440.4813,615.5 Q438.9813,615.5 437.7781,614.9063 Q436.8094,614.4375 436.1219,613.4219 Q435.45,612.4063 435.45,611.2031 L435.45,610.1094 Q435.45,608.8594 436.0438,607.7656 Q436.6531,606.6719 437.7,606.0938 Q438.7625,605.5 439.95,605.5 Q440.6688,605.5 441.2938,605.75 Q441.9188,606 442.45,606.5 Z " fill="#000000"/><text fill="#000000" font-family="sans-serif" font-size="12" lengthAdjust="spacing" textLength="120" x="457.55" y="614.9102">FormularioSolicitacao</text><line style="stroke:#A80036;stroke-width:1.5;" x1="412.5" x2="593.5" y1="626" y2="626"/><rect fill="none" height="6" style="stroke:#C82930;stroke-width:1.0;" width="6" x="419.5" y="634"/><text fill="#000000" font-family="sans-serif" font-size="11" lengthAdjust="spacing" textLength="57" x="431.5" y="641.4189">String nome</text><rect fill="none" height="6" style="stroke:#C82930;stroke-width:1.0;" width="6" x="419.5" y="647.8359"/><text fill="#000000" font-family="sans-serif" font-size="11" lengthAdjust="spacing" textLength="90" x="431.5" y="655.2549">String codigoUnico</text><rect fill="none" height="6" style="stroke:#C82930;stroke-width:1.0;" width="6" x="419.5" y="661.6719"/><text fill="#000000" font-family="sans-serif" font-size="11" lengthAdjust="spacing" textLength="112" x="431.5" y="669.0908">List&lt;Atributo&gt; atributos</text><line style="stroke:#A80036;stroke-width:1.5;" x1="412.5" x2="593.5" y1="675.5078" y2="675.5078"/><ellipse cx="422.5" cy="686.5078" fill="#84BE84" rx="3" ry="3" style="stroke:#038048;stroke-width:1.0;"/><text fill="#000000" font-family="sans-serif" font-size="11" lengthAdjust="spacing" textLength="157" x="431.5" y="690.9268">definirCodigoUnico(codigoUnico)</text><ellipse cx="422.5" cy="700.3438" fill="#84BE84" rx="3" ry="3" style="stroke:#038048;stroke-width:1.0;"/><text fill="#000000" font-family="sans-serif" font-size="11" lengthAdjust="spacing" textLength="91" x="431.5" y="704.7627">definirNome(nome)</text><ellipse cx="422.5" cy="714.1797" fill="#84BE84" rx="3" ry="3" style="stroke:#038048;stroke-width:1.0;"/><text fill="#000000" font-family="sans-serif" font-size="11" lengthAdjust="spacing" textLength="126" x="431.5" y="718.5986">adicionarAtributo(atributo)</text><!--MD5=[309c0390f5d754f37a04a9368907c71a]
class Atributo--><rect codeLine="48" fill="#FEFECE" filter="url(#f1tdg95m5c9opo)" height="103.3438" id="Atributo" style="stroke:#A80036;stroke-width:1.5;" width="146" x="430" y="785"/><ellipse cx="478.25" cy="801" fill="#ADD1B2" rx="11" ry="11" style="stroke:#A80036;stroke-width:1.0;"/><path d="M480.25,797.5 Q480.4531,797 480.6875,796.75 Q480.9219,796.5 481.1875,796.5 Q481.6563,796.5 481.9531,796.7813 Q482.25,797.0625 482.25,797.7188 L482.25,799.2813 Q482.25,799.9375 481.9688,800.2188 Q481.6875,800.5 481.25,800.5 Q480.8594,800.5 480.6094,800.3281 Q480.3594,800.1563 480.25,799.7031 Q480.2031,799.3906 480.0313,799.2188 Q479.7188,798.8906 479.1563,798.7031 Q478.5938,798.5 478.0313,798.5 Q477.3281,798.5 476.7344,798.7813 Q476.1563,799.0625 475.7031,799.6875 Q475.25,800.3125 475.25,801.1719 L475.25,802.0938 Q475.25,803.125 476.0938,803.8125 Q476.9375,804.5 478.4375,804.5 Q479.3281,804.5 479.9531,804.2969 Q480.3125,804.1875 480.7188,803.8281 Q480.9844,803.625 481.125,803.5625 Q481.2656,803.5 481.4375,803.5 Q481.7656,803.5 482,803.7656 Q482.25,804.0156 482.25,804.375 Q482.25,804.7188 481.9063,805.125 Q481.4063,805.7188 480.6094,806.0469 Q479.5625,806.5 478.2813,806.5 Q476.7813,806.5 475.5781,805.9063 Q474.6094,805.4375 473.9219,804.4219 Q473.25,803.4063 473.25,802.2031 L473.25,801.1094 Q473.25,799.8594 473.8438,798.7656 Q474.4531,797.6719 475.5,797.0938 Q476.5625,796.5 477.75,796.5 Q478.4688,796.5 479.0938,796.75 Q479.7188,797 480.25,797.5 Z " fill="#000000"/><text fill="#000000" font-family="sans-serif" font-size="12" lengthAdjust="spacing" textLength="41" x="498.75" y="805.9102">Atributo</text><line style="stroke:#A80036;stroke-width:1.5;" x1="431" x2="575" y1="817" y2="817"/><rect fill="none" height="6" style="stroke:#C82930;stroke-width:1.0;" width="6" x="438" y="825"/><text fill="#000000" font-family="sans-serif" font-size="11" lengthAdjust="spacing" textLength="57" x="450" y="832.4189">String nome</text><rect fill="none" height="6" style="stroke:#C82930;stroke-width:1.0;" width="6" x="438" y="838.8359"/><text fill="#000000" font-family="sans-serif" font-size="11" lengthAdjust="spacing" textLength="53" x="450" y="846.2549">String label</text><rect fill="none" height="6" style="stroke:#C82930;stroke-width:1.0;" width="6" x="438" y="852.6719"/><text fill="#000000" font-family="sans-serif" font-size="11" lengthAdjust="spacing" textLength="79" x="450" y="860.0908">String descricao</text><rect fill="none" height="6" style="stroke:#C82930;stroke-width:1.0;" width="6" x="438" y="866.5078"/><text fill="#000000" font-family="sans-serif" font-size="11" lengthAdjust="spacing" textLength="120" x="450" y="873.9268">regex expressaoRegular</text><line style="stroke:#A80036;stroke-width:1.5;" x1="431" x2="575" y1="880.3438" y2="880.3438"/><!--MD5=[1ac27345a8a52a4a812e38456e107300]
class Keyword--><rect codeLine="55" fill="#FEFECE" filter="url(#f1tdg95m5c9opo)" height="61.8359" id="Keyword" style="stroke:#A80036;stroke-width:1.5;" width="100" x="630" y="628.5"/><ellipse cx="654.45" cy="644.5" fill="#ADD1B2" rx="11" ry="11" style="stroke:#A80036;stroke-width:1.0;"/><path d="M656.45,641 Q656.6531,640.5 656.8875,640.25 Q657.1219,640 657.3875,640 Q657.8563,640 658.1531,640.2813 Q658.45,640.5625 658.45,641.2188 L658.45,642.7813 Q658.45,643.4375 658.1688,643.7188 Q657.8875,644 657.45,644 Q657.0594,644 656.8094,643.8281 Q656.5594,643.6563 656.45,643.2031 Q656.4031,642.8906 656.2313,642.7188 Q655.9188,642.3906 655.3563,642.2031 Q654.7938,642 654.2313,642 Q653.5281,642 652.9344,642.2813 Q652.3563,642.5625 651.9031,643.1875 Q651.45,643.8125 651.45,644.6719 L651.45,645.5938 Q651.45,646.625 652.2938,647.3125 Q653.1375,648 654.6375,648 Q655.5281,648 656.1531,647.7969 Q656.5125,647.6875 656.9188,647.3281 Q657.1844,647.125 657.325,647.0625 Q657.4656,647 657.6375,647 Q657.9656,647 658.2,647.2656 Q658.45,647.5156 658.45,647.875 Q658.45,648.2188 658.1063,648.625 Q657.6063,649.2188 656.8094,649.5469 Q655.7625,650 654.4813,650 Q652.9813,650 651.7781,649.4063 Q650.8094,648.9375 650.1219,647.9219 Q649.45,646.9063 649.45,645.7031 L649.45,644.6094 Q649.45,643.3594 650.0438,642.2656 Q650.6531,641.1719 651.7,640.5938 Q652.7625,640 653.95,640 Q654.6688,640 655.2938,640.25 Q655.9188,640.5 656.45,641 Z " fill="#000000"/><text fill="#000000" font-family="sans-serif" font-size="12" lengthAdjust="spacing" textLength="47" x="670.55" y="649.4102">Keyword</text><line style="stroke:#A80036;stroke-width:1.5;" x1="631" x2="729" y1="660.5" y2="660.5"/><rect fill="none" height="6" style="stroke:#C82930;stroke-width:1.0;" width="6" x="638" y="668.5"/><text fill="#000000" font-family="sans-serif" font-size="11" lengthAdjust="spacing" textLength="74" x="650" y="675.9189">String keyword</text><line style="stroke:#A80036;stroke-width:1.5;" x1="631" x2="729" y1="682.3359" y2="682.3359"/><!--MD5=[2dee36f97fa9125c337eb2bc97d3c523]
class TransactionContext--><rect codeLine="59" fill="#FEFECE" filter="url(#f1tdg95m5c9opo)" height="75.6719" id="TransactionContext" style="stroke:#A80036;stroke-width:1.5;" width="138" x="192" y="621.5"/><ellipse cx="207" cy="637.5" fill="#ADD1B2" rx="11" ry="11" style="stroke:#A80036;stroke-width:1.0;"/><path d="M209,634 Q209.2031,633.5 209.4375,633.25 Q209.6719,633 209.9375,633 Q210.4063,633 210.7031,633.2813 Q211,633.5625 211,634.2188 L211,635.7813 Q211,636.4375 210.7188,636.7188 Q210.4375,637 210,637 Q209.6094,637 209.3594,636.8281 Q209.1094,636.6563 209,636.2031 Q208.9531,635.8906 208.7813,635.7188 Q208.4688,635.3906 207.9063,635.2031 Q207.3438,635 206.7813,635 Q206.0781,635 205.4844,635.2813 Q204.9063,635.5625 204.4531,636.1875 Q204,636.8125 204,637.6719 L204,638.5938 Q204,639.625 204.8438,640.3125 Q205.6875,641 207.1875,641 Q208.0781,641 208.7031,640.7969 Q209.0625,640.6875 209.4688,640.3281 Q209.7344,640.125 209.875,640.0625 Q210.0156,640 210.1875,640 Q210.5156,640 210.75,640.2656 Q211,640.5156 211,640.875 Q211,641.2188 210.6563,641.625 Q210.1563,642.2188 209.3594,642.5469 Q208.3125,643 207.0313,643 Q205.5313,643 204.3281,642.4063 Q203.3594,641.9375 202.6719,640.9219 Q202,639.9063 202,638.7031 L202,637.6094 Q202,636.3594 202.5938,635.2656 Q203.2031,634.1719 204.25,633.5938 Q205.3125,633 206.5,633 Q207.2188,633 207.8438,633.25 Q208.4688,633.5 209,634 Z " fill="#000000"/><text fill="#000000" font-family="sans-serif" font-size="12" lengthAdjust="spacing" textLength="106" x="221" y="642.4102">TransactionContext</text><line style="stroke:#A80036;stroke-width:1.5;" x1="193" x2="329" y1="653.5" y2="653.5"/><line style="stroke:#A80036;stroke-width:1.5;" x1="193" x2="329" y1="661.5" y2="661.5"/><ellipse cx="203" cy="672.5" fill="#84BE84" rx="3" ry="3" style="stroke:#038048;stroke-width:1.0;"/><text fill="#000000" font-family="sans-serif" font-size="11" lengthAdjust="spacing" textLength="91" x="212" y="676.9189">beginTransaction()</text><ellipse cx="203" cy="686.3359" fill="#84BE84" rx="3" ry="3" style="stroke:#038048;stroke-width:1.0;"/><text fill="#000000" font-family="sans-serif" font-size="11" lengthAdjust="spacing" textLength="41" x="212" y="690.7549">commit()</text><!--MD5=[efe504891857edf9ba4f5cd907237d6b]
link EspecificarServicoUI to EspecificarServicoController--><path codeLine="64" d="M381,55.13 C381,69.87 381,89.91 381,109.88 " fill="none" id="EspecificarServicoUI-to-EspecificarServicoController" style="stroke:#A80036;stroke-width:1.0;stroke-dasharray:7.0,7.0;"/><polygon fill="#A80036" points="381,114.95,385,105.95,381,109.95,377,105.95,381,114.95" style="stroke:#A80036;stroke-width:1.0;"/><!--MD5=[f445eaf63a95a027fd666edc240d9caa]
link EspecificarServicoController to PersistenceContext--><path codeLine="66" d="M337.6,260.08 C311.29,303.48 278.89,356.91 258.09,391.21 " fill="none" id="EspecificarServicoController-to-PersistenceContext" style="stroke:#A80036;stroke-width:1.0;stroke-dasharray:7.0,7.0;"/><polygon fill="#A80036" points="255.36,395.71,263.4426,390.0822,257.9493,391.4327,256.5989,385.9394,255.36,395.71" style="stroke:#A80036;stroke-width:1.0;"/><!--MD5=[3b4e9fec8f9a906b2809fbf725460666]
link EspecificarServicoController to Servico--><path codeLine="67" d="M424.7,260.08 C435.4,277.6 447.1,296.76 458.62,315.64 " fill="none" id="EspecificarServicoController-to-Servico" style="stroke:#A80036;stroke-width:1.0;stroke-dasharray:7.0,7.0;"/><polygon fill="#A80036" points="461.23,319.91,459.9673,310.1424,458.6303,315.639,453.1337,314.302,461.23,319.91" style="stroke:#A80036;stroke-width:1.0;"/><!--MD5=[f8e489dee17fe5779e2625e0464f8d47]
link Servico to FormularioSolicitacao--><path codeLine="69" d="M515.41,534.14 C513.57,552.56 511.7,571.29 509.99,588.43 " fill="none" id="Servico-to-FormularioSolicitacao" style="stroke:#A80036;stroke-width:1.0;stroke-dasharray:7.0,7.0;"/><polygon fill="#A80036" points="509.47,593.7,514.3506,585.1455,509.9703,588.7251,506.3907,584.3449,509.47,593.7" style="stroke:#A80036;stroke-width:1.0;"/><!--MD5=[d1916e0386bcc375e00c2fbf9a421d94]
link Servico to Keyword--><path codeLine="70" d="M596.91,534.14 C618.61,566.62 640.96,600.07 657.01,624.09 " fill="none" id="Servico-to-Keyword" style="stroke:#A80036;stroke-width:1.0;stroke-dasharray:7.0,7.0;"/><polygon fill="#A80036" points="659.93,628.46,658.2428,618.7567,657.1466,624.3063,651.597,623.2101,659.93,628.46" style="stroke:#A80036;stroke-width:1.0;"/><!--MD5=[87674f10e8f5544a4b90632131c32ca8]
link FormularioSolicitacao to Atributo--><path codeLine="72" d="M503,725.17 C503,742.99 503,762.17 503,779.47 " fill="none" id="FormularioSolicitacao-to-Atributo" style="stroke:#A80036;stroke-width:1.0;stroke-dasharray:7.0,7.0;"/><polygon fill="#A80036" points="503,784.77,507,775.77,503,779.77,499,775.77,503,784.77" style="stroke:#A80036;stroke-width:1.0;"/><!--MD5=[754b775031405e096442b27febffa290]
link PersistenceContext to RepositoryFactory--><path codeLine="74" d="M216.74,458.13 C189.39,498.8 140.56,571.41 109.8,617.16 " fill="none" id="PersistenceContext-to-RepositoryFactory" style="stroke:#A80036;stroke-width:1.0;stroke-dasharray:7.0,7.0;"/><polygon fill="#A80036" points="106.88,621.5,115.2337,616.2832,109.6798,617.3574,108.6056,611.8035,106.88,621.5" style="stroke:#A80036;stroke-width:1.0;"/><!--MD5=[4c6877a23713a8ec46ce494b840b62da]
link PersistenceContext to TransactionContext--><path codeLine="75" d="M240.14,458.13 C244.35,498.55 251.84,570.54 256.61,616.32 " fill="none" id="PersistenceContext-to-TransactionContext" style="stroke:#A80036;stroke-width:1.0;stroke-dasharray:7.0,7.0;"/><polygon fill="#A80036" points="257.15,621.5,260.176,612.1275,256.6214,616.528,252.2209,612.9733,257.15,621.5" style="stroke:#A80036;stroke-width:1.0;"/><!--MD5=[7dbeeca90cbc636c05b5387de74c56cf]
@startuml

class EspecificarServicoUI {
}

class EspecificarServicoController {
    -Servico servico
    +novoServico()
    +definirDado(index, dado)
    +definirCodigoENome(codigoUnico, nome)
    +adicionarAtributo(nome, label, descricao, expressaoRegular)
    +publicarServico()
    +registarServico()
}

class PersistenceContext{
    +repositories()
}

class RepositoryFactory{
    +newTransactionContext()
    +create()
}

class Servico {
    -String nome
    -String codigo
    -String descSimples
    -List<Keyword> keywords
    -Formulario formulario
    +definirNome(nome)
    +definirCodigo(codigo)
    +definirDescSimples(descSimples)
    +definirKeyword(keyword)
    +definirCodigoENomeFormulario(codigoUnico, nome)
    +adicionarAtributoFormulario(nome, label, descricao, expressaoRegular)
    +verificarPublicacao()
}

class FormularioSolicitacao {
    -String nome
    -String codigoUnico
    -List<Atributo> atributos
    +definirCodigoUnico(codigoUnico)
    +definirNome(nome)
    +adicionarAtributo(atributo)
}

class Atributo {
    -String nome
    -String label
    -String descricao
    -regex expressaoRegular
}

class Keyword {
    -String keyword
}

class TransactionContext {
    +beginTransaction()
    +commit()
}

EspecificarServicoUI ..> EspecificarServicoController

EspecificarServicoController ..> PersistenceContext
EspecificarServicoController ..> Servico

Servico ..> FormularioSolicitacao
Servico ..> Keyword

FormularioSolicitacao ..> Atributo

PersistenceContext ..> RepositoryFactory
PersistenceContext ..> TransactionContext

@enduml

PlantUML version 1.2021.5(Sun Apr 25 12:20:28 BST 2021)
(GPL source distribution)
Java Runtime: OpenJDK Runtime Environment
JVM: Dynamic Code Evolution 64-Bit Server VM
Default Encoding: Cp1252
Language: pt
Country: PT
--></g></svg>